# https://github.com/mikedh/trimesh
v 0.02228893 0.00021354 -0.06565932
v 0.02228893 0.05236032 -0.06565932
v 0.02570919 0.00021354 -0.06565932
v 0.02228893 0.00021354 -0.00358848
v 0.02570919 0.05119701 -0.06565932
v 0.02228893 0.05399571 -0.05787506
v 0.02570919 0.00021354 -0.00950966
v 0.02338739 0.00021354 -0.00193542
v 0.02570919 0.00042147 0.00329473
v 0.02570919 0.01243676 0.00355217
v 0.02570919 0.03789477 0.00319311
v 0.02228893 0.00035403 -0.00359525
v 0.02570919 0.05487802 -0.04813288
v 0.02228893 0.05508034 -0.05268555
v 0.02345000 0.00021354 -0.00188123
v 0.02570919 0.05761490 -0.01548505
v 0.02228893 0.05319206 -0.01635900
v 0.02228893 0.05310215 -0.01631158
v 0.02228893 0.02992580 -0.00509926
v 0.02228893 0.02990894 -0.00509249
v 0.02570919 0.05496232 -0.04771284
v 0.02228893 0.05477125 -0.02211082
v 0.02570919 0.05762614 -0.01551892
v 0.02228893 0.05366413 -0.01806626
f 1 2 5
f 1 5 3
f 1 3 7
f 1 7 15
f 1 15 8
f 1 8 4
f 1 4 12
f 1 12 20
f 1 20 19
f 1 19 18
f 1 18 17
f 1 17 24
f 1 24 22
f 1 22 14
f 1 14 6
f 1 6 2
f 2 6 5
f 3 5 13
f 3 13 21
f 3 21 23
f 3 23 16
f 3 16 11
f 3 11 10
f 3 10 9
f 3 9 7
f 4 8 9
f 4 9 10
f 4 10 11
f 4 11 12
f 5 6 13
f 6 14 13
f 7 9 15
f 8 15 9
f 11 16 17
f 11 17 18
f 11 18 19
f 11 19 20
f 11 20 12
f 13 14 21
f 14 22 23
f 14 23 21
f 16 23 17
f 17 23 24
f 22 24 23
