# https://github.com/mikedh/trimesh
v -0.06972889 0.05793600 0.00019478
v -0.06972889 0.05793600 0.05478966
v -0.06972889 0.06963822 0.00019478
v -0.01111908 0.05793600 0.00019478
v -0.06972889 0.06963822 0.05505945
v -0.06801099 0.05793600 0.05487599
v -0.06462114 0.06963822 0.05531845
v -0.02213894 0.06963822 0.00019478
v -0.01110184 0.05793600 0.00035125
v -0.06074868 0.05793600 0.05523212
v -0.04054751 0.05793600 0.05117986
v -0.04385692 0.06963822 0.04512036
v -0.02154141 0.06963822 0.01002596
v -0.01103290 0.05793600 0.00103652
v -0.02768909 0.05793600 0.04469409
v -0.03232571 0.06963822 0.03377295
v -0.02154716 0.06963822 0.01010150
v -0.01303233 0.05793600 0.02181582
v -0.01305531 0.05793600 0.02190215
f 1 2 5
f 1 5 3
f 1 3 8
f 1 8 4
f 1 4 9
f 1 9 14
f 1 14 18
f 1 18 19
f 1 19 15
f 1 15 11
f 1 11 10
f 1 10 6
f 1 6 2
f 2 6 7
f 2 7 5
f 3 5 7
f 3 7 12
f 3 12 16
f 3 16 17
f 3 17 13
f 3 13 8
f 4 8 9
f 6 10 7
f 7 10 11
f 7 11 12
f 8 13 14
f 8 14 9
f 11 15 12
f 12 15 16
f 13 17 14
f 14 17 18
f 15 19 16
f 16 19 17
f 17 19 18
