# https://github.com/mikedh/trimesh
v 0.04755740 -0.02750823 -0.03548622
v 0.05354568 -0.04192420 -0.03548622
v 0.05367264 -0.04076764 -0.04555439
v 0.04785364 -0.02952993 -0.04555439
v 0.04679564 -0.02750823 -0.04555439
v -0.04891095 -0.02750823 -0.03548622
v 0.05176824 -0.07255926 -0.03548622
v 0.05266754 -0.05805223 -0.04555439
v -0.04705945 -0.02750823 -0.04555439
v -0.04940821 -0.02957546 -0.04555439
v -0.05099521 -0.03288121 -0.03548622
v 0.05190578 -0.06457265 -0.04555439
v 0.05245594 -0.06161296 -0.04555439
v 0.05010718 -0.08145654 -0.03548622
v 0.05021298 -0.07365207 -0.04555439
v -0.05431733 -0.05317102 -0.04555439
v -0.05142899 -0.03503040 -0.03548622
v 0.04161145 -0.09995233 -0.03548622
v 0.04021489 -0.09264873 -0.04555439
v -0.05430675 -0.05334405 -0.04555439
v -0.05432791 -0.05353529 -0.04506557
v -0.05441255 -0.05467363 -0.03548622
v 0.04004561 -0.10143673 -0.03548622
v 0.02977244 -0.10252043 -0.04555439
v -0.04626595 -0.08713915 -0.03548622
v -0.05089999 -0.07255016 -0.03548622
v -0.04324008 -0.08800429 -0.04555439
v -0.04338820 -0.09619125 -0.03548622
v -0.05348151 -0.06154922 -0.03548622
v 0.02732846 -0.11345762 -0.03548622
v 0.02332922 -0.11592554 -0.03548622
v 0.01940405 -0.10891336 -0.04555439
v -0.03210993 -0.10223813 -0.04555439
v -0.03209935 -0.10885872 -0.03856501
v -0.03362287 -0.10935959 -0.03548622
v -0.00492993 -0.12013286 -0.03548622
v 0.01774299 -0.11243767 -0.04288558
v 0.01475943 -0.11066186 -0.04555439
v -0.02218590 -0.10630883 -0.04555439
v -0.01396524 -0.10951441 -0.04555439
v -0.00937353 -0.12054266 -0.03548622
v -0.01753070 -0.11735531 -0.03548622
v -0.00616779 -0.11254694 -0.04555439
f 1 2 3
f 1 3 4
f 1 4 5
f 1 5 9
f 1 9 6
f 1 6 11
f 1 11 17
f 1 17 22
f 1 22 29
f 1 29 26
f 1 26 25
f 1 25 28
f 1 28 35
f 1 35 42
f 1 42 41
f 1 41 36
f 1 36 31
f 1 31 30
f 1 30 23
f 1 23 18
f 1 18 14
f 1 14 7
f 1 7 2
f 2 7 3
f 3 7 8
f 3 8 13
f 3 13 12
f 3 12 15
f 3 15 19
f 3 19 24
f 3 24 32
f 3 32 38
f 3 38 43
f 3 43 40
f 3 40 39
f 3 39 33
f 3 33 27
f 3 27 20
f 3 20 16
f 3 16 10
f 3 10 9
f 3 9 5
f 3 5 4
f 6 9 10
f 6 10 11
f 7 12 13
f 7 13 8
f 7 14 15
f 7 15 12
f 10 16 11
f 11 16 17
f 14 18 15
f 15 18 19
f 16 20 21
f 16 21 22
f 16 22 17
f 18 23 19
f 19 23 24
f 20 25 26
f 20 26 21
f 20 27 28
f 20 28 25
f 21 26 29
f 21 29 22
f 23 30 24
f 24 30 31
f 24 31 32
f 27 33 34
f 27 34 28
f 28 34 35
f 31 36 37
f 31 37 32
f 32 37 38
f 33 39 34
f 34 39 40
f 34 40 41
f 34 41 42
f 34 42 35
f 36 41 37
f 37 41 43
f 37 43 38
f 40 43 41
