# https://github.com/mikedh/trimesh
v -0.01954579 0.01738964 -0.26009817
v -0.04475835 -0.03439466 -0.26008863
v -0.05580365 0.00087548 -0.26002183
v -0.03922494 0.01738964 -0.26004091
v 0.00409502 0.01738964 -0.26008863
v 0.05317447 -0.01520007 -0.26008863
v 0.01364393 -0.05373544 -0.26008863
v -0.04155027 -0.03092751 -0.21004901
v -0.05001187 -0.01310447 -0.20843637
v -0.01472289 -0.05354747 -0.26007909
v -0.01948120 -0.04948855 -0.21552626
v -0.05112070 0.01738964 -0.24422939
v -0.05106687 0.01738964 -0.25993596
v -0.05447951 0.00591606 -0.22347497
v 0.02422632 0.01738964 -0.25986916
v 0.05267926 0.01738964 -0.25953518
v 0.05417565 0.00292234 -0.22403797
v 0.04891137 -0.01286080 -0.20399922
v 0.04125718 -0.03195791 -0.21206243
v 0.03923328 -0.03919156 -0.26001229
v 0.02418326 -0.04883411 -0.22858962
v 0.00679714 -0.05241960 -0.21541176
v -0.02875021 -0.03348262 -0.19525850
v -0.03433745 -0.01201142 -0.18308258
v -0.04496289 0.01738964 -0.19059234
v -0.05061473 0.01738964 -0.21000130
v -0.00326851 -0.04368213 -0.19516308
v 0.05279768 0.01738964 -0.25612858
v 0.05017093 0.01738964 -0.21764465
v 0.04952500 0.01738964 -0.20819781
v 0.04514348 0.01738964 -0.19233857
v 0.04366863 0.01738964 -0.18702353
v 0.03337691 0.01738964 -0.17457088
v 0.03005040 -0.02092294 -0.18402726
v 0.02365575 -0.04109918 -0.20088844
v -0.01232221 -0.02631859 -0.18186117
v -0.02985904 0.01738964 -0.16950394
v -0.03678119 0.01738964 -0.17754807
v 0.02803727 0.01738964 -0.16920813
v 0.00909017 0.01738964 -0.16429387
v -0.00621823 0.01738964 -0.16261443
f 1 2 3
f 1 3 4
f 1 4 13
f 1 13 12
f 1 12 26
f 1 26 25
f 1 25 38
f 1 38 37
f 1 37 41
f 1 41 40
f 1 40 39
f 1 39 33
f 1 33 32
f 1 32 31
f 1 31 30
f 1 30 29
f 1 29 28
f 1 28 16
f 1 16 15
f 1 15 5
f 1 5 6
f 1 6 7
f 1 7 2
f 2 8 9
f 2 9 3
f 2 7 10
f 2 10 11
f 2 11 8
f 3 12 13
f 3 13 4
f 3 9 14
f 3 14 12
f 5 15 6
f 6 16 17
f 6 17 18
f 6 18 19
f 6 19 20
f 6 20 7
f 6 15 16
f 7 20 21
f 7 21 22
f 7 22 10
f 8 11 23
f 8 23 24
f 8 24 9
f 9 25 26
f 9 26 14
f 9 24 25
f 10 22 11
f 11 22 27
f 11 27 23
f 12 14 26
f 16 28 17
f 17 28 29
f 17 29 30
f 17 30 31
f 17 31 18
f 18 31 32
f 18 32 33
f 18 33 34
f 18 34 19
f 19 34 35
f 19 35 21
f 19 21 20
f 21 35 22
f 22 35 27
f 23 27 36
f 23 36 24
f 24 36 37
f 24 37 38
f 24 38 25
f 27 35 34
f 27 34 36
f 33 39 34
f 34 39 40
f 34 40 41
f 34 41 36
f 36 41 37
