# https://github.com/mikedh/trimesh
v 0.05557259 0.01880614 0.10501496
v 0.05557259 0.01880614 0.10473937
v 0.05536253 0.01880614 0.12149788
v 0.05664916 0.01532604 0.10473937
v -0.06678868 0.01880614 0.10473937
v -0.06382155 0.01880614 0.12149788
v 0.05713493 0.01296856 0.12149788
v 0.05717432 0.01296856 0.11970326
v 0.05705615 0.01296856 0.10473937
v 0.05717432 0.01296856 0.11925379
v -0.06718255 0.01296856 0.10473937
v -0.06689372 0.01880614 0.10474593
v -0.06990023 0.01880614 0.10681285
v -0.07424589 0.00900320 0.11970326
v -0.06678868 0.01296856 0.12149788
v 0.05549381 -0.01818935 0.11977216
v 0.05691174 -0.01306517 0.11977216
v 0.05767321 -0.00956697 0.11977216
v 0.05843469 -0.00601083 0.11970326
v 0.05864475 -0.00469628 0.11970326
v 0.05935371 0.00000782 0.11970326
v 0.05855285 0.00495093 0.11970326
v 0.05742376 0.01154175 0.11970326
v 0.05918304 -0.00020222 0.10474101
v 0.05902549 -0.00124516 0.10474101
v 0.05865788 -0.00353022 0.10474101
v 0.05735812 -0.00956697 0.10474101
v 0.05655726 -0.01328607 0.10474101
v 0.05599271 -0.01586084 0.10474101
v 0.05534940 -0.01818935 0.10474101
v -0.06836415 -0.01818935 0.10474101
v -0.06907311 -0.01718987 0.10474101
v -0.06911250 -0.01711020 0.10474101
v -0.06915188 -0.01682049 0.10474101
v -0.06894182 -0.01328607 0.10474101
v -0.06870550 -0.00956697 0.10474101
v -0.06727445 0.01296856 0.10474757
v -0.07477105 0.00854329 0.10743293
v -0.07181705 0.01296856 0.10651758
v -0.06791776 0.01880614 0.10531187
v -0.07463976 -0.00087216 0.11970326
v -0.07457412 -0.00850954 0.11970326
v -0.07290675 -0.00956697 0.11977216
v -0.06485873 -0.01818935 0.11977216
v 0.05767321 -0.00956697 0.11970326
v -0.07030722 -0.01818935 0.10724265
v -0.07249975 -0.01328607 0.10726561
v -0.07415399 -0.00956697 0.10728365
v -0.07461350 -0.00852041 0.10728858
v -0.07415399 -0.00956697 0.10728693
f 1 2 5
f 1 5 12
f 1 12 40
f 1 40 13
f 1 13 6
f 1 6 3
f 1 3 4
f 1 4 2
f 2 4 9
f 2 9 11
f 2 11 5
f 3 6 15
f 3 15 7
f 3 7 8
f 3 8 4
f 4 8 10
f 4 10 9
f 5 11 12
f 6 13 14
f 6 14 15
f 7 16 17
f 7 17 18
f 7 18 19
f 7 19 20
f 7 20 21
f 7 21 22
f 7 22 23
f 7 23 8
f 7 15 44
f 7 44 16
f 8 23 10
f 9 10 23
f 9 23 22
f 9 22 21
f 9 21 24
f 9 24 25
f 9 25 26
f 9 26 27
f 9 27 28
f 9 28 29
f 9 29 30
f 9 30 31
f 9 31 11
f 11 31 32
f 11 32 33
f 11 33 34
f 11 34 35
f 11 35 36
f 11 36 12
f 12 36 37
f 12 37 38
f 12 38 39
f 12 39 40
f 13 40 39
f 13 39 38
f 13 38 14
f 14 38 41
f 14 41 15
f 15 41 42
f 15 42 43
f 15 43 44
f 16 44 46
f 16 46 31
f 16 31 30
f 16 30 17
f 17 30 29
f 17 29 28
f 17 28 45
f 17 45 18
f 18 45 19
f 19 26 25
f 19 25 20
f 19 45 26
f 20 25 24
f 20 24 21
f 26 45 27
f 27 45 28
f 31 46 32
f 32 46 33
f 33 46 47
f 33 47 48
f 33 48 49
f 33 49 34
f 34 49 38
f 34 38 35
f 35 38 36
f 36 38 37
f 38 49 42
f 38 42 41
f 42 49 50
f 42 50 47
f 42 47 46
f 42 46 44
f 42 44 43
f 47 50 48
f 48 50 49
