# https://github.com/mikedh/trimesh
v -0.15411350 -0.00713555 0.00002604
v -0.15255408 -0.01806681 0.00975296
v -0.14917226 0.04102461 0.00912628
v -0.14971491 0.04122028 -0.00000064
v -0.14748135 -0.04686899 0.00000149
v -0.13519493 -0.03282010 0.00996862
v -0.13519493 -0.00296132 0.01090490
v -0.13519493 -0.00273957 0.01090170
v -0.13687102 -0.06535299 0.00867789
v -0.13519493 -0.06331806 0.00887539
v -0.13519493 0.06402200 0.00872699
v -0.13519493 0.06616130 0.00065807
v -0.13519493 0.06625261 0.00000149
v -0.13519493 0.03767219 0.00980314
v -0.13519493 -0.06635742 0.00000149
v -0.13519493 -0.06700965 0.00338045
v -0.13519493 -0.06567911 0.00867041
f 1 2 3
f 1 3 4
f 1 4 5
f 1 5 2
f 2 6 7
f 2 7 8
f 2 8 3
f 2 5 9
f 2 9 10
f 2 10 6
f 3 11 12
f 3 12 13
f 3 13 4
f 3 8 14
f 3 14 11
f 4 13 15
f 4 15 5
f 5 15 16
f 5 16 9
f 6 10 17
f 6 17 16
f 6 16 15
f 6 15 13
f 6 13 12
f 6 12 11
f 6 11 14
f 6 14 8
f 6 8 7
f 9 16 17
f 9 17 10
