# https://github.com/mikedh/trimesh
v 0.04237325 0.01716260 0.06187462
v 0.04228729 0.01669422 0.09562737
v 0.04228729 0.03245567 0.09747426
v 0.04281382 0.03308125 0.06481919
v 0.04441849 0.03308125 0.06498994
v 0.04576885 0.03308125 0.06531750
v 0.05954106 0.01669422 0.06677410
v 0.05384950 0.01669422 0.09738714
v 0.05077627 0.01675197 0.09721290
v 0.04520291 0.02497115 0.09743593
v 0.04311111 0.02867010 0.09745335
v 0.04451520 0.03308125 0.09745683
v 0.04668222 0.02400230 0.09743941
v 0.05202634 0.01806087 0.09740108
v 0.05817279 0.01669422 0.09735578
v 0.06329126 0.02244315 0.09731745
v 0.05954106 0.03057892 0.09734532
v 0.05578728 0.03308125 0.09737320
v 0.07535135 0.03308125 0.07395257
v 0.06399330 0.01981250 0.06860008
v 0.06122811 0.01706636 0.06738393
v 0.06212358 0.01669422 0.06825858
v 0.05202634 0.01675197 0.09738365
v 0.04952621 0.02056641 0.09741850
v 0.06013565 0.01675197 0.09730002
v 0.06329126 0.02056641 0.09731396
v 0.07205605 0.03057892 0.09725124
v 0.06459505 0.01669422 0.07296989
v 0.06498189 0.01681934 0.09242494
v 0.07205605 0.03308125 0.09725124
v 0.07887589 0.03308125 0.08003685
v 0.07691303 0.03291603 0.07515131
v 0.07475676 0.03183169 0.07361107
v 0.06653283 0.02228596 0.06981624
v 0.06310142 0.01669422 0.06919248
v 0.06237431 0.01685623 0.09649157
v 0.06204119 0.01806087 0.09722336
v 0.06579497 0.02307034 0.09728957
v 0.06704504 0.02432311 0.09727214
v 0.06829511 0.02556946 0.09725124
v 0.06954875 0.02682223 0.09722336
v 0.07080240 0.02807339 0.09718851
v 0.07393294 0.03245567 0.09719548
v 0.06475265 0.01711929 0.07172585
v 0.06646120 0.01864315 0.07359365
v 0.06398614 0.01697653 0.07018562
v 0.07017916 0.02244315 0.09117393
v 0.07852845 0.03308125 0.09435197
v 0.07771537 0.03274761 0.09533466
v 0.07626472 0.03289999 0.09670066
v 0.07871113 0.03308125 0.09305218
v 0.07481765 0.02789534 0.08929917
v 0.07660500 0.03038002 0.07928764
v 0.07774403 0.03176272 0.07928764
v 0.07812012 0.03264815 0.07815511
v 0.06536515 0.01840414 0.07094180
v 0.07151161 0.02733232 0.07231128
v 0.06903655 0.02479630 0.07105331
v 0.06454133 0.02056641 0.09711882
v 0.06329126 0.01931525 0.09717457
v 0.06579497 0.02181918 0.09705609
v 0.07330611 0.03057892 0.09711185
v 0.07418008 0.02717672 0.09055017
f 1 2 3
f 1 3 4
f 1 4 5
f 1 5 6
f 1 6 7
f 1 7 2
f 2 7 22
f 2 22 35
f 2 35 28
f 2 28 15
f 2 15 8
f 2 8 9
f 2 9 10
f 2 10 11
f 2 11 3
f 3 12 4
f 3 11 13
f 3 13 14
f 3 14 15
f 3 15 16
f 3 16 17
f 3 17 18
f 3 18 12
f 4 12 18
f 4 18 30
f 4 30 48
f 4 48 51
f 4 51 31
f 4 31 19
f 4 19 6
f 4 6 5
f 6 19 7
f 7 20 21
f 7 21 22
f 7 19 20
f 8 14 23
f 8 23 9
f 8 15 14
f 9 23 10
f 10 23 24
f 10 24 13
f 10 13 11
f 13 24 14
f 14 24 23
f 15 25 26
f 15 26 27
f 15 27 16
f 15 28 29
f 15 29 25
f 16 27 30
f 16 30 17
f 17 30 18
f 19 31 32
f 19 32 33
f 19 33 20
f 20 22 21
f 20 33 34
f 20 34 22
f 22 34 35
f 25 36 37
f 25 37 38
f 25 38 26
f 25 29 36
f 26 38 27
f 27 38 39
f 27 39 40
f 27 40 41
f 27 41 42
f 27 42 43
f 27 43 30
f 28 44 45
f 28 45 29
f 28 35 46
f 28 46 44
f 29 45 47
f 29 47 48
f 29 48 49
f 29 49 36
f 30 43 50
f 30 50 48
f 31 51 52
f 31 52 53
f 31 53 54
f 31 54 55
f 31 55 32
f 32 55 56
f 32 56 46
f 32 46 35
f 32 35 57
f 32 57 33
f 33 57 58
f 33 58 34
f 34 58 35
f 35 58 57
f 36 59 60
f 36 60 37
f 36 49 50
f 36 50 61
f 36 61 59
f 37 60 62
f 37 62 42
f 37 42 41
f 37 41 40
f 37 40 39
f 37 39 38
f 42 62 43
f 43 62 50
f 44 56 55
f 44 55 45
f 44 46 56
f 45 55 54
f 45 54 53
f 45 53 52
f 45 52 47
f 47 52 63
f 47 63 51
f 47 51 48
f 48 50 49
f 50 62 61
f 51 63 52
f 59 61 62
f 59 62 60
