# https://github.com/mikedh/trimesh
v -0.13643904 0.08735270 0.00019478
v -0.13605676 0.07975431 0.00019478
v -0.13427640 0.07975431 0.01305606
v -0.13417811 0.08735270 0.01650725
v -0.02702934 0.08735270 0.00019478
v -0.02485578 0.07975431 0.00019478
v -0.13358829 0.07975431 0.01797214
v -0.13091231 0.07975431 0.02297513
v -0.12883706 0.08735270 0.02648012
v -0.02741163 0.08735270 0.01147116
v -0.02508516 0.07975431 0.00345975
v -0.12489407 0.07975431 0.03261282
v -0.12387828 0.08735270 0.03442118
v -0.02807789 0.08735270 0.01416093
v -0.02568589 0.07975431 0.01193463
v -0.12363799 0.07975431 0.03462394
v -0.12167196 0.08735270 0.03793858
v -0.03748208 0.08735270 0.03495499
v -0.03526484 0.07975431 0.03445014
v -0.12221808 0.07975431 0.03688336
v -0.12183580 0.07975431 0.03720613
v -0.12099477 0.08735270 0.03850550
v -0.04032191 0.08735270 0.03776064
v -0.04021268 0.07975431 0.03932071
v -0.12139890 0.07975431 0.03757028
v -0.11623260 0.08735270 0.04246982
v -0.04762899 0.08735270 0.04246982
v -0.04184012 0.07975431 0.04092216
v -0.11551172 0.07975431 0.04246982
v -0.04746516 0.08249612 0.04246982
v -0.04737778 0.07975431 0.04246982
f 1 2 3
f 1 3 4
f 1 4 9
f 1 9 13
f 1 13 17
f 1 17 22
f 1 22 26
f 1 26 27
f 1 27 23
f 1 23 18
f 1 18 14
f 1 14 10
f 1 10 5
f 1 5 6
f 1 6 2
f 2 6 11
f 2 11 15
f 2 15 19
f 2 19 24
f 2 24 28
f 2 28 31
f 2 31 29
f 2 29 25
f 2 25 21
f 2 21 20
f 2 20 16
f 2 16 12
f 2 12 8
f 2 8 7
f 2 7 3
f 3 7 4
f 4 7 8
f 4 8 9
f 5 10 6
f 6 10 11
f 8 12 13
f 8 13 9
f 10 14 15
f 10 15 11
f 12 16 13
f 13 16 17
f 14 18 19
f 14 19 15
f 16 20 17
f 17 20 21
f 17 21 22
f 18 23 19
f 19 23 24
f 21 25 22
f 22 25 26
f 23 27 28
f 23 28 24
f 25 29 26
f 26 29 31
f 26 31 30
f 26 30 27
f 27 30 28
f 28 30 31
