# https://github.com/mikedh/trimesh
v -0.04335424 0.03585422 -0.23445192
v -0.04490283 0.03585422 -0.22400297
v -0.04240540 0.03971753 -0.22502628
v -0.04133123 0.03807744 -0.23445192
v 0.04330403 0.03585422 -0.23445192
v -0.04474171 0.03585422 -0.21289047
v -0.04346166 0.03971753 -0.20986850
v -0.04189517 0.03971753 -0.22682506
v -0.03971998 0.03971753 -0.23445192
v 0.04006363 0.03971753 -0.23445192
v 0.04652652 0.03585422 -0.23017480
v -0.04446421 0.03585422 -0.19419908
v -0.04306780 0.03971753 -0.18374214
v 0.04513011 0.03971753 -0.22348331
v 0.04359942 0.03585422 -0.18797129
v -0.04437470 0.03585422 -0.18828307
v -0.04208315 0.03585422 -0.18040039
v -0.04125962 0.03971753 -0.17752233
v 0.04236413 0.03971753 -0.18373415
v 0.04258791 0.03585422 -0.18430176
v -0.04190412 0.03585422 -0.17978481
v -0.03973789 0.03585422 -0.17632315
v -0.03863687 0.03971753 -0.17334116
v 0.03980404 0.03971753 -0.17450037
v 0.04047539 0.03585422 -0.17666691
v -0.03832357 0.03585422 -0.17406867
v -0.02645404 0.03971753 -0.15919871
v 0.03531045 0.03971753 -0.16906405
v 0.03869407 0.03585422 -0.17450837
v -0.02704484 0.03585422 -0.16098150
v -0.00364594 0.03585422 -0.15448988
v -0.00310886 0.03971753 -0.15278703
v 0.02686930 0.03971753 -0.16056578
v 0.03405725 0.03585422 -0.16908803
v 0.03497925 0.03585422 -0.17002340
v -0.00099633 0.03585422 -0.15477769
v 0.02706623 0.03585422 -0.16206077
f 1 2 3
f 1 3 4
f 1 4 9
f 1 9 10
f 1 10 5
f 1 5 11
f 1 11 15
f 1 15 20
f 1 20 25
f 1 25 29
f 1 29 35
f 1 35 34
f 1 34 37
f 1 37 36
f 1 36 31
f 1 31 30
f 1 30 26
f 1 26 22
f 1 22 21
f 1 21 17
f 1 17 16
f 1 16 12
f 1 12 6
f 1 6 2
f 2 6 7
f 2 7 3
f 3 8 4
f 3 7 13
f 3 13 18
f 3 18 23
f 3 23 27
f 3 27 32
f 3 32 33
f 3 33 28
f 3 28 24
f 3 24 19
f 3 19 14
f 3 14 10
f 3 10 9
f 3 9 8
f 4 8 9
f 5 10 11
f 6 12 7
f 7 12 13
f 10 14 11
f 11 14 15
f 12 16 13
f 13 16 17
f 13 17 18
f 14 19 15
f 15 19 20
f 17 21 18
f 18 21 22
f 18 22 23
f 19 24 25
f 19 25 20
f 22 26 23
f 23 26 27
f 24 28 29
f 24 29 25
f 26 30 27
f 27 30 31
f 27 31 32
f 28 33 34
f 28 34 35
f 28 35 29
f 31 36 32
f 32 36 33
f 33 36 37
f 33 37 34
