# https://github.com/mikedh/trimesh
v 0.04470008 -0.01303088 0.08257171
v 0.04451847 -0.01300469 0.07957077
v 0.04515803 -0.01262938 0.08032883
v 0.04539096 -0.01247518 0.08491543
v 0.04473561 -0.01272830 0.08755820
v 0.04451847 -0.01282722 0.07616298
v 0.04451847 -0.01206787 0.08941162
v 0.04451847 -0.01264975 0.07365930
v 0.04451847 -0.01246937 0.07178154
v 0.04451847 -0.01212024 0.06864847
v 0.06441978 0.01651673 0.07244224
v 0.04577588 -0.01198059 0.08679319
v 0.04642925 -0.01015059 0.09002016
v 0.04644899 -0.00890538 0.09252036
v 0.04451847 -0.01136671 0.09070171
v 0.04451847 -0.01186422 0.06668377
v 0.06468429 0.01648182 0.09244734
v 0.04487773 -0.01085175 0.06484426
v 0.05891050 0.00991245 0.06739315
v 0.06286629 0.01518715 0.06967080
v 0.06399341 0.01669130 0.07052970
v 0.04776759 -0.00654879 0.09384175
v 0.04500406 -0.01031643 0.09181098
v 0.04661678 -0.00742451 0.09398432
v 0.04451847 -0.00613275 0.09534395
v 0.04451847 -0.00939707 0.06205196
v 0.06229187 0.01669130 0.09640106
v 0.05025081 -0.00120718 0.06314733
v 0.05395590 0.00359620 0.06481992
v 0.06147861 0.01369755 0.06858240
v 0.05160691 0.00083520 0.06338031
v 0.05264520 0.00243245 0.06366545
v 0.06309922 0.01669130 0.06919788
v 0.04876245 -0.00373251 0.09486408
v 0.04702933 -0.00571380 0.09470413
v 0.04451847 -0.00433766 0.09649495
v 0.04451847 -0.00060203 0.06187810
v 0.04866968 -0.00261241 0.06187810
v 0.05265705 0.01669130 0.09738167
v 0.06011658 0.01640618 0.09727735
v 0.05260770 0.00369512 0.09616113
v 0.05013040 0.00004385 0.06203110
v 0.06150032 0.01668257 0.06774436
v 0.05953230 0.01669130 0.06678114
v 0.04451847 -0.00278115 0.09715912
v 0.04582720 0.01669130 0.06317862
v 0.04576601 0.01066598 0.06210413
v 0.04576601 0.00926075 0.06187810
v 0.04451847 -0.00069513 0.09739558
v 0.04576798 0.01668839 0.09534048
v 0.04679838 0.00765187 0.06187810
v 0.04959546 0.00314816 0.06188158
v 0.05640162 0.01273455 0.09735385
v 0.05803605 0.01405540 0.09732951
v 0.05077983 0.01669130 0.09719390
v 0.05089432 0.00203678 0.06224669
v 0.05873087 0.01429979 0.06619695
v 0.05382167 0.00678778 0.06366545
v 0.05702736 0.01304876 0.06549452
v 0.05797880 0.01607160 0.06625258
v 0.05464679 0.01669130 0.06548409
v 0.05355124 0.00804463 0.06373499
v 0.05111145 0.00428572 0.06246577
v 0.05452835 0.00929567 0.06420791
f 1 2 3
f 1 3 4
f 1 4 5
f 1 5 2
f 2 6 3
f 2 5 7
f 2 7 15
f 2 15 25
f 2 25 36
f 2 36 45
f 2 45 49
f 2 49 37
f 2 37 26
f 2 26 16
f 2 16 10
f 2 10 9
f 2 9 8
f 2 8 6
f 3 6 8
f 3 8 9
f 3 9 10
f 3 10 11
f 3 11 12
f 3 12 4
f 4 12 5
f 5 12 13
f 5 13 7
f 7 13 14
f 7 14 15
f 10 16 11
f 11 17 12
f 11 16 18
f 11 18 19
f 11 19 20
f 11 20 21
f 11 21 17
f 12 17 13
f 13 17 22
f 13 22 14
f 14 23 15
f 14 22 24
f 14 24 23
f 15 23 25
f 16 26 18
f 17 21 27
f 17 27 22
f 18 26 28
f 18 28 29
f 18 29 19
f 19 30 20
f 19 29 31
f 19 31 32
f 19 32 30
f 20 30 33
f 20 33 21
f 21 33 44
f 21 44 61
f 21 61 46
f 21 46 55
f 21 55 39
f 21 39 27
f 22 27 34
f 22 34 24
f 23 24 25
f 24 34 35
f 24 35 36
f 24 36 25
f 26 37 38
f 26 38 28
f 27 39 40
f 27 40 41
f 27 41 34
f 28 38 31
f 28 31 29
f 30 32 33
f 31 38 32
f 32 38 42
f 32 42 33
f 33 42 43
f 33 43 44
f 34 41 45
f 34 45 36
f 34 36 35
f 37 46 47
f 37 47 48
f 37 48 51
f 37 51 38
f 37 49 50
f 37 50 46
f 38 51 52
f 38 52 42
f 39 49 53
f 39 53 54
f 39 54 40
f 39 55 49
f 40 54 41
f 41 54 45
f 42 52 56
f 42 56 43
f 43 57 44
f 43 56 58
f 43 58 57
f 44 57 59
f 44 59 60
f 44 60 61
f 45 54 49
f 46 61 47
f 46 50 55
f 47 51 48
f 47 61 60
f 47 60 59
f 47 59 62
f 47 62 51
f 49 54 53
f 49 55 50
f 51 62 63
f 51 63 52
f 52 63 56
f 56 63 58
f 57 64 59
f 57 58 63
f 57 63 64
f 59 64 62
f 62 64 63
