# https://github.com/mikedh/trimesh
v 0.02459179 -0.02407156 -0.01658902
v 0.02459179 0.03646496 -0.01654555
v 0.04244154 0.03646496 -0.01890021
v 0.04244154 -0.02407156 -0.01657453
v 0.02459179 -0.02407156 0.05441320
v 0.02459179 0.03646496 0.03939406
v 0.04244154 0.03646496 0.03708286
v 0.04244154 -0.02407156 0.04955172
v 0.02578690 -0.02407156 0.05409442
v 0.02459179 -0.02341381 0.05506526
v 0.02459179 0.02698984 0.05177598
v 0.02459179 0.02616025 0.05285550
v 0.03305889 0.02858384 0.04852292
v 0.04244154 0.03126816 0.04370491
v 0.04244154 -0.01928955 0.05426830
v 0.02459179 0.02241523 0.05511598
v 0.02459179 0.02311446 0.05510874
v 0.02675312 0.02242116 0.05497832
v 0.03217130 0.02242116 0.05335542
v 0.03651841 0.02365962 0.05113116
v 0.04244154 0.02241523 0.05026899
v 0.04244154 0.01734287 0.05402197
f 1 2 3
f 1 3 4
f 1 4 8
f 1 8 9
f 1 9 5
f 1 5 10
f 1 10 16
f 1 16 17
f 1 17 12
f 1 12 11
f 1 11 6
f 1 6 2
f 2 6 7
f 2 7 3
f 3 7 14
f 3 14 21
f 3 21 22
f 3 22 15
f 3 15 8
f 3 8 4
f 5 9 10
f 6 11 7
f 7 11 12
f 7 12 13
f 7 13 14
f 8 15 9
f 9 15 10
f 10 15 16
f 12 17 18
f 12 18 19
f 12 19 13
f 13 19 20
f 13 20 21
f 13 21 14
f 15 22 16
f 16 22 18
f 16 18 17
f 18 22 19
f 19 22 20
f 20 22 21
