# https://github.com/mikedh/trimesh
v 0.06058534 0.03633567 -0.05803663
v 0.06950212 0.02203159 -0.05803663
v 0.06058534 0.02659658 -0.06408822
v 0.06058534 -0.03057392 -0.05803663
v 0.06952606 0.02197919 -0.05803663
v 0.06058534 0.02040076 -0.06642508
v 0.06058534 -0.00839734 -0.07054766
v 0.06354128 -0.02526228 -0.05803663
v 0.06954674 0.02184820 -0.05803663
v 0.06058534 -0.00838424 -0.07054766
v 0.07170275 -0.00007949 -0.05803663
f 1 2 3
f 1 3 6
f 1 6 10
f 1 10 7
f 1 7 4
f 1 4 8
f 1 8 11
f 1 11 9
f 1 9 5
f 1 5 2
f 2 5 3
f 3 5 6
f 4 7 8
f 5 9 6
f 6 9 10
f 7 10 11
f 7 11 8
f 9 11 10
