# https://github.com/mikedh/trimesh
v -0.13519308 -0.06700139 0.00338127
v -0.13412341 -0.06805922 0.00000179
v -0.13519308 -0.06567092 0.00867140
v -0.13519308 -0.06635797 0.00000179
v -0.08136722 -0.06853906 0.00000179
v -0.08136722 -0.07796137 0.00001570
v -0.08136722 -0.07608563 0.00846172
v -0.13519308 -0.06331535 0.00887466
v -0.08136722 -0.05532165 0.01092866
v -0.12281023 -0.04860389 0.01092866
v -0.12293670 -0.04854936 0.01092866
v -0.13519308 -0.03859269 0.00000179
v -0.13519308 0.03344874 0.00000286
v -0.08136722 -0.02257257 0.00000286
v -0.12960235 -0.03751304 0.01092866
v -0.12973409 -0.03725131 0.01092866
v -0.12991851 -0.03629163 0.01092866
v -0.13519308 -0.03282370 0.00996799
v -0.08136722 0.03344874 0.01092866
v -0.13519308 0.03344874 0.00991878
v -0.10489990 0.03344874 0.00001356
v -0.08136722 -0.00237567 0.00000393
v -0.13512985 -0.00292095 0.01092866
v -0.13519308 -0.00297548 0.01090512
v -0.08136722 0.03344874 0.00002318
v -0.13046652 0.03344874 0.01092866
v -0.13519308 -0.00274646 0.01090192
f 1 2 3
f 1 3 8
f 1 8 18
f 1 18 24
f 1 24 27
f 1 27 20
f 1 20 13
f 1 13 12
f 1 12 4
f 1 4 2
f 2 4 12
f 2 12 5
f 2 5 6
f 2 6 7
f 2 7 3
f 3 7 9
f 3 9 10
f 3 10 11
f 3 11 8
f 5 12 13
f 5 13 14
f 5 14 22
f 5 22 25
f 5 25 19
f 5 19 9
f 5 9 7
f 5 7 6
f 8 11 15
f 8 15 16
f 8 16 17
f 8 17 18
f 9 19 26
f 9 26 23
f 9 23 17
f 9 17 16
f 9 16 15
f 9 15 11
f 9 11 10
f 13 20 26
f 13 26 19
f 13 19 25
f 13 25 21
f 13 21 22
f 13 22 14
f 17 23 18
f 18 23 24
f 20 27 23
f 20 23 26
f 21 25 22
f 23 27 24
