# https://github.com/mikedh/trimesh
v -0.02802172 -0.02707421 0.06187462
v -0.03592010 -0.02651586 0.06187462
v -0.02802172 0.00728783 0.06187462
v -0.02802172 0.00728783 0.10055650
v -0.02823299 -0.01465262 0.10055272
v -0.02965261 -0.02706412 0.09862165
v -0.03648507 -0.02707421 0.08554342
v -0.03786948 -0.02388220 0.06187462
v -0.04388410 0.00642340 0.06198822
v -0.04394331 0.00728783 0.06864471
v -0.04276216 0.00728783 0.09717525
v -0.03122589 0.00646712 0.10055650
v -0.03045926 -0.01038763 0.10055650
v -0.03811756 -0.01949949 0.09836418
v -0.03548157 -0.02499554 0.09789087
v -0.03971964 -0.01949949 0.07553217
v -0.04000453 -0.01889405 0.06770568
v -0.03947157 -0.02019575 0.06243880
v -0.03917708 -0.02050183 0.09627787
v -0.04153299 -0.01492170 0.09618321
v -0.03880097 -0.02151426 0.08929953
v -0.04139535 -0.01524797 0.06307113
v -0.04414978 -0.00215366 0.06356714
v -0.04426821 -0.00197539 0.07302558
v -0.04398812 0.00553878 0.06801995
v -0.04399613 0.00703893 0.07333606
v -0.04397692 0.00709947 0.07678547
v -0.04386169 0.00714320 0.08158284
v -0.04338795 0.00728783 0.09368040
v -0.04429862 0.00303630 0.08679672
v -0.04425861 0.00428754 0.08804623
v -0.04422180 0.00397473 0.09399467
v -0.04401053 0.00101144 0.09686855
v -0.04363922 -0.00310891 0.09767884
v -0.03239264 0.00079954 0.10055650
v -0.03144515 -0.00669445 0.10055650
v -0.04030862 -0.01448780 0.09814456
v -0.04080637 -0.01616958 0.09763340
v -0.03864412 -0.02012511 0.09801204
v -0.04138734 -0.01544978 0.08178731
v -0.04255090 -0.01256385 0.08898526
v -0.04176826 -0.01448780 0.07928828
v -0.04335274 -0.00980238 0.09366146
v -0.04379607 -0.00641864 0.09642932
v -0.04384569 -0.00884040 0.07099228
v -0.04388889 -0.00808024 0.06657355
v -0.04324390 -0.01073072 0.08428633
v -0.04422980 -0.00385562 0.06801995
v -0.04430822 -0.00072079 0.07928828
v -0.04433703 0.00053045 0.08428633
v -0.04423460 0.00428754 0.09023856
v -0.04437224 0.00193642 0.09062856
v -0.04434663 0.00053045 0.09117758
v -0.04406335 -0.00322663 0.09430894
v -0.04374485 -0.00875967 0.08774711
v -0.04419619 -0.00447787 0.07052276
v -0.04379447 -0.00900521 0.07678169
v -0.04388730 -0.00823496 0.07615693
v -0.04377206 -0.00894467 0.08178731
v -0.04424901 -0.00322663 0.07240082
v -0.04434663 0.00053045 0.08554342
f 1 2 8
f 1 8 3
f 1 3 4
f 1 4 5
f 1 5 6
f 1 6 7
f 1 7 2
f 2 7 8
f 3 8 9
f 3 9 10
f 3 10 29
f 3 29 11
f 3 11 4
f 4 11 12
f 4 12 35
f 4 35 36
f 4 36 13
f 4 13 5
f 5 13 14
f 5 14 6
f 6 14 15
f 6 15 7
f 7 16 17
f 7 17 18
f 7 18 8
f 7 15 19
f 7 19 20
f 7 20 21
f 7 21 16
f 8 18 9
f 9 18 22
f 9 22 23
f 9 23 24
f 9 24 25
f 9 25 10
f 10 26 27
f 10 27 28
f 10 28 29
f 10 25 30
f 10 30 31
f 10 31 26
f 11 29 32
f 11 32 33
f 11 33 34
f 11 34 12
f 12 34 35
f 13 36 14
f 14 36 37
f 14 37 38
f 14 38 39
f 14 39 15
f 15 39 19
f 16 21 40
f 16 40 17
f 17 22 18
f 17 40 41
f 17 41 42
f 17 42 22
f 19 39 38
f 19 38 20
f 20 43 41
f 20 41 40
f 20 40 21
f 20 38 44
f 20 44 43
f 22 45 46
f 22 46 23
f 22 42 47
f 22 47 45
f 23 46 48
f 23 48 24
f 24 49 50
f 24 50 30
f 24 30 25
f 24 48 49
f 26 31 27
f 27 31 51
f 27 51 32
f 27 32 28
f 28 32 29
f 30 52 31
f 30 50 52
f 31 52 32
f 31 32 51
f 32 52 53
f 32 53 33
f 33 53 54
f 33 54 44
f 33 44 34
f 34 44 38
f 34 38 37
f 34 37 35
f 35 37 36
f 41 43 47
f 41 47 42
f 43 55 47
f 43 44 55
f 44 54 55
f 45 56 46
f 45 47 57
f 45 57 58
f 45 58 56
f 46 56 48
f 47 59 57
f 47 55 59
f 48 56 60
f 48 60 61
f 48 61 49
f 49 61 50
f 50 61 52
f 52 61 53
f 53 61 60
f 53 60 56
f 53 56 54
f 54 56 58
f 54 58 55
f 55 58 59
f 57 59 58
