# https://github.com/mikedh/trimesh
v 0.01688923 0.05300267 -0.07135092
v 0.01765519 0.05274430 -0.07135092
v 0.03093605 0.04678641 -0.12291186
v 0.01689342 0.05152482 -0.09928313
v 0.01688923 0.05147832 -0.09748496
v 0.01688923 0.00021354 -0.07135092
v 0.02233468 0.05114761 -0.07135092
v 0.01689342 0.04927188 -0.12295226
v 0.03599224 0.04619217 -0.07135092
v 0.04988837 0.03206994 -0.07135092
v 0.04990930 0.03042157 -0.07954875
v 0.05004324 0.02168367 -0.12283609
v 0.05501571 0.00021871 -0.12292701
v 0.01688923 0.00021354 -0.09748496
v 0.05964915 0.00021354 -0.07135092
v 0.01689342 0.00546352 -0.12294721
v 0.05802515 0.01916203 -0.07135092
v 0.05513291 0.00021354 -0.09748496
v 0.01689342 0.00021871 -0.12294216
f 1 2 3
f 1 3 4
f 1 4 5
f 1 5 14
f 1 14 6
f 1 6 15
f 1 15 17
f 1 17 10
f 1 10 9
f 1 9 7
f 1 7 2
f 2 7 3
f 3 8 4
f 3 7 9
f 3 9 10
f 3 10 11
f 3 11 12
f 3 12 13
f 3 13 8
f 4 8 5
f 5 8 14
f 6 14 18
f 6 18 15
f 8 13 16
f 8 16 14
f 10 17 12
f 10 12 11
f 12 17 13
f 13 15 18
f 13 18 19
f 13 19 16
f 13 17 15
f 14 16 19
f 14 19 18
