# https://github.com/mikedh/trimesh
v -0.05210519 -0.03073269 0.03109697
v -0.05317862 -0.03799721 0.04199614
v -0.05318925 -0.03044645 0.04199614
v -0.05210519 -0.03044645 0.03109697
v -0.05057475 -0.03881671 0.03109697
v -0.05328490 -0.03881671 0.04324100
v -0.05432644 -0.03881671 0.05380881
v -0.05440084 -0.03029206 0.05428346
v -0.05301920 -0.03881671 0.04199614
v -0.05317862 -0.03029206 0.04199614
v 0.05085910 -0.03044645 0.03109697
v 0.04863784 -0.03881671 0.03109697
v -0.05374190 -0.03881671 0.06040025
v -0.05350809 -0.03029206 0.06395570
v 0.05127359 -0.03029206 0.04199614
v 0.05417504 -0.03029206 0.05156091
v 0.05412190 -0.03881671 0.04891000
v 0.05199630 -0.03881671 0.04199614
v -0.05213707 -0.03881671 0.06735889
v -0.04942693 -0.03029206 0.08479577
v -0.05287041 -0.03029206 0.06983964
v -0.05302983 -0.03029206 0.06912317
v 0.05318664 -0.03029206 0.06849627
v 0.05366490 -0.03881671 0.05674630
v -0.04534576 -0.03881671 0.09048269
v -0.04590905 -0.03029206 0.09678755
v 0.05332480 -0.03881671 0.06251382
v 0.05313350 -0.03029206 0.06915900
v -0.03512161 -0.03881671 0.10513433
v -0.03566364 -0.03275640 0.11030180
v -0.03795929 -0.03029206 0.10887784
v 0.05012576 -0.03029206 0.07985219
v 0.04767069 -0.03881671 0.08253892
v -0.03166750 -0.03881671 0.10730162
v -0.03623755 -0.03029206 0.11095558
v -0.01448199 -0.03881671 0.11507523
v -0.01549165 -0.03029206 0.12138010
v -0.02560953 -0.03029206 0.11680370
v 0.04583204 -0.03029206 0.09505909
v 0.04404654 -0.03029206 0.09913397
v 0.04192093 -0.03881671 0.09565017
v 0.00807068 -0.03881671 0.11820079
v -0.01451387 -0.03029206 0.12181893
v 0.04265427 -0.03029206 0.10225953
v 0.04231417 -0.03433198 0.09913397
v 0.03850934 -0.03881671 0.09913397
v -0.00906169 -0.03029206 0.12257121
v 0.01049387 -0.03881671 0.11802169
v 0.01021754 -0.03029206 0.12123680
v 0.04019919 -0.03029206 0.10477610
v 0.02698856 -0.03082031 0.11782465
v 0.02934798 -0.03881671 0.10848378
v 0.01274701 -0.03881671 0.11760076
v 0.01031319 -0.03029206 0.12121889
v 0.02778566 -0.03029206 0.11745747
v 0.02725426 -0.03029206 0.11781570
v 0.02658470 -0.03029206 0.11809333
v 0.02478856 -0.03881671 0.11100035
f 1 2 3
f 1 3 4
f 1 4 11
f 1 11 12
f 1 12 5
f 1 5 2
f 2 6 7
f 2 7 8
f 2 8 3
f 2 5 9
f 2 9 6
f 3 8 4
f 4 8 10
f 4 10 15
f 4 15 11
f 5 12 18
f 5 18 17
f 5 17 24
f 5 24 27
f 5 27 33
f 5 33 41
f 5 41 46
f 5 46 52
f 5 52 58
f 5 58 53
f 5 53 48
f 5 48 42
f 5 42 36
f 5 36 34
f 5 34 29
f 5 29 25
f 5 25 19
f 5 19 13
f 5 13 7
f 5 7 6
f 5 6 9
f 7 13 8
f 8 13 14
f 8 14 22
f 8 22 21
f 8 21 20
f 8 20 26
f 8 26 31
f 8 31 35
f 8 35 38
f 8 38 37
f 8 37 43
f 8 43 47
f 8 47 49
f 8 49 54
f 8 54 57
f 8 57 56
f 8 56 55
f 8 55 50
f 8 50 44
f 8 44 40
f 8 40 39
f 8 39 32
f 8 32 28
f 8 28 23
f 8 23 16
f 8 16 15
f 8 15 10
f 11 15 16
f 11 16 17
f 11 17 18
f 11 18 12
f 13 19 20
f 13 20 21
f 13 21 22
f 13 22 14
f 16 23 24
f 16 24 17
f 19 25 26
f 19 26 20
f 23 27 24
f 23 28 27
f 25 29 30
f 25 30 26
f 26 30 31
f 27 28 32
f 27 32 33
f 29 34 30
f 30 35 31
f 30 34 36
f 30 36 37
f 30 37 38
f 30 38 35
f 32 39 33
f 33 39 40
f 33 40 41
f 36 42 43
f 36 43 37
f 40 44 45
f 40 45 41
f 41 45 46
f 42 47 43
f 42 48 49
f 42 49 47
f 44 50 45
f 45 50 51
f 45 51 46
f 46 51 52
f 48 53 49
f 49 53 54
f 50 55 51
f 51 56 57
f 51 57 54
f 51 54 53
f 51 53 58
f 51 58 52
f 51 55 56
