# https://github.com/mikedh/trimesh
v 0.00421501 -0.09589391 -0.03996713
v 0.00632220 -0.08603070 -0.02838726
v 0.01297857 -0.09589391 -0.03683510
v -0.00905835 -0.09589391 -0.03936119
v -0.01917092 -0.09245454 -0.03483233
v -0.00305186 -0.08135427 -0.01615424
v -0.00269738 -0.08135427 -0.01624867
v -0.00492273 -0.07700329 -0.00467274
v 0.01240747 -0.07700329 -0.00387793
v 0.02159444 -0.08135427 -0.00734047
v 0.03729009 -0.09202740 -0.02054538
v 0.03180547 -0.09589391 -0.02776165
v -0.01684709 -0.09589391 -0.03748826
v -0.02208554 -0.09589391 -0.03548943
v -0.04207435 -0.09589391 -0.01653984
v -0.04335442 -0.09318310 -0.01262873
v -0.04268484 -0.08441087 0.00022992
v -0.02002758 -0.08135427 -0.01156636
v -0.02001773 -0.08135427 -0.01157029
v -0.01177604 -0.07700329 -0.00476717
v -0.01108677 -0.07700329 -0.00495210
v 0.01519408 -0.07700329 -0.00195778
v 0.03145099 -0.08135427 0.00022992
v 0.03830430 -0.09589391 -0.02246945
v 0.03987977 -0.08411316 0.00022992
v 0.04433048 -0.09589391 -0.01218804
v -0.04415200 -0.09589391 -0.01379341
v -0.04587518 -0.09589391 -0.01054333
v -0.04824823 -0.09169825 0.00022992
v -0.04686970 -0.08934987 0.00022992
v -0.04211374 -0.08422226 0.00022992
v -0.02173106 -0.07700329 -0.00110002
v -0.02085470 -0.07700329 -0.00196565
v -0.02035252 -0.07700329 -0.00244963
v 0.01630676 -0.07700329 -0.00110002
v -0.03338956 -0.08135427 0.00022992
v 0.04989387 -0.09589391 0.00022992
v -0.05070006 -0.09589391 0.00022992
f 1 2 3
f 1 3 12
f 1 12 24
f 1 24 26
f 1 26 37
f 1 37 38
f 1 38 28
f 1 28 27
f 1 27 15
f 1 15 14
f 1 14 13
f 1 13 4
f 1 4 5
f 1 5 2
f 2 6 7
f 2 7 8
f 2 8 9
f 2 9 10
f 2 10 11
f 2 11 12
f 2 12 3
f 2 5 6
f 4 13 5
f 5 13 14
f 5 14 15
f 5 15 16
f 5 16 17
f 5 17 18
f 5 18 19
f 5 19 6
f 6 19 20
f 6 20 21
f 6 21 7
f 7 21 8
f 8 21 20
f 8 20 34
f 8 34 33
f 8 33 32
f 8 32 35
f 8 35 22
f 8 22 9
f 9 22 10
f 10 22 23
f 10 23 11
f 11 24 12
f 11 23 25
f 11 25 26
f 11 26 24
f 15 27 16
f 16 27 28
f 16 28 29
f 16 29 30
f 16 30 17
f 17 31 32
f 17 32 33
f 17 33 34
f 17 34 18
f 17 30 29
f 17 29 38
f 17 38 37
f 17 37 25
f 17 25 23
f 17 23 36
f 17 36 31
f 18 34 19
f 19 34 20
f 22 35 23
f 23 35 32
f 23 32 36
f 25 37 26
f 28 38 29
f 31 36 32
