# https://github.com/mikedh/trimesh
v -0.04929541 0.00164506 -0.01663347
v -0.04703887 0.00316386 0.02784090
v -0.04329244 0.01549690 0.03204958
v -0.03773788 0.02813754 0.02910278
v -0.03296443 0.03596225 -0.01682705
v 0.02459179 -0.04255393 -0.01782366
v -0.03844667 -0.02910582 -0.01664781
v -0.04552005 -0.01377364 0.02749675
v -0.03920608 -0.00102726 0.03954204
v -0.02728692 -0.00065236 0.04904921
v -0.01261218 0.02293710 0.05234733
v -0.02341030 0.02936796 0.04159977
v -0.01889722 0.04196054 0.02974807
v -0.02758345 0.03931706 0.01326466
v -0.00686234 0.04822800 -0.00652403
v -0.00608123 0.04824722 -0.01665498
v 0.02459179 0.04591135 -0.01690592
v 0.02459179 -0.04314030 0.01116391
v 0.00165754 -0.04838881 -0.01666215
v 0.01043779 -0.04614907 -0.01711384
v -0.02204336 -0.04265006 -0.01674819
v -0.03560429 -0.03079765 0.02895939
v -0.03524267 -0.01970465 0.03871751
v -0.00987830 -0.02517425 0.05244053
v -0.00854752 0.01547768 0.05274884
v 0.00099215 0.00151049 0.05370242
v 0.01957967 0.02472505 0.05542318
v -0.00855475 0.02316780 0.05273450
v -0.00855475 0.03442422 0.04256053
v -0.00855475 0.04034562 0.03667411
v -0.00855475 0.04234505 0.03443713
v -0.00346307 0.04863173 0.02181108
v -0.00346307 0.04980447 0.00396541
v -0.00831608 0.04783388 0.00446730
v 0.00099215 0.04981408 -0.00652403
v 0.00099215 0.04918926 -0.01058214
v 0.02459179 0.04591135 0.03078769
v 0.02459179 -0.04310185 0.01719372
v 0.01043779 -0.04622596 0.01729410
v 0.00131761 -0.04753328 0.02064240
v -0.00854752 -0.04511090 0.02444957
v -0.02024970 -0.04194833 0.03030014
v -0.00855475 -0.03273941 0.04505562
v 0.01043779 -0.02502044 0.05458431
v 0.01784387 -0.02495316 0.05536582
v 0.02459179 0.02310051 0.05511487
v 0.02459179 0.02612850 0.05286355
v 0.01043779 0.03113669 0.04829638
v 0.02459179 -0.02339591 0.05505751
v -0.00569791 0.04244118 0.03572769
v 0.00099215 0.04836257 0.02460731
v 0.01019189 0.04726673 0.02858656
v 0.00099215 0.03775981 0.04093298
v 0.02459179 -0.04249625 0.02658618
v -0.00237096 -0.04530315 0.02933222
v -0.00854752 -0.04348636 0.03323260
v 0.00099215 -0.03695936 0.04178619
v 0.00779070 -0.03349881 0.04589449
v -0.00457688 -0.04399583 0.03422203
v 0.02459179 -0.02776005 0.05058355
v 0.02459179 -0.04006425 0.03404996
v 0.01043779 -0.04184260 0.03456618
v 0.00099215 -0.03926640 0.03948468
f 1 2 3
f 1 3 4
f 1 4 5
f 1 5 6
f 1 6 7
f 1 7 8
f 1 8 2
f 2 8 9
f 2 9 3
f 3 9 10
f 3 10 11
f 3 11 12
f 3 12 4
f 4 12 13
f 4 13 14
f 4 14 5
f 5 14 15
f 5 15 16
f 5 16 17
f 5 17 6
f 6 18 19
f 6 19 20
f 6 20 21
f 6 21 7
f 6 17 37
f 6 37 47
f 6 47 46
f 6 46 49
f 6 49 60
f 6 60 61
f 6 61 54
f 6 54 38
f 6 38 18
f 7 21 22
f 7 22 8
f 8 23 9
f 8 22 23
f 9 23 10
f 10 23 24
f 10 24 11
f 11 25 26
f 11 26 27
f 11 27 28
f 11 28 29
f 11 29 30
f 11 30 12
f 11 24 25
f 12 30 13
f 13 30 31
f 13 31 32
f 13 32 33
f 13 33 34
f 13 34 14
f 14 34 15
f 15 34 33
f 15 33 16
f 16 33 35
f 16 35 36
f 16 36 17
f 17 36 35
f 17 35 37
f 18 38 19
f 19 38 39
f 19 39 40
f 19 40 41
f 19 41 21
f 19 21 20
f 21 41 42
f 21 42 22
f 22 24 23
f 22 42 24
f 24 42 43
f 24 43 44
f 24 44 26
f 24 26 25
f 26 44 45
f 26 45 27
f 27 46 47
f 27 47 37
f 27 37 48
f 27 48 29
f 27 29 28
f 27 45 49
f 27 49 46
f 29 48 50
f 29 50 30
f 30 50 31
f 31 50 32
f 32 51 33
f 32 50 51
f 33 51 37
f 33 37 35
f 37 51 52
f 37 52 50
f 37 50 53
f 37 53 48
f 38 54 39
f 39 54 40
f 40 54 55
f 40 55 41
f 41 55 56
f 41 56 42
f 42 56 43
f 43 57 58
f 43 58 44
f 43 56 59
f 43 59 57
f 44 58 45
f 45 58 60
f 45 60 49
f 48 53 50
f 50 52 51
f 54 61 62
f 54 62 55
f 55 59 56
f 55 62 59
f 57 63 58
f 57 59 63
f 58 63 62
f 58 62 60
f 59 62 63
f 60 62 61
