# https://github.com/mikedh/trimesh
v 0.00741228 0.05529462 0.00050315
v -0.02939320 0.04867114 0.00047619
v -0.01968743 0.05149924 0.03108802
v -0.00065816 0.05491692 0.03108802
v 0.01773396 0.05165585 0.03108802
v 0.03178291 0.04553904 0.03108802
v 0.03407661 0.04367821 0.00050315
v -0.03473456 0.04372427 0.03108802
v 0.05262802 -0.02015216 0.00047019
v 0.03453323 -0.03880659 0.00047918
v -0.05295678 -0.01628310 0.00050615
v -0.05493192 0.01197950 0.00050315
v 0.04152054 0.03260531 0.03108802
v 0.05256430 0.01912806 0.00050016
v -0.04795523 0.02470136 0.03108802
v 0.05261740 -0.01262591 0.00047918
v 0.05316959 -0.02045616 0.01874318
v 0.04863527 -0.03880659 0.03108202
v 0.04849723 -0.03880659 0.02893914
v 0.04127630 -0.03880659 0.00831646
v -0.03683712 -0.03880659 0.00054811
v -0.04250768 -0.03880659 0.01247936
v -0.04534295 -0.03880659 0.01874318
v -0.05023832 -0.03880659 0.02960748
v -0.05057812 -0.03880659 0.03108202
v -0.05210726 -0.03071840 0.03108202
v -0.05322226 -0.01263512 0.00050615
v -0.05478325 0.01075430 0.03108802
v 0.05109888 0.01960709 0.03108802
v 0.05253245 0.01392325 0.03108802
v 0.05353064 -0.02064961 0.03108202
v 0.05255369 -0.01262591 0.03108802
v -0.05281873 -0.01262591 0.03108802
f 1 2 3
f 1 3 4
f 1 4 5
f 1 5 6
f 1 6 7
f 1 7 2
f 2 8 3
f 2 7 9
f 2 9 10
f 2 10 11
f 2 11 12
f 2 12 8
f 3 8 15
f 3 15 28
f 3 28 33
f 3 33 32
f 3 32 30
f 3 30 29
f 3 29 13
f 3 13 6
f 3 6 5
f 3 5 4
f 6 13 14
f 6 14 7
f 7 14 9
f 8 12 15
f 9 14 16
f 9 16 17
f 9 17 18
f 9 18 19
f 9 19 20
f 9 20 10
f 10 20 19
f 10 19 18
f 10 18 25
f 10 25 24
f 10 24 23
f 10 23 22
f 10 22 21
f 10 21 11
f 11 21 22
f 11 22 23
f 11 23 24
f 11 24 25
f 11 25 26
f 11 26 27
f 11 27 12
f 12 27 26
f 12 26 28
f 12 28 15
f 13 29 14
f 14 30 31
f 14 31 17
f 14 17 16
f 14 29 30
f 17 31 18
f 18 31 32
f 18 32 33
f 18 33 25
f 25 33 26
f 26 33 28
f 30 32 31
