# https://github.com/mikedh/trimesh
v 0.00153692 0.06676408 0.08804603
v -0.01064924 0.06424951 0.08804603
v -0.03642763 0.05187312 0.10473894
v 0.00601884 0.05650936 0.10473894
v 0.00802546 0.05593310 0.10473894
v 0.00741029 0.06506151 0.08804603
v -0.05747511 0.05116590 0.08804603
v -0.08539194 0.03389134 0.08804603
v -0.07818571 0.03250309 0.09433365
v -0.06623391 0.03017188 0.10473894
v 0.02968810 0.04736786 0.10473894
v 0.01400136 0.06257313 0.08804603
v -0.08906829 0.01598814 0.08804603
v -0.06911933 -0.01693698 0.10473894
v -0.09045974 -0.00588336 0.08804603
v -0.07843471 -0.01106966 0.09742518
v 0.04118585 0.03961460 0.10473894
v 0.02812089 0.05148022 0.09433365
v 0.02711026 0.05396860 0.08804603
v -0.05583467 -0.03749882 0.10473894
v -0.08243329 -0.01000883 0.09433365
v -0.07790742 -0.01611189 0.09742518
v -0.07739478 -0.01968729 0.09742518
v -0.07612051 -0.02180896 0.09742518
v -0.08799908 -0.02301386 0.08804603
v -0.08098325 -0.02017187 0.09433529
v 0.05250784 0.02878363 0.10473894
v 0.02924870 0.05196480 0.08804603
v -0.05391593 -0.03958119 0.10473894
v -0.07909381 -0.02378656 0.09433365
v -0.08515760 -0.02776796 0.08804603
v -0.07777560 -0.03817984 0.08804603
v -0.07519776 -0.04165047 0.08804603
v 0.04802591 0.03203161 0.08804603
v 0.05660895 0.01530711 0.10473894
v 0.05625743 0.01700968 0.09433365
v 0.05454375 0.02261508 0.09433365
v -0.03538771 -0.05185281 0.10473894
v -0.07272245 -0.04343163 0.08804603
v 0.05583267 0.01862058 0.08804603
v 0.05725341 0.01158765 0.10473894
v 0.05659430 0.01505828 0.09433365
v -0.05488262 -0.05211474 0.08804603
v -0.00022070 -0.06703189 0.08804603
v 0.01038359 -0.05756297 0.10473894
v 0.05893780 -0.00059229 0.08804603
v 0.05917214 -0.00019939 0.10473894
v 0.05905497 -0.00034345 0.09433365
v 0.01737012 -0.06255282 0.08804603
v 0.01256597 -0.05782491 0.10473894
v 0.05882062 -0.00181029 0.09433365
v 0.05542256 -0.01693698 0.08804603
v 0.05864486 -0.00352595 0.10473894
v 0.05877668 -0.00229486 0.09742518
v 0.03373062 -0.04645696 0.08804603
v 0.05233208 -0.02899905 0.10473894
v 0.04339752 -0.03649037 0.10473894
v 0.02815019 -0.04801547 0.10473894
v 0.05536397 -0.01778827 0.09433365
v 0.05477809 -0.01970039 0.08804603
v 0.05597914 -0.01583686 0.10473894
v 0.03586906 -0.04434840 0.08804603
v 0.04754257 -0.03235181 0.08804603
v 0.05373817 -0.02366869 0.09433365
f 1 2 3
f 1 3 4
f 1 4 5
f 1 5 6
f 1 6 12
f 1 12 19
f 1 19 28
f 1 28 34
f 1 34 40
f 1 40 46
f 1 46 52
f 1 52 60
f 1 60 63
f 1 63 62
f 1 62 55
f 1 55 49
f 1 49 44
f 1 44 43
f 1 43 39
f 1 39 33
f 1 33 32
f 1 32 31
f 1 31 25
f 1 25 15
f 1 15 13
f 1 13 8
f 1 8 7
f 1 7 2
f 2 7 3
f 3 7 8
f 3 8 9
f 3 9 10
f 3 10 14
f 3 14 20
f 3 20 29
f 3 29 38
f 3 38 45
f 3 45 50
f 3 50 58
f 3 58 57
f 3 57 56
f 3 56 61
f 3 61 53
f 3 53 47
f 3 47 41
f 3 41 35
f 3 35 27
f 3 27 17
f 3 17 11
f 3 11 5
f 3 5 4
f 5 11 12
f 5 12 6
f 8 13 9
f 9 13 10
f 10 13 15
f 10 15 16
f 10 16 14
f 11 17 18
f 11 18 12
f 12 18 19
f 14 16 21
f 14 21 22
f 14 22 23
f 14 23 24
f 14 24 20
f 15 25 26
f 15 26 22
f 15 22 21
f 15 21 16
f 17 27 28
f 17 28 19
f 17 19 18
f 20 24 30
f 20 30 31
f 20 31 32
f 20 32 33
f 20 33 29
f 22 26 23
f 23 26 25
f 23 25 31
f 23 31 30
f 23 30 24
f 27 34 28
f 27 35 36
f 27 36 37
f 27 37 34
f 29 33 39
f 29 39 38
f 34 37 40
f 35 41 36
f 36 42 40
f 36 40 37
f 36 41 42
f 38 39 43
f 38 43 44
f 38 44 45
f 40 42 46
f 41 47 42
f 42 47 48
f 42 48 46
f 44 49 50
f 44 50 45
f 46 48 51
f 46 51 52
f 47 53 54
f 47 54 48
f 48 54 51
f 49 55 56
f 49 56 57
f 49 57 58
f 49 58 50
f 51 54 59
f 51 59 52
f 52 59 60
f 53 61 54
f 54 61 59
f 55 62 56
f 56 62 63
f 56 63 64
f 56 64 61
f 59 61 64
f 59 64 60
f 60 64 63
