# https://github.com/mikedh/trimesh
v 0.02583562 -0.05422776 0.01267744
v 0.02583562 -0.05642282 0.01267744
v 0.02583562 -0.05422776 0.01041442
v 0.02582778 -0.05422776 0.09493683
v 0.02583562 -0.05642282 0.01063472
v 0.02582778 -0.05642282 0.09273390
v 0.01802438 -0.05422776 0.00433634
v 0.01516469 -0.05422776 0.10369848
v 0.01588549 -0.05642282 0.10154562
v 0.01483564 -0.05642282 0.00687972
v -0.00314511 -0.05642282 0.00369549
v 0.00393750 -0.05422776 0.00232367
v 0.01161555 -0.05422776 0.10446951
v 0.01382495 -0.05642282 0.10199622
v -0.00543286 -0.05422776 0.00240377
v -0.00234597 -0.05509947 0.00262407
v 0.00287981 -0.05422776 0.00217347
v -0.02778539 -0.05642282 0.01217677
v -0.00359953 -0.05422776 0.10438940
v -0.00579325 -0.05642282 0.10234668
v 0.01178008 -0.05642282 0.10243680
v -0.02095349 -0.05422776 0.00866209
v -0.02889009 -0.05642282 0.01267744
v -0.02870989 -0.05422776 0.01179626
v -0.00814368 -0.05422776 0.10375856
v -0.01438797 -0.05642282 0.10115510
v -0.02977541 -0.05642282 0.01308798
v -0.04072839 -0.05642282 0.01988702
v -0.04057953 -0.05422776 0.02020745
v -0.01439581 -0.05422776 0.10288740
v -0.01532814 -0.05642282 0.10073454
v -0.04969134 -0.05642282 0.03220340
v -0.04931527 -0.05422776 0.03276415
v -0.02148625 -0.05422776 0.09968314
v -0.02003682 -0.05642282 0.09860171
v -0.05371840 -0.05642282 0.04388894
v -0.05420415 -0.05422776 0.04686290
v -0.02452613 -0.05422776 0.09779062
v -0.02581887 -0.05642282 0.09498690
v -0.05416498 -0.05642282 0.04520069
v -0.05353820 -0.05642282 0.04968665
v -0.05368706 -0.05422776 0.05044766
v -0.03376330 -0.05422776 0.09201294
v -0.03357527 -0.05642282 0.09013044
v -0.04421485 -0.05642282 0.07746359
v -0.04434804 -0.05422776 0.07909576
f 1 2 5
f 1 5 3
f 1 3 7
f 1 7 12
f 1 12 17
f 1 17 15
f 1 15 22
f 1 22 24
f 1 24 29
f 1 29 33
f 1 33 37
f 1 37 42
f 1 42 46
f 1 46 43
f 1 43 38
f 1 38 34
f 1 34 30
f 1 30 25
f 1 25 19
f 1 19 13
f 1 13 8
f 1 8 4
f 1 4 2
f 2 4 6
f 2 6 9
f 2 9 14
f 2 14 21
f 2 21 20
f 2 20 26
f 2 26 31
f 2 31 35
f 2 35 39
f 2 39 44
f 2 44 45
f 2 45 41
f 2 41 40
f 2 40 36
f 2 36 32
f 2 32 28
f 2 28 27
f 2 27 23
f 2 23 18
f 2 18 11
f 2 11 10
f 2 10 5
f 3 5 7
f 4 8 9
f 4 9 6
f 5 10 7
f 7 10 11
f 7 11 12
f 8 13 14
f 8 14 9
f 11 15 16
f 11 16 17
f 11 17 12
f 11 18 15
f 13 19 20
f 13 20 21
f 13 21 14
f 15 17 16
f 15 18 22
f 18 23 24
f 18 24 22
f 19 25 26
f 19 26 20
f 23 27 24
f 24 27 28
f 24 28 29
f 25 30 26
f 26 30 31
f 28 32 29
f 29 32 33
f 30 34 31
f 31 34 35
f 32 36 37
f 32 37 33
f 34 38 35
f 35 38 39
f 36 40 37
f 37 40 41
f 37 41 42
f 38 43 39
f 39 43 44
f 41 45 46
f 41 46 42
f 43 46 45
f 43 45 44
