# https://github.com/mikedh/trimesh
v 0.04957430 -0.02791244 -0.02252018
v 0.06287876 -0.02790866 -0.03142788
v 0.04957430 -0.02791244 0.04384130
v 0.04610286 -0.02791244 -0.02110843
v 0.06287876 -0.00701439 -0.03896937
v 0.06287876 -0.02790866 0.03951496
v 0.05781118 -0.02790866 0.04188306
v 0.04610286 -0.02791244 0.04476121
v 0.04610286 -0.01933160 -0.02109932
v 0.06287876 0.01072210 -0.03785819
v 0.06287876 -0.01464599 0.04264814
v 0.04957430 -0.01766006 0.05167425
v 0.04610286 -0.01844667 0.05402413
v 0.04610286 -0.01856390 0.05397859
v 0.04957430 -0.02133216 0.05039911
v 0.04610286 0.00756433 -0.01670922
v 0.04957430 0.01072210 -0.02143632
v 0.06287876 0.01072210 0.04178287
v 0.06287876 -0.01042554 0.04274833
v 0.04919169 -0.00997551 0.05212054
v 0.04610286 -0.01627593 0.05407878
v 0.04610286 0.00756433 0.05384197
v 0.04957430 0.01072210 0.05233914
v 0.05060063 0.01072210 0.05162871
v 0.04734923 0.00756433 0.05377822
v 0.04733281 0.00756433 0.05378732
f 1 2 6
f 1 6 3
f 1 3 8
f 1 8 4
f 1 4 2
f 2 4 5
f 2 5 10
f 2 10 18
f 2 18 19
f 2 19 11
f 2 11 6
f 3 6 7
f 3 7 8
f 4 8 14
f 4 14 13
f 4 13 21
f 4 21 22
f 4 22 16
f 4 16 9
f 4 9 5
f 5 9 10
f 6 11 12
f 6 12 13
f 6 13 14
f 6 14 15
f 6 15 7
f 7 15 8
f 8 15 14
f 9 16 17
f 9 17 10
f 10 17 23
f 10 23 24
f 10 24 18
f 11 19 20
f 11 20 12
f 12 20 21
f 12 21 13
f 16 22 23
f 16 23 17
f 18 24 19
f 19 24 23
f 19 23 20
f 20 23 21
f 21 25 26
f 21 26 22
f 21 23 25
f 22 26 23
f 23 26 25
