# https://github.com/mikedh/trimesh
v 0.04137305 -0.01233971 -0.04223189
v 0.04328414 -0.01730233 -0.04223189
v 0.04680312 -0.02750823 -0.04555439
v 0.04057370 -0.01233971 -0.04355848
v -0.03937047 -0.01233971 -0.04223189
v 0.04654585 -0.02750823 -0.04223189
v 0.04342195 -0.02106959 -0.04555439
v -0.04706077 -0.02750823 -0.04555439
v 0.04015106 -0.01233971 -0.04391526
v -0.03936129 -0.01233971 -0.04224457
v -0.04199822 -0.01438742 -0.04223189
v -0.04654624 -0.02750823 -0.04223189
v 0.03818484 -0.01233971 -0.04555439
v 0.04001323 -0.01233971 -0.04403071
v -0.04405632 -0.02032119 -0.04223189
v -0.04152044 -0.01629407 -0.04555439
v -0.03638439 -0.01233971 -0.04555439
f 1 2 3
f 1 3 4
f 1 4 9
f 1 9 14
f 1 14 13
f 1 13 17
f 1 17 10
f 1 10 5
f 1 5 11
f 1 11 15
f 1 15 12
f 1 12 6
f 1 6 2
f 2 6 3
f 3 7 4
f 3 6 12
f 3 12 8
f 3 8 16
f 3 16 17
f 3 17 13
f 3 13 7
f 4 7 9
f 5 10 11
f 7 13 14
f 7 14 9
f 8 12 15
f 8 15 11
f 8 11 16
f 10 17 16
f 10 16 11
