# https://github.com/mikedh/trimesh
v 0.05496133 -0.11826432 0.00281719
v 0.05469269 -0.09589609 0.00715595
v 0.05399425 -0.09589609 0.02523616
v 0.05387605 -0.11084401 0.02133988
v 0.05385456 -0.11826432 0.01818107
v 0.05396201 -0.11826432 -0.00400438
v 0.05485387 -0.10169396 0.00037126
v 0.04431276 -0.09589609 -0.01215338
v 0.05037310 -0.09589609 0.03712166
v 0.04996477 -0.11084401 0.03176274
v 0.04786945 -0.11826432 0.03413492
v 0.03845659 -0.11826432 -0.03592438
v 0.04314153 -0.11658276 -0.03199123
v 0.04679492 -0.11084401 -0.02199856
v 0.05435959 -0.11084401 -0.00205009
v 0.03828467 -0.09589609 -0.02245333
v 0.04894397 -0.10367549 0.03734290
v 0.04156197 -0.09589609 0.05593935
v 0.04316302 -0.11084401 0.04708975
v 0.04471034 -0.11826432 0.04105482
v 0.01964163 -0.11826432 -0.04796966
v 0.01929778 -0.11084401 -0.04605225
v 0.03874671 -0.10367549 -0.02760331
v 0.01796536 -0.10397326 -0.04381527
v 0.03179452 -0.09589609 -0.02773851
v 0.02578792 -0.09589609 0.06665719
v 0.02803368 -0.10367549 0.06155638
v 0.03224582 -0.11826432 0.05196932
v 0.00718786 -0.11826432 -0.05041559
v 0.00139616 -0.11826432 -0.05154637
v 0.00230951 -0.10189321 -0.04574497
v 0.00418993 -0.09589609 -0.03994358
v 0.01295807 -0.09589609 -0.03682163
v -0.00029085 -0.09589609 0.07378603
v 0.01766450 -0.11084401 0.06349837
v 0.01523606 -0.11826432 0.06096641
v -0.00551305 -0.11624557 -0.05177991
v -0.02844345 -0.11826432 -0.04302864
v -0.00675950 -0.11084401 -0.04901441
v -0.00903750 -0.09589609 -0.03935360
v -0.02247983 -0.09589609 0.06985288
v -0.01179903 -0.11826432 0.06145805
v -0.03490136 -0.11102574 -0.03835802
v -0.03499807 -0.11826432 -0.03877592
v -0.01682782 -0.09589609 -0.03747306
v -0.02842196 -0.09589609 0.06585827
v -0.02599353 -0.11826432 0.05668910
v -0.04981580 -0.11696155 -0.02236729
v -0.04640954 -0.10367549 -0.01709440
v -0.04447540 -0.09589609 -0.01282939
v -0.02207151 -0.09589609 -0.03546961
v -0.05226572 -0.11826432 -0.01389872
v -0.04197175 -0.09589609 0.05407110
v -0.04129479 -0.11084401 0.04804845
v -0.04095095 -0.11826432 0.04506172
v -0.05481235 -0.10821000 -0.00265236
v -0.05445775 -0.09589609 0.00868004
v -0.05471564 -0.11826432 -0.00416416
v -0.04979430 -0.09589609 0.03794517
v -0.05118044 -0.11826432 0.02741169
v -0.05448999 -0.11826432 0.00276802
v -0.05153504 -0.09589609 0.03041072
f 1 2 3
f 1 3 4
f 1 4 5
f 1 5 11
f 1 11 20
f 1 20 28
f 1 28 36
f 1 36 42
f 1 42 47
f 1 47 55
f 1 55 60
f 1 60 61
f 1 61 58
f 1 58 52
f 1 52 44
f 1 44 38
f 1 38 30
f 1 30 29
f 1 29 21
f 1 21 12
f 1 12 6
f 1 6 7
f 1 7 2
f 2 7 8
f 2 8 16
f 2 16 25
f 2 25 33
f 2 33 32
f 2 32 40
f 2 40 45
f 2 45 51
f 2 51 50
f 2 50 57
f 2 57 62
f 2 62 59
f 2 59 53
f 2 53 46
f 2 46 41
f 2 41 34
f 2 34 26
f 2 26 18
f 2 18 9
f 2 9 3
f 3 9 4
f 4 9 10
f 4 10 11
f 4 11 5
f 6 12 13
f 6 13 14
f 6 14 15
f 6 15 7
f 7 15 14
f 7 14 16
f 7 16 8
f 9 17 11
f 9 11 10
f 9 18 19
f 9 19 17
f 11 17 20
f 12 21 22
f 12 22 13
f 13 23 16
f 13 16 14
f 13 22 24
f 13 24 23
f 16 23 25
f 17 19 20
f 18 26 27
f 18 27 28
f 18 28 19
f 19 28 20
f 21 29 22
f 22 29 30
f 22 30 31
f 22 31 24
f 23 24 25
f 24 31 32
f 24 32 33
f 24 33 25
f 26 34 35
f 26 35 27
f 27 35 28
f 28 35 36
f 30 37 31
f 30 38 37
f 31 37 39
f 31 39 40
f 31 40 32
f 34 41 42
f 34 42 36
f 34 36 35
f 37 38 43
f 37 43 39
f 38 44 43
f 39 43 45
f 39 45 40
f 41 46 47
f 41 47 42
f 43 44 48
f 43 48 49
f 43 49 50
f 43 50 51
f 43 51 45
f 44 52 48
f 46 53 54
f 46 54 55
f 46 55 47
f 48 52 56
f 48 56 49
f 49 56 57
f 49 57 50
f 52 58 56
f 53 59 60
f 53 60 54
f 54 60 55
f 56 58 61
f 56 61 57
f 57 61 60
f 57 60 62
f 59 62 60
