# https://github.com/mikedh/trimesh
v -0.12287055 0.00744630 0.05947577
v -0.12090547 -0.02899295 0.05947577
v -0.12015156 0.00930944 0.06474474
v -0.12125152 0.02109583 0.05947577
v -0.01488949 0.06598670 0.05947297
v -0.01488949 -0.06597223 0.05947297
v -0.10876887 0.00242392 0.07356551
v -0.12031223 -0.03311075 0.05947577
v -0.11779098 -0.03232770 0.06171032
v -0.10839810 0.01183413 0.07356551
v -0.08539790 0.03388129 0.08804400
v -0.10200847 0.03710803 0.07356551
v -0.11505963 0.03938970 0.06207669
v -0.11850781 0.02587519 0.06171032
v -0.10892954 0.00357151 0.07356551
v -0.11728426 0.03806660 0.05947577
v -0.11276085 0.04527615 0.05947577
v -0.10675435 0.05019052 0.05947577
v -0.10119277 0.05174314 0.05947577
v 0.00338956 0.06901094 0.05947297
v 0.00338956 -0.06891545 0.05947297
v -0.06706942 -0.06219194 0.05947577
v -0.10763184 -0.04986552 0.05947577
v -0.11239008 -0.04626075 0.05947577
v -0.09045275 -0.00587920 0.08804400
v -0.10439377 -0.02812888 0.07356551
v -0.08800566 -0.02299849 0.08804400
v -0.11052386 -0.04446511 0.06171032
v -0.11700000 -0.03366430 0.06171032
v -0.08904382 0.01596544 0.08804400
v -0.05799787 0.05102758 0.08804400
v -0.11426866 0.04099632 0.06171032
v -0.04619497 0.06080232 0.07356551
v -0.06570992 0.05760257 0.06171032
v -0.03304494 0.06300298 0.05947577
v -0.01488949 0.06597320 0.07356272
v 0.00338956 0.06898393 0.07356272
v 0.00338956 -0.06868593 0.07356272
v 0.00125144 -0.06852392 0.07356551
v -0.03240227 -0.06599923 0.06336597
v -0.03238991 -0.06599923 0.05976942
v -0.03031359 -0.06599923 0.06969489
v -0.00070129 -0.06815939 0.08674633
v -0.05246102 -0.05986977 0.07356272
v -0.09893107 -0.05241721 0.06171032
v -0.10370166 -0.05163415 0.06000993
v -0.10169949 -0.05156664 0.06171032
v -0.10466567 -0.04955499 0.06171032
v -0.10921380 -0.04627425 0.06171032
v -0.09404924 -0.04411408 0.07356551
v -0.10972052 -0.04559920 0.06171032
v -0.09912881 -0.03691804 0.07356551
v -0.08515072 -0.02773735 0.08804400
v -0.01065033 0.06423157 0.08804400
v 0.00195591 0.06871391 0.08586538
v 0.00175816 0.06668876 0.08804400
v 0.00196827 -0.06639076 0.08804400
v 0.00196827 -0.06829440 0.08530324
v -0.00020693 -0.06701180 0.08804400
v -0.05489575 -0.05210668 0.08804400
v -0.08894495 -0.04777286 0.07356551
v -0.07272987 -0.04342553 0.08804400
v -0.07542414 -0.04148138 0.08804400
v -0.07777236 -0.03818713 0.08804400
f 1 2 3
f 1 3 4
f 1 4 5
f 1 5 6
f 1 6 2
f 2 7 3
f 2 6 8
f 2 8 9
f 2 9 7
f 3 10 11
f 3 11 12
f 3 12 13
f 3 13 14
f 3 14 4
f 3 7 15
f 3 15 10
f 4 14 16
f 4 16 5
f 5 16 17
f 5 17 18
f 5 18 19
f 5 19 20
f 5 20 21
f 5 21 6
f 6 21 22
f 6 22 23
f 6 23 24
f 6 24 8
f 7 25 15
f 7 9 26
f 7 26 27
f 7 27 25
f 8 24 28
f 8 28 29
f 8 29 9
f 9 29 26
f 10 15 25
f 10 25 30
f 10 30 11
f 11 30 25
f 11 25 27
f 11 27 53
f 11 53 64
f 11 64 63
f 11 63 62
f 11 62 60
f 11 60 59
f 11 59 57
f 11 57 56
f 11 56 54
f 11 54 31
f 11 31 18
f 11 18 17
f 11 17 32
f 11 32 12
f 12 32 13
f 13 32 16
f 13 16 14
f 16 32 17
f 18 31 33
f 18 33 19
f 19 33 34
f 19 34 35
f 19 35 20
f 20 35 36
f 20 36 37
f 20 37 38
f 20 38 21
f 21 38 39
f 21 39 40
f 21 40 41
f 21 41 22
f 22 41 40
f 22 40 42
f 22 42 43
f 22 43 44
f 22 44 45
f 22 45 46
f 22 46 23
f 23 47 48
f 23 48 49
f 23 49 24
f 23 46 47
f 24 49 50
f 24 50 51
f 24 51 28
f 26 29 52
f 26 52 27
f 27 52 53
f 28 51 50
f 28 50 52
f 28 52 29
f 31 54 33
f 33 54 55
f 33 55 36
f 33 36 35
f 33 35 34
f 36 55 37
f 37 55 56
f 37 56 57
f 37 57 38
f 38 57 58
f 38 58 43
f 38 43 39
f 39 43 40
f 40 43 42
f 43 59 60
f 43 60 44
f 43 58 57
f 43 57 59
f 44 60 45
f 45 60 47
f 45 47 46
f 47 61 48
f 47 60 61
f 48 61 50
f 48 50 49
f 50 62 63
f 50 63 64
f 50 64 53
f 50 53 52
f 50 61 62
f 54 56 55
f 60 62 61
