# https://github.com/mikedh/trimesh
v 0.04228371 0.00728783 0.06187462
v 0.04228371 0.01669422 0.06187462
v 0.04576142 0.00728783 0.06187462
v 0.04228371 0.00728783 0.09799928
v 0.04263230 0.01669422 0.06187462
v 0.04228371 0.01669422 0.09563010
v 0.04576142 0.00926192 0.06187462
v 0.04576142 0.00728783 0.09568314
v 0.04286378 0.00728783 0.09770225
v 0.04576142 0.01668962 0.09561949
v 0.04228371 0.00755853 0.09796746
v 0.04531990 0.01066791 0.06187462
v 0.04576142 0.01669422 0.06315822
v 0.04228371 0.01180135 0.09704807
v 0.04565113 0.01669422 0.09560889
v 0.04576142 0.01066698 0.06209740
v 0.04228371 0.01054913 0.09740522
v 0.04228371 0.00916616 0.09772700
v 0.04228371 0.00804469 0.09790734
v 0.04576142 0.01669422 0.09507140
f 1 2 5
f 1 5 12
f 1 12 7
f 1 7 3
f 1 3 8
f 1 8 9
f 1 9 4
f 1 4 11
f 1 11 19
f 1 19 18
f 1 18 17
f 1 17 14
f 1 14 6
f 1 6 2
f 2 6 15
f 2 15 20
f 2 20 13
f 2 13 5
f 3 7 16
f 3 16 13
f 3 13 20
f 3 20 10
f 3 10 8
f 4 9 10
f 4 10 11
f 5 13 12
f 6 14 10
f 6 10 15
f 7 12 16
f 8 10 9
f 10 14 17
f 10 17 18
f 10 18 19
f 10 19 11
f 10 20 15
f 12 13 16
