# https://github.com/mikedh/trimesh
v 0.00935362 -0.00829541 -0.05874449
v 0.02958543 -0.01424465 -0.05874376
v 0.01463378 -0.00858002 -0.05874449
v -0.00723816 -0.00902989 -0.06625592
v -0.00873015 -0.00854330 -0.05874449
v -0.03148035 -0.01424465 -0.05874376
v 0.03322546 -0.01843116 -0.05874376
v 0.04492859 -0.02323278 -0.05874449
v 0.02653796 -0.01093952 -0.05874449
v 0.01848544 -0.00977354 -0.06328811
v -0.03013650 -0.01294096 -0.06625592
v 0.02100384 -0.01055392 -0.06625592
v -0.02962859 -0.01277571 -0.06328811
v -0.02884556 -0.01252782 -0.05874449
v -0.04215707 -0.02074475 -0.05874449
v -0.03814669 -0.01843116 -0.05874376
v -0.00197916 -0.10208780 -0.05874449
v -0.00001100 -0.10188581 -0.05874449
v 0.02760669 -0.09146546 -0.05874449
v 0.03296092 -0.08815114 -0.05874449
v 0.03835748 -0.08306491 -0.05874449
v 0.05033573 -0.06339936 -0.05874449
v 0.05135155 -0.05808360 -0.05874449
v 0.05284355 -0.05011455 -0.05874449
v 0.05336203 -0.04729600 -0.05874449
v 0.05382762 -0.03928105 -0.05874449
v 0.05116109 -0.03412137 -0.05874449
v 0.04336253 -0.01991847 -0.06625592
v 0.02192443 -0.01073754 -0.06625592
v -0.04425220 -0.02112117 -0.06625592
v -0.04734200 -0.02525259 -0.05874449
v -0.03214698 -0.08972108 -0.05874449
v -0.00349231 -0.10148185 -0.05874449
v -0.05416706 -0.04321967 -0.05874449
v -0.05371206 -0.04806720 -0.05874449
v -0.04305650 -0.07725338 -0.05874449
v -0.00410603 -0.09609265 -0.06625592
v -0.00124903 -0.09619364 -0.06625592
v 0.00214763 -0.09559688 -0.06625592
v 0.03227313 -0.08154087 -0.06625592
v 0.03479152 -0.07999848 -0.06625592
v 0.05043096 -0.05757864 -0.06625592
v 0.05043096 -0.05819377 -0.06546617
v 0.03729933 -0.07762062 -0.06625592
v 0.05302343 -0.04373380 -0.06625592
v 0.05388053 -0.03913416 -0.06625592
v 0.05393344 -0.03841804 -0.06625592
v 0.05367948 -0.03796818 -0.06625592
v -0.04616746 -0.02280128 -0.06625592
v -0.05407183 -0.03754585 -0.06625592
v -0.04294010 -0.07112970 -0.06625592
v -0.03216815 -0.08260586 -0.06625592
v -0.05396602 -0.03871183 -0.06625592
v -0.05338403 -0.04507422 -0.06625592
v 0.05111876 -0.05392463 -0.06625592
f 1 2 3
f 1 3 4
f 1 4 5
f 1 5 6
f 1 6 2
f 2 7 8
f 2 8 9
f 2 9 3
f 2 6 16
f 2 16 7
f 3 10 4
f 3 9 10
f 4 11 5
f 4 10 12
f 4 12 29
f 4 29 28
f 4 28 48
f 4 48 47
f 4 47 46
f 4 46 45
f 4 45 55
f 4 55 42
f 4 42 44
f 4 44 41
f 4 41 40
f 4 40 39
f 4 39 38
f 4 38 37
f 4 37 52
f 4 52 51
f 4 51 54
f 4 54 53
f 4 53 50
f 4 50 49
f 4 49 30
f 4 30 11
f 5 11 13
f 5 13 14
f 5 14 6
f 6 14 15
f 6 15 16
f 7 16 17
f 7 17 18
f 7 18 19
f 7 19 20
f 7 20 21
f 7 21 22
f 7 22 23
f 7 23 24
f 7 24 25
f 7 25 26
f 7 26 27
f 7 27 8
f 8 27 28
f 8 28 9
f 9 28 29
f 9 29 12
f 9 12 10
f 11 30 13
f 13 30 14
f 14 30 15
f 15 30 31
f 15 31 16
f 16 32 33
f 16 33 17
f 16 31 34
f 16 34 35
f 16 35 36
f 16 36 32
f 17 33 37
f 17 37 38
f 17 38 18
f 18 38 39
f 18 39 19
f 19 40 41
f 19 41 20
f 19 39 40
f 20 41 21
f 21 42 43
f 21 43 22
f 21 41 44
f 21 44 42
f 22 43 23
f 23 43 24
f 24 43 45
f 24 45 46
f 24 46 25
f 25 47 26
f 25 46 47
f 26 47 27
f 27 47 48
f 27 48 28
f 30 49 31
f 31 49 50
f 31 50 34
f 32 36 51
f 32 51 52
f 32 52 37
f 32 37 33
f 34 50 53
f 34 53 54
f 34 54 35
f 35 54 36
f 36 54 51
f 42 55 43
f 43 55 45
