# https://github.com/mikedh/trimesh
v -0.05498607 0.00349669 -0.11084038
v -0.04826292 0.02251239 -0.11084038
v -0.04783469 0.02436472 -0.11656133
v -0.04830574 0.02366131 -0.12235328
v -0.05483619 0.00516144 -0.12235328
v -0.05491113 0.00431734 -0.11656133
v -0.05162449 -0.02503859 -0.12235328
v -0.05141038 -0.02725436 -0.11084038
v -0.04635731 0.02539640 -0.11084038
v -0.04734223 0.02476333 -0.11116159
v -0.04479429 0.02831558 -0.12235328
v -0.04069403 -0.04353846 -0.12235328
v -0.04097237 -0.04587145 -0.11656133
v -0.04125072 -0.04815756 -0.11084038
v -0.02953874 0.04055503 -0.11084038
v -0.03171198 0.04176257 -0.11467689
v -0.03162634 0.04196187 -0.11656133
v -0.03134799 0.04255977 -0.12235328
v -0.02356498 -0.05714957 -0.12235328
v -0.02296547 -0.06051425 -0.11084038
v -0.00610407 0.04825745 -0.11084038
v -0.01173524 0.04925396 -0.11656133
v -0.03018108 0.04279424 -0.11656133
v -0.02545989 0.04595962 -0.12235328
v -0.01495764 -0.05899018 -0.12235328
v 0.00748140 -0.06654019 -0.11084038
v 0.00043708 0.04998082 -0.11084038
v -0.00143641 0.05285310 -0.11705047
v -0.00473375 0.05322826 -0.12235328
v 0.01046827 -0.06148731 -0.12235328
v 0.02792919 -0.05809918 -0.11084038
v 0.00942983 0.04858571 -0.11084038
v 0.01018993 0.05096560 -0.12235328
v -0.00023737 0.05316965 -0.12235328
v 0.03099100 -0.05290562 -0.12235328
v 0.02944939 -0.05551999 -0.11656133
v 0.04398766 -0.04448807 -0.11084038
v 0.02069217 0.04538516 -0.11084038
v 0.02228731 0.04624099 -0.11656133
v 0.01662402 0.04784712 -0.11656133
v 0.02390386 0.04708509 -0.12235328
v 0.04640714 -0.03564846 -0.12235328
v 0.04832345 -0.03524986 -0.11084038
v 0.03324990 0.03706140 -0.11084038
v 0.04370932 0.03158647 -0.11522914
v 0.02861435 0.04204393 -0.11656133
v 0.03427764 0.04021505 -0.12235328
v 0.05406168 -0.01288120 -0.12235328
v 0.05412592 -0.01286948 -0.11084038
v 0.04249958 0.02949967 -0.11084038
v 0.04370932 0.03165681 -0.11656133
v 0.04875168 0.01978079 -0.11084038
v 0.04366649 0.03190301 -0.12235328
v 0.05438285 -0.00649183 -0.12235328
v 0.05431862 -0.00895379 -0.11084038
v 0.04676043 0.02458747 -0.11656133
v 0.04473706 0.02945277 -0.12235328
v 0.05400815 0.00758823 -0.11084038
v 0.05412592 0.00145678 -0.11084038
v 0.05435073 -0.00772281 -0.11656133
v 0.05411521 0.00770546 -0.12235328
v 0.05406168 0.00763512 -0.11656133
f 1 2 3
f 1 3 4
f 1 4 5
f 1 5 6
f 1 6 7
f 1 7 8
f 1 8 14
f 1 14 20
f 1 20 26
f 1 26 31
f 1 31 37
f 1 37 43
f 1 43 49
f 1 49 55
f 1 55 59
f 1 59 58
f 1 58 52
f 1 52 50
f 1 50 44
f 1 44 38
f 1 38 32
f 1 32 27
f 1 27 21
f 1 21 15
f 1 15 9
f 1 9 2
f 2 9 10
f 2 10 3
f 3 10 11
f 3 11 4
f 4 11 18
f 4 18 24
f 4 24 29
f 4 29 34
f 4 34 33
f 4 33 41
f 4 41 47
f 4 47 53
f 4 53 57
f 4 57 61
f 4 61 54
f 4 54 48
f 4 48 42
f 4 42 35
f 4 35 30
f 4 30 25
f 4 25 19
f 4 19 12
f 4 12 7
f 4 7 5
f 5 7 6
f 7 12 13
f 7 13 14
f 7 14 8
f 9 15 16
f 9 16 10
f 10 16 11
f 11 16 17
f 11 17 18
f 12 19 13
f 13 19 14
f 14 19 20
f 15 21 16
f 16 21 22
f 16 22 23
f 16 23 17
f 17 23 24
f 17 24 18
f 19 25 20
f 20 25 26
f 21 27 28
f 21 28 22
f 22 28 29
f 22 29 23
f 23 29 24
f 25 30 26
f 26 30 31
f 27 32 28
f 28 33 34
f 28 34 29
f 28 32 33
f 30 35 36
f 30 36 31
f 31 36 37
f 32 38 39
f 32 39 40
f 32 40 33
f 33 40 41
f 35 42 37
f 35 37 36
f 37 42 43
f 38 44 39
f 39 41 40
f 39 44 45
f 39 45 46
f 39 46 47
f 39 47 41
f 42 48 43
f 43 48 49
f 44 50 45
f 45 51 47
f 45 47 46
f 45 50 52
f 45 52 51
f 47 51 53
f 48 54 49
f 49 54 55
f 51 52 56
f 51 56 57
f 51 57 53
f 52 58 56
f 54 59 60
f 54 60 55
f 54 61 59
f 55 60 59
f 56 58 61
f 56 61 57
f 58 62 61
f 58 59 62
f 59 61 62
