# https://github.com/mikedh/trimesh
v 0.08410598 -0.04888467 -0.04437004
v 0.06381697 -0.04942143 -0.03749962
v 0.06583261 -0.04264295 -0.03702728
v 0.07963267 -0.04264295 -0.04175928
v 0.08505191 -0.04264295 -0.04320207
v 0.10726816 -0.04959218 -0.04084895
v 0.04497781 -0.04948742 -0.01248269
v 0.04700229 -0.04264295 -0.01873477
v 0.05525050 -0.04264295 -0.02825890
v 0.10520832 -0.04264295 -0.03999874
v 0.11038886 -0.04264295 -0.03679540
v 0.12687645 -0.04948878 -0.02221293
v 0.13285264 -0.04948198 0.00611898
v 0.09955922 -0.04949558 0.04336526
v 0.07174692 -0.04948878 0.04164765
v 0.04859358 -0.04949966 0.02136273
v 0.04253782 -0.04264295 -0.00161883
v 0.12336676 -0.04264295 -0.02447158
v 0.12602776 -0.04264295 -0.02080449
v 0.13141164 -0.04264295 0.00244330
v 0.11981287 -0.04944864 0.03117026
v 0.13101381 -0.04264295 0.00786235
v 0.10170747 -0.04264295 0.04108943
v 0.09734025 -0.04264295 0.04245493
v 0.08671394 -0.04264295 0.04180224
v 0.07835080 -0.04264295 0.04128696
v 0.06985505 -0.04264295 0.04017910
v 0.05938787 -0.04264295 0.03313692
v 0.05334979 -0.04264295 0.02785528
v 0.04547288 -0.04264295 0.01646755
v 0.04291797 -0.04264295 0.00154156
v 0.04281188 -0.04264295 0.00091463
v 0.11950345 -0.04264295 0.02973606
f 1 2 3
f 1 3 4
f 1 4 5
f 1 5 6
f 1 6 2
f 2 7 8
f 2 8 9
f 2 9 3
f 2 6 7
f 3 9 8
f 3 8 17
f 3 17 32
f 3 32 31
f 3 31 30
f 3 30 29
f 3 29 28
f 3 28 27
f 3 27 26
f 3 26 25
f 3 25 24
f 3 24 23
f 3 23 33
f 3 33 22
f 3 22 20
f 3 20 19
f 3 19 18
f 3 18 11
f 3 11 10
f 3 10 5
f 3 5 4
f 5 10 6
f 6 10 11
f 6 11 12
f 6 12 13
f 6 13 14
f 6 14 15
f 6 15 16
f 6 16 7
f 7 16 17
f 7 17 8
f 11 18 12
f 12 18 19
f 12 19 20
f 12 20 13
f 13 21 14
f 13 20 22
f 13 22 21
f 14 21 23
f 14 23 24
f 14 24 25
f 14 25 26
f 14 26 15
f 15 26 27
f 15 27 28
f 15 28 29
f 15 29 16
f 16 30 31
f 16 31 32
f 16 32 17
f 16 29 30
f 21 22 33
f 21 33 23
