# https://github.com/mikedh/trimesh
v 0.03814238 -0.01228818 -0.04555515
v 0.04341158 -0.02107220 -0.04555515
v 0.04606735 -0.02564578 -0.05329145
v 0.03104270 -0.01228818 -0.05329145
v -0.03636716 -0.01228818 -0.04555515
v 0.04399353 -0.02218125 -0.04555515
v 0.04402527 -0.02218125 -0.04582855
v 0.04931563 -0.03132840 -0.05329145
v -0.02941562 -0.01228818 -0.05329145
v -0.02943678 -0.01228818 -0.05327781
v -0.04064178 -0.02044407 -0.05329145
v -0.04151998 -0.01630233 -0.04555515
v 0.04784491 -0.02953234 -0.04555515
v 0.04732645 -0.02827608 -0.04732961
v 0.05377012 -0.03989650 -0.05329145
v -0.04264154 -0.02218125 -0.05329145
v -0.04819643 -0.02703945 -0.05329145
v -0.04941321 -0.02959123 -0.04555515
v 0.05364316 -0.04077981 -0.04555515
v 0.05348444 -0.04379287 -0.04555515
v 0.05264857 -0.05805340 -0.04555515
v 0.05243695 -0.06161608 -0.04555515
v 0.05297657 -0.05321483 -0.05329145
v -0.05422745 -0.04734574 -0.05329145
v -0.05432267 -0.05317558 -0.04555515
v 0.05020442 -0.07362909 -0.04555515
v 0.05028906 -0.06763240 -0.05329145
v -0.05396292 -0.05026066 -0.05329145
v -0.05430151 -0.05335224 -0.04555515
v 0.04020562 -0.09263986 -0.04555515
v 0.03912639 -0.08702594 -0.05329145
v -0.04312825 -0.08169664 -0.05329145
v -0.04314942 -0.08200089 -0.05292035
v -0.04325522 -0.08799758 -0.04555515
v 0.02977302 -0.10250348 -0.04555515
v 0.03164580 -0.09409241 -0.05329145
v -0.03213487 -0.09489721 -0.05329145
v -0.03211371 -0.10223848 -0.04555515
v 0.01940389 -0.10890256 -0.04555515
v 0.02421813 -0.09867581 -0.05329145
v -0.01121675 -0.10348493 -0.05329145
v -0.02218898 -0.10630171 -0.04555515
v 0.01475895 -0.11065936 -0.04555515
v 0.00608275 -0.10552636 -0.05329145
v -0.00371501 -0.10639985 -0.05329145
v -0.00616974 -0.11255357 -0.04555515
v -0.01042320 -0.11089491 -0.04555515
f 1 2 3
f 1 3 4
f 1 4 9
f 1 9 10
f 1 10 5
f 1 5 12
f 1 12 18
f 1 18 25
f 1 25 29
f 1 29 34
f 1 34 38
f 1 38 42
f 1 42 47
f 1 47 46
f 1 46 43
f 1 43 39
f 1 39 35
f 1 35 30
f 1 30 26
f 1 26 22
f 1 22 21
f 1 21 20
f 1 20 19
f 1 19 13
f 1 13 6
f 1 6 2
f 2 6 7
f 2 7 8
f 2 8 3
f 3 8 15
f 3 15 23
f 3 23 27
f 3 27 31
f 3 31 36
f 3 36 40
f 3 40 44
f 3 44 45
f 3 45 41
f 3 41 37
f 3 37 32
f 3 32 28
f 3 28 24
f 3 24 17
f 3 17 16
f 3 16 11
f 3 11 9
f 3 9 4
f 5 10 11
f 5 11 12
f 6 13 7
f 7 13 14
f 7 14 8
f 8 14 15
f 9 11 10
f 11 16 12
f 12 16 17
f 12 17 18
f 13 19 15
f 13 15 14
f 15 19 20
f 15 20 21
f 15 21 22
f 15 22 23
f 17 24 18
f 18 24 25
f 22 26 23
f 23 26 27
f 24 28 25
f 25 28 29
f 26 30 27
f 27 30 31
f 28 32 33
f 28 33 34
f 28 34 29
f 30 35 31
f 31 35 36
f 32 37 38
f 32 38 33
f 33 38 34
f 35 39 36
f 36 39 40
f 37 41 38
f 38 41 42
f 39 43 40
f 40 43 44
f 41 45 46
f 41 46 47
f 41 47 42
f 43 46 44
f 44 46 45
