# https://github.com/mikedh/trimesh
v -0.00315131 -0.05642330 0.00370093
v 0.01482162 -0.05642330 0.00689048
v 0.01706691 -0.06190297 0.00941312
v -0.00646630 -0.06190297 0.00813730
v -0.02531828 -0.06190350 0.01072760
v -0.02703402 -0.05913605 0.01167480
v -0.02877094 -0.05642330 0.01264133
v 0.02918301 -0.05642330 0.01129785
v 0.02503134 -0.06190297 0.01099823
v -0.01218544 -0.06190350 0.01036032
v -0.03178938 -0.05913605 0.01383016
v -0.03357926 -0.06190350 0.01449707
v -0.04072818 -0.05642330 0.01989997
v 0.04591680 -0.05642330 0.02451032
v 0.04156389 -0.05777941 0.02025759
v 0.04218876 -0.06190297 0.01973566
v 0.04455056 -0.06190297 0.02161073
v 0.05274799 -0.06190297 0.03774211
v 0.05388123 -0.06190297 0.04313535
v -0.01539451 -0.06190350 0.09634281
v -0.04107769 -0.06190350 0.01910741
v -0.05058841 -0.06190350 0.03083142
v -0.05013300 -0.05913605 0.03152732
v -0.04968817 -0.05642330 0.03221356
v 0.05401891 -0.05642330 0.04343497
v 0.05208076 -0.05777994 0.03677558
v 0.04501656 -0.05913605 0.02264491
v 0.05399773 -0.05913658 0.04258442
v 0.05370118 -0.05642330 0.04880888
v 0.05263149 -0.06190297 0.04870256
v -0.01169825 -0.06190297 0.09718369
v -0.01438837 -0.05642330 0.10114646
v -0.01824349 -0.05913605 0.09726101
v -0.03309207 -0.06190350 0.08546935
v 0.03987993 -0.06190297 0.07776611
v 0.03620485 -0.06190297 0.08152591
v 0.01769178 -0.06190297 0.09619783
v 0.01221623 -0.06190297 0.09738666
v -0.05400930 -0.06190350 0.04166622
v -0.05414698 -0.05913605 0.04312568
v -0.05417876 -0.05642330 0.04518439
v 0.05145589 -0.05642330 0.05671509
v 0.05203840 -0.05913658 0.05278131
v -0.00577788 -0.05642330 0.10233530
v -0.02003337 -0.05642330 0.09859482
v -0.02581606 -0.05642330 0.09498967
v -0.02740471 -0.05913605 0.09153916
v -0.03357926 -0.05642330 0.09013769
v -0.04386312 -0.06190350 0.07341672
v 0.03539993 -0.05913605 0.08476378
v 0.04035652 -0.05642330 0.08201884
v 0.03459502 -0.05642330 0.08793400
v 0.01680213 -0.05913658 0.09890412
v 0.01178200 -0.05642330 0.10244161
v -0.05315143 -0.06190350 0.04778435
v -0.05335266 -0.05913605 0.04874122
v -0.05353270 -0.05642330 0.04967875
v 0.04777022 -0.05642330 0.06513356
v -0.04422321 -0.05642330 0.07747615
v -0.04404317 -0.05913605 0.07547543
v 0.01589131 -0.05642330 0.10154274
f 1 2 3
f 1 3 4
f 1 4 5
f 1 5 6
f 1 6 7
f 1 7 13
f 1 13 24
f 1 24 41
f 1 41 57
f 1 57 59
f 1 59 48
f 1 48 46
f 1 46 45
f 1 45 32
f 1 32 44
f 1 44 54
f 1 54 61
f 1 61 52
f 1 52 51
f 1 51 58
f 1 58 42
f 1 42 29
f 1 29 25
f 1 25 14
f 1 14 8
f 1 8 2
f 2 8 9
f 2 9 3
f 3 9 10
f 3 10 4
f 4 10 5
f 5 11 6
f 5 10 20
f 5 20 34
f 5 34 49
f 5 49 55
f 5 55 39
f 5 39 22
f 5 22 21
f 5 21 12
f 5 12 11
f 6 11 7
f 7 11 13
f 8 14 15
f 8 15 16
f 8 16 9
f 9 16 10
f 10 16 17
f 10 17 18
f 10 18 19
f 10 19 20
f 11 12 21
f 11 21 13
f 13 21 22
f 13 22 23
f 13 23 24
f 14 25 26
f 14 26 18
f 14 18 17
f 14 17 27
f 14 27 15
f 15 27 16
f 16 27 17
f 18 26 25
f 18 25 28
f 18 28 19
f 19 28 29
f 19 29 30
f 19 30 20
f 20 31 32
f 20 32 33
f 20 33 34
f 20 30 35
f 20 35 36
f 20 36 37
f 20 37 38
f 20 38 31
f 22 39 40
f 22 40 41
f 22 41 24
f 22 24 23
f 25 29 28
f 29 42 43
f 29 43 30
f 30 43 35
f 31 44 32
f 31 38 44
f 32 45 33
f 33 45 46
f 33 46 47
f 33 47 34
f 34 47 48
f 34 48 49
f 35 50 36
f 35 43 51
f 35 51 50
f 36 50 37
f 37 50 52
f 37 52 53
f 37 53 38
f 38 53 54
f 38 54 44
f 39 55 40
f 40 55 56
f 40 56 41
f 41 56 57
f 42 58 43
f 43 58 51
f 46 48 47
f 48 59 60
f 48 60 49
f 49 60 55
f 50 51 52
f 52 61 53
f 53 61 54
f 55 60 59
f 55 59 56
f 56 59 57
