# https://github.com/mikedh/trimesh
v 0.05412409 -0.03881836 0.04889719
v 0.05362506 -0.04657061 0.05418680
v 0.05389051 -0.04657061 0.04964627
v 0.05403915 -0.05178447 0.04487525
v 0.04850730 -0.03881836 0.02896033
v 0.05332776 -0.03881836 0.06247270
v 0.05348703 -0.04657061 0.05649164
v 0.05359321 -0.05178447 0.05242360
v 0.05075827 -0.05178447 0.03423841
v 0.04722256 -0.03881836 0.02527258
v 0.04766850 -0.03881836 0.08253633
v 0.05196869 -0.04657061 0.06187344
v 0.04933549 -0.04657061 0.07117347
v 0.05045035 -0.05178447 0.06352140
v 0.04626696 -0.05178447 0.02538783
v 0.04125538 -0.03881836 0.00832049
v 0.04271002 -0.03881836 0.01240005
v 0.04192430 -0.03881836 0.09565087
v 0.04077759 -0.05178447 0.08560177
v 0.03269748 -0.05178447 0.01155879
v 0.02282297 -0.05090365 0.00048403
v 0.03454497 -0.03881836 0.00047251
v 0.03320713 -0.05178447 0.09334603
v 0.02937412 -0.03881836 0.10847730
v 0.02154884 -0.05178447 0.00149816
v 0.01753533 -0.05178447 0.00093347
v -0.01405247 -0.05178447 0.00178626
v -0.03112581 -0.04678257 0.00056470
v -0.03681692 -0.03881836 0.00055318
v 0.01439248 -0.05178447 0.10606875
v 0.01275735 -0.03881836 0.11759295
v -0.02948006 -0.05178447 0.00800933
v -0.04062870 -0.05178447 0.01989078
v -0.04250804 -0.03881836 0.01249225
v -0.04892116 -0.05178447 0.03338562
v 0.01268302 -0.04657188 0.11118549
v 0.01144074 -0.05178447 0.10672563
v 0.01051700 -0.03881836 0.11801934
v 0.01055947 -0.04005329 0.11755837
v -0.04829471 -0.03881836 0.02527258
v -0.05421941 -0.05178447 0.04873585
v -0.05025899 -0.03881836 0.02962873
v 0.01104789 -0.04657188 0.11154275
v -0.00112005 -0.05178447 0.10664496
v 0.00807492 -0.03881836 0.11820373
v 0.00405079 -0.04657188 0.11149665
v -0.05434682 -0.03881836 0.05381803
v -0.05329567 -0.03881836 0.04323881
v -0.05384779 -0.05178447 0.05129423
v -0.05427250 -0.04609339 0.05318419
v -0.01441347 -0.05178447 0.10482413
v -0.01447718 -0.03881836 0.11506914
v -0.05374162 -0.03881836 0.06039834
v -0.04451479 -0.05178447 0.08089990
v -0.04536421 -0.03881836 0.09048803
v -0.05213834 -0.03881836 0.06732439
v -0.02654956 -0.04657061 0.10346428
v -0.02309879 -0.05178447 0.10088286
v -0.03166732 -0.03881836 0.10729031
v -0.03397137 -0.05178447 0.09408358
v -0.03444917 -0.04657061 0.09853192
v -0.03512870 -0.03881836 0.10511224
v -0.04485456 -0.04657061 0.08476050
f 1 2 3
f 1 3 4
f 1 4 5
f 1 5 10
f 1 10 17
f 1 17 16
f 1 16 22
f 1 22 29
f 1 29 34
f 1 34 40
f 1 40 42
f 1 42 48
f 1 48 47
f 1 47 53
f 1 53 56
f 1 56 55
f 1 55 62
f 1 62 59
f 1 59 52
f 1 52 45
f 1 45 38
f 1 38 31
f 1 31 24
f 1 24 18
f 1 18 11
f 1 11 6
f 1 6 2
f 2 7 8
f 2 8 4
f 2 4 3
f 2 6 7
f 4 9 5
f 4 8 14
f 4 14 19
f 4 19 23
f 4 23 30
f 4 30 37
f 4 37 44
f 4 44 51
f 4 51 58
f 4 58 60
f 4 60 54
f 4 54 49
f 4 49 41
f 4 41 35
f 4 35 33
f 4 33 32
f 4 32 27
f 4 27 26
f 4 26 25
f 4 25 20
f 4 20 15
f 4 15 9
f 5 9 10
f 6 11 7
f 7 11 12
f 7 12 8
f 8 12 13
f 8 13 14
f 9 15 16
f 9 16 17
f 9 17 10
f 11 13 12
f 11 18 13
f 13 18 19
f 13 19 14
f 15 20 21
f 15 21 22
f 15 22 16
f 18 23 19
f 18 24 23
f 20 25 21
f 21 25 26
f 21 26 27
f 21 27 28
f 21 28 29
f 21 29 22
f 23 24 30
f 24 31 30
f 27 32 28
f 28 32 33
f 28 33 29
f 29 33 35
f 29 35 34
f 30 31 36
f 30 36 37
f 31 38 39
f 31 39 36
f 34 35 40
f 35 41 42
f 35 42 40
f 36 39 43
f 36 43 37
f 37 43 44
f 38 45 39
f 39 45 46
f 39 46 43
f 41 47 48
f 41 48 42
f 41 49 50
f 41 50 47
f 43 46 44
f 44 46 51
f 45 52 51
f 45 51 46
f 47 50 53
f 49 53 50
f 49 54 55
f 49 55 56
f 49 56 53
f 51 52 57
f 51 57 58
f 52 59 57
f 54 60 61
f 54 61 62
f 54 62 63
f 54 63 55
f 55 63 62
f 57 59 61
f 57 61 58
f 58 61 60
f 59 62 61
