# https://github.com/mikedh/trimesh
v -0.03454479 -0.00048861 -0.04223189
v -0.02840648 -0.00049125 -0.04223189
v -0.04199577 -0.01438456 -0.04223189
v -0.03934212 -0.00049390 -0.03548622
v 0.04083372 -0.00050976 -0.03548622
v 0.02050173 -0.00051241 -0.04223189
v -0.04451719 -0.02164728 -0.04223189
v -0.04402613 -0.01066328 -0.03548622
v 0.04582936 -0.01344829 -0.03548622
v 0.03759457 -0.00052034 -0.04092713
v 0.03499759 -0.00052828 -0.04223189
v -0.04654756 -0.02750823 -0.04223189
v -0.04891789 -0.02750823 -0.03548622
v 0.04755753 -0.02750823 -0.03548622
v 0.04653763 -0.02750823 -0.04223189
v 0.04327960 -0.01729917 -0.04223189
v 0.04182528 -0.01351970 -0.04223189
v 0.03907721 -0.00638130 -0.04223189
v 0.03677298 -0.00195913 -0.04223189
f 1 2 6
f 1 6 11
f 1 11 19
f 1 19 18
f 1 18 17
f 1 17 16
f 1 16 15
f 1 15 12
f 1 12 7
f 1 7 3
f 1 3 4
f 1 4 5
f 1 5 2
f 2 5 6
f 3 7 8
f 3 8 4
f 4 8 13
f 4 13 14
f 4 14 9
f 4 9 5
f 5 9 10
f 5 10 6
f 6 10 11
f 7 12 8
f 8 12 13
f 9 14 15
f 9 15 16
f 9 16 17
f 9 17 18
f 9 18 10
f 10 19 11
f 10 18 19
f 12 15 14
f 12 14 13
