# https://github.com/mikedh/trimesh
v 0.03331158 0.02568934 0.06187462
v 0.03326938 0.03073089 0.06187841
v 0.04228371 0.00729035 0.06187841
v -0.04103980 0.01711846 0.06187841
v -0.03550291 0.02557069 0.06187841
v -0.03071721 0.03239457 0.06187841
v 0.04226683 0.03307873 0.06478258
v 0.04068848 0.02118048 0.06217754
v 0.04228371 0.02193785 0.09565690
v 0.04220775 0.00770438 0.09798175
v -0.03175538 0.00728783 0.09977650
v -0.04376605 0.00729035 0.08326779
v -0.04388422 0.00769176 0.06557015
v -0.04280385 0.01364972 0.06232142
v -0.04113265 0.01758803 0.07705052
v -0.04026329 0.01911034 0.08053401
v -0.03860053 0.02193785 0.08708449
v -0.03517373 0.02650225 0.07177985
v -0.03366290 0.02860773 0.06739898
v -0.03278510 0.02970592 0.06352928
v -0.03064968 0.03249303 0.06927704
v -0.03021922 0.03296765 0.08803487
v 0.04226683 0.03307873 0.09746301
v -0.01682433 0.03307873 0.09872767
v 0.02812074 0.01619952 0.10055650
v 0.03169947 0.00783818 0.09977650
v -0.03009262 0.01058995 0.10055650
v -0.04061778 0.01305645 0.09809156
v -0.04147870 0.01305645 0.09769777
v -0.04269412 0.00942108 0.09530098
v -0.04330183 0.00804772 0.09054147
v -0.04376605 0.00873440 0.07303315
v -0.04380825 0.00890860 0.07052655
v -0.04388422 0.00755796 0.07741402
v -0.04394330 0.00757563 0.07084082
v -0.04249155 0.01429601 0.06739898
v -0.04097228 0.01681047 0.09054147
v -0.03969778 0.02042059 0.09273001
v -0.03745264 0.02365707 0.08678157
v -0.03590805 0.02568682 0.08436585
v -0.03094510 0.03210677 0.09179477
v -0.02883500 0.03276568 0.09725476
v 0.02696441 0.03307873 0.09831495
v 0.00725610 0.03173314 0.10055650
v 0.01140877 0.03025627 0.10055650
v 0.01532511 0.02763578 0.10055650
v 0.02097173 0.02342734 0.10055650
v 0.02481211 0.02043069 0.10055650
v -0.01326248 0.02940549 0.10055650
v -0.00992853 0.03214464 0.09974621
v 0.00225095 0.03183664 0.10055650
v 0.00630234 0.03307873 0.09897000
v -0.02829482 0.01568956 0.10055650
v -0.03607685 0.02500266 0.09724719
v -0.03183134 0.02932471 0.09805369
v -0.04080347 0.01638382 0.09573641
v -0.04310770 0.00929990 0.08678915
v -0.04249155 0.01364972 0.07217742
v -0.03249813 0.03000886 0.09748952
v -0.03589960 0.02568682 0.09061341
v -0.02046214 0.02486634 0.10055650
v -0.02331499 0.02175608 0.10055650
f 1 2 3
f 1 3 4
f 1 4 5
f 1 5 6
f 1 6 2
f 2 7 8
f 2 8 3
f 2 6 7
f 3 8 7
f 3 7 9
f 3 9 10
f 3 10 11
f 3 11 12
f 3 12 13
f 3 13 14
f 3 14 4
f 4 14 15
f 4 15 16
f 4 16 17
f 4 17 5
f 5 17 18
f 5 18 19
f 5 19 20
f 5 20 6
f 6 21 22
f 6 22 7
f 6 20 19
f 6 19 21
f 7 23 9
f 7 22 24
f 7 24 52
f 7 52 43
f 7 43 23
f 9 23 10
f 10 25 26
f 10 26 11
f 10 23 25
f 11 26 27
f 11 27 28
f 11 28 29
f 11 29 30
f 11 30 31
f 11 31 12
f 12 31 32
f 12 32 33
f 12 33 34
f 12 34 35
f 12 35 13
f 13 35 33
f 13 33 14
f 14 33 36
f 14 36 15
f 15 37 38
f 15 38 16
f 15 36 37
f 16 38 17
f 17 38 39
f 17 39 18
f 18 39 19
f 19 39 40
f 19 40 41
f 19 41 21
f 21 41 22
f 22 41 42
f 22 42 24
f 23 43 44
f 23 44 45
f 23 45 46
f 23 46 47
f 23 47 48
f 23 48 25
f 24 49 50
f 24 50 51
f 24 51 52
f 24 42 49
f 25 27 26
f 25 48 47
f 25 47 46
f 25 46 45
f 25 45 44
f 25 44 51
f 25 51 49
f 25 49 61
f 25 61 62
f 25 62 53
f 25 53 27
f 27 53 28
f 28 54 29
f 28 53 55
f 28 55 54
f 29 54 56
f 29 56 30
f 30 56 37
f 30 37 31
f 31 37 57
f 31 57 32
f 32 57 58
f 32 58 36
f 32 36 33
f 33 35 34
f 36 58 37
f 37 58 57
f 37 56 38
f 38 56 54
f 38 54 59
f 38 59 60
f 38 60 39
f 39 60 40
f 40 60 41
f 41 60 59
f 41 59 42
f 42 59 55
f 42 55 49
f 43 52 44
f 44 52 51
f 49 51 50
f 49 55 61
f 53 62 55
f 54 55 59
f 55 62 61
