# https://github.com/mikedh/trimesh
v 0.01752696 0.06277588 0.06874532
v 0.01411984 0.06208950 0.07271127
v 0.01938883 0.06571014 0.07039967
v 0.02403877 0.06816394 0.07079570
v 0.05427758 0.06270533 0.07484872
v 0.01608567 0.06373109 0.09420375
v 0.02716236 0.07424028 0.08538430
v 0.02738446 0.07436230 0.07960111
v 0.02194063 0.06880646 0.07390498
v 0.05947568 0.06240028 0.07770521
v 0.06225430 0.06214860 0.08128354
v 0.06076576 0.06239074 0.09256063
v 0.03224705 0.06295319 0.09743942
v 0.02618417 0.07138610 0.07282081
v 0.02983230 0.07394666 0.07352018
v 0.03074905 0.07408203 0.07350052
v 0.03010638 0.07244998 0.07288541
v 0.04698605 0.06938416 0.07490489
v 0.05009074 0.06684457 0.07495264
v 0.01920926 0.06394463 0.09683273
v 0.02238955 0.06770063 0.09633558
v 0.02591009 0.07279127 0.09299037
v 0.03505403 0.08025562 0.08577753
v 0.03638191 0.08060452 0.07952527
v 0.04639063 0.07502390 0.07866299
v 0.05461782 0.06948521 0.08021060
v 0.05768942 0.06629737 0.07986513
v 0.05843606 0.06579022 0.08053922
v 0.05878575 0.06582453 0.08179192
v 0.05937172 0.06546419 0.08304181
v 0.06239135 0.06258903 0.08646005
v 0.05853057 0.06560909 0.09034173
v 0.05455166 0.06942039 0.09124614
v 0.05394206 0.06943564 0.09236683
v 0.05753348 0.06490174 0.09358302
v 0.05759491 0.06288074 0.09508850
v 0.03199660 0.06689033 0.09741975
v 0.02323543 0.06463291 0.09743099
v 0.05179666 0.06430497 0.09653500
v 0.03332448 0.07705824 0.07521385
v 0.03641499 0.07690000 0.07512397
v 0.03968507 0.07827465 0.07687663
v 0.02386865 0.06814487 0.09685239
v 0.02935502 0.07227458 0.09676813
v 0.03454367 0.07939955 0.09234436
v 0.03825323 0.08156736 0.08585617
v 0.04114527 0.08034904 0.08123017
v 0.04511000 0.07639093 0.07916013
v 0.05139026 0.07229555 0.08018813
v 0.05673959 0.06787985 0.08366535
v 0.05765162 0.06689033 0.08804699
v 0.05294024 0.07127170 0.08562024
v 0.05134773 0.07205150 0.09080798
v 0.04266689 0.07880660 0.09126861
v 0.04611655 0.07554440 0.09283589
v 0.04763345 0.07376744 0.09367570
v 0.05209437 0.06886366 0.09443126
v 0.04673559 0.07283321 0.09520647
v 0.04341353 0.07471503 0.09588618
v 0.04849823 0.06886176 0.09633839
v 0.03631103 0.07710210 0.09667544
v 0.03837609 0.08085429 0.09181070
v 0.04448623 0.07813929 0.08142679
v 0.04242589 0.07808018 0.09319822
f 1 2 3
f 1 3 4
f 1 4 5
f 1 5 2
f 2 6 7
f 2 7 8
f 2 8 9
f 2 9 3
f 2 5 10
f 2 10 11
f 2 11 12
f 2 12 13
f 2 13 6
f 3 9 14
f 3 14 15
f 3 15 4
f 4 15 16
f 4 16 17
f 4 17 18
f 4 18 5
f 5 18 19
f 5 19 10
f 6 13 20
f 6 20 21
f 6 21 22
f 6 22 7
f 7 22 23
f 7 23 8
f 8 23 24
f 8 24 9
f 9 24 14
f 10 19 25
f 10 25 26
f 10 26 27
f 10 27 11
f 11 27 28
f 11 28 29
f 11 29 30
f 11 30 31
f 11 31 12
f 12 31 32
f 12 32 33
f 12 33 34
f 12 34 35
f 12 35 36
f 12 36 13
f 13 37 38
f 13 38 20
f 13 36 39
f 13 39 37
f 14 24 40
f 14 40 15
f 15 40 16
f 16 40 41
f 16 41 17
f 17 41 18
f 18 41 42
f 18 42 19
f 19 42 25
f 20 38 43
f 20 43 21
f 21 43 44
f 21 44 45
f 21 45 22
f 22 45 23
f 23 45 46
f 23 46 24
f 24 46 47
f 24 47 42
f 24 42 41
f 24 41 40
f 25 48 49
f 25 49 26
f 25 42 48
f 26 50 30
f 26 30 29
f 26 29 28
f 26 28 27
f 26 49 50
f 30 50 31
f 31 50 51
f 31 51 33
f 31 33 32
f 33 51 52
f 33 52 53
f 33 53 54
f 33 54 55
f 33 55 34
f 34 55 56
f 34 56 35
f 35 56 57
f 35 57 36
f 36 57 58
f 36 58 59
f 36 59 60
f 36 60 39
f 37 39 61
f 37 61 38
f 38 44 43
f 38 61 44
f 39 60 61
f 42 47 48
f 44 61 45
f 45 61 62
f 45 62 46
f 46 62 54
f 46 54 47
f 47 54 63
f 47 63 48
f 48 63 49
f 49 63 52
f 49 52 50
f 50 52 51
f 52 63 54
f 52 54 53
f 54 62 64
f 54 64 55
f 55 64 56
f 56 64 59
f 56 59 58
f 56 58 57
f 59 64 61
f 59 61 60
f 61 64 62
