# https://github.com/mikedh/trimesh
v -0.02802172 -0.02707475 0.09334185
v -0.02916249 -0.02707475 0.09334185
v -0.02802172 -0.02982712 0.09334185
v -0.02802172 -0.02707475 0.07797686
v -0.03533388 -0.02707475 0.09333132
v -0.03532858 -0.02707879 0.09334185
v -0.03297389 -0.02982712 0.09334185
v -0.02802172 -0.02982712 0.07797686
v -0.03551730 -0.02707475 0.07797686
v -0.03648632 -0.02707475 0.08554579
v -0.03885267 -0.02982712 0.08554579
v -0.03873074 -0.02982712 0.08620611
v -0.03860352 -0.02982712 0.08659569
v -0.03848478 -0.02982712 0.08685892
v -0.03839572 -0.02982712 0.08705296
v -0.03798755 -0.02982712 0.08794191
v -0.03781262 -0.02982712 0.08829840
v -0.03757195 -0.02982712 0.08878424
v -0.03742141 -0.02982712 0.08908357
v -0.03714681 -0.02982712 0.08957393
v -0.03665701 -0.02982712 0.09017258
v -0.03492147 -0.02756244 0.09334185
v -0.03313822 -0.02982712 0.07797686
v -0.03869046 -0.02982712 0.08451694
v -0.03501370 -0.02766699 0.07797686
v -0.03787199 -0.02982712 0.08327601
v -0.03841693 -0.02982712 0.08400252
f 1 2 6
f 1 6 22
f 1 22 7
f 1 7 3
f 1 3 8
f 1 8 4
f 1 4 9
f 1 9 10
f 1 10 5
f 1 5 2
f 2 5 6
f 3 7 21
f 3 21 20
f 3 20 19
f 3 19 18
f 3 18 17
f 3 17 16
f 3 16 15
f 3 15 14
f 3 14 13
f 3 13 12
f 3 12 11
f 3 11 24
f 3 24 27
f 3 27 26
f 3 26 23
f 3 23 8
f 4 8 23
f 4 23 25
f 4 25 9
f 5 10 11
f 5 11 12
f 5 12 13
f 5 13 14
f 5 14 15
f 5 15 16
f 5 16 17
f 5 17 18
f 5 18 6
f 6 18 19
f 6 19 20
f 6 20 21
f 6 21 22
f 7 22 21
f 9 24 11
f 9 11 10
f 9 25 26
f 9 26 27
f 9 27 24
f 23 26 25
