# https://github.com/mikedh/trimesh
v -0.05105818 0.06963921 0.00019478
v -0.05105818 0.07975258 0.00019478
v -0.02213674 0.06963921 0.00019478
v -0.13462769 0.06963921 0.00020018
v -0.13581593 0.07504238 0.00020018
v -0.13605134 0.07975258 0.00020018
v -0.02486073 0.07975258 0.00019478
v -0.02427782 0.07826567 0.00019478
v -0.02153141 0.06963921 0.01002122
v -0.13275564 0.06963921 0.01680087
v -0.13300226 0.07209430 0.01945330
v -0.13358517 0.07975258 0.01797312
v -0.02569026 0.07975258 0.01193897
v -0.02154261 0.06963921 0.01010225
v -0.13220636 0.06963921 0.01983145
v -0.12623150 0.06963921 0.03020890
v -0.12293580 0.06963921 0.03547596
v -0.13091722 0.07975258 0.02298628
v -0.03527469 0.07975258 0.03444416
v -0.03232650 0.06963921 0.03377430
v -0.12192691 0.06963921 0.03632409
v -0.12221837 0.07975258 0.03688051
v -0.04184367 0.07975258 0.04091589
v -0.04386145 0.06963921 0.04512413
v -0.10510091 0.06963921 0.04848424
v -0.11236490 0.07975258 0.04507551
v -0.05770562 0.07975258 0.05096921
v -0.06463332 0.06963921 0.05531251
v -0.10674876 0.07975258 0.04913250
v -0.09417130 0.06963921 0.05229273
v -0.10310556 0.07975258 0.05040739
v -0.06798507 0.07975258 0.05538274
v -0.08536035 0.06963921 0.05428611
v -0.10086359 0.07975258 0.05091519
v -0.08476623 0.07975258 0.05455081
v -0.08855516 0.07975258 0.05369728
f 1 2 7
f 1 7 8
f 1 8 3
f 1 3 9
f 1 9 14
f 1 14 20
f 1 20 24
f 1 24 28
f 1 28 33
f 1 33 30
f 1 30 25
f 1 25 21
f 1 21 17
f 1 17 16
f 1 16 15
f 1 15 10
f 1 10 4
f 1 4 5
f 1 5 6
f 1 6 2
f 2 6 12
f 2 12 18
f 2 18 22
f 2 22 26
f 2 26 29
f 2 29 31
f 2 31 34
f 2 34 36
f 2 36 35
f 2 35 32
f 2 32 27
f 2 27 23
f 2 23 19
f 2 19 13
f 2 13 7
f 3 8 9
f 4 10 11
f 4 11 5
f 5 11 6
f 6 11 12
f 7 13 9
f 7 9 8
f 9 13 14
f 10 15 11
f 11 15 16
f 11 16 17
f 11 17 18
f 11 18 12
f 13 19 14
f 14 19 20
f 17 21 22
f 17 22 18
f 19 23 20
f 20 23 24
f 21 25 26
f 21 26 22
f 23 27 24
f 24 27 28
f 25 29 26
f 25 30 31
f 25 31 29
f 27 32 28
f 28 32 33
f 30 33 34
f 30 34 31
f 32 35 33
f 33 35 36
f 33 36 34
