# https://github.com/mikedh/trimesh
v 0.00418007 0.04428539 0.05925097
v 0.04449840 0.00412991 0.05925097
v 0.01841721 0.04094198 0.05821156
v 0.01728136 0.04021628 0.05079601
v -0.00170728 0.04379295 0.05061346
v -0.00900793 0.04368928 0.05925097
v 0.04428164 -0.00758499 0.05839038
v 0.04404753 -0.00562387 0.05199282
v 0.04398683 0.00266986 0.05068052
v 0.04036252 0.01722709 0.05085468
v 0.03910528 0.02164177 0.05771700
v 0.03256764 0.03106725 0.05756892
v -0.04244180 -0.01246620 0.05925097
v 0.03462257 -0.02811198 0.05878156
v 0.02579590 0.03563745 0.05092733
v 0.02715718 0.03325300 0.04979013
v 0.01194893 0.03557697 0.04973611
v -0.00990967 0.04244522 0.05029679
v -0.01056864 0.04279943 0.05174228
v -0.01780860 0.04067416 0.05811656
v -0.02566417 0.03616444 0.05862509
v -0.03552265 0.02543443 0.05925097
v 0.04216601 -0.01449643 0.05667108
v 0.04172381 -0.01201695 0.05028469
v 0.04109952 0.00944308 0.04975660
v 0.03574109 0.02419901 0.05061253
v -0.04401118 0.00052731 0.05862509
v -0.04408055 -0.00617678 0.05752980
v -0.04045623 -0.01669082 0.05136228
v -0.03984929 -0.01917030 0.05799921
v -0.03708336 -0.02475129 0.05786230
v -0.02989543 -0.03277720 0.05851333
v -0.00719577 -0.04393054 0.05711534
v 0.02525832 -0.03651802 0.05691789
v 0.03685959 -0.02425885 0.05470310
v -0.01792132 -0.04063033 0.05770397
v 0.03072947 -0.02699751 0.04975101
v -0.01932596 0.02180592 0.04974729
v -0.02684338 0.02932211 0.04975287
v -0.02304565 0.03716660 0.05238678
v -0.03140411 0.03130915 0.05731465
v -0.03557468 0.02433724 0.05234301
v -0.04318747 0.01187936 0.05454756
v -0.04395916 -0.00039709 0.05236816
v -0.04375107 0.00572818 0.05181865
v -0.04385511 -0.00133877 0.05066282
v -0.03459490 -0.02724805 0.05048959
v -0.03481167 -0.02745539 0.05174228
v -0.02606302 -0.03604286 0.05510172
v 0.00082454 -0.04397374 0.05038714
v 0.00828993 -0.04347266 0.05471614
v 0.01858195 -0.04048346 0.05590642
v -0.01371607 -0.04140787 0.05108752
v 0.01527845 -0.04078584 0.05014498
v 0.02533635 -0.03370161 0.05032287
v -0.02165835 -0.03823724 0.05143492
v 0.00898358 -0.04253098 0.04982738
v -0.01503401 -0.04016381 0.04985067
v -0.03182897 -0.02949426 0.04985533
v -0.03863540 0.01581888 0.04981993
v -0.02247339 -0.03701910 0.04986277
v -0.00674490 -0.04225452 0.04999876
f 1 2 3
f 1 3 4
f 1 4 5
f 1 5 6
f 1 6 22
f 1 22 13
f 1 13 2
f 2 7 8
f 2 8 9
f 2 9 10
f 2 10 11
f 2 11 12
f 2 12 3
f 2 13 14
f 2 14 7
f 3 12 15
f 3 15 4
f 4 15 16
f 4 16 5
f 5 16 17
f 5 17 18
f 5 18 19
f 5 19 6
f 6 19 20
f 6 20 21
f 6 21 22
f 7 14 23
f 7 23 8
f 8 23 24
f 8 24 9
f 9 24 25
f 9 25 10
f 10 25 26
f 10 26 11
f 11 26 12
f 12 26 15
f 13 22 27
f 13 27 28
f 13 28 29
f 13 29 30
f 13 30 31
f 13 31 32
f 13 32 14
f 14 33 34
f 14 34 35
f 14 35 23
f 14 32 36
f 14 36 33
f 15 26 16
f 16 26 25
f 16 25 17
f 17 25 37
f 17 37 38
f 17 38 39
f 17 39 18
f 18 39 40
f 18 40 19
f 19 40 20
f 20 40 21
f 21 40 41
f 21 41 22
f 22 42 43
f 22 43 27
f 22 41 42
f 23 35 24
f 24 35 37
f 24 37 25
f 27 44 28
f 27 43 45
f 27 45 44
f 28 44 46
f 28 46 29
f 29 46 47
f 29 47 48
f 29 48 31
f 29 31 30
f 31 48 32
f 32 48 49
f 32 49 36
f 33 50 51
f 33 51 52
f 33 52 34
f 33 36 53
f 33 53 50
f 34 52 54
f 34 54 55
f 34 55 35
f 35 55 37
f 36 49 56
f 36 56 53
f 37 55 54
f 37 54 57
f 37 57 58
f 37 58 59
f 37 59 38
f 38 59 39
f 39 59 60
f 39 60 42
f 39 42 40
f 40 42 41
f 42 60 43
f 43 60 45
f 44 45 46
f 45 60 46
f 46 60 59
f 46 59 47
f 47 59 48
f 48 59 49
f 49 59 61
f 49 61 56
f 50 53 62
f 50 62 57
f 50 57 51
f 51 57 54
f 51 54 52
f 53 56 58
f 53 58 62
f 56 61 58
f 57 62 58
f 58 61 59
