# https://github.com/mikedh/trimesh
v -0.07501056 0.06851230 -0.05492911
v -0.05330637 0.06851230 -0.05052610
v -0.06055740 0.04439281 -0.05431938
v -0.06554631 0.05270654 -0.05452982
v -0.07762729 0.04439281 -0.05332654
v -0.07897234 0.06851230 -0.05469708
v -0.04826855 0.06851230 -0.04704579
v -0.03564954 0.04439990 -0.04916635
v -0.03566177 0.04439281 -0.04917175
v -0.08240833 0.04439281 -0.05229593
v -0.08992838 0.05270654 -0.05125994
v -0.08679808 0.05270654 -0.05193441
v -0.10352560 0.06851230 -0.04943614
v -0.04469805 0.06851230 -0.04456910
v -0.03212796 0.06851230 -0.03453823
v -0.01421436 0.05572413 -0.02396778
v -0.01992470 0.05270654 -0.03067481
v -0.01027704 0.05705584 0.00018938
v -0.03566177 0.04439281 -0.04914477
v -0.10038308 0.04439281 -0.04630116
v -0.10292644 0.04501144 -0.04556733
v -0.09096773 0.05270654 -0.05091460
v -0.10422258 0.06851230 -0.04928506
v -0.02279822 0.06851230 -0.01509703
v -0.03676227 0.04439281 0.00018938
v -0.01038709 0.05718571 0.00018938
v -0.10281639 0.04439281 -0.04536768
v -0.11862683 0.05270654 -0.03498069
v -0.12471623 0.05591303 -0.03097698
v -0.10433263 0.05270654 -0.04645764
v -0.10721837 0.06851230 -0.04828683
v -0.02139203 0.06851230 0.00018938
v -0.12833563 0.04439281 0.00018938
v -0.11351564 0.04439281 -0.03557963
v -0.12378692 0.05270654 -0.02956327
v -0.12648925 0.05270654 -0.02415664
v -0.13519538 0.06851230 -0.00702486
v -0.13226073 0.06851230 -0.01555567
v -0.12650148 0.06851230 -0.02907225
v -0.12331004 0.06851230 -0.03325402
v -0.11210946 0.06851230 -0.04436406
v -0.13437612 0.06851230 0.00018938
v -0.13078118 0.05270654 0.00018938
v -0.12866578 0.04439281 -0.00162902
v -0.12135361 0.04439281 -0.02591029
v -0.12946059 0.04439281 -0.00968500
v -0.13037766 0.04563952 -0.00911304
v -0.13186944 0.05270654 -0.00847094
v -0.13123360 0.05425784 0.00018938
v -0.12966846 0.04439281 -0.00846555
v -0.12966846 0.04439281 -0.00854648
f 1 2 3
f 1 3 4
f 1 4 5
f 1 5 6
f 1 6 13
f 1 13 23
f 1 23 31
f 1 31 41
f 1 41 40
f 1 40 39
f 1 39 38
f 1 38 37
f 1 37 42
f 1 42 32
f 1 32 24
f 1 24 15
f 1 15 14
f 1 14 7
f 1 7 2
f 2 7 8
f 2 8 9
f 2 9 3
f 3 5 4
f 3 9 19
f 3 19 25
f 3 25 33
f 3 33 44
f 3 44 50
f 3 50 51
f 3 51 46
f 3 46 45
f 3 45 34
f 3 34 27
f 3 27 20
f 3 20 10
f 3 10 5
f 5 10 11
f 5 11 12
f 5 12 6
f 6 12 13
f 7 14 8
f 8 14 15
f 8 15 16
f 8 16 17
f 8 17 9
f 9 17 18
f 9 18 19
f 10 20 21
f 10 21 22
f 10 22 11
f 11 22 23
f 11 23 13
f 11 13 12
f 15 24 16
f 16 18 17
f 16 24 18
f 18 25 19
f 18 24 26
f 18 26 32
f 18 32 42
f 18 42 49
f 18 49 43
f 18 43 33
f 18 33 25
f 20 27 21
f 21 27 28
f 21 28 29
f 21 29 30
f 21 30 22
f 22 30 31
f 22 31 23
f 24 32 26
f 27 34 28
f 28 34 29
f 29 34 35
f 29 35 36
f 29 36 37
f 29 37 38
f 29 38 39
f 29 39 40
f 29 40 41
f 29 41 31
f 29 31 30
f 33 43 44
f 34 45 35
f 35 45 36
f 36 46 47
f 36 47 48
f 36 48 37
f 36 45 46
f 37 48 49
f 37 49 42
f 43 49 47
f 43 47 44
f 44 47 50
f 46 51 47
f 47 51 50
f 47 49 48
