# https://github.com/mikedh/trimesh
v -0.00396566 -0.05590263 -0.12299796
v -0.03471092 -0.04308870 -0.12298675
v -0.05171567 -0.02085824 -0.12299796
v -0.01396763 0.05474718 -0.12300916
v 0.01688923 -0.03686199 -0.12297555
v 0.01284380 -0.05028766 -0.12296435
v 0.01688923 -0.04894400 -0.12295314
v 0.01284380 -0.05280020 -0.09993031
v 0.01688923 -0.05456989 -0.05478091
v 0.01285078 -0.05473376 -0.06090913
v 0.00314174 -0.05510517 -0.07561909
v -0.02546223 -0.04876922 -0.07275104
v -0.04221589 -0.03097393 -0.05601327
v -0.05436613 0.00975097 -0.12295314
v -0.04323422 0.03438473 -0.12297555
v -0.05426848 -0.00632925 -0.07614565
v -0.02462525 0.04973303 -0.08441371
v 0.00453672 0.05569757 -0.07849835
v 0.01688923 0.05526061 -0.06055062
v 0.01688923 0.04926330 -0.12294194
v 0.01285078 0.04997337 -0.12295314
v 0.01688923 -0.05204644 -0.09439587
v 0.01688923 -0.05334640 -0.03472695
v 0.01284380 -0.05322624 -0.03613857
v 0.00495521 -0.05298591 -0.03891700
v -0.02041940 -0.04556847 -0.04511244
v -0.01805491 -0.03959301 -0.02964064
v -0.03312065 -0.01840033 -0.02605558
v -0.04787251 -0.00910396 -0.04573982
v -0.05050204 0.01942969 -0.07216847
v -0.04052797 0.03530235 -0.06856100
v -0.01688313 0.04891373 -0.04912323
v 0.01284380 0.05273715 -0.03823359
v 0.01688923 0.05325058 -0.03675475
v 0.01688923 -0.05106327 -0.02855392
v 0.01284380 -0.05171871 -0.03206056
v 0.01284380 -0.04584157 -0.02196636
v 0.01284380 -0.03983334 -0.01751864
v 0.01285078 -0.03769222 -0.01593897
v -0.01825021 -0.01833479 -0.01648794
v -0.03678943 0.00790481 -0.02576429
v -0.04021410 0.02440014 -0.04014936
v -0.01488832 0.04055682 -0.02897965
v 0.01284380 0.05025739 -0.02734396
v 0.01688923 0.05166659 -0.02709749
v 0.01284380 0.05196154 -0.03113069
v 0.01688923 0.05237665 -0.02868836
v 0.01688923 -0.04663903 -0.02096927
v 0.01688923 -0.03986611 -0.01593897
v 0.01393886 -0.03761575 -0.01545723
v 0.01285078 -0.03697123 -0.01549084
v 0.01688923 -0.03387973 -0.01238752
v 0.01688923 -0.02193973 -0.01005723
v 0.01688923 0.02641016 -0.00857839
v -0.02116571 0.02377747 -0.01969209
v 0.01688923 0.04620456 -0.01774271
v 0.01688923 0.03923501 -0.01437051
f 1 2 3
f 1 3 4
f 1 4 5
f 1 5 6
f 1 6 7
f 1 7 8
f 1 8 9
f 1 9 10
f 1 10 11
f 1 11 12
f 1 12 2
f 2 12 13
f 2 13 3
f 3 14 15
f 3 15 4
f 3 13 16
f 3 16 14
f 4 15 17
f 4 17 18
f 4 18 19
f 4 19 20
f 4 20 21
f 4 21 5
f 5 21 20
f 5 20 19
f 5 19 34
f 5 34 47
f 5 47 45
f 5 45 56
f 5 56 57
f 5 57 54
f 5 54 53
f 5 53 52
f 5 52 49
f 5 49 48
f 5 48 35
f 5 35 23
f 5 23 9
f 5 9 22
f 5 22 7
f 5 7 6
f 7 22 8
f 8 22 9
f 9 23 24
f 9 24 10
f 10 24 25
f 10 25 11
f 11 25 12
f 12 25 26
f 12 26 13
f 13 26 27
f 13 27 28
f 13 28 29
f 13 29 16
f 14 16 30
f 14 30 15
f 15 30 31
f 15 31 17
f 16 29 30
f 17 31 32
f 17 32 18
f 18 32 33
f 18 33 34
f 18 34 19
f 23 35 36
f 23 36 24
f 24 36 25
f 25 36 37
f 25 37 27
f 25 27 26
f 27 37 38
f 27 38 39
f 27 39 40
f 27 40 28
f 28 41 29
f 28 40 41
f 29 42 30
f 29 41 42
f 30 42 31
f 31 42 32
f 32 42 43
f 32 43 44
f 32 44 45
f 32 45 46
f 32 46 33
f 33 46 47
f 33 47 34
f 35 48 37
f 35 37 36
f 37 48 49
f 37 49 38
f 38 49 39
f 39 49 50
f 39 50 51
f 39 51 40
f 40 51 52
f 40 52 53
f 40 53 54
f 40 54 55
f 40 55 41
f 41 55 42
f 42 55 43
f 43 55 56
f 43 56 44
f 44 56 45
f 45 47 46
f 49 52 50
f 50 52 51
f 54 57 55
f 55 57 56
