# https://github.com/mikedh/trimesh
v 0.01128055 -0.00044318 -0.07487247
v 0.02100923 -0.01055819 -0.06625592
v 0.01386357 -0.00066817 -0.07487247
v 0.02569890 -0.00176497 -0.07810382
v -0.02914802 -0.00176497 -0.07790896
v -0.00026896 -0.00579598 -0.06949655
v 0.02194081 -0.01074567 -0.06625592
v -0.00725583 -0.00903016 -0.06625592
v 0.04101708 -0.00770836 -0.07810382
v -0.05337974 -0.02778838 -0.07810382
v -0.03021722 -0.00196184 -0.07808062
v -0.03014312 -0.01293929 -0.06625592
v 0.04335662 -0.01991386 -0.06625592
v 0.04706178 -0.01644533 -0.07810382
v -0.05393023 -0.02861333 -0.07810382
v -0.04615998 -0.02279181 -0.06625592
v -0.04424389 -0.02111379 -0.06625592
v 0.04396004 -0.02095442 -0.06625592
v 0.05406982 -0.02740403 -0.07810382
v -0.05397257 -0.03105068 -0.07487247
v -0.05319978 -0.03662846 -0.07810382
v -0.05407843 -0.03754716 -0.06625592
v 0.05387927 -0.03912206 -0.06625592
v 0.05385810 -0.03825961 -0.06662359
v 0.05396396 -0.03586914 -0.06949771
v 0.05305355 -0.03743466 -0.07487247
v 0.05326527 -0.03301931 -0.07810382
v -0.05397257 -0.03583164 -0.06949655
v -0.05324212 -0.04378115 -0.06949655
v -0.05285044 -0.04035011 -0.07810382
v -0.05299864 -0.04164378 -0.07487247
v -0.05337974 -0.04508420 -0.06625592
v 0.05302179 -0.04372490 -0.06625592
v 0.05043877 -0.05758030 -0.06625592
v 0.05198435 -0.04083758 -0.07810382
v 0.05268304 -0.03705969 -0.07810382
v -0.04294179 -0.07114510 -0.06625592
v -0.04277241 -0.06149881 -0.07810382
v -0.04282534 -0.06412365 -0.07487247
v 0.05053404 -0.05089634 -0.07487247
v 0.03731192 -0.07761345 -0.06625592
v 0.03741779 -0.06891399 -0.07810382
v 0.05056580 -0.04838399 -0.07810382
v -0.03116997 -0.07449177 -0.07810382
v -0.03039718 -0.07534484 -0.07810382
v -0.03216507 -0.08260065 -0.06625592
v 0.03479242 -0.08000393 -0.06625592
v 0.03495121 -0.07082637 -0.07810382
v -0.00905548 -0.08666915 -0.07810382
v -0.00410115 -0.09609982 -0.06625592
v -0.00770045 -0.08924712 -0.07487247
v -0.00546677 -0.09352185 -0.06949771
v 0.03227291 -0.08154134 -0.06625592
v 0.00932211 -0.08521611 -0.07810382
v -0.00518094 -0.08680977 -0.07810382
v -0.00108409 -0.09367184 -0.06949771
v -0.00124289 -0.09619357 -0.06625592
v 0.00215527 -0.09560298 -0.06625592
v 0.00737425 -0.08805656 -0.07487247
v 0.00779770 -0.08549735 -0.07810382
v -0.00067123 -0.08695038 -0.07810382
f 1 2 3
f 1 3 4
f 1 4 5
f 1 5 6
f 1 6 2
f 2 7 3
f 2 6 8
f 2 8 12
f 2 12 17
f 2 17 16
f 2 16 22
f 2 22 32
f 2 32 37
f 2 37 46
f 2 46 50
f 2 50 57
f 2 57 58
f 2 58 53
f 2 53 47
f 2 47 41
f 2 41 34
f 2 34 33
f 2 33 23
f 2 23 18
f 2 18 13
f 2 13 7
f 3 7 4
f 4 7 9
f 4 9 14
f 4 14 19
f 4 19 27
f 4 27 36
f 4 36 35
f 4 35 43
f 4 43 42
f 4 42 48
f 4 48 54
f 4 54 60
f 4 60 61
f 4 61 55
f 4 55 49
f 4 49 45
f 4 45 44
f 4 44 38
f 4 38 30
f 4 30 21
f 4 21 15
f 4 15 10
f 4 10 11
f 4 11 5
f 5 11 12
f 5 12 8
f 5 8 6
f 7 13 9
f 9 13 14
f 10 15 16
f 10 16 11
f 11 16 17
f 11 17 12
f 13 18 19
f 13 19 14
f 15 20 16
f 15 21 20
f 16 20 22
f 18 23 24
f 18 24 19
f 19 24 25
f 19 25 26
f 19 26 27
f 20 21 28
f 20 28 22
f 21 29 22
f 21 22 28
f 21 30 31
f 21 31 29
f 22 29 32
f 23 25 24
f 23 33 26
f 23 26 25
f 26 33 34
f 26 34 35
f 26 35 36
f 26 36 27
f 29 31 37
f 29 37 32
f 30 38 39
f 30 39 37
f 30 37 31
f 34 40 35
f 34 41 42
f 34 42 40
f 35 40 43
f 37 39 44
f 37 44 45
f 37 45 46
f 38 44 39
f 40 42 43
f 41 47 42
f 42 47 48
f 45 49 46
f 46 49 51
f 46 51 52
f 46 52 50
f 47 53 48
f 48 53 54
f 49 55 51
f 50 52 56
f 50 56 57
f 51 55 52
f 52 55 56
f 53 58 59
f 53 59 54
f 54 59 60
f 55 61 56
f 56 61 60
f 56 60 58
f 56 58 57
f 58 60 59
