# https://github.com/mikedh/trimesh
v 0.06058534 0.06142725 -0.05222110
v 0.04793668 0.06142725 -0.05094773
v 0.06058534 0.07420671 -0.04754561
v 0.06058534 0.06142725 0.04708213
v 0.03495072 0.06142725 -0.04043030
v 0.05832347 0.09826022 -0.03532711
v 0.06058534 0.09794132 -0.03642551
v 0.06058534 0.07804289 -0.04613615
v 0.06058534 0.06484136 0.04684884
v 0.05580696 0.06142725 0.04575044
v 0.02718295 0.06142725 -0.01541008
v 0.04084682 0.09703151 -0.01484630
v 0.06058534 0.10670169 -0.01835535
v 0.06058534 0.10224647 -0.02890195
v 0.06058534 0.09927789 -0.03431619
v 0.06058534 0.07420671 0.04474924
v 0.05332683 0.06142725 0.04477840
v 0.02680267 0.06142725 -0.01251342
v 0.03330061 0.08437399 0.00542065
v 0.03208700 0.07420671 -0.01520596
v 0.04168345 0.09790849 0.01417870
v 0.05276136 0.10722225 0.00660654
v 0.06058534 0.10804295 -0.01107480
v 0.06058534 0.09371590 0.04034592
v 0.05908073 0.09486956 0.03950997
v 0.05552588 0.07420671 0.04276628
v 0.05202393 0.06142725 0.04365084
v 0.03418353 0.06142725 0.02166338
v 0.03369081 0.07420671 0.01261372
v 0.03811206 0.07420671 0.02553208
v 0.04072446 0.08532601 0.02653328
v 0.06058534 0.09603730 0.03825604
v 0.06058534 0.10794447 0.01188470
v 0.06058534 0.10933731 0.00401120
v 0.06058534 0.09506653 0.03978214
v 0.03676617 0.06142725 0.02626111
v 0.03511275 0.06142725 0.02437536
f 1 2 3
f 1 3 8
f 1 8 7
f 1 7 15
f 1 15 14
f 1 14 13
f 1 13 23
f 1 23 34
f 1 34 33
f 1 33 32
f 1 32 35
f 1 35 24
f 1 24 16
f 1 16 9
f 1 9 4
f 1 4 10
f 1 10 17
f 1 17 27
f 1 27 36
f 1 36 37
f 1 37 28
f 1 28 18
f 1 18 11
f 1 11 5
f 1 5 2
f 2 5 6
f 2 6 7
f 2 7 8
f 2 8 3
f 4 9 10
f 5 11 12
f 5 12 6
f 6 12 13
f 6 13 14
f 6 14 15
f 6 15 7
f 9 16 10
f 10 16 26
f 10 26 17
f 11 18 19
f 11 19 20
f 11 20 12
f 12 20 19
f 12 19 21
f 12 21 22
f 12 22 13
f 13 22 23
f 16 24 25
f 16 25 26
f 17 26 27
f 18 28 29
f 18 29 19
f 19 29 28
f 19 28 30
f 19 30 31
f 19 31 21
f 21 31 25
f 21 25 22
f 22 25 32
f 22 32 33
f 22 33 34
f 22 34 23
f 24 35 25
f 25 35 32
f 25 31 26
f 26 31 27
f 27 31 30
f 27 30 36
f 28 37 30
f 30 37 36
