# https://github.com/mikedh/trimesh
v -0.03070141 -0.08135427 -0.00108830
v -0.05068802 -0.09589391 0.00023009
v -0.04686171 -0.08934987 0.00023009
v -0.04267200 -0.08441087 0.00023009
v -0.02173415 -0.07700329 -0.00108830
v 0.02966459 -0.08135427 -0.00108830
v -0.05447158 -0.09589391 0.00866266
v -0.05309283 -0.07700329 0.02704311
v 0.04988634 -0.09589391 0.00023009
v -0.04210553 -0.07700329 0.01108542
v 0.01629386 -0.07700329 -0.00108830
v 0.04151762 -0.07700329 0.00921057
v 0.03986097 -0.08411501 0.00023009
v 0.04986497 -0.09586432 0.00023009
v 0.02164857 -0.07874331 -0.00108830
v -0.05392649 -0.07700329 0.02945730
v -0.05152169 -0.09589391 0.03045038
v -0.05387305 -0.08171855 0.02585313
v 0.05280418 -0.09589391 0.00367161
v 0.04551494 -0.07700329 0.01380782
v 0.04606003 -0.07700329 0.01444133
v 0.04762048 -0.08135427 0.01195865
v -0.05208815 -0.08135427 0.03893432
v -0.05207746 -0.07700329 0.04252993
v -0.05077353 -0.09589391 0.03595509
v 0.05471733 -0.09589391 0.00714737
v 0.04998253 -0.07700329 0.02158976
v 0.05431119 -0.08135427 0.02414949
v -0.05178889 -0.08135427 0.04100608
v -0.04287507 -0.07700329 0.06226301
v -0.04198797 -0.09589391 0.05407871
v 0.05404399 -0.08135427 0.03122087
v 0.05393711 -0.08135427 0.03404599
v 0.05400124 -0.09589391 0.02569047
v 0.05417224 -0.07700329 0.02924328
v -0.03122512 -0.07700329 0.07564383
v -0.02842485 -0.09589391 0.06587575
v 0.05390504 -0.07700329 0.03592085
v 0.05386229 -0.07700329 0.03610063
v 0.05223771 -0.08135427 0.03854907
v 0.05039937 -0.09589391 0.03715363
v 0.05388367 -0.09589391 0.02786496
v 0.05390504 -0.09589391 0.02777079
v 0.05402261 -0.07700329 0.03317277
v -0.01863462 -0.08135427 0.08140538
v -0.01749100 -0.07700329 0.08484690
v -0.02247162 -0.09589391 0.06985661
v 0.05277211 -0.07700329 0.03896000
v 0.05110478 -0.07700329 0.04254705
v 0.05184225 -0.08135427 0.03939661
v 0.03961515 -0.07700329 0.06709141
v 0.04160312 -0.09589391 0.05592788
v -0.02040883 -0.09589391 0.07023329
v -0.01527858 -0.08135427 0.08200465
v -0.00889782 -0.07700329 0.08637075
v 0.02262118 -0.07700329 0.08143106
v 0.02790106 -0.09589391 0.06555043
v -0.00026189 -0.09589391 0.07377754
v -0.00690985 -0.08135427 0.08347714
v 0.00942146 -0.07700329 0.08546329
v 0.02371136 -0.09589391 0.06778485
v 0.00718766 -0.08135427 0.08277514
f 1 2 3
f 1 3 4
f 1 4 5
f 1 5 11
f 1 11 15
f 1 15 6
f 1 6 9
f 1 9 2
f 2 7 8
f 2 8 3
f 2 9 19
f 2 19 26
f 2 26 34
f 2 34 43
f 2 43 42
f 2 42 41
f 2 41 52
f 2 52 57
f 2 57 61
f 2 61 58
f 2 58 53
f 2 53 47
f 2 47 37
f 2 37 31
f 2 31 25
f 2 25 17
f 2 17 7
f 3 8 4
f 4 8 10
f 4 10 5
f 5 10 8
f 5 8 16
f 5 16 24
f 5 24 30
f 5 30 36
f 5 36 46
f 5 46 55
f 5 55 60
f 5 60 56
f 5 56 51
f 5 51 49
f 5 49 48
f 5 48 39
f 5 39 38
f 5 38 44
f 5 44 35
f 5 35 27
f 5 27 21
f 5 21 20
f 5 20 12
f 5 12 11
f 6 12 13
f 6 13 14
f 6 14 9
f 6 15 12
f 7 16 8
f 7 17 18
f 7 18 16
f 9 14 19
f 11 12 15
f 12 20 13
f 13 20 14
f 14 20 21
f 14 21 22
f 14 22 19
f 16 18 23
f 16 23 24
f 17 25 18
f 18 25 23
f 19 22 26
f 21 27 28
f 21 28 22
f 22 28 26
f 23 29 24
f 23 25 29
f 24 29 30
f 25 31 30
f 25 30 29
f 26 28 32
f 26 32 33
f 26 33 34
f 27 35 28
f 28 35 32
f 30 31 36
f 31 37 36
f 32 35 33
f 33 38 39
f 33 39 40
f 33 40 41
f 33 41 42
f 33 42 43
f 33 43 34
f 33 35 44
f 33 44 38
f 36 37 45
f 36 45 46
f 37 47 45
f 39 48 40
f 40 48 49
f 40 49 50
f 40 50 41
f 41 51 52
f 41 50 51
f 45 53 54
f 45 54 46
f 45 47 53
f 46 54 55
f 49 51 50
f 51 56 52
f 52 56 57
f 53 58 59
f 53 59 54
f 54 59 55
f 55 59 60
f 56 60 61
f 56 61 57
f 58 62 59
f 58 61 62
f 59 62 60
f 60 62 61
