# https://github.com/mikedh/trimesh
v 0.01150975 0.00690817 -0.07810498
v 0.01129680 -0.00042409 -0.07487491
v 0.01388496 -0.00064430 -0.07487491
v 0.01627109 -0.00174452 -0.07487491
v 0.02572277 -0.00174452 -0.07810498
v -0.02657544 -0.00067479 -0.07810498
v 0.00161033 -0.00174452 -0.07487491
v -0.03005908 -0.00174452 -0.07810498
v -0.02830634 -0.00101951 -0.07810498
v -0.02916360 -0.00174452 -0.07790956
v -0.02988435 -0.00174452 -0.07801169
v -0.02981337 -0.00150821 -0.07810498
f 1 2 3
f 1 3 4
f 1 4 5
f 1 5 8
f 1 8 12
f 1 12 9
f 1 9 6
f 1 6 7
f 1 7 2
f 2 7 4
f 2 4 3
f 4 7 10
f 4 10 11
f 4 11 8
f 4 8 5
f 6 9 7
f 7 9 10
f 8 11 12
f 9 12 11
f 9 11 10
