# https://github.com/mikedh/trimesh
v -0.04969098 0.02626886 -0.05386392
v -0.04981379 0.02628022 -0.05383218
v -0.04970463 0.02628022 -0.05385864
v -0.04969098 0.02628022 -0.05385864
v -0.05100093 0.02628022 0.00018949
v -0.05625439 0.00971017 -0.01782302
v -0.05654094 0.00971017 -0.03679332
v -0.05613158 0.01161760 -0.04105303
v -0.08975366 0.02628022 -0.04097366
v -0.05671150 0.00971017 0.00018949
v -0.11938450 0.02628022 0.00018949
v -0.06498057 0.00971017 -0.02224678
v -0.09935997 0.01775514 -0.02251136
v -0.10007636 0.02628022 -0.03442269
v -0.06618818 0.00971017 0.00018949
v -0.11634159 0.02628022 -0.01644193
v -0.11867494 0.02520161 0.00018949
v -0.09145933 0.01401812 0.00018949
v -0.10144089 0.01634565 0.00018949
v -0.11778799 0.02471015 0.00018949
v -0.11593905 0.02628022 -0.01801881
f 1 2 3
f 1 3 4
f 1 4 5
f 1 5 6
f 1 6 7
f 1 7 8
f 1 8 9
f 1 9 2
f 2 9 14
f 2 14 21
f 2 21 16
f 2 16 11
f 2 11 5
f 2 5 4
f 2 4 3
f 5 10 6
f 5 11 17
f 5 17 20
f 5 20 19
f 5 19 18
f 5 18 15
f 5 15 10
f 6 10 15
f 6 15 12
f 6 12 7
f 7 12 13
f 7 13 8
f 8 13 14
f 8 14 9
f 11 16 17
f 12 15 18
f 12 18 19
f 12 19 13
f 13 19 20
f 13 20 21
f 13 21 14
f 16 21 17
f 17 21 20
