# https://github.com/mikedh/trimesh
v 0.06059407 0.00016795 -0.05803605
v 0.06059407 0.03635300 -0.05803605
v 0.07149139 0.00016795 -0.05803605
v 0.06059407 0.00016795 -0.05248613
v 0.06952318 0.02202305 -0.05803605
v 0.06059407 0.05170255 -0.05512207
v 0.09314164 0.08067275 -0.04976122
v 0.06955358 0.02185681 -0.05803605
v 0.07168897 0.00016795 -0.05802493
v 0.07209933 0.00016795 -0.05756892
v 0.07646889 0.00051152 0.05558719
v 0.07217532 0.00051152 0.05334053
v 0.06059407 0.00048935 0.03838132
v 0.09288326 0.00053368 -0.05436576
v 0.06059407 0.05729932 -0.05372068
v 0.07217532 0.08122689 -0.04844881
v 0.07899184 0.09533518 -0.04533463
v 0.10985238 0.05786453 -0.04660255
v 0.10564999 0.09648778 -0.03885045
v 0.07205373 0.00016795 -0.05764678
v 0.11816595 0.00053368 -0.04225381
v 0.13822795 0.00051152 0.00307982
v 0.11350001 0.00057801 0.04729011
v 0.09463109 0.04002137 0.05307360
v 0.08004814 0.07871111 0.05134967
v 0.06059407 0.06481339 0.04685635
v 0.06059407 0.04034277 0.04849130
v 0.06059407 0.00052260 0.04734572
v 0.06059407 0.07801290 -0.04613542
v 0.06059407 0.09792853 -0.03642584
v 0.08265468 0.10922181 -0.02444735
v 0.12728504 0.06235303 -0.02964136
v 0.11480708 0.10062163 -0.02481438
v 0.12915446 0.08325502 -0.01905314
v 0.13661691 0.00068884 -0.01584998
v 0.13329605 0.08110498 0.00329114
v 0.13436754 0.04037602 0.01746068
v 0.12669230 0.00078858 0.03512255
v 0.11449551 0.08315528 0.03832571
v 0.09881827 0.08290038 0.04731236
v 0.08033691 0.09762930 0.04336401
v 0.07217532 0.08534966 0.04666728
v 0.07217532 0.08479552 0.04688972
v 0.06059407 0.09370602 0.04033881
v 0.06059407 0.09926954 -0.03430152
v 0.07217532 0.10448949 -0.02914087
v 0.06059407 0.10223970 -0.02889618
v 0.06408972 0.10840169 -0.01896416
v 0.07558738 0.11338891 -0.00094638
v 0.10514844 0.11000868 0.00583809
v 0.12351582 0.09980151 -0.00748617
v 0.12262671 0.09751847 0.01721599
v 0.12745983 0.08304445 0.02230991
v 0.10318024 0.09992342 0.03602344
v 0.07802674 0.10955429 0.02367792
v 0.07217532 0.10501038 0.02857164
v 0.06059407 0.09601122 0.03824786
v 0.06059407 0.09504703 0.03976046
v 0.06059407 0.10668387 -0.01834132
v 0.06059407 0.10802488 -0.01105636
v 0.06059407 0.10932156 0.00401407
v 0.07216772 0.10901124 0.01970734
v 0.06059407 0.10792514 0.01188851
f 1 2 5
f 1 5 8
f 1 8 3
f 1 3 9
f 1 9 20
f 1 20 10
f 1 10 4
f 1 4 13
f 1 13 28
f 1 28 27
f 1 27 26
f 1 26 44
f 1 44 58
f 1 58 57
f 1 57 63
f 1 63 61
f 1 61 60
f 1 60 59
f 1 59 47
f 1 47 45
f 1 45 30
f 1 30 29
f 1 29 15
f 1 15 6
f 1 6 2
f 2 6 7
f 2 7 5
f 3 8 9
f 4 10 11
f 4 11 12
f 4 12 13
f 5 7 14
f 5 14 8
f 6 15 16
f 6 16 17
f 6 17 7
f 7 18 14
f 7 17 19
f 7 19 18
f 8 14 9
f 9 14 21
f 9 21 20
f 10 20 21
f 10 21 22
f 10 22 23
f 10 23 11
f 11 23 24
f 11 24 25
f 11 25 26
f 11 26 27
f 11 27 28
f 11 28 12
f 12 28 13
f 14 18 21
f 15 29 16
f 16 29 17
f 17 29 30
f 17 30 31
f 17 31 19
f 18 19 32
f 18 32 21
f 19 31 33
f 19 33 34
f 19 34 32
f 21 32 35
f 21 35 22
f 22 36 37
f 22 37 38
f 22 38 23
f 22 35 36
f 23 39 40
f 23 40 24
f 23 38 39
f 24 40 25
f 25 41 42
f 25 42 43
f 25 43 44
f 25 44 26
f 25 40 41
f 30 45 46
f 30 46 31
f 31 46 47
f 31 47 48
f 31 48 49
f 31 49 50
f 31 50 33
f 32 34 35
f 33 50 51
f 33 51 34
f 34 51 36
f 34 36 35
f 36 51 52
f 36 52 53
f 36 53 37
f 37 53 38
f 38 53 39
f 39 53 52
f 39 52 54
f 39 54 40
f 40 54 41
f 41 55 56
f 41 56 57
f 41 57 58
f 41 58 44
f 41 44 42
f 41 54 55
f 42 44 43
f 45 47 46
f 47 59 48
f 48 59 60
f 48 60 61
f 48 61 49
f 49 61 62
f 49 62 55
f 49 55 50
f 50 52 51
f 50 55 54
f 50 54 52
f 55 62 56
f 56 62 63
f 56 63 57
f 61 63 62
