# https://github.com/mikedh/trimesh
v 0.06058534 -0.03429961 -0.05224996
v 0.06058534 -0.03135392 -0.05759534
v 0.06440092 -0.03016620 -0.05440205
v 0.07209290 0.00016794 -0.05757948
v 0.06059661 0.00016794 -0.05250318
v 0.06058534 0.00016794 -0.05249865
v 0.06058534 -0.03057110 -0.05803663
v 0.06354137 -0.02526347 -0.05803663
v 0.07170311 -0.00008850 -0.05803663
v 0.07204220 0.00016794 -0.05765482
v 0.06058534 0.00016794 -0.05803663
v 0.07148457 0.00016794 -0.05803663
v 0.07167946 0.00016794 -0.05803550
f 1 2 3
f 1 3 4
f 1 4 5
f 1 5 6
f 1 6 11
f 1 11 7
f 1 7 2
f 2 7 8
f 2 8 3
f 3 8 9
f 3 9 4
f 4 9 10
f 4 10 13
f 4 13 12
f 4 12 11
f 4 11 6
f 4 6 5
f 7 11 12
f 7 12 9
f 7 9 8
f 9 12 13
f 9 13 10
