# https://github.com/mikedh/trimesh
v 0.05535329 0.01880671 0.12150046
v 0.05532703 0.01880671 0.12409761
v 0.05632480 0.01567785 0.12150046
v 0.05717815 0.01292925 0.11970925
v -0.06746364 0.01296908 0.11970925
v -0.06381391 0.01880671 0.12150046
v 0.05615413 0.01590600 0.12907122
v 0.05389603 0.01880671 0.13967265
v 0.05518262 0.01590600 0.13972389
v 0.05733570 0.01174506 0.13619665
v 0.05715189 0.01296908 0.12150046
v 0.05779519 0.01023134 0.13619665
v 0.05855664 0.00495503 0.11970925
v -0.07423793 0.00900008 0.11970925
v -0.07379156 0.00938756 0.12997963
v -0.06713542 0.01296908 0.13365861
v -0.05634381 0.01879222 0.13951304
v 0.03396700 0.01880671 0.13976133
v 0.04771252 0.01880671 0.13974162
v 0.05405358 0.01590600 0.13973965
v 0.05646921 0.01296908 0.13977906
v 0.05792647 0.00962295 0.13984015
v 0.05804463 0.00878280 0.13619665
v 0.05935748 0.00094256 0.13236003
v 0.05947564 0.00018208 0.13170188
v 0.05918681 0.00094256 0.11970925
v -0.07464491 -0.00087173 0.11970925
v -0.07413290 0.00094256 0.12982199
v -0.07451363 -0.00850555 0.12965844
v -0.06166084 0.01590600 0.13667745
v -0.05810303 0.01590600 0.13863222
v -0.05626504 0.01590600 0.13957019
v 0.04155527 0.01590600 0.13978892
v 0.02825611 -0.01818905 0.13980665
v 0.05733570 -0.00956661 0.13982833
v 0.05807089 -0.00945072 0.13982833
v 0.05872731 -0.00509061 0.13619665
v 0.05926558 -0.00045528 0.11970925
v 0.05931810 0.00001188 0.11970925
v -0.07453989 -0.00851279 0.11970925
v -0.06485107 -0.01818905 0.11977822
v -0.07284631 -0.00957023 0.13048606
v -0.06412900 -0.01508555 0.13482516
v -0.05963906 0.01296908 0.13778292
v -0.06256671 0.00943102 0.13619665
v -0.05537230 -0.01818905 0.13923717
v 0.05448681 -0.01818905 0.13977118
v 0.05805776 -0.00956661 0.13940860
v 0.05577340 -0.01508555 0.13965295
v 0.05817592 -0.00874094 0.13619665
v 0.05841223 -0.00600681 0.11970925
v -0.07372592 -0.00904151 0.11970925
v -0.05920582 -0.01818905 0.13726467
v -0.07289883 -0.00956661 0.11970925
v 0.05548457 -0.01818905 0.11977822
v 0.05552396 -0.01818905 0.12508682
v 0.05804463 -0.00957023 0.13861054
v 0.05551083 -0.01818905 0.12198127
v 0.05654799 -0.01435766 0.11977822
v 0.05690245 -0.01306846 0.11977822
v 0.05804463 -0.00938554 0.13619665
v 0.05766391 -0.00954488 0.11974472
f 1 2 3
f 1 3 4
f 1 4 5
f 1 5 6
f 1 6 18
f 1 18 19
f 1 19 8
f 1 8 2
f 2 7 3
f 2 8 9
f 2 9 7
f 3 7 10
f 3 10 11
f 3 11 4
f 4 11 12
f 4 12 13
f 4 13 26
f 4 26 39
f 4 39 38
f 4 38 51
f 4 51 54
f 4 54 52
f 4 52 40
f 4 40 27
f 4 27 14
f 4 14 5
f 5 14 6
f 6 14 15
f 6 15 16
f 6 16 17
f 6 17 18
f 7 9 10
f 8 19 20
f 8 20 21
f 8 21 9
f 9 21 10
f 10 21 22
f 10 22 12
f 10 12 11
f 12 22 23
f 12 23 13
f 13 23 24
f 13 24 25
f 13 25 26
f 14 27 15
f 15 27 28
f 15 28 29
f 15 29 16
f 16 29 30
f 16 30 17
f 17 30 31
f 17 31 32
f 17 32 18
f 18 32 33
f 18 33 19
f 19 33 22
f 19 22 20
f 20 22 21
f 22 33 32
f 22 32 34
f 22 34 35
f 22 35 36
f 22 36 37
f 22 37 24
f 22 24 23
f 24 37 25
f 25 37 38
f 25 38 39
f 25 39 26
f 27 40 29
f 27 29 28
f 29 40 41
f 29 41 42
f 29 42 43
f 29 43 44
f 29 44 45
f 29 45 30
f 30 45 31
f 31 45 44
f 31 44 32
f 32 44 46
f 32 46 34
f 34 46 53
f 34 53 41
f 34 41 55
f 34 55 58
f 34 58 56
f 34 56 47
f 34 47 36
f 34 36 35
f 36 48 37
f 36 47 49
f 36 49 48
f 37 48 50
f 37 50 38
f 38 50 51
f 40 52 41
f 41 53 43
f 41 43 42
f 41 52 54
f 41 54 55
f 43 53 46
f 43 46 44
f 47 56 49
f 48 57 50
f 48 49 56
f 48 56 58
f 48 58 59
f 48 59 60
f 48 60 57
f 50 57 61
f 50 61 51
f 51 61 62
f 51 62 55
f 51 55 54
f 55 62 59
f 55 59 58
f 57 60 61
f 59 62 60
f 60 62 61
