# https://github.com/mikedh/trimesh
v -0.06308146 -0.07752160 0.03676269
v -0.05468840 -0.06191956 0.04053701
v -0.05370805 -0.06191956 0.04158173
v -0.05526267 -0.07878870 0.04552275
v -0.07805826 -0.07509549 0.05047737
v -0.07447565 -0.07567499 0.03924112
v -0.06867523 -0.06191956 0.03752734
v -0.05352303 -0.05975245 0.04106159
v -0.05351342 -0.05975245 0.04107493
v -0.05482296 -0.05975245 0.05436060
v -0.05499596 -0.06191956 0.05460956
v -0.05884288 -0.07820733 0.05675901
v -0.07344964 -0.06191956 0.05376045
v -0.07531663 -0.05975245 0.05141317
v -0.07161148 -0.05975245 0.03971679
v -0.07151297 -0.06191956 0.03816083
v -0.07023947 -0.07636072 0.05923743
v -0.07151056 -0.06191956 0.03815861
v -0.07104442 -0.05975245 0.03798968
v -0.06945375 -0.05975245 0.03763625
v -0.06739213 -0.05975245 0.03807859
v -0.05496472 -0.05975245 0.05577431
v -0.05501278 -0.05975245 0.05592990
v -0.06513347 -0.05975245 0.05920409
v -0.06532810 -0.05975245 0.05926632
v -0.07392780 -0.05975245 0.05293801
v -0.06657276 -0.05975245 0.05945749
v -0.06697403 -0.06191956 0.05947082
v -0.06706534 -0.06222143 0.05946860
v -0.06700287 -0.06191956 0.05947082
v -0.06631566 -0.05975245 0.05947082
v -0.06655594 -0.05975245 0.05947082
f 1 2 3
f 1 3 4
f 1 4 5
f 1 5 6
f 1 6 7
f 1 7 2
f 2 8 3
f 2 7 8
f 3 8 9
f 3 9 10
f 3 10 11
f 3 11 4
f 4 11 12
f 4 12 5
f 5 13 14
f 5 14 15
f 5 15 16
f 5 16 6
f 5 12 17
f 5 17 13
f 6 16 18
f 6 18 7
f 7 19 20
f 7 20 21
f 7 21 8
f 7 18 19
f 8 21 20
f 8 20 19
f 8 19 15
f 8 15 14
f 8 14 26
f 8 26 27
f 8 27 32
f 8 32 31
f 8 31 25
f 8 25 24
f 8 24 23
f 8 23 22
f 8 22 10
f 8 10 9
f 10 22 11
f 11 22 23
f 11 23 12
f 12 23 24
f 12 24 25
f 12 25 17
f 13 26 14
f 13 17 27
f 13 27 26
f 15 19 16
f 16 19 18
f 17 25 28
f 17 28 29
f 17 29 30
f 17 30 27
f 25 31 28
f 27 30 32
f 28 30 29
f 28 31 32
f 28 32 30
