# https://github.com/mikedh/trimesh
v 0.02570919 0.00021872 -0.06565932
v 0.06058534 0.00021872 -0.06565932
v 0.02570919 0.00021872 -0.05596428
v 0.02570919 0.05119612 -0.06565932
v 0.06058534 0.02243764 -0.06565932
v 0.06058534 0.00021872 -0.05596428
v 0.02570919 0.05323065 -0.05596428
v 0.04226649 0.05242099 -0.05596428
v 0.03586206 0.04790558 -0.06565932
v 0.05986843 0.02409329 -0.06565932
v 0.06058534 0.02660012 -0.06408666
v 0.06058534 0.04442301 -0.05596428
v 0.05577519 0.04737100 -0.05596428
v 0.05206431 0.03772256 -0.06565932
v 0.05826391 0.02777309 -0.06565932
v 0.05401705 0.03459292 -0.06565932
f 1 2 6
f 1 6 3
f 1 3 7
f 1 7 4
f 1 4 9
f 1 9 14
f 1 14 16
f 1 16 15
f 1 15 10
f 1 10 5
f 1 5 2
f 2 5 11
f 2 11 12
f 2 12 6
f 3 6 12
f 3 12 13
f 3 13 8
f 3 8 7
f 4 7 8
f 4 8 9
f 5 10 11
f 8 13 9
f 9 13 12
f 9 12 14
f 10 15 11
f 11 15 12
f 12 15 16
f 12 16 14
