# https://github.com/mikedh/trimesh
v 0.00931935 0.07196302 0.05946794
v 0.01614679 0.06857441 0.05946794
v 0.01995976 0.06872972 0.03669071
v 0.02201598 0.06880033 0.02452290
v 0.01464954 0.07118646 0.03669071
v 0.01682553 0.07077701 0.02452290
v 0.00935928 0.07121471 0.03669071
v -0.03178497 0.06589177 0.03454317
v -0.03020787 0.06592001 0.04247292
v -0.10119718 0.05174436 0.05946794
v 0.02263484 0.06292674 0.05946794
v 0.04671052 0.05134902 0.01093923
v 0.02169657 0.06961923 0.01093923
v 0.00929939 0.07007105 0.01093448
v -0.12261775 0.04842635 0.01093923
v -0.11083943 0.04770627 0.05883128
v -0.11728756 0.03804876 0.05946794
v 0.03199761 0.05449759 0.05946794
v 0.05309876 0.04393645 0.01093923
v 0.00923950 -0.07000530 0.01093448
v -0.01569459 0.06594824 0.01093448
v 0.06617468 0.01972206 0.01093923
v 0.06878987 0.01343903 0.01093923
v 0.06882980 0.00591351 0.01093923
v -0.13008401 0.03591676 0.01093923
v -0.12545253 0.03547907 0.03669071
v -0.12251793 0.03488606 0.05330089
v -0.12124028 0.02109163 0.05946794
v 0.05094273 0.03238697 0.05946794
v 0.05471578 0.02569448 0.05946794
v 0.06312031 -0.02849492 0.01093923
v 0.03962356 -0.05753806 0.01093923
v 0.02269473 -0.06977939 0.01093923
v 0.01600705 -0.07131839 0.03669071
v 0.00931935 -0.07134662 0.03669071
v -0.02946923 -0.06589662 0.02598627
v -0.12289723 -0.04848768 0.01093923
v -0.01569459 -0.06592486 0.01093448
v -0.13511474 -0.00289686 0.01093923
v 0.05860861 0.01545807 0.05946794
v 0.05998608 0.00684538 0.05946794
v 0.05982637 -0.00766914 0.05946794
v -0.13060305 0.00954214 0.03669071
v -0.13072283 0.00201662 0.04415484
v -0.12283734 0.00743838 0.05946794
v 0.05798976 -0.01601357 0.05946794
v 0.05279931 -0.02774661 0.05946794
v 0.04954530 -0.03366254 0.05946794
v 0.03816625 -0.04831825 0.05946794
v 0.02894323 -0.06245154 0.03669071
v 0.01999969 -0.06897461 0.03669071
v 0.01864219 -0.06705440 0.05946794
v 0.00969866 -0.07227849 0.05946794
v -0.03284302 -0.06588250 0.03561219
v -0.07131220 -0.05972654 0.03884775
v -0.07458617 -0.05972654 0.05216535
v -0.10574880 -0.05073263 0.05946794
v -0.11547090 -0.04893949 0.03669071
v -0.11335480 -0.04662395 0.05859847
v -0.12976459 -0.03681112 0.01093923
v -0.13172099 0.00090120 0.03669071
v -0.12076116 -0.03110697 0.05931590
v -0.03204449 -0.06595309 0.05946794
v -0.06654098 -0.05972654 0.05946794
f 1 2 3
f 1 3 4
f 1 4 5
f 1 5 6
f 1 6 7
f 1 7 8
f 1 8 9
f 1 9 10
f 1 10 17
f 1 17 28
f 1 28 45
f 1 45 57
f 1 57 64
f 1 64 63
f 1 63 53
f 1 53 52
f 1 52 49
f 1 49 48
f 1 48 47
f 1 47 46
f 1 46 42
f 1 42 41
f 1 41 40
f 1 40 30
f 1 30 29
f 1 29 18
f 1 18 11
f 1 11 2
f 2 11 12
f 2 12 4
f 2 4 3
f 4 13 5
f 4 12 13
f 5 13 6
f 6 13 14
f 6 14 7
f 7 14 8
f 8 10 9
f 8 14 15
f 8 15 10
f 10 15 16
f 10 16 17
f 11 18 12
f 12 19 14
f 12 14 13
f 12 18 19
f 14 20 38
f 14 38 21
f 14 21 15
f 14 19 22
f 14 22 23
f 14 23 24
f 14 24 20
f 15 25 26
f 15 26 27
f 15 27 16
f 15 21 25
f 16 27 17
f 17 27 28
f 18 29 19
f 19 29 30
f 19 30 22
f 20 24 31
f 20 31 32
f 20 32 33
f 20 33 34
f 20 34 35
f 20 35 36
f 20 36 37
f 20 37 38
f 21 38 39
f 21 39 25
f 22 30 23
f 23 30 40
f 23 40 41
f 23 41 24
f 24 41 42
f 24 42 31
f 25 39 43
f 25 43 26
f 26 43 27
f 27 43 44
f 27 44 28
f 28 44 45
f 31 42 46
f 31 46 47
f 31 47 48
f 31 48 49
f 31 49 32
f 32 49 50
f 32 50 51
f 32 51 33
f 33 51 34
f 34 51 52
f 34 52 53
f 34 53 35
f 35 54 36
f 35 53 54
f 36 54 55
f 36 55 37
f 37 56 57
f 37 57 58
f 37 58 59
f 37 59 60
f 37 60 38
f 37 55 56
f 38 60 39
f 39 60 61
f 39 61 43
f 43 61 44
f 44 61 60
f 44 60 62
f 44 62 45
f 45 62 57
f 49 52 50
f 50 52 51
f 53 63 56
f 53 56 54
f 54 56 55
f 56 63 64
f 56 64 57
f 57 62 59
f 57 59 58
f 59 62 60
