# https://github.com/mikedh/trimesh
v 0.02459179 0.04591494 0.03079671
v 0.02459179 0.05308782 0.02748816
v 0.01045592 0.04591494 0.02965647
v 0.02459179 0.04591494 -0.01690612
v 0.00101005 0.04825313 0.02492264
v 0.00101005 0.04727534 0.02635260
v 0.01045592 0.04747764 0.02853026
v 0.02459179 0.05528821 0.02301602
v -0.00344394 0.04851553 0.02210477
v 0.00994822 0.04727534 0.02856765
v 0.01045592 0.04591494 -0.00348970
v 0.01871077 0.04591494 -0.01605562
v 0.00451177 0.04922358 -0.01460229
v 0.02459179 0.04616562 -0.01694351
v 0.00101005 0.04727534 -0.01080775
v 0.02459179 0.06066678 0.00902949
v -0.00344394 0.04864160 0.02181037
v -0.00344394 0.04851553 -0.00040079
v 0.00344150 0.04947279 -0.01449014
v 0.02459179 0.05647270 -0.01241529
v -0.00344394 0.04868558 -0.00342895
v -0.00151745 0.04890547 -0.00652720
v 0.02459179 0.06089107 0.00752475
v -0.00344394 0.04981436 0.00395452
v 0.00101005 0.04919573 -0.01058344
v 0.01045592 0.05318897 -0.01135917
v 0.02459179 0.05738012 -0.01135917
v 0.02459179 0.06067411 -0.00504584
f 1 2 3
f 1 3 11
f 1 11 12
f 1 12 4
f 1 4 14
f 1 14 20
f 1 20 27
f 1 27 28
f 1 28 23
f 1 23 16
f 1 16 8
f 1 8 2
f 2 5 6
f 2 6 7
f 2 7 3
f 2 8 9
f 2 9 5
f 3 7 10
f 3 10 6
f 3 6 15
f 3 15 11
f 4 12 13
f 4 13 14
f 5 9 6
f 6 10 7
f 6 9 18
f 6 18 15
f 8 16 17
f 8 17 9
f 9 17 24
f 9 24 21
f 9 21 18
f 11 15 12
f 12 15 13
f 13 15 19
f 13 19 14
f 14 19 20
f 15 18 21
f 15 21 22
f 15 22 19
f 16 23 17
f 17 23 24
f 19 22 25
f 19 25 26
f 19 26 27
f 19 27 20
f 21 24 28
f 21 28 26
f 21 26 25
f 21 25 22
f 23 28 24
f 26 28 27
