# https://github.com/mikedh/trimesh
v 0.01688923 -0.05311214 -0.06567617
v 0.01688923 -0.05222477 -0.08486909
v 0.01984052 -0.05167669 -0.08486909
v 0.02244962 -0.05119125 -0.08486909
v 0.03043947 -0.05040305 -0.06567617
v 0.01688923 0.00021354 -0.06567617
v 0.01688923 0.00021354 -0.08486909
v 0.04363899 -0.03672191 -0.08486909
v 0.03617523 -0.04646209 -0.06567617
v 0.06058534 0.00021354 -0.06567617
v 0.05560238 0.00021354 -0.08486909
v 0.05573497 -0.01104040 -0.08486909
v 0.06058534 -0.01702753 -0.06567617
v 0.05165022 -0.03413809 -0.06567617
v 0.03665856 -0.04612802 -0.06567617
v 0.06058534 0.00021354 -0.06931183
v 0.05814733 0.00021354 -0.07739672
v 0.06058534 -0.00838873 -0.07055002
v 0.05573925 -0.01102995 -0.08486909
v 0.06058534 -0.00840439 -0.07055002
f 1 2 3
f 1 3 4
f 1 4 5
f 1 5 9
f 1 9 15
f 1 15 14
f 1 14 13
f 1 13 10
f 1 10 6
f 1 6 7
f 1 7 2
f 2 7 11
f 2 11 19
f 2 19 12
f 2 12 8
f 2 8 4
f 2 4 3
f 4 8 5
f 5 8 9
f 6 10 16
f 6 16 17
f 6 17 11
f 6 11 7
f 8 12 13
f 8 13 14
f 8 14 15
f 8 15 9
f 10 13 20
f 10 20 18
f 10 18 16
f 11 17 18
f 11 18 19
f 12 19 13
f 13 19 20
f 16 18 17
f 18 20 19
