# https://github.com/mikedh/trimesh
v 0.04957488 0.02782767 0.04022834
v 0.05763665 0.02782767 0.04022834
v 0.04957488 0.02782767 0.04412634
v 0.04957358 0.03430141 -0.02499242
v 0.04957488 0.02783291 -0.02401791
v 0.05045269 0.02783291 -0.02506314
v 0.05593964 0.02783291 -0.03153099
v 0.06287746 0.02783291 -0.03614415
v 0.06287746 0.02783291 0.04079418
v 0.04999164 0.02782767 0.04400846
v 0.06287876 0.04680892 0.03848367
v 0.06287876 0.05741517 0.03521438
v 0.06287876 0.07070833 0.03034974
v 0.04957358 0.06386272 0.02767773
v 0.04957358 0.03430141 0.03886876
v 0.06287876 0.03772159 0.04054270
v 0.04957358 0.03795205 -0.02554253
v 0.05186838 0.03430141 -0.02770372
v 0.06287876 0.03430141 -0.03502033
v 0.06287876 0.03430141 0.04062914
v 0.06287876 0.07705113 0.02458919
v 0.04957358 0.06871802 0.02326890
v 0.06287876 0.07144684 -0.02853676
v 0.04957358 0.06539735 -0.02072505
v 0.06287876 0.07965424 0.01724115
v 0.05744260 0.07811961 0.01998389
v 0.04957358 0.06882277 0.02316674
v 0.06287876 0.07672115 -0.02529891
v 0.04957358 0.06935701 -0.01828880
v 0.05851837 0.07839197 -0.02048928
v 0.06287876 0.08126220 0.00706391
v 0.05884136 0.08133029 0.00149983
v 0.05132529 0.07926665 -0.00241388
v 0.04957358 0.07294481 0.01717828
v 0.06287876 0.07858052 -0.02127517
v 0.04957358 0.06970270 -0.01806875
v 0.04957358 0.07313860 -0.01392713
v 0.04957358 0.07732349 -0.00342768
v 0.06287876 0.08090604 -0.00371060
v 0.04957358 0.07772678 -0.00191877
f 1 2 10
f 1 10 3
f 1 3 15
f 1 15 4
f 1 4 5
f 1 5 6
f 1 6 7
f 1 7 8
f 1 8 2
f 2 9 10
f 2 8 9
f 3 11 12
f 3 12 13
f 3 13 14
f 3 14 15
f 3 10 9
f 3 9 16
f 3 16 11
f 4 17 6
f 4 6 5
f 4 15 14
f 4 14 22
f 4 22 27
f 4 27 34
f 4 34 40
f 4 40 38
f 4 38 37
f 4 37 36
f 4 36 29
f 4 29 24
f 4 24 17
f 6 17 18
f 6 18 7
f 7 18 8
f 8 18 19
f 8 19 20
f 8 20 9
f 9 20 16
f 11 16 20
f 11 20 19
f 11 19 23
f 11 23 28
f 11 28 35
f 11 35 39
f 11 39 31
f 11 31 25
f 11 25 21
f 11 21 13
f 11 13 12
f 13 21 22
f 13 22 14
f 17 23 19
f 17 19 18
f 17 24 23
f 21 25 26
f 21 26 22
f 22 26 27
f 23 24 28
f 24 29 30
f 24 30 28
f 25 31 32
f 25 32 26
f 26 32 33
f 26 33 34
f 26 34 27
f 28 30 35
f 29 36 30
f 30 36 37
f 30 37 38
f 30 38 33
f 30 33 32
f 30 32 35
f 31 39 32
f 32 39 35
f 33 40 34
f 33 38 40
