# https://github.com/mikedh/trimesh
v 0.04714445 0.01770149 0.01244232
v 0.04560634 0.06125622 -0.01235838
v 0.04675763 0.06125622 0.00189940
v 0.04509978 0.06125622 0.01787612
v 0.03999730 0.06125622 0.02561143
v 0.03085153 0.01771002 0.03713797
v -0.04694741 0.01770149 0.01333045
v -0.02886769 0.01769722 -0.03905947
v -0.00505921 0.01770575 -0.04795984
v 0.04483269 0.01790189 -0.01605412
v 0.04346036 0.06125622 -0.02252886
v 0.02435831 0.06125622 0.04152130
v 0.01943083 0.06125622 0.04340260
v -0.00003042 0.01771854 0.04892236
v -0.03039659 0.01771002 0.03738626
v -0.03713849 0.06125622 0.02986107
v -0.04225018 0.06125622 0.02243136
v -0.04674478 0.06125622 0.00674112
v -0.04607243 0.06125622 -0.00253168
v -0.04459879 0.01788057 -0.01768713
v -0.03189787 0.06125622 -0.03747421
v -0.03187944 0.06125622 -0.03748376
v -0.00723283 0.06125622 -0.04801714
v -0.00562104 0.06125622 -0.04862832
v 0.01197974 0.06125622 -0.04777839
v 0.02606221 0.01802980 -0.04138006
v 0.03591717 0.06125622 -0.03268979
v 0.00330369 0.06125622 0.04636303
v -0.01279582 0.06125622 0.04598104
v -0.01940877 0.06125622 0.04346946
v -0.04493958 0.06125622 -0.01743884
v 0.01818745 0.06125622 -0.04646053
v 0.02843845 0.06125622 -0.04119862
f 1 2 3
f 1 3 4
f 1 4 5
f 1 5 6
f 1 6 7
f 1 7 8
f 1 8 9
f 1 9 10
f 1 10 2
f 2 10 11
f 2 11 27
f 2 27 33
f 2 33 32
f 2 32 25
f 2 25 24
f 2 24 23
f 2 23 22
f 2 22 21
f 2 21 31
f 2 31 19
f 2 19 18
f 2 18 17
f 2 17 16
f 2 16 30
f 2 30 29
f 2 29 28
f 2 28 13
f 2 13 12
f 2 12 5
f 2 5 4
f 2 4 3
f 5 12 6
f 6 12 13
f 6 13 14
f 6 14 15
f 6 15 7
f 7 15 16
f 7 16 17
f 7 17 18
f 7 18 19
f 7 19 20
f 7 20 8
f 8 20 21
f 8 21 22
f 8 22 23
f 8 23 24
f 8 24 9
f 9 24 25
f 9 25 26
f 9 26 10
f 10 26 11
f 11 26 27
f 13 28 14
f 14 28 29
f 14 29 30
f 14 30 15
f 15 30 16
f 19 31 20
f 20 31 21
f 25 32 26
f 26 32 33
f 26 33 27
