# https://github.com/mikedh/trimesh
v -0.11623263 0.08735270 0.04246982
v -0.11582140 0.08300268 0.04246982
v -0.10835186 0.08735270 0.04902880
v -0.04762475 0.08735270 0.04246982
v -0.11551130 0.07975431 0.04246982
v -0.11417649 0.07975431 0.04358203
v -0.10758333 0.08481767 0.04946810
v -0.10589123 0.08735270 0.04988200
v -0.05715718 0.08735270 0.05031622
v -0.04945169 0.07975431 0.04418511
v -0.04755734 0.08534803 0.04246982
v -0.04737532 0.07975431 0.04246982
v -0.11236978 0.07975431 0.04508529
v -0.10675413 0.07975431 0.04914180
v -0.10311374 0.07975431 0.05041271
v -0.10086883 0.07975431 0.05092057
v -0.09020384 0.08735270 0.05342938
v -0.05770324 0.07975431 0.05097643
v -0.07049854 0.08735270 0.05544050
v -0.06798397 0.07975431 0.05538717
v -0.04746296 0.08249612 0.04246982
v -0.09190943 0.07975431 0.05294565
v -0.08431854 0.08735270 0.05475870
v -0.07687597 0.07975431 0.05494915
v -0.08476348 0.07975431 0.05455937
f 1 2 3
f 1 3 8
f 1 8 17
f 1 17 23
f 1 23 19
f 1 19 9
f 1 9 4
f 1 4 11
f 1 11 21
f 1 21 12
f 1 12 5
f 1 5 2
f 2 5 6
f 2 6 7
f 2 7 3
f 3 7 8
f 4 9 10
f 4 10 11
f 5 12 10
f 5 10 18
f 5 18 20
f 5 20 24
f 5 24 25
f 5 25 22
f 5 22 16
f 5 16 15
f 5 15 14
f 5 14 13
f 5 13 6
f 6 13 7
f 7 13 14
f 7 14 15
f 7 15 16
f 7 16 17
f 7 17 8
f 9 18 10
f 9 19 20
f 9 20 18
f 10 12 21
f 10 21 11
f 16 22 17
f 17 22 23
f 19 23 24
f 19 24 20
f 22 25 23
f 23 25 24
