# https://github.com/mikedh/trimesh
v 0.03023333 -0.05020359 -0.02034305
v 0.03023333 -0.05327431 -0.02861879
v 0.03410958 -0.05390651 -0.02861879
v 0.03411121 -0.05390651 -0.02861879
v 0.04686492 -0.04915168 -0.04449186
v 0.04686492 -0.04906668 -0.04449186
v 0.04575300 0.00021354 -0.04449186
v 0.03326791 0.00021354 -0.02861879
v 0.03026751 0.00021354 -0.02480595
v 0.03023333 0.00021354 -0.02476576
v 0.03023658 -0.05406058 -0.03451417
v 0.03023658 -0.05378432 -0.02999690
v 0.03023333 0.00021354 -0.02861879
v 0.03023658 -0.05271648 -0.04449186
v 0.03411447 -0.05390651 -0.02862825
v 0.03023658 0.00021354 -0.04449186
f 1 2 3
f 1 3 4
f 1 4 5
f 1 5 6
f 1 6 7
f 1 7 8
f 1 8 9
f 1 9 10
f 1 10 13
f 1 13 2
f 2 11 12
f 2 12 3
f 2 13 16
f 2 16 14
f 2 14 11
f 3 11 4
f 3 12 11
f 4 11 15
f 4 15 5
f 5 14 16
f 5 16 7
f 5 7 6
f 5 15 11
f 5 11 14
f 7 16 13
f 7 13 10
f 7 10 9
f 7 9 8
