# https://github.com/mikedh/trimesh
v -0.05681838 0.01529191 0.05759269
v -0.05200541 0.00565840 0.07333436
v -0.05526896 0.01223784 0.06264574
v -0.05304673 0.04334409 0.05759269
v -0.04792109 -0.02258230 0.05759269
v -0.04760003 -0.02047085 0.06264574
v -0.05064025 0.01517880 0.07333436
v -0.04692164 -0.01597458 0.07333436
v -0.02941181 0.04456948 0.07333436
v -0.03689927 0.05225178 0.05759269
v -0.04314720 0.03225895 0.07333436
v -0.04709194 -0.02557981 0.05759269
v -0.04614833 -0.02573063 0.06264574
v -0.04451236 -0.02471261 0.07333436
v -0.02864129 0.04494653 0.07333436
v -0.02829790 0.04936739 0.06264420
v -0.02829790 0.04954648 0.06218343
v -0.02829790 0.05129974 0.05759269
v -0.02864129 0.04587029 0.07146200
v -0.04247439 -0.03048140 0.05759269
v -0.03806064 -0.03431784 0.06264574
v -0.02864129 -0.04249972 0.07333436
v -0.04212821 -0.02817200 0.07333436
v -0.04414665 -0.02602284 0.07333436
v -0.02829790 -0.04364028 0.06264420
v -0.02829790 -0.04404561 0.05759269
v -0.03691044 -0.03542070 0.06264574
v -0.02864129 -0.04332922 0.06264574
f 1 2 3
f 1 3 4
f 1 4 10
f 1 10 18
f 1 18 26
f 1 26 20
f 1 20 12
f 1 12 5
f 1 5 6
f 1 6 2
f 2 7 4
f 2 4 3
f 2 6 8
f 2 8 14
f 2 14 24
f 2 24 23
f 2 23 22
f 2 22 15
f 2 15 9
f 2 9 11
f 2 11 7
f 4 9 10
f 4 7 11
f 4 11 9
f 5 12 13
f 5 13 6
f 6 13 14
f 6 14 8
f 9 15 10
f 10 16 17
f 10 17 18
f 10 15 19
f 10 19 16
f 12 20 21
f 12 21 13
f 13 21 22
f 13 22 23
f 13 23 24
f 13 24 14
f 15 16 19
f 15 22 25
f 15 25 16
f 16 25 26
f 16 26 18
f 16 18 17
f 20 26 27
f 20 27 21
f 21 27 22
f 22 27 28
f 22 28 26
f 22 26 25
f 26 28 27
