# https://github.com/mikedh/trimesh
v 0.06287746 0.01072210 -0.03784868
v 0.04957437 0.01072210 -0.02145106
v 0.04957437 0.02782243 -0.02401872
v 0.05045213 0.02782243 -0.02506349
v 0.05593615 0.02782243 -0.03153577
v 0.06287746 0.01678321 -0.03807888
v 0.06287746 0.01072210 0.04178426
v 0.04957437 0.01072210 0.05233823
v 0.04957437 0.02782243 0.04412171
v 0.06287746 0.02782243 -0.03613986
v 0.06287746 0.02271711 0.04123530
v 0.05769427 0.02029166 0.04551179
v 0.05769427 0.01072210 0.04594563
v 0.05060059 0.01072210 0.05162991
v 0.04957437 0.01249139 0.05237364
v 0.04957437 0.02555600 0.04580397
v 0.06287746 0.02782243 0.04079260
v 0.04957437 0.01649028 0.05219657
f 1 2 3
f 1 3 4
f 1 4 5
f 1 5 6
f 1 6 10
f 1 10 17
f 1 17 11
f 1 11 7
f 1 7 13
f 1 13 14
f 1 14 8
f 1 8 2
f 2 8 15
f 2 15 18
f 2 18 16
f 2 16 9
f 2 9 3
f 3 9 17
f 3 17 10
f 3 10 5
f 3 5 4
f 5 10 6
f 7 11 12
f 7 12 13
f 8 14 15
f 9 16 17
f 11 17 12
f 12 18 13
f 12 17 18
f 13 18 14
f 14 18 15
f 16 18 17
