# https://github.com/mikedh/trimesh
v 0.04018038 0.05343114 -0.19972441
v 0.03573046 0.05343114 -0.21109011
v 0.03274332 0.05990750 -0.20463801
v 0.02167242 0.08392947 -0.18067582
v 0.03783993 0.05991204 -0.18852219
v 0.02923266 0.08688400 -0.13074175
v 0.03794772 0.05343114 -0.16871395
v 0.02653038 0.05343114 -0.22893675
v 0.02455948 0.05542805 -0.22893675
v 0.01173325 0.08692484 -0.18737793
v 0.02409755 0.09209413 -0.13074175
v 0.02957910 0.08316247 -0.14670373
v 0.02962530 0.08254978 -0.14931919
v 0.01559806 0.06451855 -0.13072252
v 0.03110347 0.07536997 -0.13074175
v 0.03743190 0.05343114 -0.16681005
v -0.02688400 0.05343114 -0.22893675
v 0.00528164 0.05827366 -0.22895598
v 0.00067775 0.05896350 -0.22895598
v -0.00670541 0.08800499 -0.18756062
v -0.00578925 0.09648734 -0.14670373
v -0.00028460 0.09807580 -0.13749194
v 0.00669053 0.09572034 -0.14670373
v 0.00471963 0.09916956 -0.13074175
v -0.00071573 0.06452309 -0.22104230
v 0.02121049 0.06614786 -0.13074175
v -0.00542741 0.09979586 -0.13074175
v -0.01329560 0.06451855 -0.13072252
v 0.00324146 0.06094680 -0.13072252
v 0.02461337 0.05343114 -0.14966535
v -0.03541429 0.05343114 -0.21293631
v -0.02637588 0.05395306 -0.22893675
v -0.00300998 0.05827366 -0.22895598
v -0.02075575 0.08446501 -0.18150276
v -0.01585160 0.09307443 -0.14670373
v -0.01361895 0.09700926 -0.13074175
v 0.00147843 0.06062003 -0.13072252
v -0.02385067 0.09201698 -0.13074175
v -0.02952470 0.08637569 -0.13074175
v -0.02953239 0.08634846 -0.13074175
v -0.03190363 0.07411736 -0.13074175
v -0.01949314 0.06610701 -0.13074175
v -0.01938536 0.06604801 -0.13074175
v 0.00039290 0.05343114 -0.14177090
v -0.03704644 0.05343114 -0.20724385
v -0.03313544 0.05827366 -0.20804195
v -0.03001742 0.07902341 -0.16366573
v -0.01845380 0.06451855 -0.13200140
v -0.01460439 0.05827366 -0.13723232
v -0.01160186 0.05343114 -0.14129974
v -0.02963248 0.08486893 -0.13749194
v -0.03808578 0.05343114 -0.20359952
v -0.03831675 0.05343114 -0.18375282
v -0.03847072 0.05343114 -0.17050246
v -0.03837834 0.05343114 -0.16705044
v -0.02018604 0.06405109 -0.13418416
v -0.02429720 0.05343114 -0.15254043
v -0.02247258 0.05827366 -0.14420366
v -0.02182588 0.05990750 -0.14136705
v -0.03795490 0.05343114 -0.20406107
v -0.03656142 0.05827366 -0.19603200
f 1 2 3
f 1 3 4
f 1 4 5
f 1 5 6
f 1 6 7
f 1 7 16
f 1 16 30
f 1 30 44
f 1 44 50
f 1 50 57
f 1 57 55
f 1 55 54
f 1 54 53
f 1 53 52
f 1 52 60
f 1 60 45
f 1 45 31
f 1 31 17
f 1 17 8
f 1 8 2
f 2 8 3
f 3 8 4
f 4 8 9
f 4 9 10
f 4 10 11
f 4 11 12
f 4 12 13
f 4 13 5
f 5 13 12
f 5 12 6
f 6 11 14
f 6 14 15
f 6 15 7
f 6 12 11
f 7 15 16
f 8 17 33
f 8 33 18
f 8 18 9
f 9 18 19
f 9 19 10
f 10 20 21
f 10 21 22
f 10 22 23
f 10 23 24
f 10 24 11
f 10 19 25
f 10 25 20
f 11 24 14
f 14 26 15
f 14 24 27
f 14 27 28
f 14 28 37
f 14 37 29
f 14 29 30
f 14 30 26
f 15 26 30
f 15 30 16
f 17 31 32
f 17 32 33
f 18 33 19
f 19 33 32
f 19 32 25
f 20 25 32
f 20 32 34
f 20 34 21
f 21 35 27
f 21 27 22
f 21 34 35
f 22 27 24
f 22 24 23
f 27 35 36
f 27 36 28
f 28 36 38
f 28 38 39
f 28 39 40
f 28 40 41
f 28 41 42
f 28 42 43
f 28 43 37
f 29 37 44
f 29 44 30
f 31 45 46
f 31 46 32
f 32 46 34
f 34 46 47
f 34 47 38
f 34 38 35
f 35 38 36
f 37 43 48
f 37 48 49
f 37 49 50
f 37 50 44
f 38 51 39
f 38 47 51
f 39 51 52
f 39 52 53
f 39 53 54
f 39 54 40
f 40 54 55
f 40 55 41
f 41 56 48
f 41 48 42
f 41 55 57
f 41 57 58
f 41 58 59
f 41 59 56
f 42 48 43
f 45 60 46
f 46 60 47
f 47 60 52
f 47 52 61
f 47 61 51
f 48 56 59
f 48 59 49
f 49 59 58
f 49 58 57
f 49 57 50
f 51 61 52
