# https://github.com/mikedh/trimesh
v -0.03532921 -0.02707874 0.09334237
v -0.03525768 -0.02707422 0.09430942
v -0.02916274 -0.02707422 0.09334237
v -0.03173806 -0.03165763 0.09334237
v -0.03512748 -0.02707422 0.09556139
v -0.02802172 -0.02707422 0.09334237
v -0.03142473 -0.03199580 0.09334237
v -0.03409162 -0.02802834 0.09681284
v -0.03471828 -0.02734143 0.09681284
v -0.03496008 -0.02707422 0.09681284
v -0.02802172 -0.03478494 0.09334237
v -0.02802172 -0.02707422 0.09870234
v -0.03102484 -0.03242002 0.09334237
v -0.02876642 -0.03393801 0.09629232
v -0.03288551 -0.02932969 0.09681284
v -0.03394211 -0.02786378 0.09762405
v -0.03432340 -0.02707422 0.09784286
v -0.02802172 -0.03478494 0.09430942
v -0.03030375 -0.03317712 0.09334237
v -0.02931082 -0.02707422 0.09864410
v -0.02810328 -0.02951613 0.09856434
v -0.02802172 -0.02951613 0.09856801
v -0.03045398 -0.03302238 0.09334237
v -0.02802172 -0.03474795 0.09556139
v -0.02802172 -0.03440526 0.09668691
v -0.02849387 -0.03369570 0.09712714
v -0.03271311 -0.02914022 0.09761513
v -0.03311085 -0.02707422 0.09833661
v -0.03312230 -0.02827442 0.09785650
v -0.03060707 -0.02707422 0.09858428
v -0.02935517 -0.02826385 0.09857641
v -0.03185824 -0.02707422 0.09851554
v -0.03060707 -0.02826385 0.09850190
v -0.02935517 -0.02951613 0.09847461
v -0.02802172 -0.03076766 0.09845205
v -0.02802172 -0.03438865 0.09671419
v -0.02802172 -0.03339528 0.09765553
v -0.02894669 -0.03286084 0.09753590
v -0.03021361 -0.03163573 0.09756266
v -0.03146765 -0.03039477 0.09758942
v -0.03187398 -0.02954104 0.09782449
v -0.03185824 -0.02826385 0.09833032
v -0.02810328 -0.03076766 0.09844523
v -0.02802172 -0.03201920 0.09816765
v -0.02802172 -0.03327526 0.09770276
v -0.02808682 -0.03327526 0.09768177
v -0.02936018 -0.03203958 0.09773004
v -0.03062137 -0.03079409 0.09777779
v -0.03060707 -0.02951613 0.09827574
v -0.02935517 -0.03076766 0.09821383
v -0.02810328 -0.03201920 0.09815034
f 1 2 3
f 1 3 6
f 1 6 11
f 1 11 19
f 1 19 23
f 1 23 13
f 1 13 7
f 1 7 4
f 1 4 2
f 2 5 10
f 2 10 17
f 2 17 28
f 2 28 32
f 2 32 30
f 2 30 20
f 2 20 12
f 2 12 6
f 2 6 3
f 2 4 5
f 4 7 8
f 4 8 9
f 4 9 10
f 4 10 5
f 6 12 22
f 6 22 35
f 6 35 44
f 6 44 45
f 6 45 37
f 6 37 36
f 6 36 25
f 6 25 24
f 6 24 18
f 6 18 11
f 7 13 14
f 7 14 8
f 8 15 16
f 8 16 9
f 8 14 15
f 9 16 10
f 10 16 17
f 11 18 19
f 12 20 21
f 12 21 22
f 13 23 14
f 14 23 19
f 14 19 24
f 14 24 25
f 14 25 26
f 14 26 27
f 14 27 16
f 14 16 15
f 16 27 17
f 17 27 29
f 17 29 28
f 18 24 19
f 20 30 31
f 20 31 21
f 21 31 32
f 21 32 33
f 21 33 34
f 21 34 35
f 21 35 22
f 25 36 26
f 26 36 37
f 26 37 38
f 26 38 39
f 26 39 40
f 26 40 27
f 27 40 29
f 28 29 41
f 28 41 42
f 28 42 32
f 29 40 41
f 30 32 31
f 32 42 33
f 33 42 34
f 34 42 43
f 34 43 35
f 35 43 44
f 37 45 46
f 37 46 47
f 37 47 38
f 38 47 48
f 38 48 41
f 38 41 39
f 39 41 40
f 41 48 42
f 42 48 47
f 42 47 49
f 42 49 43
f 43 49 44
f 44 49 50
f 44 50 51
f 44 51 45
f 45 51 46
f 46 51 50
f 46 50 49
f 46 49 47
