# https://github.com/mikedh/trimesh
v -0.02802342 -0.02982712 0.09334185
v -0.03297396 -0.02982712 0.09334185
v -0.02802342 -0.03478539 0.09334185
v -0.02802342 -0.02982712 0.07797535
v -0.03975641 -0.03412114 0.09108862
v -0.04018342 -0.03536741 0.09124204
v -0.03936925 -0.03577973 0.09148872
v -0.03811667 -0.03578498 0.09174443
v -0.03686693 -0.03578498 0.09197757
v -0.03561862 -0.03578498 0.09220621
v -0.03130433 -0.03212488 0.09334185
v -0.03665769 -0.02982712 0.09017258
v -0.03781348 -0.03105881 0.09022372
v -0.04027737 -0.03359919 0.09025531
v -0.03038055 -0.03309939 0.09334185
v -0.03432476 -0.03578498 0.09236715
v -0.03332838 -0.03578498 0.09223930
v -0.03191354 -0.03578498 0.09155491
v -0.02817429 -0.03578498 0.08913321
v -0.02802342 -0.03578498 0.08243669
v -0.02802342 -0.03452937 0.07797535
v -0.03290706 -0.03009655 0.07797535
v -0.03787184 -0.02982712 0.08327902
v -0.04064033 -0.03452004 0.09064489
v -0.04136342 -0.03511489 0.09019665
v -0.04073712 -0.03578498 0.09058773
v -0.03788607 -0.02982712 0.08814498
v -0.03739785 -0.02994667 0.08932725
v -0.03987882 -0.03276697 0.08972134
v -0.04111290 -0.03408207 0.08968824
v -0.02891873 -0.03578498 0.08187263
v -0.03047876 -0.03253486 0.07797535
v -0.03386216 -0.03578498 0.07980892
v -0.03561435 -0.03578498 0.07962993
v -0.03690963 -0.03578498 0.07990519
v -0.03811667 -0.03578498 0.08016691
v -0.03935786 -0.03578498 0.08048128
v -0.04089512 -0.03554354 0.08119275
v -0.04000408 -0.03263634 0.08240510
v -0.03878566 -0.03134807 0.08238104
v -0.03181817 -0.03131483 0.07797535
v -0.03866467 -0.02996533 0.08424469
v -0.03885113 -0.02982712 0.08554880
v -0.04128086 -0.03559311 0.08917683
v -0.04256475 -0.03389894 0.08612790
v -0.04131929 -0.03559719 0.08554880
v -0.04131360 -0.03559719 0.08429433
v -0.04129509 -0.03559719 0.08304287
v -0.04003824 -0.03135332 0.08689051
v -0.04139473 -0.03250162 0.08646333
v -0.03861912 -0.02994550 0.08681229
v -0.04108016 -0.03281946 0.08767267
v -0.03888102 -0.03124893 0.08891811
v -0.04061329 -0.03327843 0.08928814
v -0.04145024 -0.03367267 0.08845032
v -0.04116983 -0.03373448 0.08282928
v -0.04057201 -0.03207589 0.08438608
v -0.04008379 -0.03129150 0.08475310
v -0.04016492 -0.03121744 0.08554880
v -0.04140612 -0.03550272 0.08760799
v -0.04189576 -0.03324752 0.08683185
v -0.04208222 -0.03332975 0.08550367
v -0.04159543 -0.03327493 0.08438307
v -0.04133210 -0.03255703 0.08520284
f 1 2 11
f 1 11 15
f 1 15 3
f 1 3 20
f 1 20 21
f 1 21 4
f 1 4 23
f 1 23 43
f 1 43 27
f 1 27 12
f 1 12 2
f 2 5 6
f 2 6 7
f 2 7 8
f 2 8 9
f 2 9 10
f 2 10 11
f 2 12 13
f 2 13 14
f 2 14 5
f 3 15 10
f 3 10 16
f 3 16 17
f 3 17 18
f 3 18 19
f 3 19 20
f 4 21 32
f 4 32 41
f 4 41 22
f 4 22 23
f 5 24 6
f 5 14 24
f 6 24 25
f 6 25 26
f 6 26 7
f 7 26 8
f 8 26 37
f 8 37 36
f 8 36 35
f 8 35 34
f 8 34 33
f 8 33 31
f 8 31 20
f 8 20 19
f 8 19 18
f 8 18 17
f 8 17 16
f 8 16 10
f 8 10 9
f 10 15 11
f 12 27 28
f 12 28 29
f 12 29 14
f 12 14 13
f 14 29 30
f 14 30 24
f 20 31 21
f 21 31 33
f 21 33 34
f 21 34 32
f 22 35 36
f 22 36 37
f 22 37 38
f 22 38 39
f 22 39 40
f 22 40 23
f 22 41 34
f 22 34 35
f 23 42 43
f 23 40 42
f 24 30 25
f 25 44 26
f 25 30 45
f 25 45 44
f 26 44 46
f 26 46 47
f 26 47 48
f 26 48 37
f 27 49 50
f 27 50 28
f 27 43 51
f 27 51 49
f 28 52 53
f 28 53 29
f 28 50 52
f 29 53 54
f 29 54 30
f 30 54 55
f 30 55 45
f 32 34 41
f 37 48 38
f 38 45 56
f 38 56 39
f 38 48 45
f 39 56 57
f 39 57 42
f 39 42 40
f 42 57 58
f 42 58 43
f 43 58 59
f 43 59 50
f 43 50 51
f 44 45 60
f 44 60 46
f 45 55 61
f 45 61 50
f 45 50 62
f 45 62 56
f 45 48 47
f 45 47 60
f 46 60 47
f 49 51 50
f 50 61 52
f 50 59 62
f 52 55 54
f 52 54 53
f 52 61 55
f 56 62 63
f 56 63 57
f 57 63 58
f 58 64 59
f 58 63 64
f 59 64 62
f 62 64 63
