# https://github.com/mikedh/trimesh
v 0.04676267 0.06125715 0.00190077
v 0.04565507 0.06441185 -0.01208076
v 0.04672606 0.06441185 0.00113797
v 0.04602122 0.06441185 0.00795665
v 0.04604868 0.06365152 0.00795665
v 0.04535300 0.06441185 0.01438461
v 0.04509670 0.06125715 0.01787302
v 0.03317858 0.06125653 -0.03581123
v 0.04560015 0.06125715 -0.01235054
v 0.04335749 0.06441185 -0.02298320
v 0.03333419 0.06441247 -0.03581123
v 0.04494109 0.06441185 0.01825443
v 0.04065715 0.06441185 0.02476612
v 0.03998893 0.06125715 0.02560334
v -0.03296607 0.06125653 -0.03581123
v 0.02843696 0.06125653 -0.04119734
v 0.02861088 0.06441247 -0.04118804
v 0.03663868 0.06441185 -0.03203446
v 0.03591554 0.06125715 -0.03267632
v 0.04345819 0.06125715 -0.02250878
v 0.00093009 0.06125684 0.04629192
v 0.04115145 0.06441185 -0.02595998
v -0.03298438 0.06441247 -0.03581123
v 0.00093009 0.06441216 0.04611517
v 0.02388757 0.06441185 0.04183606
v 0.02435441 0.06125715 0.04151047
v -0.01279131 0.06125684 0.04597563
v -0.01940944 0.06125684 0.04345467
v -0.03714016 0.06125684 0.02985454
v -0.04224793 0.06125684 0.02242191
v -0.04675155 0.06125684 0.00673803
v -0.04607417 0.06125684 -0.00252718
v -0.04493911 0.06125684 -0.01743896
v -0.03189509 0.06125653 -0.03747637
v 0.01818482 0.06125653 -0.04646251
v 0.01760813 0.06441247 -0.04683460
v 0.01943887 0.06125715 0.04338956
v 0.00330090 0.06125715 0.04634773
v -0.03204155 0.06441247 -0.03836940
v -0.04496657 0.06441216 -0.01742035
v -0.04533272 0.06441216 -0.01260170
v -0.04600094 0.06441216 -0.00368068
v -0.04663254 0.06441216 0.00487755
v -0.04672409 0.06441216 0.00625430
v -0.04598263 0.06441216 0.00885898
v -0.04190924 0.06441216 0.02308238
v -0.03762530 0.06441216 0.02931500
v -0.01861307 0.06441216 0.04390120
v -0.01371583 0.06441216 0.04576168
v 0.00354805 0.06441185 0.04616168
v 0.02084854 0.06441185 0.04298956
v 0.02094008 0.06441185 0.04296165
v -0.03058611 0.06441247 -0.03949499
v -0.03187678 0.06125653 -0.03748567
v 0.01197861 0.06125653 -0.04777415
v 0.01320520 0.06441247 -0.04776484
v -0.00566058 0.06441247 -0.04866718
v -0.00562396 0.06125653 -0.04862067
v -0.00723501 0.06125653 -0.04802531
f 1 2 3
f 1 3 4
f 1 4 5
f 1 5 6
f 1 6 7
f 1 7 8
f 1 8 9
f 1 9 2
f 2 9 10
f 2 10 11
f 2 11 3
f 3 11 4
f 4 6 5
f 4 11 6
f 6 12 7
f 6 11 12
f 7 12 13
f 7 13 14
f 7 14 8
f 8 15 34
f 8 34 54
f 8 54 59
f 8 59 58
f 8 58 55
f 8 55 35
f 8 35 16
f 8 16 17
f 8 17 11
f 8 11 18
f 8 18 19
f 8 19 20
f 8 20 9
f 8 14 21
f 8 21 15
f 9 20 10
f 10 20 22
f 10 22 11
f 11 22 18
f 11 17 36
f 11 36 56
f 11 56 57
f 11 57 53
f 11 53 39
f 11 39 23
f 11 23 24
f 11 24 13
f 11 13 12
f 13 24 25
f 13 25 14
f 14 25 26
f 14 26 21
f 15 21 27
f 15 27 28
f 15 28 29
f 15 29 30
f 15 30 31
f 15 31 32
f 15 32 33
f 15 33 34
f 16 35 17
f 17 35 36
f 18 22 19
f 19 22 20
f 21 26 37
f 21 37 38
f 21 38 27
f 23 39 40
f 23 40 41
f 23 41 42
f 23 42 43
f 23 43 44
f 23 44 45
f 23 45 46
f 23 46 47
f 23 47 48
f 23 48 49
f 23 49 24
f 24 49 27
f 24 27 38
f 24 38 50
f 24 50 51
f 24 51 52
f 24 52 25
f 25 52 37
f 25 37 26
f 27 49 48
f 27 48 28
f 28 48 29
f 29 48 47
f 29 47 46
f 29 46 30
f 30 46 31
f 31 46 45
f 31 45 44
f 31 44 43
f 31 43 32
f 32 43 42
f 32 42 41
f 32 41 40
f 32 40 33
f 33 40 39
f 33 39 34
f 34 39 53
f 34 53 54
f 35 55 36
f 36 55 56
f 37 52 51
f 37 51 50
f 37 50 38
f 53 57 58
f 53 58 59
f 53 59 54
f 55 58 56
f 56 58 57
