# https://github.com/mikedh/trimesh
v -0.06135628 0.00522448 0.00019478
v -0.06972966 0.01108075 0.02379720
v -0.06972966 0.01074537 0.00019478
v -0.06135628 0.05793084 0.00019478
v -0.06135628 0.00573014 0.02905833
v -0.06972966 0.01109623 0.02384028
v -0.06972966 0.05793600 0.00019478
v -0.06499499 0.05793600 0.00019478
v -0.06135628 0.05793084 0.05520786
v -0.06135628 0.00675176 0.03132003
v -0.06972966 0.01844364 0.04234850
v -0.06972966 0.05793600 0.05478783
v -0.06499499 0.05793600 0.05502477
v -0.06801154 0.05793600 0.05487399
v -0.06499417 0.05535099 0.05496553
v -0.06135628 0.04770947 0.05496553
v -0.06135628 0.01651907 0.05169684
v -0.06972966 0.01888222 0.04305931
v -0.06972966 0.05199202 0.05464782
v -0.06135628 0.02415027 0.05380237
v -0.06972966 0.03046575 0.05163222
v -0.06972966 0.02723061 0.05019443
v -0.06972966 0.03692053 0.05307002
f 1 2 3
f 1 3 7
f 1 7 8
f 1 8 4
f 1 4 9
f 1 9 16
f 1 16 20
f 1 20 17
f 1 17 10
f 1 10 5
f 1 5 2
f 2 6 11
f 2 11 18
f 2 18 22
f 2 22 21
f 2 21 23
f 2 23 19
f 2 19 12
f 2 12 7
f 2 7 3
f 2 5 6
f 4 8 13
f 4 13 9
f 5 10 11
f 5 11 6
f 7 12 14
f 7 14 13
f 7 13 8
f 9 13 14
f 9 14 12
f 9 12 15
f 9 15 16
f 10 17 11
f 11 17 18
f 12 19 15
f 15 19 16
f 16 19 20
f 17 20 21
f 17 21 22
f 17 22 18
f 19 23 20
f 20 23 21
