# https://github.com/mikedh/trimesh
v -0.01666996 0.03585422 -0.15813028
v -0.02704722 0.03585422 -0.16098442
v -0.02986487 0.01739145 -0.16950202
v -0.01666996 0.02736478 -0.16169422
v -0.01666996 0.03585422 -0.23445990
v -0.02824615 0.03585422 -0.16237414
v -0.01666996 0.01739145 -0.16588577
v -0.03832116 0.03585422 -0.17406715
v -0.03678976 0.01739145 -0.17754143
v -0.01666996 0.01739145 -0.23445990
v -0.04335531 0.03585422 -0.23445990
v -0.03947643 0.03585422 -0.17590516
v -0.04344935 0.01739145 -0.18817349
v -0.05097538 0.01739145 -0.23445990
v -0.04598153 0.03299669 -0.23445990
v -0.04491022 0.03585422 -0.22400717
v -0.04190451 0.03585422 -0.17978291
v -0.04496060 0.01739145 -0.19058680
v -0.05061268 0.01739145 -0.20999049
v -0.04982347 0.02099725 -0.23445990
v -0.04444341 0.03585422 -0.19251447
v -0.04474567 0.03585422 -0.21288946
v -0.04208586 0.03585422 -0.18040305
v -0.04600840 0.01739145 -0.19418064
v -0.04437961 0.03585422 -0.18828557
f 1 2 3
f 1 3 4
f 1 4 7
f 1 7 10
f 1 10 5
f 1 5 11
f 1 11 16
f 1 16 22
f 1 22 21
f 1 21 25
f 1 25 23
f 1 23 17
f 1 17 12
f 1 12 8
f 1 8 6
f 1 6 2
f 2 6 3
f 3 7 4
f 3 6 8
f 3 8 9
f 3 9 13
f 3 13 18
f 3 18 24
f 3 24 19
f 3 19 14
f 3 14 10
f 3 10 7
f 5 10 14
f 5 14 20
f 5 20 15
f 5 15 11
f 8 12 9
f 9 12 13
f 11 15 16
f 12 17 18
f 12 18 13
f 14 19 20
f 15 20 21
f 15 21 22
f 15 22 16
f 17 23 18
f 18 23 24
f 19 24 23
f 19 23 25
f 19 25 21
f 19 21 20
