# https://github.com/mikedh/trimesh
v -0.06973683 0.06963823 0.05506677
v -0.06973683 0.06963823 0.00019478
v -0.08536516 0.06963823 0.05429331
v -0.06973683 0.05199190 0.05465318
v -0.06973683 0.01074410 0.00019478
v -0.13463252 0.06963823 0.00019478
v -0.09418945 0.06963823 0.05230060
v -0.08591787 0.06026451 0.05404624
v -0.06973683 0.03692824 0.05307405
v -0.06973683 0.01107847 0.02379575
v -0.10228314 0.01577685 0.00936875
v -0.09146402 0.01401856 0.00019478
v -0.13124003 0.05425173 0.00019478
v -0.13276474 0.06963823 0.01679710
v -0.10510387 0.06963823 0.04848707
v -0.10138738 0.04684961 0.04702073
v -0.06973683 0.03046579 0.05163995
v -0.06973683 0.01108999 0.02383872
v -0.11103120 0.02323662 0.02231867
v -0.11885807 0.02512174 0.00152146
v -0.11778441 0.02471243 0.00019478
v -0.10145091 0.01634758 0.00019478
v -0.12825413 0.04408246 0.00019478
v -0.12272068 0.04004704 0.02440806
v -0.13221839 0.06963823 0.01982644
v -0.12192656 0.06963823 0.03632671
v -0.12303198 0.06846795 0.03531693
v -0.09709276 0.02870750 0.04055920
v -0.06973683 0.02722592 0.05019510
v -0.06973683 0.01844023 0.04235318
v -0.12029384 0.02767559 0.00019478
v -0.11867383 0.02520245 0.00019478
v -0.12624023 0.06963823 0.03020894
v -0.12294939 0.06963823 0.03547806
v -0.06973683 0.01887836 0.04306217
f 1 2 6
f 1 6 14
f 1 14 25
f 1 25 33
f 1 33 34
f 1 34 26
f 1 26 15
f 1 15 7
f 1 7 3
f 1 3 4
f 1 4 9
f 1 9 17
f 1 17 29
f 1 29 35
f 1 35 30
f 1 30 18
f 1 18 10
f 1 10 5
f 1 5 2
f 2 5 12
f 2 12 22
f 2 22 21
f 2 21 32
f 2 32 31
f 2 31 23
f 2 23 13
f 2 13 6
f 3 7 8
f 3 8 4
f 4 8 9
f 5 10 11
f 5 11 12
f 6 13 14
f 7 15 16
f 7 16 8
f 8 16 17
f 8 17 9
f 10 18 11
f 11 19 20
f 11 20 21
f 11 21 22
f 11 22 12
f 11 18 19
f 13 23 24
f 13 24 14
f 14 24 25
f 15 26 27
f 15 27 16
f 16 28 17
f 16 27 24
f 16 24 28
f 17 28 29
f 18 30 19
f 19 30 28
f 19 28 24
f 19 24 20
f 20 24 31
f 20 31 32
f 20 32 21
f 23 31 24
f 24 27 25
f 25 27 33
f 26 34 27
f 27 34 33
f 28 30 35
f 28 35 29
