# https://github.com/mikedh/trimesh
v 0.13052590 -0.03840439 0.00016868
v 0.12832177 -0.02791244 -0.00546042
v 0.12705644 -0.02791244 0.01163324
v 0.12987283 -0.03840439 0.00895075
v 0.12550538 -0.03840439 -0.01992937
v 0.12445094 -0.02791244 -0.01819607
v 0.11891340 -0.02791244 0.02671297
v 0.11931477 -0.03840439 0.02884246
v 0.12119916 -0.03840439 -0.02587212
v 0.11627388 -0.02791244 -0.02949555
v 0.10631448 -0.02791244 0.03633693
v 0.10303550 -0.03840439 0.03967973
v 0.11229420 -0.03840439 -0.03432404
v 0.10394708 -0.03840439 -0.03948268
v 0.10167492 -0.02791244 -0.03831889
v 0.09256588 -0.02791244 0.04051336
v 0.09640950 -0.03840439 0.04175969
v 0.08569497 -0.03840439 -0.04241278
v 0.08728004 -0.02791244 -0.04086932
v 0.10070211 -0.02791244 -0.03861603
v 0.09596731 -0.03840439 0.04189175
v 0.06102776 -0.02791244 0.03946513
v 0.07659953 -0.03840439 -0.03999441
v 0.06953135 -0.02791244 -0.03623892
v 0.08606233 -0.02791244 -0.04057218
v 0.08242960 -0.03840439 0.04105812
v 0.06102776 -0.02793093 0.03946513
v 0.06102776 -0.02791244 -0.03019713
v 0.06709592 -0.03840439 -0.03673415
v 0.06867419 -0.03840439 0.03927529
v 0.06102776 -0.03046584 0.03916799
v 0.06102776 -0.03840439 -0.03171583
v 0.06102776 -0.03594343 0.03740167
v 0.06102776 -0.03840439 0.03413316
f 1 2 3
f 1 3 4
f 1 4 8
f 1 8 12
f 1 12 17
f 1 17 21
f 1 21 26
f 1 26 30
f 1 30 34
f 1 34 32
f 1 32 29
f 1 29 23
f 1 23 18
f 1 18 14
f 1 14 13
f 1 13 9
f 1 9 5
f 1 5 2
f 2 5 6
f 2 6 10
f 2 10 15
f 2 15 20
f 2 20 19
f 2 19 25
f 2 25 24
f 2 24 28
f 2 28 22
f 2 22 16
f 2 16 11
f 2 11 7
f 2 7 3
f 3 7 8
f 3 8 4
f 5 9 10
f 5 10 6
f 7 11 8
f 8 11 12
f 9 13 10
f 10 13 14
f 10 14 15
f 11 16 17
f 11 17 12
f 14 18 19
f 14 19 20
f 14 20 15
f 16 21 17
f 16 22 21
f 18 23 24
f 18 24 25
f 18 25 19
f 21 22 26
f 22 27 26
f 22 28 32
f 22 32 34
f 22 34 33
f 22 33 31
f 22 31 27
f 23 29 24
f 24 29 28
f 26 27 30
f 27 31 30
f 28 29 32
f 30 31 33
f 30 33 34
