# https://github.com/mikedh/trimesh
v -0.01572955 0.06594087 0.04239582
v -0.01584278 0.06594087 0.04246633
v -0.01681249 0.06589598 0.03669704
v -0.01654587 0.07736029 0.03893870
v -0.02744101 0.07559060 0.04647830
v -0.02869013 0.06594087 0.04528325
v -0.03133631 0.06589598 0.03669704
v -0.01820406 0.06589598 0.02938197
v -0.02745014 0.07558947 0.04646160
v -0.01790822 0.07713810 0.03669704
v -0.02348727 0.07623137 0.02752073
v -0.03438607 0.07446953 0.03506034
v -0.03339079 0.07463000 0.03669704
v -0.03349671 0.07269758 0.03669704
v -0.03010544 0.06594087 0.04293211
v -0.03135092 0.06594087 0.03669704
v -0.03219462 0.06589598 0.03238816
v -0.01849625 0.06589598 0.02893104
v -0.02990639 0.06589598 0.03075703
v -0.03349671 0.07269646 0.03669704
f 1 2 3
f 1 3 4
f 1 4 5
f 1 5 2
f 2 5 6
f 2 6 3
f 3 6 7
f 3 7 17
f 3 17 19
f 3 19 18
f 3 18 8
f 3 8 4
f 4 9 5
f 4 8 10
f 4 10 11
f 4 11 12
f 4 12 9
f 5 9 12
f 5 12 13
f 5 13 14
f 5 14 6
f 6 14 15
f 6 15 7
f 7 16 17
f 7 15 16
f 8 18 11
f 8 11 10
f 11 18 19
f 11 19 12
f 12 19 17
f 12 17 16
f 12 16 20
f 12 20 14
f 12 14 13
f 14 20 15
f 15 20 16
