# https://github.com/mikedh/trimesh
v -0.06054970 0.04438964 -0.05432314
v -0.07732027 0.03873133 -0.05300503
v -0.07763322 0.04438964 -0.05332522
v -0.03566077 0.04438964 -0.04917340
v -0.04968840 0.02628022 -0.05385887
v -0.04970681 0.02628022 -0.05385887
v -0.10046955 0.03095470 -0.04094982
v -0.10039592 0.04438964 -0.04630769
v -0.08242876 0.04438964 -0.05230060
v -0.04980806 0.02628022 -0.05383218
v -0.03566077 0.04438964 -0.04915205
v -0.03675610 0.04438964 0.00019478
v -0.05100465 0.02628022 0.00019478
v -0.10281670 0.04438964 -0.04536846
v -0.08975553 0.02628022 -0.04097650
v -0.10007376 0.02628022 -0.03441791
v -0.11593309 0.02628022 -0.01801878
v -0.11612639 0.02637949 -0.01796541
v -0.12136374 0.04438964 -0.02590616
v -0.11352152 0.04438964 -0.03558127
v -0.12834074 0.04438964 0.00019478
v -0.11937557 0.02628022 0.00019478
v -0.11633809 0.02628022 -0.01644450
v -0.11929273 0.02628022 -0.00029618
v -0.12968459 0.04438964 -0.00846106
v -0.12945449 0.04438964 -0.00968313
v -0.12867210 0.04438964 -0.00162498
v -0.12825790 0.04408474 0.00019478
v -0.12029602 0.02767352 0.00019478
f 1 2 3
f 1 3 9
f 1 9 8
f 1 8 14
f 1 14 20
f 1 20 19
f 1 19 26
f 1 26 25
f 1 25 27
f 1 27 21
f 1 21 12
f 1 12 11
f 1 11 4
f 1 4 5
f 1 5 6
f 1 6 2
f 2 7 8
f 2 8 9
f 2 9 3
f 2 6 10
f 2 10 7
f 4 11 5
f 5 11 12
f 5 12 13
f 5 13 22
f 5 22 24
f 5 24 23
f 5 23 17
f 5 17 16
f 5 16 15
f 5 15 10
f 5 10 6
f 7 14 8
f 7 10 15
f 7 15 16
f 7 16 17
f 7 17 18
f 7 18 19
f 7 19 20
f 7 20 14
f 12 21 28
f 12 28 29
f 12 29 22
f 12 22 13
f 17 23 18
f 18 23 24
f 18 24 25
f 18 25 26
f 18 26 19
f 21 27 28
f 22 29 24
f 24 29 25
f 25 29 28
f 25 28 27
