# https://github.com/mikedh/trimesh
v 0.05533906 -0.19201589 0.01365387
v 0.05511335 -0.14971181 0.00743188
v 0.05430727 -0.14971181 0.01250570
v 0.04823473 -0.14971181 0.02809896
v 0.02910358 -0.19199518 0.04741011
v -0.00580541 -0.19199932 0.05596125
v -0.05406322 -0.19202003 -0.01517069
v -0.04587337 -0.19202003 -0.02204878
v -0.00570868 -0.19199932 -0.05575034
v 0.02987742 -0.19199518 -0.04711172
v 0.04996514 -0.19199932 -0.02349220
v 0.05226517 -0.14971181 -0.01231666
v 0.04107667 -0.14971181 0.03729527
v 0.02187028 -0.14971181 0.05179503
v 0.02134364 -0.14971181 0.05206840
v -0.00522503 -0.14971181 0.05544731
v -0.00526802 -0.14971181 0.05544731
v -0.02480759 -0.14971181 0.04995795
v -0.03949990 -0.19199104 0.03916515
v -0.05446089 -0.14971181 -0.00925487
v -0.05176318 -0.14971181 -0.01910728
v -0.04587337 -0.19194134 -0.02778964
v -0.04587337 -0.19194548 -0.02777871
v -0.04587337 -0.19195377 0.02742100
v -0.05352583 -0.19189993 0.01330396
v -0.03597460 -0.19185437 -0.04301111
v -0.01218963 -0.14971181 -0.05377112
v 0.01231545 -0.14971181 -0.05266668
v 0.02317077 -0.14971181 -0.05003135
v 0.03029659 -0.14971181 -0.04432330
v 0.03719670 -0.14971181 -0.03879021
v 0.04626788 -0.14971181 -0.02811769
v -0.02488283 -0.14971181 0.04991422
v -0.04014477 -0.14971181 0.04008368
v -0.05192440 -0.14971181 0.02280644
v -0.05383752 -0.14971181 0.01230887
v -0.04587337 -0.14971181 -0.02817237
v -0.04587337 -0.16326651 -0.02805208
v -0.04368080 -0.14971181 -0.03152940
v -0.03541572 -0.14971181 -0.04059448
v -0.02048696 -0.14971181 -0.05027192
f 1 2 3
f 1 3 4
f 1 4 5
f 1 5 6
f 1 6 7
f 1 7 8
f 1 8 9
f 1 9 10
f 1 10 11
f 1 11 12
f 1 12 2
f 2 12 32
f 2 32 31
f 2 31 30
f 2 30 29
f 2 29 28
f 2 28 27
f 2 27 41
f 2 41 40
f 2 40 39
f 2 39 37
f 2 37 21
f 2 21 20
f 2 20 36
f 2 36 35
f 2 35 34
f 2 34 33
f 2 33 18
f 2 18 17
f 2 17 16
f 2 16 15
f 2 15 14
f 2 14 13
f 2 13 4
f 2 4 3
f 4 13 5
f 5 13 14
f 5 14 15
f 5 15 6
f 6 15 16
f 6 16 17
f 6 17 18
f 6 18 19
f 6 19 7
f 7 20 21
f 7 21 22
f 7 22 23
f 7 23 8
f 7 19 24
f 7 24 25
f 7 25 20
f 8 23 26
f 8 26 9
f 9 27 28
f 9 28 10
f 9 26 27
f 10 28 29
f 10 29 30
f 10 30 31
f 10 31 11
f 11 31 32
f 11 32 12
f 18 33 19
f 19 33 34
f 19 34 35
f 19 35 24
f 20 25 36
f 21 37 38
f 21 38 22
f 22 38 26
f 22 26 23
f 24 35 25
f 25 35 36
f 26 39 40
f 26 40 41
f 26 41 27
f 26 38 37
f 26 37 39
