# https://github.com/mikedh/trimesh
v -0.01475940 0.05084436 0.07333437
v -0.02597488 0.04625044 0.07333437
v -0.00952213 0.04856755 0.08491268
v 0.00857489 0.05052198 0.07333437
v -0.02461481 0.03363732 0.10019698
v -0.02940550 0.04456802 0.07333437
v -0.00606106 0.04275464 0.09819698
v 0.01411666 0.04964551 0.07753552
v 0.01206641 0.05027013 0.07333437
v -0.04314827 0.03226720 0.07333437
v -0.04103712 0.01493926 0.09783722
v -0.02865441 -0.00139131 0.10770954
v -0.00520848 0.01010356 0.11285460
v 0.00631149 0.02974861 0.10646390
v 0.01898854 0.03898681 0.09774438
v 0.03117840 0.04093117 0.07849489
v 0.02733164 0.04325835 0.07333437
v 0.01443130 0.04978655 0.07333437
v -0.05063878 0.01518105 0.07333437
v -0.05200900 0.00567083 0.07333437
v -0.04558421 -0.00717401 0.09433626
v -0.01964143 -0.03679270 0.10036333
v -0.00384841 -0.01170748 0.11244067
v -0.03414543 -0.02768545 0.09708287
v 0.01497939 0.00445183 0.11212346
v 0.03421318 0.02503379 0.09877726
v 0.03224412 0.04018567 0.07333437
v 0.03042732 0.04168675 0.07333437
v 0.04409903 0.02548714 0.08004228
v -0.04692398 -0.01598909 0.07333437
v -0.04185925 -0.02636571 0.08558579
v -0.02501065 -0.04562793 0.07757033
v -0.00236655 -0.05185390 0.07763997
v 0.01030035 -0.04422759 0.09553549
v 0.00794560 -0.02979100 0.10669601
v 0.02711850 -0.00601546 0.10820857
v 0.04458623 0.00917671 0.09493974
v 0.04436293 0.02583975 0.07333437
v 0.04770220 0.01847537 0.07333437
v -0.04414294 -0.02603326 0.07333437
v -0.02871531 -0.04242428 0.07333437
v -0.02512230 -0.04584957 0.07333437
v -0.00733993 -0.05074572 0.07333437
v -0.00373677 -0.05173301 0.07333437
v -0.00183876 -0.05207554 0.07333437
v 0.00715393 -0.04986924 0.07333437
v 0.02347473 -0.04490258 0.07333437
v 0.02901650 -0.04231346 0.07333437
v 0.02810302 -0.03625875 0.09430144
v 0.04060752 -0.01725847 0.09709834
v 0.05096027 -0.00852398 0.07889722
v 0.05033099 0.00858232 0.07333437
v 0.03647657 -0.03475767 0.07333437
v 0.04396709 -0.02361541 0.08405001
v 0.04962051 -0.01269477 0.07333437
v 0.05087907 -0.00979335 0.07333437
v 0.05128506 -0.00772810 0.07333437
v 0.05167075 -0.00238868 0.07333437
v 0.04471817 -0.02397808 0.07333437
f 1 2 3
f 1 3 4
f 1 4 9
f 1 9 18
f 1 18 17
f 1 17 28
f 1 28 27
f 1 27 38
f 1 38 39
f 1 39 52
f 1 52 58
f 1 58 57
f 1 57 56
f 1 56 55
f 1 55 59
f 1 59 53
f 1 53 48
f 1 48 47
f 1 47 46
f 1 46 45
f 1 45 44
f 1 44 43
f 1 43 42
f 1 42 41
f 1 41 40
f 1 40 30
f 1 30 20
f 1 20 19
f 1 19 10
f 1 10 6
f 1 6 2
f 2 5 3
f 2 6 5
f 3 5 7
f 3 7 8
f 3 8 4
f 4 8 9
f 5 6 10
f 5 10 11
f 5 11 12
f 5 12 13
f 5 13 14
f 5 14 7
f 7 14 15
f 7 15 8
f 8 15 16
f 8 16 17
f 8 17 18
f 8 18 9
f 10 19 11
f 11 19 20
f 11 20 21
f 11 21 12
f 12 22 23
f 12 23 13
f 12 21 24
f 12 24 22
f 13 23 25
f 13 25 14
f 14 25 26
f 14 26 15
f 15 26 16
f 16 27 28
f 16 28 17
f 16 26 29
f 16 29 27
f 20 30 21
f 21 30 31
f 21 31 24
f 22 24 32
f 22 32 33
f 22 33 34
f 22 34 35
f 22 35 23
f 23 35 36
f 23 36 25
f 24 31 32
f 25 36 26
f 26 37 29
f 26 36 37
f 27 29 38
f 29 37 39
f 29 39 38
f 30 40 31
f 31 41 32
f 31 40 41
f 32 42 43
f 32 43 33
f 32 41 42
f 33 43 44
f 33 44 45
f 33 45 46
f 33 46 34
f 34 46 47
f 34 47 48
f 34 48 49
f 34 49 35
f 35 49 50
f 35 50 36
f 36 50 37
f 37 50 51
f 37 51 52
f 37 52 39
f 48 53 54
f 48 54 49
f 49 54 50
f 50 54 51
f 51 55 56
f 51 56 57
f 51 57 58
f 51 58 52
f 51 54 55
f 53 59 54
f 54 59 55
