# https://github.com/mikedh/trimesh
v -0.02833051 0.03448590 0.06187462
v -0.02938730 0.03374409 0.06928038
v -0.02614146 0.03618107 0.06645827
v -0.01266204 0.04513079 0.06715200
v -0.02021051 0.03954885 0.06187462
v 0.02499408 0.03308125 0.06187462
v -0.02861089 0.03350998 0.09622296
v -0.02907458 0.03399230 0.09023733
v -0.02519250 0.03692289 0.07674788
v -0.01284536 0.04529720 0.08162573
v -0.01276987 0.04521258 0.07303592
v 0.01327237 0.06157762 0.07375507
v -0.00875840 0.04690211 0.06418461
v -0.00022862 0.04994270 0.06203080
v 0.00782669 0.04814599 0.06187462
v 0.02116592 0.04069119 0.06187462
v 0.03056916 0.03333228 0.06187825
v 0.04495440 0.03326741 0.06512894
v 0.07883627 0.03319407 0.07962447
v 0.00633856 0.03308125 0.09897969
v -0.01366490 0.03403179 0.09880172
v -0.01329826 0.03950372 0.09844941
v 0.01665840 0.06189634 0.09616848
v -0.02615224 0.03618953 0.08303497
v 0.01684172 0.06156915 0.06809996
v 0.05276168 0.06137735 0.07383861
v 0.04631313 0.04869319 0.06865930
v 0.04397310 0.04383896 0.06674157
v 0.04109390 0.03884935 0.06482022
v 0.07370331 0.04096760 0.07497181
v 0.07706778 0.03585953 0.07523332
v 0.08074496 0.03815548 0.07989687
v 0.08077731 0.03641800 0.08704839
v 0.07924605 0.03381742 0.09305217
v 0.03234845 0.06189634 0.09743243
v 0.07508361 0.03678468 0.09684041
v 0.06827920 0.04310279 0.09710555
v 0.05705353 0.05941423 0.07462676
v 0.06371776 0.06126171 0.08452048
v 0.05996509 0.06094862 0.07705298
v 0.06328641 0.05312714 0.07490280
v 0.07022023 0.04525489 0.07499723
v 0.07447972 0.04289688 0.07591977
v 0.07810300 0.04331151 0.07973343
v 0.07802751 0.04438333 0.08312577
v 0.07864217 0.04072221 0.09385486
v 0.05701040 0.05561772 0.09696753
v 0.05616928 0.06125889 0.09612852
v 0.06839781 0.04696417 0.09641909
v 0.07085646 0.04245969 0.09681135
v 0.06202474 0.05186634 0.09685130
v 0.05858479 0.05530463 0.09687673
v 0.06788020 0.05494924 0.07840410
v 0.06077385 0.06105017 0.09409821
v 0.06852721 0.05437102 0.09255458
v 0.06799882 0.05713519 0.08479651
v 0.07335824 0.04759034 0.07785929
v 0.07435032 0.04849574 0.08051795
v 0.07190246 0.05231482 0.08318751
v 0.07249555 0.05098914 0.08804357
v 0.07507282 0.04615748 0.09256548
v 0.05826128 0.05687006 0.09666607
v 0.06201396 0.05311586 0.09659706
v 0.06796647 0.04592337 0.09676413
f 1 2 3
f 1 3 4
f 1 4 5
f 1 5 15
f 1 15 16
f 1 16 6
f 1 6 2
f 2 7 8
f 2 8 9
f 2 9 3
f 2 6 7
f 3 9 10
f 3 10 11
f 3 11 4
f 4 11 12
f 4 12 13
f 4 13 5
f 5 13 14
f 5 14 15
f 6 16 17
f 6 17 18
f 6 18 19
f 6 19 20
f 6 20 7
f 7 20 21
f 7 21 22
f 7 22 23
f 7 23 10
f 7 10 8
f 8 10 24
f 8 24 9
f 9 24 10
f 10 23 12
f 10 12 11
f 12 23 25
f 12 25 13
f 13 25 14
f 14 25 15
f 15 25 26
f 15 26 27
f 15 27 28
f 15 28 16
f 16 28 29
f 16 29 17
f 17 29 18
f 18 29 30
f 18 30 31
f 18 31 19
f 19 31 32
f 19 32 33
f 19 33 34
f 19 34 20
f 20 35 21
f 20 34 36
f 20 36 37
f 20 37 35
f 21 35 22
f 22 35 23
f 23 35 25
f 25 35 26
f 26 38 27
f 26 35 39
f 26 39 40
f 26 40 38
f 27 38 41
f 27 41 42
f 27 42 30
f 27 30 28
f 28 30 29
f 30 42 43
f 30 43 31
f 31 43 32
f 32 43 44
f 32 44 45
f 32 45 46
f 32 46 33
f 33 46 34
f 34 46 36
f 35 37 47
f 35 47 48
f 35 48 39
f 36 46 49
f 36 49 50
f 36 50 37
f 37 50 51
f 37 51 52
f 37 52 47
f 38 40 53
f 38 53 43
f 38 43 41
f 39 48 54
f 39 54 55
f 39 55 56
f 39 56 53
f 39 53 40
f 41 43 42
f 43 53 57
f 43 57 44
f 44 57 53
f 44 53 58
f 44 58 45
f 45 58 59
f 45 59 60
f 45 60 61
f 45 61 46
f 46 61 55
f 46 55 54
f 46 54 49
f 47 52 62
f 47 62 48
f 48 62 63
f 48 63 49
f 48 49 54
f 49 63 64
f 49 64 50
f 50 64 51
f 51 62 52
f 51 64 62
f 53 56 59
f 53 59 58
f 55 61 60
f 55 60 56
f 56 60 59
f 62 64 63
