# https://github.com/mikedh/trimesh
v -0.02744214 -0.07559043 0.02352076
v -0.03438607 -0.07446813 0.03493767
v -0.02893978 -0.06593980 0.02512900
v -0.02868956 -0.06593980 0.02471654
v -0.01580985 -0.06591623 0.02754589
v -0.01572767 -0.06591623 0.02759655
v -0.01654589 -0.07735917 0.03106088
v -0.02511897 -0.07596864 0.02512900
v -0.03281720 -0.07472289 0.03669607
v -0.03183460 -0.06589379 0.03669607
v -0.03281538 -0.06591623 0.03561787
v -0.03013058 -0.06591623 0.02715514
v -0.03009405 -0.06591623 0.02704479
v -0.03281538 -0.07472401 0.03669607
v -0.02894160 -0.06591623 0.02513081
v -0.02682664 -0.06591623 0.02513081
v -0.01662260 -0.06589379 0.03669607
v -0.01662260 -0.06591623 0.03669607
v -0.01676323 -0.06925731 0.03669607
v -0.01934757 -0.07690464 0.03985648
v -0.01834123 -0.07706849 0.03669607
v -0.02826584 -0.07546024 0.04179578
v -0.03140906 -0.06589379 0.03716281
v -0.01685455 -0.06589379 0.03903517
v -0.01691117 -0.06589379 0.03921065
v -0.02473725 -0.06589379 0.04175417
v -0.02593719 -0.06589379 0.04200020
f 1 2 3
f 1 3 4
f 1 4 5
f 1 5 6
f 1 6 7
f 1 7 8
f 1 8 2
f 2 9 10
f 2 10 11
f 2 11 12
f 2 12 13
f 2 13 3
f 2 8 14
f 2 14 9
f 3 13 15
f 3 15 4
f 4 15 16
f 4 16 5
f 5 17 6
f 5 16 17
f 6 17 18
f 6 18 7
f 7 18 19
f 7 19 20
f 7 20 21
f 7 21 14
f 7 14 8
f 9 14 22
f 9 22 10
f 10 15 13
f 10 13 12
f 10 12 11
f 10 22 23
f 10 23 27
f 10 27 26
f 10 26 25
f 10 25 24
f 10 24 17
f 10 17 16
f 10 16 15
f 14 21 22
f 17 24 18
f 18 24 19
f 19 24 25
f 19 25 20
f 20 25 26
f 20 26 22
f 20 22 21
f 22 26 27
f 22 27 23
