# https://github.com/mikedh/trimesh
v 0.03228357 0.08915044 -0.05632520
v 0.03220678 0.08826766 -0.06107335
v 0.03182920 0.08376225 -0.08539667
v 0.03182920 0.08376764 -0.08539667
v 0.02924380 0.08690043 -0.13072252
v 0.02788710 0.10417384 -0.05632520
v 0.01942692 0.07871857 -0.05632520
v 0.02121879 0.06614434 -0.13072252
v 0.03111886 0.07535970 -0.13072252
v 0.02410498 0.09209483 -0.13072252
v 0.02780390 0.10427073 -0.05632520
v 0.01924133 0.07860015 -0.05632520
v 0.00324892 0.06094455 -0.13072252
v 0.00472721 0.09917321 -0.13072252
v -0.00252346 0.11561229 -0.05632520
v 0.02751592 0.10442683 -0.05632520
v -0.00357938 0.07458458 -0.05632520
v -0.00325940 0.07368565 -0.06107335
v 0.00148905 0.06062159 -0.13072252
v -0.00544164 0.09979224 -0.13072252
v -0.00483368 0.11537006 -0.05632520
v -0.00374576 0.07462225 -0.05632520
v -0.01940541 0.06604207 -0.13072252
v -0.01364583 0.09701471 -0.13072252
v -0.02843514 0.10309728 -0.05632520
v -0.02386588 0.09201947 -0.13072252
v -0.02814716 0.10239213 -0.06107335
v -0.02336031 0.08022037 -0.05632520
v -0.03191008 0.07410551 -0.13072252
v -0.02848633 0.10304345 -0.05632520
v -0.02855673 0.10198304 -0.06107335
v -0.02954226 0.08638906 -0.13072252
v -0.03309400 0.08825689 -0.05632520
v -0.03263323 0.08273414 -0.08539667
v -0.03230045 0.07877239 -0.10622442
v -0.03301720 0.08736335 -0.06107335
f 1 2 3
f 1 3 4
f 1 4 5
f 1 5 6
f 1 6 11
f 1 11 16
f 1 16 15
f 1 15 21
f 1 21 25
f 1 25 30
f 1 30 33
f 1 33 28
f 1 28 22
f 1 22 17
f 1 17 12
f 1 12 7
f 1 7 8
f 1 8 2
f 2 8 9
f 2 9 3
f 3 9 4
f 4 9 5
f 5 9 8
f 5 8 13
f 5 13 19
f 5 19 23
f 5 23 29
f 5 29 32
f 5 32 26
f 5 26 24
f 5 24 20
f 5 20 14
f 5 14 10
f 5 10 11
f 5 11 6
f 7 12 8
f 8 12 13
f 10 14 15
f 10 15 16
f 10 16 11
f 12 17 18
f 12 18 19
f 12 19 13
f 14 20 15
f 15 20 21
f 17 22 18
f 18 22 23
f 18 23 19
f 20 24 21
f 21 24 26
f 21 26 27
f 21 27 25
f 22 28 23
f 23 28 29
f 25 27 31
f 25 31 30
f 26 32 27
f 27 32 31
f 28 33 29
f 29 34 35
f 29 35 32
f 29 33 34
f 30 31 33
f 31 32 33
f 32 35 34
f 32 34 36
f 32 36 33
f 33 36 34
