# https://github.com/mikedh/trimesh
v 0.01688923 0.00021354 -0.06565932
v 0.01688923 0.05419389 -0.06565932
v 0.02228840 0.00021354 -0.06565932
v 0.01688923 0.00021354 -0.00947083
v 0.01962502 0.05326691 -0.06565932
v 0.01688923 0.05527177 -0.06053691
v 0.02228840 0.05236149 -0.06565932
v 0.02228840 0.00021354 -0.00358280
v 0.01688923 0.02643303 -0.00857153
v 0.02228840 0.05464660 -0.05477041
v 0.02228840 0.05508314 -0.05268620
v 0.01688923 0.05326152 -0.03673565
v 0.02228840 0.05477055 -0.02210975
v 0.02228840 0.02990920 -0.00508975
v 0.01688923 0.03924366 -0.01436234
v 0.02228840 0.02994153 -0.00510190
v 0.01688923 0.05238843 -0.02867834
v 0.02228840 0.05319145 -0.01635540
v 0.01688923 0.04621756 -0.01774082
v 0.01688923 0.05167164 -0.02709240
f 1 2 5
f 1 5 7
f 1 7 3
f 1 3 8
f 1 8 4
f 1 4 9
f 1 9 15
f 1 15 19
f 1 19 20
f 1 20 17
f 1 17 12
f 1 12 6
f 1 6 2
f 2 6 5
f 3 7 10
f 3 10 11
f 3 11 13
f 3 13 18
f 3 18 16
f 3 16 14
f 3 14 8
f 4 8 9
f 5 6 10
f 5 10 7
f 6 11 10
f 6 12 13
f 6 13 11
f 8 14 9
f 9 14 16
f 9 16 15
f 12 17 13
f 13 17 18
f 15 16 18
f 15 18 19
f 17 20 18
f 18 20 19
