# https://github.com/mikedh/trimesh
v -0.05023136 -0.03147239 -0.03548622
v -0.05124792 -0.03147239 -0.03357570
v -0.05297073 -0.00050582 -0.01628326
v -0.04402495 -0.01066407 -0.03548622
v 0.04809738 -0.03147239 -0.03548622
v -0.05483266 -0.03147239 0.00830469
v -0.05491826 -0.00050279 0.01176140
v -0.03933804 -0.00049368 -0.03548622
v 0.04582883 -0.01344803 -0.03548622
v 0.05440009 -0.00045725 -0.01274658
v 0.05369385 -0.03147239 -0.02284124
v -0.05142983 -0.03147239 0.01930574
v -0.03077748 -0.00047546 0.04818571
v 0.04084231 -0.00050886 -0.03548622
v 0.03409016 -0.00050279 0.04368932
v 0.05165001 -0.00050279 0.02096745
v 0.05435729 -0.03147239 -0.00198546
v -0.03886721 -0.03147239 0.03825988
v -0.03105570 -0.03147239 0.04604415
v -0.02010888 -0.03147239 0.05129586
v -0.00056940 -0.03147239 0.05493029
v 0.00741332 -0.00050279 0.05528574
v 0.02619305 -0.03147239 0.04763477
v 0.03675464 -0.03147239 0.04105902
v 0.04651368 -0.03147239 0.02844070
v 0.01229284 -0.03147239 0.05367734
v 0.05295550 -0.03147239 0.01518257
f 1 2 3
f 1 3 4
f 1 4 8
f 1 8 14
f 1 14 9
f 1 9 5
f 1 5 11
f 1 11 17
f 1 17 27
f 1 27 25
f 1 25 24
f 1 24 23
f 1 23 26
f 1 26 21
f 1 21 20
f 1 20 19
f 1 19 18
f 1 18 12
f 1 12 6
f 1 6 2
f 2 6 3
f 3 6 7
f 3 7 8
f 3 8 4
f 5 9 10
f 5 10 11
f 6 12 7
f 7 12 13
f 7 13 8
f 8 13 10
f 8 10 14
f 9 14 10
f 10 15 16
f 10 16 17
f 10 17 11
f 10 13 15
f 12 18 13
f 13 18 19
f 13 19 20
f 13 20 21
f 13 21 22
f 13 22 15
f 15 23 24
f 15 24 25
f 15 25 16
f 15 22 26
f 15 26 23
f 16 25 27
f 16 27 17
f 21 26 22
