# https://github.com/mikedh/trimesh
v -0.00107292 0.11707537 -0.05131112
v -0.00174648 0.11639229 -0.05364801
v -0.00483201 0.11536350 -0.05632400
v -0.00537086 0.11600493 -0.05364801
v -0.00583914 0.11656306 -0.05131112
v 0.02552935 0.10716241 -0.05131112
v 0.02645950 0.10588789 -0.05364801
v 0.02751153 0.10443010 -0.05632400
v -0.00252267 0.11560925 -0.05632400
v -0.02843856 0.10309727 -0.05632400
v -0.02938154 0.10447175 -0.05131112
v 0.02568972 0.10708744 -0.05131112
v 0.02887147 0.10539224 -0.05131112
v 0.02780020 0.10427599 -0.05632400
v -0.02848346 0.10304728 -0.05632400
v -0.03037584 0.10300980 -0.05131112
v 0.02891637 0.10534226 -0.05131112
v 0.02845451 0.10477997 -0.05364801
v 0.02788359 0.10417603 -0.05632400
v -0.03308931 0.08826532 -0.05632400
v -0.03313421 0.08877346 -0.05364801
v -0.03317270 0.08921913 -0.05131112
v 0.02983369 0.10424267 -0.05131112
v 0.03227774 0.08914832 -0.05632400
v -0.02335161 0.08021833 -0.05632400
v -0.02349915 0.08072647 -0.05364801
v -0.02362103 0.08116797 -0.05131112
v -0.03313421 0.08876930 -0.05364801
v 0.03042386 0.10162282 -0.05131112
v 0.03232265 0.08965230 -0.05364801
v 0.03232265 0.08964813 -0.05364801
v 0.03236113 0.09008130 -0.05131112
v 0.02268758 0.07815660 -0.05131112
v 0.02116727 0.07841900 -0.05364801
v 0.01942244 0.07871889 -0.05632400
v -0.01283130 0.07452463 -0.05131112
v -0.00358112 0.07457877 -0.05632400
v 0.02081445 0.07694456 -0.05131112
v 0.01747233 0.07479119 -0.05131112
v 0.01829984 0.07656970 -0.05364801
v 0.01923641 0.07860227 -0.05632400
v 0.01574033 0.07452463 -0.05131112
v -0.00785981 0.07452463 -0.05364801
v -0.00365168 0.07452879 -0.05562617
v 0.00495701 0.07452463 -0.05364801
f 1 2 3
f 1 3 4
f 1 4 5
f 1 5 11
f 1 11 16
f 1 16 22
f 1 22 27
f 1 27 36
f 1 36 42
f 1 42 39
f 1 39 38
f 1 38 33
f 1 33 32
f 1 32 29
f 1 29 23
f 1 23 17
f 1 17 13
f 1 13 12
f 1 12 6
f 1 6 7
f 1 7 8
f 1 8 2
f 2 9 3
f 2 8 9
f 3 9 8
f 3 8 14
f 3 14 19
f 3 19 24
f 3 24 35
f 3 35 41
f 3 41 37
f 3 37 25
f 3 25 20
f 3 20 15
f 3 15 10
f 3 10 11
f 3 11 4
f 4 11 5
f 6 12 7
f 7 12 8
f 8 12 13
f 8 13 14
f 10 15 11
f 11 15 16
f 13 17 14
f 14 17 18
f 14 18 19
f 15 20 16
f 16 20 21
f 16 21 22
f 17 23 18
f 18 23 19
f 19 23 24
f 20 25 26
f 20 26 27
f 20 27 28
f 20 28 21
f 21 28 22
f 22 28 27
f 23 29 24
f 24 29 30
f 24 30 31
f 24 31 32
f 24 32 33
f 24 33 34
f 24 34 35
f 25 36 26
f 25 37 36
f 26 36 27
f 29 32 30
f 30 32 31
f 33 38 34
f 34 38 35
f 35 38 39
f 35 39 40
f 35 40 41
f 36 37 43
f 36 43 45
f 36 45 42
f 37 39 42
f 37 42 44
f 37 44 43
f 37 41 39
f 39 41 40
f 42 45 44
f 43 44 45
