# https://github.com/mikedh/trimesh
v 0.05503636 -0.13385788 0.00507617
v 0.05306969 -0.14971180 -0.00665267
v 0.05225292 -0.14971180 -0.01230825
v 0.05327388 -0.13386096 -0.00703648
v 0.05395092 -0.11826866 -0.00399985
v 0.05493964 -0.11826866 0.00281846
v 0.05381122 -0.11826866 0.01826124
v 0.05477844 -0.14971180 0.00949001
v 0.04626691 -0.14971180 -0.02811227
v 0.04488056 -0.13386096 -0.02983942
v 0.04399932 -0.12385801 -0.03093442
v 0.04306434 -0.11826866 -0.03206327
v 0.04785745 -0.11826866 0.03413299
v 0.04822284 -0.14971180 0.02808231
v 0.03719655 -0.14971180 -0.03876870
v 0.03844319 -0.11826866 -0.03592397
v 0.04470861 -0.11826866 0.04105290
v 0.04107618 -0.14971180 0.03728251
v 0.03029706 -0.14971180 -0.04431139
v 0.02770706 -0.13386096 -0.04546283
v 0.03054424 -0.12385801 -0.04259552
v 0.01988334 -0.12385801 -0.04941384
v 0.01892687 -0.11826866 -0.04810436
v 0.03230672 -0.11826866 0.05193509
v 0.02159209 -0.14971180 0.05192381
v 0.02316114 -0.14971180 -0.05001213
v 0.02003379 -0.13250671 -0.05129903
v 0.00138797 -0.11826866 -0.05154738
v 0.01394032 -0.11826866 0.06155297
v -0.00524285 -0.14971180 0.05544584
v 0.01230679 -0.14971180 -0.05264237
v -0.01218533 -0.14971180 -0.05377123
v -0.00655397 -0.11826866 -0.05190861
v -0.01179844 -0.11826866 0.06146266
v -0.02483440 -0.14971180 0.04992573
v -0.01462487 -0.13381171 -0.05300361
v -0.00946637 -0.12385801 -0.05230371
v -0.02048192 -0.14971180 -0.05026048
v -0.02844535 -0.11826866 -0.04302450
v -0.02599506 -0.11826866 0.05667630
v -0.02579087 -0.12385801 0.05547971
v -0.04014870 -0.14971180 0.04008208
v -0.03539858 -0.14971180 -0.04057487
v -0.03519439 -0.13385788 -0.03967178
v -0.03506542 -0.12385801 -0.03908478
v -0.03497945 -0.11826866 -0.03875741
v -0.04095471 -0.11826866 0.04506034
v -0.05190577 -0.14971180 0.02278796
v -0.04367367 -0.14971180 -0.03151013
v -0.04657532 -0.13386096 -0.02720918
v -0.04973491 -0.11826866 -0.02247926
v -0.05072362 -0.11826866 0.02987720
v -0.05131470 -0.13386096 0.02637774
v -0.05381872 -0.14971180 0.01230087
v -0.05114274 -0.14971180 -0.02001835
v -0.05088482 -0.13386096 -0.02057150
v -0.05475370 -0.11826866 -0.00484650
v -0.05093856 -0.12385801 0.02861288
v -0.05172307 -0.11826866 0.02439094
v -0.05390469 -0.13846232 0.01204123
v -0.05449577 -0.11826866 0.00276201
v -0.05444204 -0.14971180 -0.00924904
v -0.05373274 -0.13386096 0.01239118
f 1 2 3
f 1 3 4
f 1 4 5
f 1 5 6
f 1 6 7
f 1 7 8
f 1 8 2
f 2 8 14
f 2 14 18
f 2 18 25
f 2 25 30
f 2 30 35
f 2 35 42
f 2 42 48
f 2 48 54
f 2 54 62
f 2 62 55
f 2 55 49
f 2 49 43
f 2 43 38
f 2 38 32
f 2 32 31
f 2 31 26
f 2 26 19
f 2 19 15
f 2 15 9
f 2 9 3
f 3 9 5
f 3 5 4
f 5 9 10
f 5 10 11
f 5 11 12
f 5 12 16
f 5 16 23
f 5 23 28
f 5 28 33
f 5 33 39
f 5 39 46
f 5 46 51
f 5 51 57
f 5 57 61
f 5 61 59
f 5 59 52
f 5 52 47
f 5 47 40
f 5 40 34
f 5 34 29
f 5 29 24
f 5 24 17
f 5 17 13
f 5 13 7
f 5 7 6
f 7 13 14
f 7 14 8
f 9 15 10
f 10 15 11
f 11 15 12
f 12 15 16
f 13 17 14
f 14 17 18
f 15 19 16
f 16 19 20
f 16 20 21
f 16 21 22
f 16 22 23
f 17 24 18
f 18 24 25
f 19 26 20
f 20 26 27
f 20 27 21
f 21 27 22
f 22 27 28
f 22 28 23
f 24 29 25
f 25 29 30
f 26 31 27
f 27 31 28
f 28 31 32
f 28 32 33
f 29 34 30
f 30 34 35
f 32 36 37
f 32 37 33
f 32 38 36
f 33 37 39
f 34 40 41
f 34 41 35
f 35 41 42
f 36 38 39
f 36 39 37
f 38 43 44
f 38 44 39
f 39 44 45
f 39 45 46
f 40 47 42
f 40 42 41
f 42 47 48
f 43 49 50
f 43 50 44
f 44 50 45
f 45 50 46
f 46 50 51
f 47 52 53
f 47 53 48
f 48 53 54
f 49 55 50
f 50 55 56
f 50 56 51
f 51 56 57
f 52 58 53
f 52 59 58
f 53 59 60
f 53 60 54
f 53 58 59
f 54 60 61
f 54 61 57
f 54 57 62
f 55 62 56
f 56 62 57
f 59 61 63
f 59 63 60
f 60 63 61
