# https://github.com/mikedh/trimesh
v 0.03330001 0.03646497 -0.01684335
v 0.02459179 0.03646497 -0.01654243
v 0.04244154 0.03646839 -0.01889772
v 0.03330001 0.03646497 0.03818472
v 0.02459179 0.03974763 -0.01658294
v 0.02459354 0.04616904 -0.01693594
v 0.04244154 0.04741975 -0.01972525
v 0.02459179 0.03646497 0.03939419
v 0.04244154 0.03646839 0.03709678
v 0.02459179 0.03974763 0.03532018
v 0.02459354 0.06088621 0.00753705
v 0.02459354 0.06067377 -0.00504377
v 0.02459354 0.05737739 -0.01135732
v 0.02459354 0.05646935 -0.01240476
v 0.04244154 0.06215747 -0.01653664
v 0.04244154 0.06020090 0.02624625
v 0.02459354 0.05308389 0.02747887
v 0.02459354 0.05528718 0.02301135
v 0.02459354 0.06066349 0.00904166
v 0.04244154 0.07147092 0.00011819
v 0.04244154 0.06941155 -0.00754951
v 0.04244154 0.06894896 -0.00870690
v 0.04244154 0.06277426 -0.01615470
v 0.04244154 0.06040306 0.02606107
v 0.04244154 0.06825337 0.01464342
f 1 2 3
f 1 3 9
f 1 9 4
f 1 4 8
f 1 8 2
f 2 5 6
f 2 6 7
f 2 7 3
f 2 8 10
f 2 10 5
f 3 7 15
f 3 15 23
f 3 23 22
f 3 22 21
f 3 21 20
f 3 20 25
f 3 25 24
f 3 24 16
f 3 16 9
f 4 9 8
f 5 10 11
f 5 11 12
f 5 12 13
f 5 13 14
f 5 14 6
f 6 14 15
f 6 15 7
f 8 9 16
f 8 16 17
f 8 17 10
f 10 17 18
f 10 18 19
f 10 19 11
f 11 19 20
f 11 20 12
f 12 20 21
f 12 21 22
f 12 22 13
f 13 22 23
f 13 23 14
f 14 23 15
f 16 24 17
f 17 24 25
f 17 25 18
f 18 25 19
f 19 25 20
