# https://github.com/mikedh/trimesh
v -0.08136195 -0.07792944 0.00001633
v 0.00622377 -0.09439344 0.00003989
v -0.02499029 -0.08853056 0.00003239
v -0.02499029 -0.08853056 0.00003346
v 0.00598331 -0.09297381 0.00812132
v -0.02499029 -0.08698188 0.00824128
v -0.08136195 -0.07606733 0.00846086
v -0.08136195 -0.06852671 0.00000240
v 0.02546017 -0.06983572 0.00000455
v 0.06611207 -0.03027051 0.00000883
v 0.04185618 -0.05768592 0.00042013
v 0.02137243 -0.07024133 0.01092867
v 0.01103287 -0.07029664 0.01092867
v 0.01065715 -0.07029664 0.01092867
v 0.04119493 -0.05602661 0.01092867
v 0.03811410 -0.05906867 0.01092867
v 0.02546017 -0.06828704 0.01092867
v 0.02401743 -0.06931949 0.01092867
v -0.08136195 -0.05530758 0.01092867
v -0.08136195 -0.02254552 0.00000455
v 0.07216854 0.01364577 -0.00001259
v 0.06453409 -0.02545852 0.01092867
v 0.06178389 -0.03152421 0.01092867
v -0.08136195 0.05522058 0.01092867
v -0.08136195 -0.00235731 0.00000668
v -0.08136195 0.07780557 0.00002383
v 0.02546017 0.06954592 0.00000776
v 0.05291711 0.04924708 0.00000026
v 0.05312751 0.04395575 0.01092867
v 0.06620224 0.01974832 0.01092867
v 0.06883222 0.01344296 0.01092867
v 0.06884725 0.00593922 0.01092867
v 0.01079241 0.07037557 0.01092867
v -0.08136195 0.07699435 0.00847264
v -0.08136195 0.07763964 0.00307324
v 0.00619371 0.09395614 0.00005381
v -0.02499029 0.08820388 0.00004311
v 0.04674042 0.05134887 0.01092867
v 0.00584806 0.09340304 0.00814274
v 0.01925342 0.07030182 0.01092867
v -0.02499029 0.08761391 0.00825949
v -0.08136195 0.07712341 0.00755792
v -0.02499029 0.08783515 0.00634651
v 0.02428794 0.06888220 0.01092867
f 1 2 3
f 1 3 4
f 1 4 5
f 1 5 6
f 1 6 7
f 1 7 19
f 1 19 24
f 1 24 34
f 1 34 42
f 1 42 35
f 1 35 26
f 1 26 25
f 1 25 20
f 1 20 8
f 1 8 2
f 2 5 4
f 2 4 3
f 2 8 9
f 2 9 10
f 2 10 11
f 2 11 5
f 5 12 13
f 5 13 14
f 5 14 7
f 5 7 6
f 5 11 15
f 5 15 16
f 5 16 17
f 5 17 18
f 5 18 12
f 7 14 19
f 8 20 21
f 8 21 9
f 9 21 10
f 10 22 23
f 10 23 15
f 10 15 11
f 10 21 22
f 12 18 17
f 12 17 16
f 12 16 15
f 12 15 23
f 12 23 22
f 12 22 32
f 12 32 31
f 12 31 30
f 12 30 29
f 12 29 38
f 12 38 44
f 12 44 40
f 12 40 33
f 12 33 24
f 12 24 19
f 12 19 14
f 12 14 13
f 20 25 21
f 21 25 26
f 21 26 27
f 21 27 28
f 21 28 29
f 21 29 30
f 21 30 31
f 21 31 32
f 21 32 22
f 24 33 34
f 26 35 36
f 26 36 37
f 26 37 27
f 27 37 36
f 27 36 28
f 28 38 29
f 28 36 39
f 28 39 38
f 33 40 39
f 33 39 41
f 33 41 34
f 34 41 42
f 35 42 43
f 35 43 36
f 36 43 39
f 38 39 44
f 39 43 41
f 39 40 44
f 41 43 42
