# https://github.com/mikedh/trimesh
v 0.01688923 0.00021354 -0.07135092
v 0.05964863 0.00021354 -0.07135092
v 0.01688923 0.00021354 -0.06565932
v 0.01688923 0.05299800 -0.07135092
v 0.05955025 0.00136022 -0.07135092
v 0.06058534 0.02040469 -0.06642592
v 0.06058534 0.00021354 -0.06931073
v 0.06058534 0.00021354 -0.06565932
v 0.01688923 0.05419753 -0.06565932
v 0.03585872 0.04791454 -0.06565932
v 0.01765485 0.05274436 -0.07135092
v 0.05802329 0.01915761 -0.07135092
v 0.06058534 0.02243385 -0.06565932
v 0.03598703 0.04619716 -0.07135092
v 0.02233841 0.05114851 -0.07135092
v 0.02204756 0.05124891 -0.07135092
v 0.05206511 0.03772649 -0.06565932
v 0.05826709 0.02778152 -0.06565932
v 0.05987105 0.02408254 -0.06565932
v 0.04988801 0.03206705 -0.07135092
v 0.05401981 0.03459293 -0.06565932
f 1 2 7
f 1 7 8
f 1 8 3
f 1 3 9
f 1 9 4
f 1 4 11
f 1 11 16
f 1 16 15
f 1 15 14
f 1 14 20
f 1 20 12
f 1 12 5
f 1 5 2
f 2 5 6
f 2 6 7
f 3 8 13
f 3 13 19
f 3 19 18
f 3 18 21
f 3 21 17
f 3 17 10
f 3 10 9
f 4 9 10
f 4 10 11
f 5 12 6
f 6 12 13
f 6 13 8
f 6 8 7
f 10 14 15
f 10 15 16
f 10 16 11
f 10 17 14
f 12 18 19
f 12 19 13
f 12 20 17
f 12 17 21
f 12 21 18
f 14 17 20
