# https://github.com/mikedh/trimesh
v 0.06102676 -0.02791346 0.03945955
v 0.05781219 -0.02791346 0.04187910
v 0.06102676 -0.03046662 0.03915616
v 0.06102676 -0.02791346 -0.03018401
v 0.04244154 -0.02791346 0.04577009
v 0.06102676 -0.03594264 0.03738890
v 0.06102676 -0.03314609 0.03829908
v 0.06102676 -0.03840439 -0.03171614
v 0.04244154 -0.02791346 -0.01988386
v 0.04244154 -0.03320976 0.04053659
v 0.04244154 -0.03725106 0.03526516
v 0.06102676 -0.03840439 0.03411985
v 0.04244154 -0.03840439 -0.01879165
v 0.04244154 -0.03175757 -0.01988386
v 0.04244154 -0.03811991 0.03260290
v 0.05321864 -0.03840439 0.03244362
v 0.04244154 -0.03840439 0.02815821
f 1 2 3
f 1 3 7
f 1 7 6
f 1 6 12
f 1 12 8
f 1 8 4
f 1 4 9
f 1 9 5
f 1 5 2
f 2 5 6
f 2 6 7
f 2 7 3
f 4 8 9
f 5 10 6
f 5 9 14
f 5 14 13
f 5 13 17
f 5 17 15
f 5 15 11
f 5 11 10
f 6 11 12
f 6 10 11
f 8 13 14
f 8 14 9
f 8 12 16
f 8 16 17
f 8 17 13
f 11 15 12
f 12 15 16
f 15 17 16
