# https://github.com/mikedh/trimesh
v -0.00866117 0.03971753 -0.26009899
v 0.00108472 0.03971753 -0.26009647
v 0.00408580 0.01738965 -0.26009647
v -0.01953627 0.01738965 -0.26009647
v -0.03921116 0.01738965 -0.26004880
v -0.01679969 0.03971753 -0.26007891
v 0.02753493 0.03971753 -0.25980033
v 0.02421848 0.01738965 -0.25987060
v -0.05106289 0.01738965 -0.25993585
v -0.04858064 0.02604454 -0.25989068
v -0.03619991 0.03971753 -0.25962967
v 0.03514445 0.03971753 -0.25970496
v 0.05268297 0.01739183 -0.25954183
v 0.04508362 0.01738965 -0.25960960
v -0.05112393 0.01738965 -0.24423266
v -0.04597631 0.03299250 -0.23446241
v -0.03920099 0.03971753 -0.23883681
v 0.04005808 0.03971753 -0.23446241
v 0.04742345 0.03337935 -0.23446241
v 0.04508362 0.02791321 -0.25959956
v 0.05265245 0.01891518 -0.25951673
v 0.05280505 0.01739183 -0.25613617
v 0.04508362 0.01738965 -0.23446241
v -0.05097133 0.01738965 -0.23446241
v -0.04132718 0.03807397 -0.23446241
v -0.03970964 0.03971753 -0.23446241
v 0.05131977 0.01739183 -0.23446241
f 1 2 3
f 1 3 4
f 1 4 5
f 1 5 6
f 1 6 11
f 1 11 17
f 1 17 26
f 1 26 18
f 1 18 12
f 1 12 7
f 1 7 2
f 2 7 3
f 3 8 14
f 3 14 23
f 3 23 24
f 3 24 15
f 3 15 9
f 3 9 5
f 3 5 4
f 3 7 8
f 5 9 10
f 5 10 6
f 6 10 11
f 7 12 13
f 7 13 8
f 8 13 14
f 9 15 10
f 10 15 16
f 10 16 11
f 11 16 17
f 12 18 19
f 12 19 20
f 12 20 13
f 13 20 21
f 13 21 22
f 13 22 14
f 14 22 23
f 15 24 16
f 16 25 17
f 16 24 23
f 16 23 27
f 16 27 19
f 16 19 18
f 16 18 26
f 16 26 25
f 17 25 26
f 19 27 22
f 19 22 21
f 19 21 20
f 22 27 23
