# https://github.com/mikedh/trimesh
v 0.04664637 0.07452463 -0.00130301
v 0.04584236 0.07452463 -0.01121359
v 0.04637228 0.10485905 -0.00864348
v 0.04417038 0.08112328 0.02032954
v 0.04502922 0.07452463 0.01422198
v 0.04303746 0.07452463 -0.02449091
v 0.04253496 0.09027851 -0.02684290
v 0.03993106 0.11703911 0.00075498
v 0.04137462 0.10707116 0.01637480
v 0.04077162 0.09193624 -0.03041829
v 0.03793017 0.10453612 -0.03041829
v 0.02982612 0.10424009 -0.05131111
v 0.02715826 0.10788926 0.03304733
v 0.03221074 0.07452463 0.03285765
v 0.04278164 0.07452463 0.02208405
v 0.04447189 0.07452463 0.01951393
v 0.03876159 0.07452463 -0.03021913
v 0.03234779 0.09008474 -0.05131111
v 0.00806303 0.12950980 0.01413662
v 0.01760151 0.12199079 0.02937710
v 0.03332539 0.11003679 -0.03041829
v 0.02885765 0.10538651 -0.05131111
v 0.02552284 0.10715727 -0.05131111
v 0.01729087 0.11856229 -0.03041829
v 0.01018269 0.12838491 -0.01240855
v 0.03318834 0.09903544 -0.04571567
v 0.03041085 0.10162431 -0.05131111
v 0.00654637 0.10354040 0.04385886
v 0.02364986 0.07452463 0.04113701
v 0.02915915 0.07453001 -0.04113499
v 0.01572853 0.07452463 -0.05131111
v 0.02268139 0.07816304 -0.05131111
v -0.01651410 0.12919225 0.00164645
v -0.01140681 0.12227067 0.03162475
v -0.00106432 0.11706602 -0.05131111
v -0.00583356 0.11656009 -0.05131111
v -0.00696648 0.11789489 -0.04571567
v 0.02068964 0.07452463 0.04256906
v -0.01846930 0.10910027 0.03850051
v -0.01594764 0.07452463 0.04501588
v 0.00430793 0.07452463 0.04557543
v 0.01740051 0.07465919 -0.05113092
v -0.01282296 0.07452463 -0.05131111
v -0.03814014 0.11683996 -0.00916509
v -0.03566416 0.11672155 0.01837588
v -0.02936912 0.10446076 -0.05131111
v -0.03052946 0.10610774 -0.04571567
v -0.02004992 0.07452463 0.04224662
v -0.04015017 0.08072499 0.02649402
v -0.02658250 0.07452463 -0.04581999
v -0.02359487 0.08117172 -0.05131111
v -0.04654570 0.10503129 0.00011956
v -0.03037414 0.10300217 -0.05131111
v -0.03504288 0.10866431 -0.03041829
v -0.04526659 0.10156511 -0.01720735
v -0.03919083 0.07452463 0.02756568
v -0.04081713 0.07452463 0.02519474
v -0.04355807 0.07452463 0.01566351
v -0.03315162 0.08922896 -0.05131111
v -0.04504732 0.07452463 -0.01734961
v -0.03251207 0.07453001 -0.04123931
v -0.04669188 0.07452463 0.00473817
v -0.04580565 0.07452463 -0.00734420
v -0.04626247 0.07452463 -0.00114178
f 1 2 3
f 1 3 4
f 1 4 5
f 1 5 16
f 1 16 15
f 1 15 14
f 1 14 29
f 1 29 38
f 1 38 41
f 1 41 40
f 1 40 48
f 1 48 56
f 1 56 57
f 1 57 58
f 1 58 62
f 1 62 64
f 1 64 63
f 1 63 60
f 1 60 50
f 1 50 43
f 1 43 31
f 1 31 17
f 1 17 6
f 1 6 2
f 2 6 7
f 2 7 3
f 3 8 9
f 3 9 4
f 3 7 10
f 3 10 11
f 3 11 12
f 3 12 8
f 4 13 14
f 4 14 15
f 4 15 16
f 4 16 5
f 4 9 13
f 6 17 18
f 6 18 7
f 7 18 10
f 8 19 20
f 8 20 9
f 8 12 21
f 8 21 22
f 8 22 23
f 8 23 24
f 8 24 25
f 8 25 19
f 9 20 13
f 10 26 11
f 10 18 26
f 11 26 12
f 12 27 18
f 12 18 32
f 12 32 31
f 12 31 43
f 12 43 51
f 12 51 59
f 12 59 53
f 12 53 46
f 12 46 36
f 12 36 35
f 12 35 23
f 12 23 22
f 12 22 21
f 12 26 27
f 13 28 29
f 13 29 14
f 13 20 28
f 17 30 18
f 17 31 30
f 18 27 26
f 18 30 32
f 19 25 33
f 19 33 34
f 19 34 20
f 20 34 28
f 23 35 24
f 24 35 25
f 25 35 36
f 25 36 37
f 25 37 33
f 28 38 29
f 28 34 39
f 28 39 40
f 28 40 41
f 28 41 38
f 30 31 42
f 30 42 32
f 31 32 42
f 33 44 45
f 33 45 34
f 33 37 44
f 34 45 39
f 36 46 47
f 36 47 44
f 36 44 37
f 39 48 40
f 39 45 49
f 39 49 48
f 43 50 51
f 44 52 45
f 44 47 46
f 44 46 53
f 44 53 54
f 44 54 55
f 44 55 52
f 45 52 49
f 48 49 56
f 49 57 56
f 49 52 58
f 49 58 57
f 50 59 51
f 50 60 61
f 50 61 59
f 52 62 58
f 52 55 62
f 53 59 55
f 53 55 54
f 55 59 60
f 55 60 63
f 55 63 64
f 55 64 62
f 59 61 60
