# https://github.com/mikedh/trimesh
v -0.00231848 -0.06688174 0.00715963
v -0.02304781 -0.06688174 0.00941186
v -0.00645588 -0.06190399 0.00814001
v 0.01705641 -0.06190399 0.00941186
v 0.02123614 -0.06688174 0.01053356
v -0.02422237 -0.06430758 0.01009194
v -0.02979887 -0.06688174 0.01245899
v -0.02530169 -0.06190399 0.01072786
v 0.02504551 -0.06190399 0.01099283
v 0.04333050 -0.06688174 0.01944530
v -0.02949200 -0.06458586 0.01245899
v -0.03548118 -0.06430710 0.01519698
v -0.03385161 -0.06190399 0.01459639
v -0.03751285 -0.06688174 0.01597422
v 0.04219827 -0.06190399 0.01973676
v 0.04292840 -0.06430710 0.01973676
v 0.04414528 -0.06430710 0.02069948
v 0.04943608 -0.06430710 0.03109504
v 0.05323487 -0.06430710 0.03858479
v 0.05376395 -0.06688174 0.04066036
v -0.04140687 -0.06688174 0.01837659
v -0.04030639 -0.06430710 0.01816462
v -0.04107884 -0.06190399 0.01909201
v 0.04455796 -0.06190399 0.02160037
v 0.05275870 -0.06190399 0.03774572
v 0.05398616 -0.06190399 0.04172024
v 0.05381686 -0.06190399 0.04454656
v 0.05316080 -0.06430710 0.04517365
v 0.04171152 -0.06688174 0.06877342
v 0.05391209 -0.06430710 0.04194104
v -0.05140647 -0.06688174 0.02958472
v -0.05099379 -0.06430710 0.03022948
v -0.05059169 -0.06190399 0.03083890
v 0.05264230 -0.06190399 0.04870655
v 0.04460029 -0.06190399 0.06704230
v 0.03989148 -0.06190399 0.07777349
v 0.03967985 -0.06430710 0.07590988
v 0.03944706 -0.06688174 0.07392263
v -0.05405187 -0.06688174 0.03719812
v -0.05411536 -0.06190399 0.04099599
v 0.03621967 -0.06190399 0.08152719
v 0.03883333 -0.06430710 0.07678427
v 0.03692864 -0.06430758 0.07872737
v 0.03767993 -0.06688174 0.07572440
v -0.05354396 -0.06430710 0.04301858
v -0.05279266 -0.06688174 0.04603921
v -0.05315244 -0.06190399 0.04778799
v 0.01770189 -0.06190399 0.09619756
v 0.01848493 -0.06430710 0.09384818
v 0.01931029 -0.06688174 0.09133099
v -0.05298313 -0.06430710 0.04694893
v -0.04353377 -0.06688174 0.06974497
v -0.04371366 -0.06430710 0.07164390
v -0.04386180 -0.06190399 0.07342802
v 0.01221005 -0.06190399 0.09738992
v 0.01413590 -0.06430710 0.09479323
v 0.01259098 -0.06688174 0.09277948
v -0.03265590 -0.06688174 0.08123573
v -0.03288869 -0.06430758 0.08342613
v -0.03310032 -0.06190399 0.08547521
v -0.01121759 -0.06190399 0.09725743
v -0.01415928 -0.06688174 0.09300029
v 0.01238993 -0.06430758 0.09516419
v -0.01538674 -0.06190399 0.09635654
f 1 2 3
f 1 3 4
f 1 4 5
f 1 5 10
f 1 10 20
f 1 20 29
f 1 29 38
f 1 38 44
f 1 44 50
f 1 50 57
f 1 57 62
f 1 62 58
f 1 58 52
f 1 52 46
f 1 46 39
f 1 39 31
f 1 31 21
f 1 21 14
f 1 14 7
f 1 7 2
f 2 6 3
f 2 7 6
f 3 6 8
f 3 8 13
f 3 13 23
f 3 23 33
f 3 33 40
f 3 40 47
f 3 47 54
f 3 54 60
f 3 60 64
f 3 64 61
f 3 61 55
f 3 55 48
f 3 48 41
f 3 41 36
f 3 36 35
f 3 35 34
f 3 34 27
f 3 27 26
f 3 26 25
f 3 25 24
f 3 24 15
f 3 15 9
f 3 9 4
f 4 9 5
f 5 9 10
f 6 7 11
f 6 11 8
f 7 12 13
f 7 13 11
f 7 14 12
f 8 11 13
f 9 15 10
f 10 15 16
f 10 16 17
f 10 17 18
f 10 18 19
f 10 19 20
f 12 14 13
f 13 14 21
f 13 21 22
f 13 22 23
f 15 24 16
f 16 24 17
f 17 24 18
f 18 24 25
f 18 25 19
f 19 25 26
f 19 26 20
f 20 27 28
f 20 28 29
f 20 26 30
f 20 30 27
f 21 23 22
f 21 31 23
f 23 31 32
f 23 32 33
f 26 27 30
f 27 34 28
f 28 34 29
f 29 34 35
f 29 35 36
f 29 36 37
f 29 37 38
f 31 39 32
f 32 39 40
f 32 40 33
f 36 41 42
f 36 42 38
f 36 38 37
f 38 42 43
f 38 43 44
f 39 45 40
f 39 46 45
f 40 45 47
f 41 48 49
f 41 49 50
f 41 50 43
f 41 43 42
f 43 50 44
f 45 46 51
f 45 51 47
f 46 52 53
f 46 53 54
f 46 54 51
f 47 51 54
f 48 55 56
f 48 56 49
f 49 56 50
f 50 56 57
f 52 58 59
f 52 59 60
f 52 60 53
f 53 60 54
f 55 61 62
f 55 62 63
f 55 63 57
f 55 57 56
f 57 63 62
f 58 62 60
f 58 60 59
f 60 62 64
f 61 64 62
