# https://github.com/mikedh/trimesh
v -0.03549884 -0.03714543 0.07970408
v -0.03610461 -0.03578565 0.07973247
v -0.03465308 -0.03680650 0.07975839
v -0.03620985 -0.03863281 0.07983244
v -0.03739315 -0.03708399 0.07986947
v -0.02891625 -0.03578565 0.08187383
v -0.03357887 -0.03592068 0.07995833
v -0.03811699 -0.03578565 0.08016568
v -0.03646910 -0.04018771 0.08139249
v -0.03743165 -0.03865577 0.07999906
v -0.03503938 -0.04011885 0.08118391
v -0.03935932 -0.03578565 0.08048164
v -0.02802172 -0.03578565 0.08903597
v -0.02802172 -0.03590718 0.08268594
v -0.02999046 -0.03764640 0.08243293
v -0.03126617 -0.03887790 0.08246132
v -0.03255342 -0.04009252 0.08249711
v -0.03469414 -0.04161366 0.08282541
v -0.03555916 -0.04135102 0.08429412
v -0.03649861 -0.04041457 0.08304140
v -0.03806180 -0.03885089 0.08178991
v -0.03962884 -0.03728856 0.08178991
v -0.04046947 -0.03622315 0.08137151
v -0.03374443 -0.04077105 0.08226631
v -0.04113042 -0.03578565 0.08429412
v -0.03190659 -0.03578565 0.09155500
v -0.03440666 -0.03824324 0.09151921
v -0.03465821 -0.04044698 0.09014430
v -0.03312711 -0.04139693 0.08834605
v -0.03114810 -0.04024173 0.08733893
v -0.02989293 -0.03899403 0.08732535
v -0.02817701 -0.03707589 0.08749568
v -0.03349801 -0.04164269 0.08383006
v -0.03374443 -0.04268312 0.08737842
v -0.03524601 -0.04166767 0.08554562
v -0.03649990 -0.04041592 0.08429412
v -0.03900510 -0.03791444 0.08304140
v -0.04113299 -0.03578565 0.08554562
v -0.04062861 -0.03628730 0.08304140
v -0.03372902 -0.03578565 0.09228813
v -0.03561306 -0.03828038 0.09209435
v -0.03518312 -0.03935794 0.09124892
v -0.03672834 -0.03976439 0.09115265
v -0.03276262 -0.04176557 0.08707234
v -0.03536023 -0.04145432 0.08849415
v -0.03524729 -0.04166835 0.08679588
v -0.03837880 -0.03854099 0.08429412
v -0.04113170 -0.03578565 0.08754751
v -0.03900382 -0.03791377 0.08929886
v -0.03561306 -0.03702863 0.09231281
v -0.03561820 -0.03578565 0.09220667
v -0.03686567 -0.03828038 0.09218939
v -0.03790138 -0.03869020 0.09131927
v -0.03895762 -0.03786988 0.09094777
v -0.03649990 -0.04041322 0.08929886
v -0.04065556 -0.03625421 0.08917667
v -0.04073898 -0.03578565 0.09058861
v -0.03686567 -0.03702863 0.09215113
v -0.03811827 -0.03578565 0.09174631
v -0.03811827 -0.03702863 0.09186603
v -0.03978541 -0.03578565 0.09137604
v -0.03988423 -0.03690170 0.09072561
f 1 2 3
f 1 3 4
f 1 4 5
f 1 5 2
f 2 6 7
f 2 7 3
f 2 5 8
f 2 8 12
f 2 12 25
f 2 25 38
f 2 38 48
f 2 48 57
f 2 57 61
f 2 61 59
f 2 59 51
f 2 51 40
f 2 40 26
f 2 26 13
f 2 13 6
f 3 7 6
f 3 6 4
f 4 9 10
f 4 10 5
f 4 6 11
f 4 11 9
f 5 10 12
f 5 12 8
f 6 13 14
f 6 14 15
f 6 15 16
f 6 16 17
f 6 17 11
f 9 11 18
f 9 18 19
f 9 19 20
f 9 20 21
f 9 21 10
f 10 21 22
f 10 22 23
f 10 23 12
f 11 17 24
f 11 24 18
f 12 23 25
f 13 26 27
f 13 27 28
f 13 28 29
f 13 29 30
f 13 30 31
f 13 31 32
f 13 32 14
f 14 16 15
f 14 32 31
f 14 31 33
f 14 33 16
f 16 33 17
f 17 33 24
f 18 24 33
f 18 33 34
f 18 34 19
f 19 34 35
f 19 35 20
f 20 36 37
f 20 37 22
f 20 22 21
f 20 35 36
f 22 37 38
f 22 38 39
f 22 39 23
f 23 39 25
f 25 39 38
f 26 40 41
f 26 41 27
f 27 41 42
f 27 42 28
f 28 34 29
f 28 42 43
f 28 43 34
f 29 34 30
f 30 34 44
f 30 44 33
f 30 33 31
f 33 44 34
f 34 43 45
f 34 45 46
f 34 46 35
f 35 46 36
f 36 47 37
f 36 46 47
f 37 47 38
f 38 47 49
f 38 49 48
f 40 50 41
f 40 51 50
f 41 50 52
f 41 52 43
f 41 43 42
f 43 52 53
f 43 53 54
f 43 54 55
f 43 55 45
f 45 55 46
f 46 55 49
f 46 49 47
f 48 56 57
f 48 49 56
f 49 55 54
f 49 54 56
f 50 51 58
f 50 58 52
f 51 59 58
f 52 60 61
f 52 61 53
f 52 58 60
f 53 61 54
f 54 61 62
f 54 62 56
f 56 62 57
f 57 62 61
f 58 59 61
f 58 61 60
