# https://github.com/mikedh/trimesh
v 0.04573725 0.00728783 0.06187462
v 0.04371567 0.00694343 0.09693292
v 0.04417052 -0.00016736 0.09745923
v 0.04451708 -0.01162870 0.09010982
v 0.04573725 -0.00060799 0.06187462
v -0.02802172 0.00728783 0.06187462
v -0.02802172 0.00728276 0.10004912
v 0.03191105 0.00264859 0.10049213
v 0.04198288 -0.00853925 0.09815214
v 0.03790361 -0.02200621 0.09772049
v 0.04451708 -0.01314304 0.08491866
v 0.04451708 -0.01298097 0.07879984
v 0.04451708 -0.01243398 0.07146558
v 0.04451708 -0.01037773 0.06354064
v 0.03849565 -0.02246709 0.06201851
v 0.01788992 -0.04092273 0.06187462
v -0.02416627 -0.03728630 0.06187462
v -0.02802172 -0.03707359 0.08679672
v -0.02740803 -0.01614639 0.10055272
v 0.03140566 -0.00526748 0.10055650
v 0.03698668 -0.02200621 0.09811806
v 0.02911693 -0.01438894 0.10055650
v 0.02947071 -0.03171517 0.09779243
v 0.03422866 -0.02829652 0.09121166
v 0.03571597 -0.02659986 0.08330566
v 0.03656792 -0.02542485 0.07678547
v 0.03310234 -0.02979566 0.06285909
v 0.02807726 -0.03470839 0.06421462
v 0.01921839 -0.04037069 0.07928828
v 0.01689357 -0.04144440 0.06989801
v 0.01209952 -0.04268017 0.06314307
v 0.00516837 -0.04416919 0.06215860
v -0.00888886 -0.04374375 0.06187462
v -0.01428217 -0.04233578 0.06447967
v -0.01279486 -0.04279160 0.07678547
v -0.01015236 -0.04351078 0.09152593
v -0.01706184 -0.03973760 0.09776214
v -0.02606512 -0.03385246 0.09796660
v -0.02285946 -0.02264942 0.10055650
v 0.01666975 -0.02786096 0.10055650
v 0.02487161 -0.03585300 0.09773942
v 0.02207027 -0.03860818 0.09262399
v 0.01957939 -0.03999590 0.08679293
v 0.01661921 -0.04148491 0.07569120
v 0.01168076 -0.04259408 0.08209022
v 0.00447526 -0.04422996 0.08178352
v 0.00447526 -0.04427554 0.07553217
v 0.00321177 -0.04439203 0.08115877
v -0.00052817 -0.04445281 0.07678547
v -0.00478793 -0.04432113 0.06670607
v -0.00793583 -0.04402738 0.06989801
v -0.01181294 -0.04309548 0.07553217
v -0.00938704 -0.04373362 0.08511556
v -0.00052817 -0.04435151 0.09054904
v 0.00196994 -0.04442749 0.09555467
v -0.00636910 -0.04298406 0.09722826
v 0.00350778 -0.03233812 0.10055650
v -0.00927152 -0.03055030 0.10055650
v -0.01748782 -0.02640234 0.10055650
v 0.01112483 -0.04152037 0.09755389
v 0.00070644 -0.04445281 0.08302925
v -0.00305515 -0.04437684 0.07428266
v -0.00680952 -0.04418945 0.07177606
f 1 2 3
f 1 3 4
f 1 4 5
f 1 5 16
f 1 16 33
f 1 33 17
f 1 17 6
f 1 6 7
f 1 7 2
f 2 7 8
f 2 8 3
f 3 8 9
f 3 9 4
f 4 9 10
f 4 10 11
f 4 11 5
f 5 11 12
f 5 12 13
f 5 13 14
f 5 14 15
f 5 15 16
f 6 17 18
f 6 18 7
f 7 18 19
f 7 19 8
f 8 20 9
f 8 19 20
f 9 21 10
f 9 20 22
f 9 22 21
f 10 21 23
f 10 23 24
f 10 24 11
f 11 24 25
f 11 25 26
f 11 26 15
f 11 15 12
f 12 15 13
f 13 15 14
f 15 26 27
f 15 27 16
f 16 27 28
f 16 28 29
f 16 29 30
f 16 30 31
f 16 31 32
f 16 32 33
f 17 33 34
f 17 34 18
f 18 34 35
f 18 35 36
f 18 36 37
f 18 37 38
f 18 38 19
f 19 38 39
f 19 39 20
f 20 39 59
f 20 59 58
f 20 58 57
f 20 57 40
f 20 40 22
f 21 22 40
f 21 40 23
f 23 40 41
f 23 41 24
f 24 41 42
f 24 42 28
f 24 28 27
f 24 27 25
f 25 27 26
f 28 42 29
f 29 42 43
f 29 43 44
f 29 44 30
f 30 44 31
f 31 44 45
f 31 45 46
f 31 46 47
f 31 47 32
f 32 47 48
f 32 48 49
f 32 49 50
f 32 50 33
f 33 50 51
f 33 51 52
f 33 52 34
f 34 52 35
f 35 52 36
f 36 52 53
f 36 53 54
f 36 54 55
f 36 55 56
f 36 56 37
f 37 56 57
f 37 57 58
f 37 58 59
f 37 59 38
f 38 59 39
f 40 57 60
f 40 60 41
f 41 60 42
f 42 60 43
f 43 45 44
f 43 60 55
f 43 55 45
f 45 55 46
f 46 55 48
f 46 48 47
f 48 55 61
f 48 61 49
f 49 61 55
f 49 55 62
f 49 62 50
f 50 62 63
f 50 63 51
f 51 63 53
f 51 53 52
f 53 63 54
f 54 63 62
f 54 62 55
f 55 60 56
f 56 60 57
