# https://github.com/mikedh/trimesh
v 0.01688923 -0.05222797 -0.08487096
v 0.01688923 -0.05205857 -0.09440608
v 0.01984054 -0.05167871 -0.08487096
v 0.01688923 0.00021354 -0.08487096
v 0.01688923 -0.04894780 -0.12295919
v 0.02060118 -0.05137584 -0.08931770
v 0.02244955 -0.05119104 -0.08487096
v 0.05560230 0.00021354 -0.08487096
v 0.01688923 0.00021354 -0.12294800
v 0.01688923 -0.03687948 -0.12298158
v 0.03768529 -0.04201276 -0.12291816
v 0.04364114 -0.03672035 -0.08487096
v 0.05561371 -0.00066425 -0.08487096
v 0.05546158 -0.00169091 -0.12294427
v 0.05530945 0.00021354 -0.11881090
v 0.05502040 0.00021354 -0.12293308
v 0.05574302 -0.01103346 -0.08487096
f 1 2 3
f 1 3 7
f 1 7 12
f 1 12 17
f 1 17 13
f 1 13 8
f 1 8 4
f 1 4 9
f 1 9 10
f 1 10 5
f 1 5 2
f 2 5 6
f 2 6 7
f 2 7 3
f 4 8 15
f 4 15 16
f 4 16 9
f 5 10 11
f 5 11 6
f 6 11 7
f 7 11 12
f 8 13 14
f 8 14 15
f 9 16 14
f 9 14 10
f 10 14 11
f 11 17 12
f 11 14 17
f 13 17 14
f 14 16 15
