# https://github.com/mikedh/trimesh
v -0.02863645 -0.04332772 0.06264645
v -0.02829214 -0.04402802 0.05759219
v -0.02554569 -0.04665153 0.05759219
v -0.02512932 -0.04584671 0.07333436
v -0.02863645 -0.04249154 0.07333436
v -0.02863645 0.04923714 0.06264645
v -0.02829214 0.05128578 0.05759219
v -0.00877874 -0.05126096 0.05759219
v -0.00373425 -0.05171040 0.07333436
v -0.02863645 0.04494128 0.07333436
v -0.02863645 0.04586108 0.07146059
v -0.01476008 0.05083633 0.07333436
v -0.01959639 0.05293723 0.06264645
v -0.02189443 0.05391974 0.05759219
v 0.00006914 -0.05286015 0.05759219
v -0.00685703 -0.05147000 0.06264645
v -0.00183656 -0.05206578 0.07333436
v -0.02596206 0.04622690 0.07333436
v 0.00859675 0.05051231 0.07333436
v -0.00584813 0.05273863 0.06264645
v -0.01219779 0.05378386 0.05759219
v 0.02739750 -0.04614982 0.05759219
v 0.02619643 -0.04605576 0.06264645
v 0.00717948 -0.04986036 0.07333436
v 0.01207985 0.05026146 0.07333436
v 0.00685919 0.05186065 0.06264645
v 0.00439299 0.05259230 0.05759219
v 0.02951939 -0.04536591 0.05759219
v 0.02946334 -0.04517777 0.06296080
v 0.02347401 -0.04490601 0.07333436
v 0.01446598 0.05031372 0.06264645
v 0.01442594 0.04977021 0.07333436
v 0.01559498 0.05031372 0.05759219
v 0.03129698 -0.04349496 0.05759219
v 0.03646959 -0.03474645 0.07333436
v 0.02901495 -0.04230340 0.07333436
v 0.01521864 0.05014648 0.06264645
v 0.02733345 0.04324802 0.07333436
v 0.02813416 0.04396922 0.05759219
v 0.02887882 0.04323757 0.06264645
v 0.04581392 -0.02449282 0.05759219
v 0.04546160 -0.02432559 0.06264645
v 0.03371513 -0.03970080 0.06264645
v 0.04470893 -0.02397021 0.07333436
v 0.03042420 0.04166974 0.07333436
v 0.03547670 0.03788603 0.05759219
v 0.03224182 0.04017507 0.07333436
v 0.03443578 0.03862814 0.06264645
v 0.05065023 -0.01339256 0.05759219
v 0.05088243 -0.00978655 0.07333436
v 0.04478100 0.02637813 0.06264645
v 0.04497317 0.02663944 0.05759219
v 0.04436463 0.02581372 0.07333436
v 0.05217959 -0.00545933 0.05759219
v 0.05189133 -0.00619098 0.06264491
v 0.05128279 -0.00772746 0.07333436
v 0.04770360 0.01845535 0.07333436
v 0.05237176 0.01033398 0.05759219
v 0.05316447 0.00776273 0.05759219
v 0.05201945 -0.00447682 0.06264491
v 0.05167514 -0.00238638 0.07333436
v 0.05032994 0.00855710 0.07333436
v 0.05291625 0.00829580 0.06361878
v 0.05295628 0.00821218 0.06264645
f 1 2 3
f 1 3 4
f 1 4 5
f 1 5 10
f 1 10 11
f 1 11 6
f 1 6 7
f 1 7 2
f 2 7 14
f 2 14 21
f 2 21 27
f 2 27 33
f 2 33 39
f 2 39 46
f 2 46 52
f 2 52 58
f 2 58 59
f 2 59 54
f 2 54 49
f 2 49 41
f 2 41 34
f 2 34 28
f 2 28 22
f 2 22 15
f 2 15 8
f 2 8 3
f 3 8 4
f 4 8 9
f 4 9 17
f 4 17 24
f 4 24 30
f 4 30 36
f 4 36 35
f 4 35 44
f 4 44 50
f 4 50 56
f 4 56 61
f 4 61 62
f 4 62 57
f 4 57 53
f 4 53 47
f 4 47 45
f 4 45 38
f 4 38 32
f 4 32 25
f 4 25 19
f 4 19 12
f 4 12 18
f 4 18 10
f 4 10 5
f 6 11 12
f 6 12 13
f 6 13 14
f 6 14 7
f 8 15 16
f 8 16 9
f 9 16 17
f 10 18 11
f 11 18 12
f 12 19 13
f 13 19 20
f 13 20 21
f 13 21 14
f 15 17 16
f 15 22 23
f 15 23 24
f 15 24 17
f 19 25 26
f 19 26 21
f 19 21 20
f 21 26 27
f 22 28 29
f 22 29 23
f 23 29 24
f 24 29 30
f 25 31 26
f 25 32 31
f 26 31 27
f 27 31 33
f 28 34 29
f 29 34 35
f 29 35 36
f 29 36 30
f 31 32 37
f 31 37 33
f 32 38 37
f 33 37 40
f 33 40 39
f 34 41 42
f 34 42 43
f 34 43 35
f 35 43 44
f 37 38 40
f 38 45 40
f 39 40 46
f 40 45 47
f 40 47 48
f 40 48 46
f 41 49 42
f 42 49 44
f 42 44 43
f 44 49 50
f 46 51 52
f 46 48 51
f 47 53 51
f 47 51 48
f 49 54 55
f 49 55 56
f 49 56 50
f 51 53 57
f 51 57 58
f 51 58 52
f 54 59 60
f 54 60 56
f 54 56 55
f 56 60 59
f 56 59 61
f 57 62 63
f 57 63 58
f 58 63 64
f 58 64 59
f 59 64 63
f 59 63 61
f 61 63 62
