# https://github.com/mikedh/trimesh
v -0.00866669 0.03971753 -0.26009652
v -0.01679666 0.03971753 -0.26007517
v -0.00100883 0.05544291 -0.26009652
v 0.00109568 0.03971753 -0.26009652
v -0.03620937 0.03971753 -0.25962692
v -0.00008861 0.05735232 -0.24316666
v 0.02454937 0.05542219 -0.22894766
v 0.02867837 0.04740227 -0.25977634
v 0.02754210 0.03971753 -0.25980073
v -0.02919167 0.04746629 -0.25948055
v -0.02768731 0.05092923 -0.24316666
v -0.02636699 0.05394965 -0.22894766
v 0.00066357 0.05895480 -0.22895986
v -0.03858595 0.03971753 -0.24316666
v -0.03711359 0.04134448 -0.24316666
v 0.01344267 0.05706610 -0.22894766
v 0.04080131 0.04011485 -0.22894766
v 0.03521596 0.04347422 -0.24316666
v 0.03514394 0.03971753 -0.25970621
v -0.04061044 0.03971941 -0.22894766
v -0.00299331 0.05826937 -0.22894766
v 0.00528870 0.05826937 -0.22894766
v -0.03921010 0.03971753 -0.23883357
v 0.04113739 0.03971941 -0.22894766
v 0.03836872 0.03971753 -0.24316666
v -0.03950617 0.03971753 -0.23623859
v 0.03971305 0.03971753 -0.23623859
f 1 2 3
f 1 3 4
f 1 4 9
f 1 9 19
f 1 19 25
f 1 25 27
f 1 27 26
f 1 26 23
f 1 23 14
f 1 14 5
f 1 5 2
f 2 5 3
f 3 6 7
f 3 7 8
f 3 8 9
f 3 9 4
f 3 5 10
f 3 10 11
f 3 11 12
f 3 12 13
f 3 13 6
f 5 14 15
f 5 15 10
f 6 13 16
f 6 16 7
f 7 16 22
f 7 22 21
f 7 21 12
f 7 12 20
f 7 20 24
f 7 24 17
f 7 17 18
f 7 18 8
f 8 18 19
f 8 19 9
f 10 15 20
f 10 20 11
f 11 20 12
f 12 21 13
f 13 22 16
f 13 21 22
f 14 23 15
f 15 23 20
f 17 24 18
f 18 24 25
f 18 25 19
f 20 23 26
f 20 26 27
f 20 27 24
f 24 27 25
