# https://github.com/mikedh/trimesh
v 0.02683041 0.05343114 -0.15290989
v 0.02462098 0.05343114 -0.14965448
v 0.02536081 0.05071978 -0.15290989
v -0.02458529 0.05343114 -0.15290989
v 0.00039279 0.05343114 -0.14176393
v -0.00071947 0.04906343 -0.14527641
v -0.00307485 0.03984506 -0.15269263
v 0.01931132 0.04906343 -0.15290989
v -0.02438398 0.05321029 -0.15290989
v -0.02430345 0.05343114 -0.15253112
v -0.00390024 0.05343114 -0.14159445
v -0.01160051 0.05343114 -0.14129075
v -0.00888780 0.04906343 -0.14495450
v -0.00316544 0.03983974 -0.15269263
v -0.01787146 0.04906343 -0.15290989
v -0.01789159 0.04907008 -0.15290989
f 1 2 3
f 1 3 8
f 1 8 15
f 1 15 16
f 1 16 9
f 1 9 4
f 1 4 10
f 1 10 12
f 1 12 11
f 1 11 5
f 1 5 2
f 2 5 6
f 2 6 7
f 2 7 3
f 3 7 8
f 4 9 10
f 5 11 6
f 6 11 12
f 6 12 13
f 6 13 14
f 6 14 7
f 7 14 8
f 8 14 15
f 9 16 10
f 10 16 12
f 12 14 13
f 12 16 14
f 14 16 15
