# https://github.com/mikedh/trimesh
v 0.02129927 -0.00811067 -0.05329220
v 0.02986787 -0.01107438 -0.05329220
v 0.02833398 -0.01100703 -0.05581454
v 0.02652506 -0.01093004 -0.05874347
v 0.02614423 -0.01085307 -0.05874347
v 0.01463480 -0.00857255 -0.05874347
v 0.01580901 -0.00811067 -0.05581454
v -0.02419895 -0.00811067 -0.05329220
v 0.03440606 -0.01579900 -0.05329220
v 0.04608474 -0.02563315 -0.05329274
v 0.04494226 -0.02322754 -0.05874240
v 0.02662026 -0.01102627 -0.05874347
v 0.00935612 -0.00829349 -0.05874347
v 0.01317496 -0.00811067 -0.05701941
v -0.00994969 -0.00811067 -0.05765386
v -0.00873316 -0.00854368 -0.05874347
v -0.02885350 -0.01252737 -0.05874347
v -0.02874772 -0.01034308 -0.05329220
v 0.03599284 -0.01803141 -0.05329220
v 0.04933235 -0.03132964 -0.05329274
v 0.05116243 -0.03412015 -0.05874240
v 0.04519615 -0.02367017 -0.05874240
v 0.03230093 -0.01803141 -0.05874347
v 0.02925432 -0.01375904 -0.05874347
v -0.00791861 -0.00811067 -0.05807487
v -0.03748558 -0.01803141 -0.05874347
v -0.04215071 -0.02073532 -0.05874240
v -0.04064855 -0.02044665 -0.05329274
v -0.04820162 -0.02704765 -0.05329274
v -0.03223863 -0.01803141 -0.05329220
v 0.02421894 -0.09867716 -0.05329274
v 0.03164506 -0.09409687 -0.05329274
v 0.03912407 -0.08702437 -0.05329274
v 0.05028442 -0.06764476 -0.05329274
v 0.05253764 -0.05564557 -0.05329274
v 0.05299252 -0.05321109 -0.05329274
v 0.05376475 -0.03988399 -0.05329274
v -0.00371894 -0.10641361 -0.05329274
v 0.00608735 -0.10551871 -0.05329274
v 0.05383880 -0.03925854 -0.05874240
v 0.05336277 -0.04729328 -0.05874240
v 0.05180772 -0.05565519 -0.05874240
v 0.05034789 -0.06341088 -0.05874240
v 0.03836242 -0.08307917 -0.05874240
v 0.03296738 -0.08816945 -0.05874240
v 0.03192010 -0.08882377 -0.05874240
v 0.02761464 -0.09147957 -0.05874240
v -0.00001645 -0.10190068 -0.05874240
v -0.00198406 -0.10207389 -0.05874240
v -0.00349679 -0.10148692 -0.05874240
v -0.02003102 -0.09470309 -0.05874240
v -0.03214342 -0.08972828 -0.05874240
v -0.04306046 -0.07725759 -0.05874240
v -0.05371303 -0.04808232 -0.05874240
v -0.05400923 -0.04491654 -0.05874240
v -0.05415733 -0.04321336 -0.05874240
v -0.04734476 -0.02524825 -0.05874240
v -0.05423137 -0.04733177 -0.05329274
v -0.05394576 -0.05024737 -0.05329274
v -0.04313451 -0.08170316 -0.05329274
v -0.03214342 -0.09490516 -0.05329274
v -0.01121911 -0.10347876 -0.05329274
f 1 2 3
f 1 3 4
f 1 4 5
f 1 5 6
f 1 6 7
f 1 7 14
f 1 14 25
f 1 25 15
f 1 15 8
f 1 8 18
f 1 18 30
f 1 30 19
f 1 19 9
f 1 9 2
f 2 9 10
f 2 10 11
f 2 11 3
f 3 11 4
f 4 11 12
f 4 12 24
f 4 24 23
f 4 23 26
f 4 26 17
f 4 17 16
f 4 16 13
f 4 13 6
f 4 6 5
f 6 13 14
f 6 14 7
f 8 15 16
f 8 16 17
f 8 17 18
f 9 19 10
f 10 20 21
f 10 21 22
f 10 22 11
f 10 19 20
f 11 22 23
f 11 23 24
f 11 24 12
f 13 25 14
f 13 16 25
f 15 25 16
f 17 26 27
f 17 27 18
f 18 27 28
f 18 28 29
f 18 29 30
f 19 31 32
f 19 32 33
f 19 33 34
f 19 34 35
f 19 35 36
f 19 36 37
f 19 37 20
f 19 30 38
f 19 38 39
f 19 39 31
f 20 37 40
f 20 40 21
f 21 40 23
f 21 23 22
f 23 40 41
f 23 41 42
f 23 42 43
f 23 43 44
f 23 44 45
f 23 45 46
f 23 46 47
f 23 47 48
f 23 48 49
f 23 49 26
f 26 49 50
f 26 50 51
f 26 51 52
f 26 52 53
f 26 53 54
f 26 54 55
f 26 55 56
f 26 56 57
f 26 57 27
f 27 57 28
f 28 57 29
f 29 57 56
f 29 56 58
f 29 58 30
f 30 58 59
f 30 59 60
f 30 60 61
f 30 61 62
f 30 62 38
f 31 47 32
f 31 39 47
f 32 47 46
f 32 46 45
f 32 45 44
f 32 44 33
f 33 44 43
f 33 43 34
f 34 43 42
f 34 42 35
f 35 42 36
f 36 41 40
f 36 40 37
f 36 42 41
f 38 62 50
f 38 50 49
f 38 49 48
f 38 48 39
f 39 48 47
f 50 62 61
f 50 61 51
f 51 61 52
f 52 61 53
f 53 60 54
f 53 61 60
f 54 59 58
f 54 58 55
f 54 60 59
f 55 58 56
