# https://github.com/mikedh/trimesh
v -0.08092657 0.08599328 -0.05528346
v -0.07501790 0.06851385 -0.05493045
v -0.07940139 0.07584200 -0.05511510
v -0.10797317 0.07265786 -0.04877163
v -0.10226786 0.08599328 -0.05066164
v -0.06056819 0.08599328 -0.05124275
v -0.07899467 0.06851385 -0.05470234
v -0.05330379 0.06851385 -0.05053129
v -0.10721624 0.06851385 -0.04829370
v -0.11211942 0.06851385 -0.04436704
v -0.12134961 0.08599328 -0.03641598
v -0.11042477 0.08599328 -0.04726179
v -0.10352189 0.06851385 -0.04943964
v -0.10422235 0.06851385 -0.04928758
v -0.03944156 0.08599328 -0.03713288
v -0.04469498 0.06851385 -0.04457342
v -0.12330410 0.06851385 -0.03325510
v -0.12898682 0.08599328 -0.02644455
v -0.03854905 0.08599328 -0.03606839
v -0.03213198 0.06851385 -0.03454226
v -0.12650134 0.06851385 -0.02907862
v -0.13226315 0.06851385 -0.01554986
v -0.13677092 0.07604390 -0.00633336
v -0.13622863 0.08599328 -0.00941820
v -0.02672040 0.08599328 -0.00861983
v -0.02280011 0.06851385 -0.01509365
v -0.13518924 0.06851385 -0.00701767
v -0.13680481 0.08599328 -0.00293895
v -0.13486161 0.06851385 -0.00407947
v -0.13582191 0.07504468 0.00019477
v -0.02672040 0.08599328 -0.00860897
v -0.02426880 0.07826647 0.00019477
v -0.02138790 0.06851385 0.00019477
v -0.13636420 0.08599328 0.00019477
v -0.13437581 0.06851385 0.00019477
v -0.02701414 0.08599328 0.00019477
f 1 2 3
f 1 3 4
f 1 4 5
f 1 5 12
f 1 12 11
f 1 11 18
f 1 18 24
f 1 24 28
f 1 28 34
f 1 34 36
f 1 36 31
f 1 31 25
f 1 25 19
f 1 19 15
f 1 15 6
f 1 6 2
f 2 7 3
f 2 6 8
f 2 8 16
f 2 16 20
f 2 20 26
f 2 26 33
f 2 33 35
f 2 35 29
f 2 29 27
f 2 27 22
f 2 22 21
f 2 21 17
f 2 17 10
f 2 10 9
f 2 9 14
f 2 14 13
f 2 13 7
f 3 7 4
f 4 9 10
f 4 10 11
f 4 11 12
f 4 12 5
f 4 7 13
f 4 13 14
f 4 14 9
f 6 15 8
f 8 15 16
f 10 17 11
f 11 17 18
f 15 19 20
f 15 20 16
f 17 21 18
f 18 21 22
f 18 22 23
f 18 23 24
f 19 25 26
f 19 26 20
f 22 27 23
f 23 28 24
f 23 27 29
f 23 29 30
f 23 30 28
f 25 31 32
f 25 32 33
f 25 33 26
f 28 30 34
f 29 35 30
f 30 35 33
f 30 33 32
f 30 32 36
f 30 36 34
f 31 36 32
