# https://github.com/mikedh/trimesh
v 0.00771517 -0.07255304 0.00233531
v -0.00231923 -0.06688272 0.00716098
v 0.02125313 -0.06688272 0.01052918
v 0.01613009 -0.07255304 0.00354395
v -0.01967831 -0.07255304 0.00660998
v -0.02305486 -0.06688272 0.00940941
v 0.04295198 -0.06688272 0.01913186
v 0.04254976 -0.07255304 0.01475054
v -0.02070503 -0.07255304 0.00688548
v -0.03241183 -0.06688272 0.01363965
v 0.04371409 -0.06688272 0.01973619
v 0.04447619 -0.07255304 0.01697231
v -0.04175821 -0.07255304 0.01753219
v -0.03754546 -0.06688272 0.01596807
v -0.03696329 -0.06688272 0.01570146
v 0.05373790 -0.06688272 0.03945659
v 0.05407662 -0.07255304 0.03443540
v -0.04178996 -0.07255304 0.01754997
v -0.04141949 -0.06688272 0.01836758
v 0.05394960 -0.06688272 0.04015867
v 0.05394960 -0.06794341 0.03982985
v 0.05393901 -0.07255304 0.03783915
v -0.05236418 -0.07255304 0.02815224
v -0.05142214 -0.06688272 0.02957417
v 0.05391784 -0.06688272 0.04065635
v 0.05371673 -0.06688272 0.04138509
v 0.05335685 -0.07255304 0.03938550
v -0.05398366 -0.07255304 0.03285350
v -0.05405775 -0.06688272 0.03719039
v -0.05329565 -0.06688272 0.03498640
v 0.03945900 -0.06688272 0.07392065
v 0.03916262 -0.07255304 0.06972595
v -0.05240652 -0.07255304 0.04406898
v -0.05354968 -0.06688272 0.04079854
v 0.03769133 -0.06688272 0.07572472
v 0.02117904 -0.07255304 0.08579377
v -0.05280875 -0.06688272 0.04604191
v -0.04317657 -0.07255304 0.06555791
v -0.04354704 -0.06688272 0.06975261
v 0.01932670 -0.06688272 0.09133930
v 0.01170564 -0.07255304 0.08822882
v -0.03188258 -0.07255304 0.07795538
v -0.03266586 -0.06688272 0.08123470
v 0.01446827 -0.06688272 0.09238798
v 0.01259476 -0.06688272 0.09278790
v -0.01093526 -0.07255304 0.08933971
v -0.01633351 -0.07255304 0.08838880
v -0.01484105 -0.06688272 0.09288565
v -0.01351795 -0.06688272 0.09312561
f 1 2 3
f 1 3 4
f 1 4 8
f 1 8 12
f 1 12 17
f 1 17 22
f 1 22 27
f 1 27 32
f 1 32 36
f 1 36 41
f 1 41 46
f 1 46 47
f 1 47 42
f 1 42 38
f 1 38 33
f 1 33 28
f 1 28 23
f 1 23 18
f 1 18 13
f 1 13 9
f 1 9 5
f 1 5 6
f 1 6 2
f 2 6 10
f 2 10 15
f 2 15 14
f 2 14 19
f 2 19 24
f 2 24 30
f 2 30 29
f 2 29 34
f 2 34 37
f 2 37 39
f 2 39 43
f 2 43 48
f 2 48 49
f 2 49 45
f 2 45 44
f 2 44 40
f 2 40 35
f 2 35 31
f 2 31 26
f 2 26 25
f 2 25 20
f 2 20 16
f 2 16 11
f 2 11 7
f 2 7 3
f 3 7 4
f 4 7 8
f 5 9 6
f 6 9 10
f 7 11 8
f 8 11 12
f 9 13 14
f 9 14 15
f 9 15 10
f 11 16 17
f 11 17 12
f 13 18 14
f 14 18 19
f 16 20 17
f 17 20 21
f 17 21 22
f 18 23 19
f 19 23 24
f 20 25 21
f 21 25 22
f 22 25 26
f 22 26 27
f 23 28 29
f 23 29 30
f 23 30 24
f 26 31 27
f 27 31 32
f 28 33 29
f 29 33 34
f 31 35 32
f 32 35 36
f 33 37 34
f 33 38 39
f 33 39 37
f 35 40 36
f 36 40 41
f 38 42 39
f 39 42 43
f 40 44 41
f 41 45 46
f 41 44 45
f 42 47 43
f 43 47 48
f 45 49 46
f 46 49 47
f 47 49 48
