# https://github.com/mikedh/trimesh
v -0.00365095 0.07452364 -0.05562409
v 0.01321483 0.06441377 -0.04776635
v -0.00472534 0.06911534 -0.05190622
v -0.00566272 0.06441377 -0.04867400
v -0.02792930 0.06441377 -0.04048149
v -0.03059004 0.06441377 -0.03950074
v -0.02867200 0.06911534 -0.04249013
v -0.02646553 0.07452364 -0.04592745
v 0.01735376 0.07452364 -0.05095848
v 0.01761335 0.06441377 -0.04683511
v -0.03204660 0.06441377 -0.03837618
v -0.03227013 0.06911534 -0.03971292
v -0.03252250 0.07452364 -0.04125241
v 0.02917206 0.07452364 -0.04115339
v 0.02860963 0.06441377 -0.04119347
v 0.02707376 0.06441377 -0.04198325
v 0.02487450 0.06441377 -0.04311252
v -0.03454149 0.06441377 -0.03342531
v -0.03579615 0.06911534 -0.03153926
v -0.03604131 0.07452364 -0.03153926
v 0.03762298 0.07452364 -0.03153926
v 0.03308746 0.06441377 -0.03610350
v 0.03543815 0.06441377 -0.03342531
v 0.03734176 0.06911534 -0.03153926
v 0.03735618 0.06937863 -0.03153926
f 1 2 3
f 1 3 4
f 1 4 5
f 1 5 6
f 1 6 7
f 1 7 8
f 1 8 13
f 1 13 20
f 1 20 21
f 1 21 14
f 1 14 9
f 1 9 10
f 1 10 2
f 2 4 3
f 2 10 17
f 2 17 16
f 2 16 15
f 2 15 22
f 2 22 23
f 2 23 18
f 2 18 11
f 2 11 6
f 2 6 5
f 2 5 4
f 6 11 12
f 6 12 7
f 7 12 13
f 7 13 8
f 9 14 15
f 9 15 16
f 9 16 17
f 9 17 10
f 11 18 12
f 12 18 13
f 13 18 19
f 13 19 20
f 14 21 22
f 14 22 15
f 18 23 24
f 18 24 19
f 19 24 25
f 19 25 21
f 19 21 20
f 21 25 22
f 22 25 23
f 23 25 24
