# https://github.com/mikedh/trimesh
v 0.00298843 0.05899898 0.13931799
v -0.02493376 0.05765727 0.10702290
v -0.01739121 0.05592603 0.13928370
v -0.03678810 0.04593994 0.13954086
v 0.03398169 0.01880671 0.13976715
v 0.04771553 0.01880671 0.13974315
v 0.05390682 0.01880671 0.13967458
v 0.04597117 0.03693750 0.13934542
v 0.02895742 0.05154679 0.13893055
v 0.01685739 0.05820812 0.10722519
v 0.01234906 0.05749989 0.10615543
v -0.01332511 0.05723627 0.10615543
v -0.03639501 0.05190090 0.10473937
v -0.03644414 0.05188910 0.10473937
v -0.04327421 0.04980375 0.10615543
v -0.04824934 0.04827711 0.10718405
v -0.06624583 0.03019747 0.10473937
v -0.05630784 0.01880671 0.13959915
v 0.05533180 0.01880671 0.12408763
v 0.05237128 0.02926103 0.10615543
v 0.05226072 0.02950891 0.10615543
v 0.03616830 0.04724230 0.10534283
v 0.03599632 0.04734854 0.10615543
v 0.02780270 0.05198747 0.10615543
v 0.01236134 0.05749595 0.10615543
v 0.00636661 0.05654771 0.10473937
v 0.00567869 0.05653984 0.10473937
v -0.06686004 0.01958577 0.10473937
v -0.06790421 0.01881064 0.10531197
v -0.06903436 0.01881064 0.10615543
v -0.06990655 0.01880671 0.10681374
v -0.05639383 0.01880671 0.13943114
v 0.05556520 0.01880671 0.10615543
v 0.05558976 0.01881064 0.10473937
v 0.05251869 0.02882035 0.10473937
v 0.05230986 0.02944202 0.10584684
v 0.02976818 0.04736034 0.10473937
v 0.02970676 0.04738788 0.10473937
v 0.00804956 0.05594964 0.10473937
v 0.04121715 0.03963666 0.10473937
v -0.06678634 0.01881064 0.10473937
v -0.06689690 0.01881064 0.10474623
v -0.06903436 0.01880671 0.10615543
f 1 2 3
f 1 3 4
f 1 4 5
f 1 5 6
f 1 6 7
f 1 7 8
f 1 8 9
f 1 9 10
f 1 10 2
f 2 10 11
f 2 11 12
f 2 12 13
f 2 13 14
f 2 14 15
f 2 15 16
f 2 16 3
f 3 16 4
f 4 16 17
f 4 17 18
f 4 18 5
f 5 18 32
f 5 32 31
f 5 31 43
f 5 43 33
f 5 33 19
f 5 19 7
f 5 7 6
f 7 19 8
f 8 19 20
f 8 20 21
f 8 21 22
f 8 22 23
f 8 23 9
f 9 23 10
f 10 23 22
f 10 22 24
f 10 24 25
f 10 25 11
f 11 25 26
f 11 26 12
f 12 26 27
f 12 27 13
f 13 27 26
f 13 26 39
f 13 39 38
f 13 38 37
f 13 37 40
f 13 40 35
f 13 35 34
f 13 34 41
f 13 41 28
f 13 28 17
f 13 17 14
f 14 17 15
f 15 17 16
f 17 28 29
f 17 29 30
f 17 30 31
f 17 31 32
f 17 32 18
f 19 33 34
f 19 34 20
f 20 34 35
f 20 35 36
f 20 36 21
f 21 36 22
f 22 37 38
f 22 38 39
f 22 39 25
f 22 25 24
f 22 36 35
f 22 35 40
f 22 40 37
f 25 39 26
f 28 41 42
f 28 42 29
f 29 42 43
f 29 43 30
f 30 43 31
f 33 43 41
f 33 41 34
f 41 43 42
