# https://github.com/mikedh/trimesh
v 0.04957288 0.03646540 -0.02533238
v 0.04244224 0.03646540 -0.01890556
v 0.04957288 0.03794415 -0.02555592
v 0.04957288 0.03646540 0.03788016
v 0.04244224 0.04741860 -0.01972521
v 0.04244224 0.03646540 0.03709776
v 0.04957288 0.06540189 -0.02073115
v 0.04957288 0.06387062 0.02768419
v 0.04244224 0.06215754 -0.01653975
v 0.04244224 0.06020205 0.02624980
v 0.04957288 0.06970883 -0.01807970
v 0.04957288 0.06883209 0.02318231
v 0.04244224 0.06040810 0.02606351
v 0.04244224 0.06277571 -0.01615476
v 0.04244224 0.06895329 -0.00870959
v 0.04957288 0.07314307 -0.01393798
v 0.04957288 0.07294913 0.01719016
v 0.04244224 0.06825837 0.01464427
v 0.04244224 0.06941389 -0.00754842
v 0.04957288 0.07723991 -0.00366128
v 0.04957288 0.07773686 -0.00192263
v 0.04244224 0.07147039 0.00011408
v 0.04957288 0.07732880 -0.00343153
f 1 2 3
f 1 3 7
f 1 7 11
f 1 11 16
f 1 16 20
f 1 20 23
f 1 23 21
f 1 21 17
f 1 17 12
f 1 12 8
f 1 8 4
f 1 4 6
f 1 6 2
f 2 5 3
f 2 6 10
f 2 10 13
f 2 13 18
f 2 18 22
f 2 22 19
f 2 19 15
f 2 15 14
f 2 14 9
f 2 9 5
f 3 5 7
f 4 8 6
f 5 9 7
f 6 8 10
f 7 9 11
f 8 12 13
f 8 13 10
f 9 14 11
f 11 14 15
f 11 15 16
f 12 17 18
f 12 18 13
f 15 19 20
f 15 20 16
f 17 21 18
f 18 21 22
f 19 21 23
f 19 23 20
f 19 22 21
