# https://github.com/mikedh/trimesh
v -0.01300667 0.05793600 0.02187323
v -0.02491962 0.05793600 0.04042266
v 0.00438258 0.05260820 0.05758454
v 0.01559814 0.05033916 0.05758454
v 0.01986256 0.05230789 0.00065542
v -0.01068582 0.05751334 0.00041386
v -0.06134444 0.05793600 0.00020039
v -0.02766349 0.05792488 0.04469207
v -0.03461462 0.05793600 0.04743347
v -0.01217208 0.05378721 0.05758454
v -0.04052536 0.05793600 0.05118044
v 0.02811703 0.04398807 0.05758454
v 0.04716403 0.02963971 0.00054869
v -0.05722864 0.03456709 0.00019478
v -0.06134444 0.03456709 0.00019478
v -0.06134444 0.04770307 0.05496672
v -0.06103576 0.05793600 0.05521390
v 0.05545279 0.00271152 0.00051498
v -0.02187850 0.05390957 0.05758454
v 0.03543400 0.03790392 0.05758454
v 0.04495750 0.02665881 0.05758454
v 0.05234307 0.01034173 0.05758454
v -0.05722864 0.00787248 0.00019478
v -0.06134444 0.00520302 0.00019478
v -0.06134444 0.02414507 0.05379826
v -0.05679420 0.01529136 0.05757892
v -0.05303282 0.04333182 0.05757892
v -0.03687830 0.05224115 0.05758454
v 0.05313194 0.00776125 0.05758454
v 0.05214872 -0.00545258 0.05758454
v 0.05062816 -0.01339423 0.05758454
v 0.04978213 -0.02639673 0.00073407
v 0.03019779 -0.04696271 0.00050936
v -0.05906932 0.00179946 0.00019478
v -0.06134444 0.00571467 0.02905819
v -0.05004886 -0.02337134 0.00051498
v -0.06134444 0.01651486 0.05169726
v -0.04789950 -0.02257050 0.05757892
v -0.04555578 -0.02718645 0.05758454
v -0.04555578 0.04614588 0.05758454
v 0.04579209 -0.02449474 0.05758454
v 0.03127247 -0.04349241 0.05758454
v 0.02950039 -0.04536103 0.05758454
v 0.02737390 -0.04616187 0.05758454
v 0.00694352 -0.05569407 0.00073969
v -0.01014848 -0.05262419 0.00062734
v -0.02493105 -0.04999922 0.00053184
v -0.02705755 -0.04959880 0.00052060
v -0.04555578 -0.02849893 0.00051498
v -0.04833395 -0.02538456 0.05085461
v -0.06134444 0.00673796 0.03131086
v -0.03461462 -0.04100091 0.00052060
v -0.04555578 -0.02855455 0.04428760
v -0.06134444 0.00878455 0.03558026
v -0.04707634 -0.02556252 0.05757892
v -0.04555578 -0.02774259 0.05433193
v -0.04245750 -0.03047878 0.05758454
v 0.00006099 -0.05285776 0.05758454
v -0.02493105 -0.04981013 0.00718873
v -0.02522831 -0.04674025 0.05758454
v -0.03461462 -0.03798664 0.05758454
v -0.03461462 -0.04023343 0.02850204
v -0.03461462 -0.04101203 0.01838468
v -0.00947394 -0.05107812 0.05758454
f 1 2 3
f 1 3 4
f 1 4 5
f 1 5 6
f 1 6 7
f 1 7 17
f 1 17 11
f 1 11 9
f 1 9 2
f 2 8 3
f 2 9 8
f 3 10 19
f 3 19 28
f 3 28 40
f 3 40 39
f 3 39 57
f 3 57 61
f 3 61 60
f 3 60 64
f 3 64 58
f 3 58 44
f 3 44 43
f 3 43 42
f 3 42 41
f 3 41 31
f 3 31 30
f 3 30 29
f 3 29 22
f 3 22 21
f 3 21 20
f 3 20 12
f 3 12 4
f 3 8 11
f 3 11 10
f 4 12 5
f 5 12 13
f 5 13 6
f 6 13 7
f 7 14 15
f 7 15 24
f 7 24 35
f 7 35 51
f 7 51 54
f 7 54 37
f 7 37 25
f 7 25 16
f 7 16 17
f 7 13 18
f 7 18 14
f 8 9 11
f 10 11 17
f 10 17 19
f 12 20 13
f 13 20 21
f 13 21 22
f 13 22 18
f 14 23 34
f 14 34 24
f 14 24 15
f 14 18 23
f 16 25 26
f 16 26 17
f 17 26 27
f 17 27 28
f 17 28 19
f 18 22 29
f 18 29 30
f 18 30 31
f 18 31 32
f 18 32 33
f 18 33 34
f 18 34 23
f 24 34 36
f 24 36 35
f 25 37 26
f 26 37 38
f 26 38 39
f 26 39 40
f 26 40 27
f 27 40 28
f 31 41 32
f 32 41 42
f 32 42 43
f 32 43 33
f 33 43 44
f 33 44 45
f 33 45 46
f 33 46 47
f 33 47 48
f 33 48 34
f 34 49 36
f 34 48 49
f 35 36 50
f 35 50 51
f 36 49 52
f 36 52 53
f 36 53 50
f 37 54 50
f 37 50 55
f 37 55 38
f 38 55 39
f 39 55 50
f 39 50 56
f 39 56 57
f 44 58 45
f 45 58 47
f 45 47 46
f 47 58 59
f 47 59 48
f 48 59 60
f 48 60 61
f 48 61 62
f 48 62 63
f 48 63 52
f 48 52 49
f 50 53 61
f 50 61 57
f 50 57 56
f 50 54 51
f 52 63 53
f 53 63 62
f 53 62 61
f 58 64 59
f 59 64 60
