# https://github.com/mikedh/trimesh
v -0.05451968 0.00924541 -0.15059459
v -0.05062732 0.02023317 -0.15059459
v -0.05223131 0.01789169 -0.17009870
v -0.05428442 0.01207022 -0.17009465
v -0.05428442 0.01207022 -0.17009870
v -0.05351451 -0.01328861 -0.19190147
v -0.05293707 -0.01697268 -0.17009465
v -0.05240240 -0.02027008 -0.15059459
v -0.03797714 0.03701016 -0.15059459
v -0.05401709 0.01522799 -0.19200688
v -0.03327209 0.04302497 -0.17009870
v -0.02800030 0.04974865 -0.19192579
v -0.03949559 -0.03915226 -0.19199066
v -0.03979501 -0.03967856 -0.17009465
v -0.04006234 -0.04014040 -0.15059459
v -0.02998925 0.04546311 -0.15059459
v 0.01592777 0.05349716 -0.19199471
v 0.05472305 0.00851504 -0.19199876
v 0.03726090 -0.04248188 -0.19199471
v -0.00580101 -0.05594000 -0.19199471
v -0.02905893 0.04748236 -0.17009465
v -0.01791652 0.05245532 -0.15059459
v 0.00406890 0.05346494 -0.17009870
v -0.01558538 -0.05285741 -0.17009465
v -0.03199959 -0.04467299 -0.17009465
v -0.02530559 -0.04959223 -0.15059459
v 0.00406890 0.05346494 -0.17009465
v 0.00363048 0.05332531 -0.15059459
v 0.01083776 0.05338976 -0.17009870
v 0.00631450 0.05329309 -0.15059459
v 0.02233306 0.04990977 -0.15059459
v 0.03174316 0.04348682 -0.15059459
v 0.04321707 0.03482980 -0.19199066
v 0.05450919 -0.00039975 -0.15059459
v 0.05457335 0.00371394 -0.17641494
v 0.05378205 -0.01302010 -0.17009870
v 0.05364303 -0.01307380 -0.19192985
v 0.05447711 0.00371394 -0.19198660
v 0.04877758 0.02151131 -0.17009870
v 0.04814668 0.02241353 -0.15059459
v 0.05157923 0.01509910 -0.17009465
v 0.05435948 0.00805319 -0.15059459
v 0.05135467 -0.02015193 -0.17009870
v 0.04931225 -0.02646747 -0.15059459
v 0.04924809 -0.02655340 -0.15059459
v 0.03748546 -0.04197707 -0.17009870
v 0.03767794 -0.04153670 -0.15059459
v 0.03747477 -0.04198781 -0.17009465
v 0.00644282 -0.05623000 -0.15059459
v 0.00620756 -0.05620852 -0.15059459
v -0.00646400 0.05343273 -0.15059459
v -0.02428972 -0.05009705 -0.15059459
v 0.04348440 0.03307906 -0.15059459
v 0.04335608 0.03390610 -0.17009465
v 0.05388898 -0.01296639 -0.15059459
f 1 2 3
f 1 3 4
f 1 4 5
f 1 5 6
f 1 6 7
f 1 7 8
f 1 8 15
f 1 15 26
f 1 26 52
f 1 52 50
f 1 50 49
f 1 49 47
f 1 47 45
f 1 45 44
f 1 44 55
f 1 55 34
f 1 34 42
f 1 42 40
f 1 40 53
f 1 53 32
f 1 32 31
f 1 31 30
f 1 30 28
f 1 28 51
f 1 51 22
f 1 22 16
f 1 16 9
f 1 9 2
f 2 9 3
f 3 10 4
f 3 9 11
f 3 11 12
f 3 12 10
f 4 10 5
f 5 10 6
f 6 13 7
f 6 10 13
f 7 13 8
f 8 13 14
f 8 14 15
f 9 16 11
f 10 12 17
f 10 17 18
f 10 18 19
f 10 19 20
f 10 20 13
f 11 16 21
f 11 21 12
f 12 21 22
f 12 22 23
f 12 23 17
f 13 20 24
f 13 24 25
f 13 25 14
f 14 25 15
f 15 25 26
f 16 22 21
f 17 23 27
f 17 27 28
f 17 28 29
f 17 29 30
f 17 30 31
f 17 31 32
f 17 32 33
f 17 33 18
f 18 34 35
f 18 35 36
f 18 36 37
f 18 37 38
f 18 38 19
f 18 33 39
f 18 39 40
f 18 40 41
f 18 41 42
f 18 42 34
f 19 38 37
f 19 37 43
f 19 43 44
f 19 44 45
f 19 45 46
f 19 46 47
f 19 47 48
f 19 48 49
f 19 49 20
f 20 49 50
f 20 50 24
f 22 51 23
f 23 51 27
f 24 50 52
f 24 52 26
f 24 26 25
f 27 51 28
f 28 30 29
f 32 53 54
f 32 54 33
f 33 54 53
f 33 53 39
f 34 55 36
f 34 36 35
f 36 55 44
f 36 44 43
f 36 43 37
f 39 53 40
f 40 42 41
f 45 47 46
f 47 49 48
