# https://github.com/mikedh/trimesh
v -0.03455991 0.06911541 -0.03341555
v -0.03455077 0.06552609 -0.03341555
v -0.03603292 0.07452364 -0.03153009
v 0.03567767 0.06911541 -0.03341555
v -0.03453247 0.06441377 -0.03341555
v -0.04496243 0.06441377 -0.01741250
v -0.04504478 0.07452364 -0.01736576
v 0.03760813 0.07452364 -0.03153009
v 0.03894390 0.07452364 -0.03001860
v 0.03543980 0.06441377 -0.03341555
v -0.04600543 0.06441377 -0.00366889
v -0.04591394 0.06911541 -0.00538294
v -0.04579500 0.07452364 -0.00736190
v 0.03663833 0.06441377 -0.03203651
v 0.03752579 0.06924703 -0.03131973
v 0.04303355 0.07452364 -0.02449466
v 0.04320738 0.06911541 -0.02368438
v 0.04335376 0.06441377 -0.02298318
v -0.04673736 0.06441377 0.00628822
v -0.04668246 0.07452364 0.00475336
v -0.04625246 0.07452364 -0.00113676
v 0.04583317 0.07452364 -0.01121853
v 0.04408569 0.06911541 -0.01953948
v 0.04565934 0.06441377 -0.01208334
v -0.04170536 0.06441377 0.02335867
v -0.04140344 0.06911541 0.02407545
v -0.04081789 0.07452364 0.02519738
v 0.04663829 0.07452364 -0.00128479
v 0.04669318 0.06911541 0.00001634
v 0.04574168 0.06911541 -0.01168599
v 0.04672978 0.06441377 0.00116164
v -0.03762486 0.06441377 0.02931112
v -0.04044278 0.06911541 0.02547787
v -0.03918936 0.07452364 0.02756590
v 0.04502805 0.07452364 0.01421963
v 0.04505550 0.06911541 0.01570774
v 0.04634552 0.06441377 0.00486244
v -0.03835679 0.06911541 0.02850083
v -0.01860390 0.06441377 0.04389618
v -0.01634407 0.07338064 0.04515835
v -0.02004945 0.07452364 0.04224444
v 0.04446995 0.07452364 0.01952542
v 0.04472613 0.06911541 0.01884758
v 0.04494571 0.06441377 0.01825545
v -0.01356275 0.06441377 0.04575047
v -0.01509064 0.06911541 0.04544662
v 0.00354606 0.06441377 0.04617899
v 0.00389372 0.06911541 0.04589851
v 0.00431458 0.07452364 0.04556348
v -0.01547491 0.07452364 0.04510381
v -0.01640811 0.07452364 0.04493240
v 0.04277737 0.07452364 0.02208870
v 0.04164289 0.06911541 0.02353007
v 0.04085606 0.06441377 0.02445722
v 0.02068231 0.07452364 0.04257947
v 0.02083785 0.06441377 0.04299239
v 0.02312512 0.06952115 0.04235353
v 0.03221017 0.07452364 0.03285609
v 0.02900799 0.06911541 0.03639328
v 0.02874266 0.06441377 0.03689192
v 0.02364662 0.07452364 0.04113810
v 0.02388449 0.06441377 0.04183151
f 1 2 3
f 1 3 8
f 1 8 4
f 1 4 10
f 1 10 5
f 1 5 2
f 2 5 3
f 3 5 6
f 3 6 7
f 3 7 13
f 3 13 21
f 3 21 20
f 3 20 27
f 3 27 34
f 3 34 41
f 3 41 51
f 3 51 50
f 3 50 49
f 3 49 55
f 3 55 61
f 3 61 58
f 3 58 52
f 3 52 42
f 3 42 35
f 3 35 28
f 3 28 22
f 3 22 16
f 3 16 9
f 3 9 8
f 4 8 9
f 4 9 10
f 5 10 14
f 5 14 18
f 5 18 24
f 5 24 31
f 5 31 37
f 5 37 44
f 5 44 54
f 5 54 60
f 5 60 62
f 5 62 56
f 5 56 47
f 5 47 45
f 5 45 39
f 5 39 32
f 5 32 25
f 5 25 19
f 5 19 11
f 5 11 6
f 6 11 12
f 6 12 7
f 7 12 13
f 9 14 15
f 9 15 10
f 9 16 17
f 9 17 18
f 9 18 14
f 10 15 14
f 11 19 12
f 12 19 20
f 12 20 21
f 12 21 13
f 16 22 23
f 16 23 17
f 17 23 18
f 18 23 24
f 19 25 26
f 19 26 27
f 19 27 20
f 22 28 29
f 22 29 30
f 22 30 23
f 23 30 24
f 24 30 29
f 24 29 31
f 25 32 33
f 25 33 26
f 26 33 27
f 27 33 34
f 28 35 29
f 29 35 36
f 29 36 37
f 29 37 31
f 32 38 33
f 32 39 40
f 32 40 38
f 33 38 34
f 34 38 40
f 34 40 41
f 35 42 43
f 35 43 36
f 36 43 44
f 36 44 37
f 39 45 46
f 39 46 40
f 40 46 47
f 40 47 48
f 40 48 49
f 40 49 50
f 40 50 51
f 40 51 41
f 42 52 53
f 42 53 43
f 43 53 44
f 44 53 54
f 45 47 46
f 47 55 48
f 47 56 57
f 47 57 55
f 48 55 49
f 52 58 53
f 53 58 59
f 53 59 60
f 53 60 54
f 55 57 61
f 56 62 57
f 57 62 59
f 57 59 58
f 57 58 61
f 59 62 60
