# https://github.com/mikedh/trimesh
v 0.02571061 0.00021916 -0.05596239
v 0.02571061 0.05322471 -0.05596239
v 0.06058534 0.00021916 -0.05596239
v 0.02571061 0.00021916 -0.00950772
v 0.04226723 0.05241588 -0.05596239
v 0.02571061 0.05492026 -0.04787398
v 0.03495160 0.06142688 -0.04044001
v 0.04793745 0.06142688 -0.05095187
v 0.06058534 0.06142688 -0.05221984
v 0.06058534 0.04442341 -0.05596239
v 0.06058534 0.00021916 -0.05249593
v 0.02571061 0.00042886 0.00327421
v 0.06058534 0.00051274 0.04734633
v 0.04051257 0.00050675 0.03694695
v 0.05577539 0.04737115 -0.05596239
v 0.06058534 0.05764034 -0.05361051
v 0.06058534 0.05731082 -0.05372299
v 0.06058534 0.05167894 -0.05512389
v 0.02571061 0.05495621 -0.04770014
v 0.02718535 0.06142688 -0.01540786
v 0.06058534 0.06142688 0.04708046
v 0.04021899 0.00322083 0.03634364
v 0.02571061 0.01244153 0.00352985
v 0.06058534 0.04031932 0.04850181
v 0.05260403 0.05763435 0.04486152
v 0.02571061 0.05761638 -0.01551012
v 0.02680301 0.06142688 -0.01251403
v 0.05580952 0.06142688 0.04575114
v 0.06058534 0.05764034 0.04733610
v 0.03435419 0.05763435 0.02415479
v 0.03424154 0.05764034 0.02389915
v 0.02571061 0.03789282 0.00319241
v 0.05367935 0.05763435 0.04541370
v 0.05298295 0.05940180 0.04509670
v 0.02571061 0.05761038 -0.01547944
v 0.02571061 0.05760440 -0.01546922
v 0.03418350 0.06142688 0.02165975
v 0.05333115 0.06142688 0.04477971
v 0.03431664 0.05802379 0.02406275
v 0.03415278 0.05764034 0.02367418
v 0.05202710 0.06142688 0.04365490
v 0.03511545 0.06142688 0.02436952
v 0.03676770 0.06142688 0.02626124
f 1 2 5
f 1 5 15
f 1 15 10
f 1 10 3
f 1 3 11
f 1 11 4
f 1 4 12
f 1 12 23
f 1 23 32
f 1 32 36
f 1 36 35
f 1 35 26
f 1 26 19
f 1 19 6
f 1 6 2
f 2 6 7
f 2 7 8
f 2 8 9
f 2 9 5
f 3 10 18
f 3 18 17
f 3 17 16
f 3 16 9
f 3 9 21
f 3 21 29
f 3 29 24
f 3 24 13
f 3 13 11
f 4 11 13
f 4 13 14
f 4 14 12
f 5 9 16
f 5 16 17
f 5 17 18
f 5 18 15
f 6 19 7
f 7 19 20
f 7 20 27
f 7 27 37
f 7 37 42
f 7 42 43
f 7 43 41
f 7 41 38
f 7 38 28
f 7 28 21
f 7 21 9
f 7 9 8
f 10 15 18
f 12 14 22
f 12 22 23
f 13 24 14
f 14 24 25
f 14 25 22
f 19 26 27
f 19 27 20
f 21 28 29
f 22 30 31
f 22 31 23
f 22 25 30
f 23 31 32
f 24 29 33
f 24 33 25
f 25 33 34
f 25 34 30
f 26 35 27
f 27 35 36
f 27 36 32
f 27 32 37
f 28 38 34
f 28 34 33
f 28 33 29
f 30 39 31
f 30 34 39
f 31 39 40
f 31 40 32
f 32 40 37
f 34 38 41
f 34 41 39
f 37 40 39
f 37 39 42
f 39 41 43
f 39 43 42
