# https://github.com/mikedh/trimesh
v -0.03171494 -0.00048715 -0.04621928
v -0.02943854 -0.01228718 -0.05327813
v -0.03267924 -0.00154975 -0.04555561
v -0.03248164 -0.00111706 -0.04555453
v -0.03454462 -0.00048947 -0.04223297
v -0.03218128 -0.00048715 -0.04555561
v -0.02302038 -0.00049063 -0.04555561
v 0.00203577 -0.00058343 -0.05329220
v -0.01825417 -0.00520275 -0.05329220
v -0.02875088 -0.01033830 -0.05329220
v -0.02942274 -0.01228718 -0.05329220
v -0.03637839 -0.01233707 -0.04555453
v -0.03937406 -0.01233707 -0.04223297
v -0.03748497 -0.00686511 -0.04223297
v 0.02049986 -0.00051267 -0.04223297
v 0.03499607 -0.00052891 -0.04223297
v 0.02838030 -0.00054863 -0.04555561
v 0.01297511 -0.00059619 -0.05329220
v 0.03104400 -0.01228718 -0.05329220
v 0.03818144 -0.01233707 -0.04555453
v 0.04137472 -0.01233707 -0.04223297
v 0.03677450 -0.00196041 -0.04223297
v 0.02987418 -0.01106913 -0.05329220
v 0.03907461 -0.00638021 -0.04223297
v 0.04057640 -0.01233707 -0.04355921
f 1 2 3
f 1 3 4
f 1 4 5
f 1 5 6
f 1 6 7
f 1 7 8
f 1 8 9
f 1 9 10
f 1 10 2
f 2 10 11
f 2 11 12
f 2 12 13
f 2 13 3
f 3 13 14
f 3 14 4
f 4 14 5
f 5 7 6
f 5 14 13
f 5 13 21
f 5 21 24
f 5 24 22
f 5 22 16
f 5 16 15
f 5 15 7
f 7 15 16
f 7 16 17
f 7 17 8
f 8 17 18
f 8 18 23
f 8 23 19
f 8 19 11
f 8 11 10
f 8 10 9
f 11 19 20
f 11 20 12
f 12 20 25
f 12 25 21
f 12 21 13
f 16 22 23
f 16 23 17
f 17 23 18
f 19 23 22
f 19 22 24
f 19 24 25
f 19 25 20
f 21 25 24
