# https://github.com/mikedh/trimesh
v 0.05404386 -0.05178447 0.04486042
v 0.05360479 -0.05178447 0.05240828
v 0.05370421 -0.05642259 0.04879695
v 0.05394169 -0.05642259 0.04470639
v 0.05401625 -0.05642259 0.04341418
v 0.05224616 -0.05642259 0.03765487
v 0.05077707 -0.05178447 0.03423181
v 0.05316572 -0.05642259 0.05070531
v 0.05046502 -0.05178447 0.06352469
v 0.05168558 -0.05642259 0.03584065
v 0.04635874 -0.05642259 0.02534895
v 0.04627590 -0.05178447 0.02537462
v 0.05146467 -0.05642259 0.05672135
v 0.04777813 -0.05642259 0.06514209
v 0.04078613 -0.05178447 0.08561202
v 0.04038019 -0.05642259 0.08202636
v 0.04548888 -0.05642259 0.02364598
v 0.03270888 -0.05178447 0.01154544
v 0.03322251 -0.05178447 0.09334815
v 0.03459771 -0.05642259 0.08793115
v 0.04441191 -0.05642259 0.02279021
v 0.02919907 -0.05642259 0.01128871
v 0.02583562 -0.05178447 0.00997939
v 0.04138536 -0.05642259 0.02040262
v 0.02583562 -0.05178447 0.09739592
v 0.02583562 -0.05642259 0.09274055
v 0.03191910 -0.05642259 0.08940307
v 0.02583562 -0.05642259 0.01062121
f 1 2 3
f 1 3 4
f 1 4 5
f 1 5 6
f 1 6 7
f 1 7 12
f 1 12 18
f 1 18 23
f 1 23 25
f 1 25 19
f 1 19 15
f 1 15 9
f 1 9 2
f 2 8 3
f 2 9 8
f 3 8 13
f 3 13 14
f 3 14 16
f 3 16 20
f 3 20 27
f 3 27 26
f 3 26 28
f 3 28 22
f 3 22 24
f 3 24 21
f 3 21 17
f 3 17 11
f 3 11 10
f 3 10 6
f 3 6 5
f 3 5 4
f 6 10 7
f 7 10 11
f 7 11 12
f 8 9 13
f 9 14 13
f 9 15 16
f 9 16 14
f 11 17 12
f 12 17 18
f 15 19 16
f 16 19 20
f 17 21 18
f 18 22 23
f 18 21 24
f 18 24 22
f 19 25 26
f 19 26 27
f 19 27 20
f 22 28 23
f 23 28 26
f 23 26 25
