# https://github.com/mikedh/trimesh
v 0.01688923 -0.05457895 -0.05477297
v 0.02366435 -0.05431079 -0.04449394
v 0.01688923 -0.05395680 -0.04449394
v 0.01688923 -0.05310938 -0.06567617
v 0.03043947 -0.05040623 -0.06567617
v 0.04686401 -0.04915119 -0.04449394
v 0.01688923 0.00020818 -0.04449394
v 0.01688923 0.00020818 -0.06567617
v 0.03617523 -0.04646413 -0.06567617
v 0.04688967 -0.04914047 -0.04452297
v 0.06058534 -0.03429994 -0.05225142
v 0.04686401 -0.04906538 -0.04449394
v 0.04575193 0.00020818 -0.04449394
v 0.06058534 0.00020818 -0.06567617
v 0.03665856 -0.04613160 -0.06567617
v 0.05165022 -0.03413904 -0.06567617
v 0.06058534 -0.03135543 -0.05759519
v 0.06058534 0.00020818 -0.05249819
v 0.06058534 -0.01702979 -0.06567617
f 1 2 3
f 1 3 7
f 1 7 8
f 1 8 4
f 1 4 5
f 1 5 2
f 2 5 6
f 2 6 12
f 2 12 13
f 2 13 7
f 2 7 3
f 4 8 14
f 4 14 19
f 4 19 16
f 4 16 15
f 4 15 9
f 4 9 5
f 5 9 10
f 5 10 6
f 6 10 11
f 6 11 12
f 7 13 18
f 7 18 14
f 7 14 8
f 9 15 10
f 10 15 11
f 11 15 16
f 11 16 17
f 11 17 19
f 11 19 14
f 11 14 18
f 11 18 12
f 12 18 13
f 16 19 17
