# https://github.com/mikedh/trimesh
v -0.05478502 0.01076634 0.03108802
v -0.05209592 -0.03043591 0.03108802
v -0.05439019 -0.03027716 0.05428756
v -0.05450758 -0.01194462 0.05528953
v -0.05464630 0.00974694 0.05646492
v -0.04046448 0.03839049 0.06398936
v -0.04795555 0.02470375 0.03108802
v -0.02559972 -0.03027716 0.11679528
v -0.03697505 -0.03027716 0.10998379
v -0.04590671 -0.03027716 0.09679435
v -0.04874521 -0.03027716 0.08708292
v -0.05304564 -0.03027716 0.06913410
v 0.05083695 -0.03043591 0.03108802
v 0.05123178 -0.03043591 0.04200375
v 0.01022297 -0.03027716 0.12122709
v -0.05173310 -0.01194462 0.08573411
v -0.05048459 0.00083134 0.10093713
v -0.04433807 0.01905525 0.10853864
v -0.03064712 0.03499804 0.11224786
v -0.01579303 0.04712225 0.10297961
v -0.00928370 0.05451710 0.06389301
v -0.01968796 0.05149232 0.03108802
v -0.03472346 0.04371311 0.03108802
v -0.03642016 -0.01193626 0.11816336
v -0.01179139 -0.02960034 0.12272041
v -0.04212917 -0.01016484 0.11497438
v -0.04649362 -0.02110253 0.10356731
v -0.04816898 -0.01194462 0.10244972
v 0.05352606 -0.02064296 0.03108802
v 0.05404894 -0.03027716 0.05360352
v 0.05054883 -0.03027716 0.07834455
v 0.04582156 -0.03027716 0.09505053
v 0.04143577 -0.03027716 0.10350950
v 0.03578011 -0.03027716 0.10929975
v 0.02705120 -0.03027716 0.11785506
v 0.05316324 -0.03027716 0.06882580
v 0.00946532 -0.00832657 0.12951263
v -0.02200358 0.00640463 0.12728710
v -0.01438446 0.02778703 0.12280712
v 0.00294532 0.04672118 0.11184322
v 0.02922809 0.04759853 0.06510694
v -0.00062948 0.05492653 0.03108802
v -0.01796993 -0.01194462 0.12549511
v 0.05253365 0.01392482 0.03108802
v 0.05385686 -0.02082679 0.04200375
v 0.05423035 -0.02102733 0.05445134
v 0.05139185 -0.01193626 0.08823904
v 0.04358065 -0.01989094 0.11031136
v 0.03651642 -0.01193626 0.11736371
v 0.05287512 -0.01194462 0.08134084
v 0.05241627 0.00306233 0.09508907
v 0.04173455 -0.00164196 0.11710358
v 0.01216510 0.01553748 0.12800004
v 0.01816222 0.03732931 0.11756603
v 0.02884394 0.04098077 0.10337462
v 0.04793443 0.02061778 0.09668837
v 0.05109306 0.01959838 0.03108802
v 0.04151046 0.03260830 0.03108802
v 0.03178915 0.04553467 0.03108802
v 0.01773538 0.05164272 0.03108802
v 0.04664324 -0.01193626 0.10505100
v 0.04278032 -0.01193626 0.11326911
v 0.03967504 0.01991590 0.11445413
f 1 2 3
f 1 3 4
f 1 4 5
f 1 5 6
f 1 6 7
f 1 7 23
f 1 23 22
f 1 22 42
f 1 42 60
f 1 60 59
f 1 59 58
f 1 58 57
f 1 57 44
f 1 44 29
f 1 29 13
f 1 13 2
f 2 8 9
f 2 9 10
f 2 10 11
f 2 11 12
f 2 12 3
f 2 13 14
f 2 14 15
f 2 15 8
f 3 12 4
f 4 12 5
f 5 12 16
f 5 16 17
f 5 17 18
f 5 18 6
f 6 19 20
f 6 20 21
f 6 21 22
f 6 22 23
f 6 23 7
f 6 18 19
f 8 24 9
f 8 15 25
f 8 25 24
f 9 24 26
f 9 26 27
f 9 27 10
f 10 27 11
f 11 27 12
f 12 27 28
f 12 28 17
f 12 17 16
f 13 29 30
f 13 30 14
f 14 31 32
f 14 32 33
f 14 33 34
f 14 34 35
f 14 35 15
f 14 30 36
f 14 36 31
f 15 35 37
f 15 37 25
f 17 28 27
f 17 27 26
f 17 26 18
f 18 26 38
f 18 38 19
f 19 38 39
f 19 39 40
f 19 40 20
f 20 40 21
f 21 40 41
f 21 41 42
f 21 42 22
f 24 25 43
f 24 43 38
f 24 38 26
f 25 37 43
f 29 44 45
f 29 45 30
f 30 46 36
f 30 45 46
f 31 36 47
f 31 47 48
f 31 48 32
f 32 48 33
f 33 48 34
f 34 48 35
f 35 48 49
f 35 49 37
f 36 46 50
f 36 50 51
f 36 51 47
f 37 38 43
f 37 49 52
f 37 52 53
f 37 53 38
f 38 53 39
f 39 53 54
f 39 54 40
f 40 54 55
f 40 55 41
f 41 55 56
f 41 56 57
f 41 57 58
f 41 58 59
f 41 59 60
f 41 60 42
f 44 51 46
f 44 46 45
f 44 57 56
f 44 56 51
f 46 51 50
f 47 61 48
f 47 51 61
f 48 62 52
f 48 52 49
f 48 61 62
f 51 56 63
f 51 63 52
f 51 52 61
f 52 63 53
f 52 62 61
f 53 63 54
f 54 63 55
f 55 63 56
