# https://github.com/mikedh/trimesh
v -0.03132186 -0.00713680 0.10055719
v -0.01646557 -0.02698436 0.10055719
v -0.02472865 -0.02018002 0.10107927
v -0.02692228 -0.01313693 0.10593902
v -0.03086588 0.00396501 0.10425404
v -0.02853669 0.01523646 0.10192687
v -0.02377356 0.02121146 0.10055719
v -0.00927465 -0.03055302 0.10055719
v -0.01958348 -0.02383664 0.10597451
v -0.01331068 -0.02615502 0.10706029
v -0.01870849 -0.01260917 0.10729301
v -0.02246107 0.00928659 0.10728345
v -0.02334839 0.01960305 0.10667266
v -0.01916447 0.02576025 0.10126489
v -0.01121564 0.03022108 0.10059950
v 0.00351125 0.03187347 0.10055719
v 0.00350509 -0.03231222 0.10087453
v -0.00140593 -0.02836030 0.10712376
v 0.03148003 -0.00485612 0.10055719
v -0.00837502 -0.02121669 0.10730256
v -0.01432123 -0.01948891 0.10728345
v 0.00490384 -0.00745095 0.10743018
v 0.01594593 -0.00329169 0.10749979
v -0.01119716 -0.00321630 0.10735101
v -0.02026745 0.00084243 0.10730392
v -0.02183873 0.01304374 0.10728209
v 0.00504556 0.00207387 0.10744246
v 0.01445476 0.00365715 0.10749228
v -0.01307037 0.02180833 0.10729232
v -0.01149909 0.02805978 0.10680505
v -0.00489971 0.03165357 0.10449836
v 0.00379470 0.03085565 0.10640240
v 0.01290196 0.02860010 0.10651091
v 0.01266781 0.02917184 0.10218416
v 0.02794927 0.01607208 0.10242302
v 0.01653747 -0.02792050 0.10103081
v 0.00949444 -0.02925247 0.10647679
v 0.01398645 -0.02090255 0.10734897
v 0.00507021 -0.02199577 0.10733259
v 0.00193997 -0.02199577 0.10732576
v 0.02978552 -0.01060494 0.10464372
v 0.03162792 0.00250110 0.10322081
v -0.00180645 -0.01823861 0.10734760
v 0.01144159 -0.01068662 0.10744724
v 0.01821966 -0.00822374 0.10748819
v 0.02072139 0.00177858 0.10752845
v 0.01570562 0.00052828 0.10750252
v 0.00444170 -0.00071572 0.10744110
v 0.00569256 0.00678601 0.10743905
v -0.01933084 0.01304374 0.10729437
v -0.01307037 0.02055804 0.10729710
v 0.01759115 0.00397129 0.10750661
v 0.01141079 0.00990859 0.10745475
v 0.01203314 0.02689745 0.10726298
v 0.01320389 0.02744406 0.10712990
v 0.01899606 0.02118004 0.10649249
v 0.02287805 0.01255368 0.10743223
v 0.02954520 0.00897873 0.10353610
v 0.02213246 -0.01982190 0.10708349
v 0.02661831 -0.01005833 0.10730939
v 0.01133068 -0.02043133 0.10735784
v 0.01370917 -0.01392229 0.10742540
f 1 2 3
f 1 3 4
f 1 4 5
f 1 5 6
f 1 6 7
f 1 7 16
f 1 16 19
f 1 19 8
f 1 8 2
f 2 8 9
f 2 9 3
f 3 9 4
f 4 9 10
f 4 10 11
f 4 11 12
f 4 12 5
f 5 12 13
f 5 13 6
f 6 13 7
f 7 13 14
f 7 14 15
f 7 15 16
f 8 17 18
f 8 18 10
f 8 10 9
f 8 19 17
f 10 18 20
f 10 20 21
f 10 21 11
f 11 22 23
f 11 23 24
f 11 24 25
f 11 25 12
f 11 21 22
f 12 26 13
f 12 25 27
f 12 27 28
f 12 28 26
f 13 29 30
f 13 30 14
f 13 26 29
f 14 30 15
f 15 30 31
f 15 31 16
f 16 31 32
f 16 32 33
f 16 33 34
f 16 34 35
f 16 35 19
f 17 19 36
f 17 36 37
f 17 37 18
f 18 37 38
f 18 38 39
f 18 39 40
f 18 40 20
f 19 41 36
f 19 35 42
f 19 42 41
f 20 40 43
f 20 43 44
f 20 44 21
f 21 44 22
f 22 44 23
f 23 44 45
f 23 45 46
f 23 46 47
f 23 47 48
f 23 48 24
f 24 48 25
f 25 48 47
f 25 47 27
f 26 28 49
f 26 49 50
f 26 50 51
f 26 51 29
f 27 47 28
f 28 47 46
f 28 46 52
f 28 52 49
f 29 51 53
f 29 53 54
f 29 54 30
f 30 32 31
f 30 54 32
f 32 54 55
f 32 55 33
f 33 55 35
f 33 35 34
f 35 55 56
f 35 56 57
f 35 57 58
f 35 58 42
f 36 59 37
f 36 41 59
f 37 59 38
f 38 59 60
f 38 60 45
f 38 45 61
f 38 61 39
f 39 61 62
f 39 62 45
f 39 45 40
f 40 45 43
f 41 42 60
f 41 60 59
f 42 58 57
f 42 57 60
f 43 45 44
f 45 62 61
f 45 60 46
f 46 57 53
f 46 53 52
f 46 60 57
f 49 53 51
f 49 51 50
f 49 52 53
f 53 57 54
f 54 57 55
f 55 57 56
