# https://github.com/mikedh/trimesh
v 0.05132515 0.01739145 -0.23445208
v -0.01666996 0.01739145 -0.23445208
v 0.04742488 0.03338167 -0.23445208
v 0.04653301 0.03585422 -0.23017790
v 0.04952809 0.01739145 -0.20818861
v -0.01666996 0.03585422 -0.23445208
v -0.01666996 0.01739145 -0.16588523
v 0.04330497 0.03585422 -0.23445208
v 0.04359783 0.03585422 -0.18796847
v 0.04258615 0.03585422 -0.18430489
v 0.04047628 0.03585422 -0.17666460
v 0.04514196 0.01739145 -0.19233658
v -0.01666996 0.03585422 -0.15813535
v -0.00622709 0.01739145 -0.16262089
v -0.01666996 0.02736478 -0.16169716
v 0.03497863 0.03585422 -0.17001849
v 0.03621660 0.01739145 -0.17800322
v 0.04367104 0.01739145 -0.18702908
v -0.00364466 0.03585422 -0.15448743
v 0.00910109 0.01739145 -0.16428828
v 0.03405348 0.03585422 -0.16908695
v 0.03337460 0.01739145 -0.17457449
v -0.00099568 0.03585422 -0.15477707
v 0.02379032 0.03585422 -0.16121181
v 0.02803669 0.01739145 -0.16920437
v 0.02707161 0.03585422 -0.16206508
f 1 2 6
f 1 6 8
f 1 8 3
f 1 3 4
f 1 4 5
f 1 5 12
f 1 12 18
f 1 18 17
f 1 17 22
f 1 22 25
f 1 25 20
f 1 20 14
f 1 14 7
f 1 7 2
f 2 7 15
f 2 15 13
f 2 13 6
f 3 8 4
f 4 8 6
f 4 6 13
f 4 13 19
f 4 19 23
f 4 23 24
f 4 24 26
f 4 26 21
f 4 21 16
f 4 16 11
f 4 11 10
f 4 10 9
f 4 9 5
f 5 9 10
f 5 10 11
f 5 11 12
f 7 14 15
f 11 16 17
f 11 17 18
f 11 18 12
f 13 15 14
f 13 14 19
f 14 20 19
f 16 21 22
f 16 22 17
f 19 20 23
f 20 24 23
f 20 25 24
f 21 25 22
f 21 26 25
f 24 25 26
