# https://github.com/mikedh/trimesh
v 0.02583562 -0.05178447 0.09740311
v 0.01439285 -0.05178447 0.10609299
v 0.01519227 -0.05422730 0.10371078
v 0.02583562 -0.05422730 0.09494841
v 0.02583562 -0.05178447 0.00998654
v 0.01144594 -0.05178447 0.10673514
v 0.01163404 -0.05422730 0.10447722
v 0.02583562 -0.05422730 0.01041119
v 0.02156417 -0.05178447 0.00150382
v -0.00114894 -0.05178447 0.10666264
v -0.00358641 -0.05422730 0.10439437
v 0.01802161 -0.05422730 0.00433139
v 0.01755136 -0.05178447 0.00092380
v -0.01441785 -0.05178447 0.10482937
v -0.00433881 -0.05422730 0.10429079
v 0.00288738 -0.05422730 0.00217705
v -0.01406516 -0.05178447 0.00178346
v -0.02310181 -0.05178447 0.10090391
v -0.01738043 -0.05422730 0.10155644
v -0.01490378 -0.05422730 0.10267504
v -0.01441001 -0.05422730 0.10289254
v -0.00542822 -0.05422730 0.00240491
v -0.02948155 -0.05178447 0.00799791
v -0.02871347 -0.05422730 0.01178873
v -0.02149513 -0.05422730 0.09969210
v -0.03399596 -0.05178447 0.09409910
v -0.02862726 -0.05422730 0.09523841
v -0.04062650 -0.05178447 0.01987787
v -0.04058731 -0.05422730 0.02019895
v -0.04452174 -0.05178447 0.08090375
v -0.04436499 -0.05422730 0.07910156
v -0.03377651 -0.05422730 0.09201726
v -0.04932613 -0.05422730 0.03275213
v -0.04891858 -0.05178447 0.03336322
v -0.05386405 -0.05178447 0.05129190
v -0.05369947 -0.05422730 0.05044260
v -0.05401297 -0.05422730 0.04629963
v -0.05423242 -0.05178447 0.04872327
v -0.05420107 -0.05422730 0.04685893
f 1 2 3
f 1 3 4
f 1 4 8
f 1 8 5
f 1 5 9
f 1 9 13
f 1 13 17
f 1 17 23
f 1 23 28
f 1 28 34
f 1 34 38
f 1 38 35
f 1 35 30
f 1 30 26
f 1 26 18
f 1 18 14
f 1 14 10
f 1 10 6
f 1 6 2
f 2 6 3
f 3 6 7
f 3 7 11
f 3 11 15
f 3 15 21
f 3 21 20
f 3 20 19
f 3 19 25
f 3 25 27
f 3 27 32
f 3 32 31
f 3 31 36
f 3 36 39
f 3 39 37
f 3 37 33
f 3 33 29
f 3 29 24
f 3 24 22
f 3 22 16
f 3 16 12
f 3 12 8
f 3 8 4
f 5 8 9
f 6 10 11
f 6 11 7
f 8 12 9
f 9 12 13
f 10 14 15
f 10 15 11
f 12 16 13
f 13 16 17
f 14 18 19
f 14 19 20
f 14 20 21
f 14 21 15
f 16 22 17
f 17 22 24
f 17 24 23
f 18 25 19
f 18 26 27
f 18 27 25
f 23 24 29
f 23 29 28
f 26 30 31
f 26 31 32
f 26 32 27
f 28 29 33
f 28 33 34
f 30 35 36
f 30 36 31
f 33 37 34
f 34 37 38
f 35 38 36
f 36 38 39
f 37 39 38
