# https://github.com/mikedh/trimesh
v 0.02345025 0.00021354 -0.00188469
v 0.03023333 0.00021354 -0.02476285
v 0.02338755 0.00021354 -0.00193474
v 0.01689054 -0.02195372 -0.01005576
v 0.02475775 -0.02390730 -0.00417876
v 0.03023333 0.00021354 -0.04448769
v 0.03023333 -0.05020589 -0.02034571
v 0.01689054 0.00021354 -0.00946764
v 0.01689054 -0.03388870 -0.01237903
v 0.01689054 -0.03987220 -0.01593275
v 0.02909824 -0.04912235 -0.01792234
v 0.01689054 0.00021354 -0.04448769
v 0.03023333 -0.05271459 -0.04448769
v 0.03023333 -0.05326970 -0.02860437
v 0.01689054 -0.04665635 -0.02095469
v 0.01689054 -0.05107593 -0.02853764
v 0.01689054 -0.05395292 -0.04448769
v 0.03023333 -0.05405967 -0.03451057
v 0.02366055 -0.05431588 -0.04448769
v 0.01689054 -0.05336044 -0.03469826
v 0.03023333 -0.05378212 -0.02999333
f 1 2 6
f 1 6 12
f 1 12 8
f 1 8 3
f 1 3 4
f 1 4 5
f 1 5 2
f 2 5 7
f 2 7 14
f 2 14 21
f 2 21 18
f 2 18 13
f 2 13 6
f 3 8 4
f 4 8 12
f 4 12 17
f 4 17 20
f 4 20 16
f 4 16 15
f 4 15 10
f 4 10 9
f 4 9 5
f 5 9 10
f 5 10 11
f 5 11 7
f 6 13 19
f 6 19 17
f 6 17 12
f 7 11 14
f 10 15 11
f 11 16 14
f 11 15 16
f 13 18 19
f 14 16 20
f 14 20 21
f 17 19 20
f 18 21 20
f 18 20 19
