# https://github.com/mikedh/trimesh
v 0.04610252 -0.02791244 -0.02111548
v 0.04244154 -0.02791244 -0.01989051
v 0.04610252 -0.01933955 -0.02110072
v 0.04610252 -0.02791244 -0.01729300
v 0.04244154 -0.02791244 -0.01729300
v 0.04244154 -0.02608858 -0.01988313
v 0.04244154 0.01224374 -0.01672479
v 0.04409966 0.01224374 -0.01676907
v 0.04610252 0.01224374 -0.01667314
v 0.04610252 -0.02790457 0.04475217
v 0.04244154 -0.02790457 0.04575576
v 0.04244154 0.01224374 0.05399844
v 0.04610252 0.01224374 0.05379920
v 0.04610252 -0.01856127 0.05398368
v 0.04598892 -0.01847086 0.05410913
v 0.04244154 -0.01929238 0.05427147
v 0.04610252 -0.01627359 0.05407961
v 0.04610252 -0.01844728 0.05402796
f 1 2 3
f 1 3 9
f 1 9 13
f 1 13 17
f 1 17 18
f 1 18 14
f 1 14 10
f 1 10 4
f 1 4 5
f 1 5 2
f 2 5 11
f 2 11 16
f 2 16 12
f 2 12 7
f 2 7 6
f 2 6 3
f 3 6 7
f 3 7 8
f 3 8 9
f 4 10 11
f 4 11 5
f 7 12 13
f 7 13 9
f 7 9 8
f 10 14 15
f 10 15 16
f 10 16 11
f 12 16 15
f 12 15 13
f 13 15 17
f 14 18 15
f 15 18 17
