# https://github.com/mikedh/trimesh
v 0.08506105 -0.04264227 -0.04320904
v 0.07963564 -0.04264227 -0.04175830
v 0.07660507 -0.03840542 -0.03998891
v 0.08570548 -0.03840542 -0.04240400
v 0.10519515 -0.04264227 -0.03998891
v 0.07398381 -0.04264227 -0.03982119
v 0.06710407 -0.03840542 -0.03673524
v 0.10394112 -0.03840542 -0.03947738
v 0.11037672 -0.04264227 -0.03679394
v 0.06585005 -0.04264227 -0.03702035
v 0.04244154 -0.03840542 -0.01879812
v 0.11229260 -0.03840542 -0.03430337
v 0.12118400 -0.03840542 -0.02586731
v 0.12336112 -0.04264227 -0.02445850
v 0.05526048 -0.04264227 -0.02825725
v 0.04244154 -0.04236482 -0.01856332
v 0.04244154 -0.03840542 0.02816207
v 0.12549472 -0.03840542 -0.01991343
v 0.12601722 -0.04264227 -0.02079393
v 0.04700480 -0.04264227 -0.01873942
v 0.04254604 -0.04264227 -0.00160734
v 0.04244154 -0.04237145 -0.00117966
v 0.04244154 -0.04170955 0.01591888
v 0.05335332 -0.04264227 0.02784341
v 0.05939703 -0.04264227 0.03313482
v 0.06166996 -0.04264227 0.03466941
v 0.06985597 -0.04264227 0.04017885
v 0.06868031 -0.03840542 0.03927319
v 0.13050212 -0.03840542 0.00016205
v 0.13140780 -0.04264227 0.00243459
v 0.04281601 -0.04264227 0.00091677
v 0.04547210 -0.04264227 0.01646395
v 0.04879876 -0.04264227 0.02127737
v 0.07835548 -0.04264227 0.04128577
v 0.08243978 -0.03840542 0.04105935
v 0.12985768 -0.03840542 0.00893355
v 0.13099850 -0.04264227 0.00785179
v 0.09733136 -0.04264227 0.04245977
v 0.09596412 -0.03840542 0.04189793
v 0.11930295 -0.03840542 0.02884131
v 0.11949454 -0.04264227 0.02973020
v 0.10170303 -0.04264227 0.04108451
v 0.10302673 -0.03840542 0.03968409
f 1 2 3
f 1 3 4
f 1 4 5
f 1 5 9
f 1 9 14
f 1 14 19
f 1 19 30
f 1 30 37
f 1 37 41
f 1 41 42
f 1 42 38
f 1 38 34
f 1 34 27
f 1 27 26
f 1 26 25
f 1 25 24
f 1 24 33
f 1 33 32
f 1 32 31
f 1 31 21
f 1 21 20
f 1 20 15
f 1 15 10
f 1 10 6
f 1 6 2
f 2 6 7
f 2 7 3
f 3 7 11
f 3 11 17
f 3 17 28
f 3 28 35
f 3 35 39
f 3 39 43
f 3 43 40
f 3 40 36
f 3 36 29
f 3 29 18
f 3 18 13
f 3 13 12
f 3 12 8
f 3 8 4
f 4 8 5
f 5 8 9
f 6 10 7
f 7 10 11
f 8 12 9
f 9 12 13
f 9 13 14
f 10 15 16
f 10 16 11
f 11 16 22
f 11 22 23
f 11 23 17
f 13 18 19
f 13 19 14
f 15 20 16
f 16 20 21
f 16 21 22
f 17 23 24
f 17 24 25
f 17 25 26
f 17 26 27
f 17 27 28
f 18 29 19
f 19 29 30
f 21 23 22
f 21 31 23
f 23 31 32
f 23 32 33
f 23 33 24
f 27 34 28
f 28 34 35
f 29 36 30
f 30 36 37
f 34 38 39
f 34 39 35
f 36 40 41
f 36 41 37
f 38 42 43
f 38 43 39
f 40 43 41
f 41 43 42
