# https://github.com/mikedh/trimesh
v -0.04415752 -0.00570793 0.06116491
v -0.04402906 0.00128138 0.06187437
v -0.04390977 0.00427943 0.05925216
v -0.04380884 -0.00881634 0.06086152
v -0.04268936 -0.01186036 0.06187437
v 0.00408076 0.04916737 0.06187437
v -0.03550455 0.02556924 0.06181533
v -0.04378131 0.00895123 0.06103041
v -0.04272607 0.01380696 0.06055248
v -0.03749574 0.02244244 0.05976474
v -0.01847387 0.04041234 0.05925216
v -0.04278112 -0.01159367 0.05925216
v -0.04066146 -0.01709315 0.05925267
v -0.03952364 -0.02003602 0.06126758
v -0.02962272 -0.03315937 0.06184485
v 0.01444965 -0.04199718 0.06187437
v 0.00852195 0.04786147 0.06187437
v 0.01697306 0.04144234 0.05925216
v 0.00756765 0.04415529 0.05925216
v -0.00103028 0.04951683 0.06183278
v -0.03308208 0.02918345 0.06021367
v -0.04024854 0.01824886 0.06056326
v -0.02652123 0.03574973 0.06134587
v -0.03031092 0.03279766 0.06079812
v -0.02121750 0.03890411 0.06053400
v -0.01455572 0.04213207 0.05925216
v -0.03064126 -0.03202821 0.05925216
v -0.03783525 -0.02393532 0.06071983
v -0.02756730 -0.03505385 0.06061947
v -0.02464933 -0.03717823 0.06086896
v -0.01840964 -0.04046137 0.06087641
v -0.01507874 -0.04204316 0.06086537
v -0.00599450 -0.04427789 0.06086896
v 0.00491578 -0.04421352 0.06129710
v -0.03566054 -0.02676784 0.06070880
v 0.01206389 -0.04263173 0.05973035
v 0.01772549 -0.04093958 0.06080094
v 0.02889269 -0.03399625 0.06078349
v 0.03217771 -0.03084187 0.06187437
v 0.03124175 0.03283445 0.06058996
v 0.02070769 0.04055028 0.06056326
v 0.04118855 0.01995020 0.06187437
v 0.03325130 0.03027783 0.05925216
v 0.00412664 0.04436681 0.05925216
v -0.00618719 0.04409092 0.05925216
v -0.01096789 0.04332761 0.05925216
v -0.01056415 -0.04333066 0.05925216
v 0.00070399 -0.04438826 0.05925216
v -0.00194788 -0.04443423 0.06055248
v 0.02310263 -0.03796913 0.05925267
v 0.02566274 -0.03635055 0.05925216
v 0.03614174 -0.02604131 0.05925216
v 0.03423313 -0.02868990 0.06071983
v 0.03608669 -0.02612408 0.06187437
v 0.04958460 0.00011343 0.06178119
v 0.04109679 0.01865350 0.05925216
v 0.03961027 0.02134807 0.05925216
v 0.03780260 0.02394147 0.05925216
v 0.04077563 -0.01784726 0.05925216
v 0.03842657 -0.02256505 0.06094725
v 0.04248236 -0.01348814 0.05925216
v 0.04374865 -0.01019581 0.05925216
v 0.04448274 -0.00634249 0.05925216
v 0.04444603 0.00474845 0.05925216
f 1 2 3
f 1 3 4
f 1 4 5
f 1 5 2
f 2 6 7
f 2 7 8
f 2 8 3
f 2 5 16
f 2 16 39
f 2 39 54
f 2 54 42
f 2 42 17
f 2 17 6
f 3 8 9
f 3 9 10
f 3 10 11
f 3 11 26
f 3 26 46
f 3 46 45
f 3 45 44
f 3 44 19
f 3 19 18
f 3 18 43
f 3 43 58
f 3 58 57
f 3 57 56
f 3 56 64
f 3 64 63
f 3 63 62
f 3 62 61
f 3 61 59
f 3 59 52
f 3 52 51
f 3 51 48
f 3 48 47
f 3 47 27
f 3 27 12
f 3 12 4
f 4 12 5
f 5 12 13
f 5 13 14
f 5 14 15
f 5 15 16
f 6 17 18
f 6 18 19
f 6 19 20
f 6 20 7
f 7 21 10
f 7 10 22
f 7 22 9
f 7 9 8
f 7 20 23
f 7 23 24
f 7 24 21
f 9 22 10
f 10 21 11
f 11 24 23
f 11 23 25
f 11 25 20
f 11 20 26
f 11 21 24
f 12 27 13
f 13 27 28
f 13 28 14
f 14 28 15
f 15 29 30
f 15 30 31
f 15 31 32
f 15 32 33
f 15 33 34
f 15 34 16
f 15 28 35
f 15 35 27
f 15 27 29
f 16 34 36
f 16 36 37
f 16 37 38
f 16 38 39
f 17 40 41
f 17 41 18
f 17 42 40
f 18 41 43
f 19 44 20
f 20 44 45
f 20 45 46
f 20 46 26
f 20 25 23
f 27 35 28
f 27 47 30
f 27 30 29
f 30 47 31
f 31 47 32
f 32 47 33
f 33 47 48
f 33 48 49
f 33 49 34
f 34 49 48
f 34 48 36
f 36 48 50
f 36 50 37
f 37 50 38
f 38 50 51
f 38 51 52
f 38 52 53
f 38 53 39
f 39 53 54
f 40 43 41
f 40 42 43
f 42 55 56
f 42 56 57
f 42 57 58
f 42 58 43
f 42 54 55
f 48 51 50
f 52 59 60
f 52 60 54
f 52 54 53
f 54 60 55
f 55 59 61
f 55 61 62
f 55 62 63
f 55 63 64
f 55 64 56
f 55 60 59
