# https://github.com/mikedh/trimesh
v 0.04957322 0.00756596 -0.02123923
v 0.04907967 0.00756596 -0.02064108
v 0.04244154 0.01224987 -0.01671811
v 0.04244154 0.02265572 -0.01827953
v 0.04957322 0.03646137 -0.02533309
v 0.04957322 0.00756596 0.05224836
v 0.04610302 0.00756596 -0.01671034
v 0.04244154 0.01224987 0.05400398
v 0.04244154 0.03645854 -0.01889322
v 0.04595014 0.03646137 -0.02104502
v 0.04957322 0.03646137 0.03786934
v 0.04957322 0.01249311 0.05237265
v 0.04926327 0.00756596 0.05246587
v 0.04610302 0.00756596 0.05384861
v 0.04244154 0.01735238 0.05402729
v 0.04244154 0.03645854 0.03710028
v 0.04595014 0.03646137 0.03747315
v 0.04893168 0.03646137 0.03779942
v 0.04595014 0.03645854 0.03748093
v 0.04244154 0.03126834 0.04371106
v 0.04595014 0.01621818 0.05380201
v 0.04774772 0.01563835 0.05368548
v 0.04957322 0.02554922 0.04580071
v 0.04957322 0.01649254 0.05218621
v 0.04757320 0.01224987 0.05373209
v 0.04734841 0.00756596 0.05377870
v 0.04705731 0.00756596 0.05380201
v 0.04733166 0.00756596 0.05378647
v 0.04957322 0.01654911 0.05214737
f 1 2 3
f 1 3 4
f 1 4 5
f 1 5 11
f 1 11 23
f 1 23 29
f 1 29 24
f 1 24 12
f 1 12 6
f 1 6 13
f 1 13 26
f 1 26 28
f 1 28 27
f 1 27 14
f 1 14 7
f 1 7 2
f 2 7 3
f 3 7 14
f 3 14 8
f 3 8 15
f 3 15 20
f 3 20 16
f 3 16 9
f 3 9 4
f 4 9 5
f 5 9 10
f 5 10 17
f 5 17 18
f 5 18 11
f 6 12 13
f 8 14 15
f 9 16 17
f 9 17 10
f 11 18 16
f 11 16 19
f 11 19 20
f 11 20 15
f 11 15 21
f 11 21 22
f 11 22 23
f 12 24 22
f 12 22 25
f 12 25 26
f 12 26 13
f 14 27 15
f 15 27 28
f 15 28 25
f 15 25 21
f 16 18 17
f 16 20 19
f 21 25 22
f 22 24 29
f 22 29 23
f 25 28 26
