# https://github.com/mikedh/trimesh
v 0.05555006 -0.01818935 0.12508302
v 0.05535292 -0.01818935 0.10473937
v 0.05449043 -0.01818935 0.13977604
v 0.04771373 -0.03472384 0.13967648
v 0.05219867 -0.02965199 0.10598210
v 0.05299956 -0.02673037 0.10473937
v -0.06836487 -0.01818935 0.10473937
v 0.02827078 -0.01818935 0.13981037
v -0.04278593 -0.03924415 0.13976231
v -0.02204925 -0.05459161 0.13953917
v 0.00281506 -0.05901998 0.13915811
v 0.03063646 -0.05072276 0.13910661
v 0.03717906 -0.04677799 0.10597523
v 0.05235885 -0.02901251 0.10473937
v -0.05584646 -0.03750557 0.10473937
v -0.06471777 -0.03076308 0.10718020
v -0.07031163 -0.01818935 0.10724199
v -0.05536594 -0.01818935 0.13924050
v -0.05530433 -0.02067133 0.13921647
v -0.05922249 -0.01818935 0.13726656
v -0.05011708 -0.04678598 0.10730035
v -0.02707632 -0.05685376 0.10582418
v 0.01258582 -0.05784095 0.10473937
v 0.01296778 -0.05772105 0.10511356
v 0.02818454 -0.04803296 0.10473937
v 0.04342594 -0.03651438 0.10473937
v -0.05392435 -0.03959586 0.10473937
v -0.03584906 -0.05179389 0.10473937
v 0.01041728 -0.05757317 0.10473937
v -0.03494961 -0.05196575 0.10473937
f 1 2 7
f 1 7 17
f 1 17 20
f 1 20 18
f 1 18 8
f 1 8 3
f 1 3 4
f 1 4 5
f 1 5 6
f 1 6 2
f 2 6 14
f 2 14 26
f 2 26 25
f 2 25 23
f 2 23 29
f 2 29 30
f 2 30 28
f 2 28 27
f 2 27 15
f 2 15 7
f 3 8 4
f 4 8 9
f 4 9 10
f 4 10 11
f 4 11 12
f 4 12 13
f 4 13 5
f 5 14 6
f 5 13 14
f 7 15 16
f 7 16 17
f 8 18 9
f 9 18 19
f 9 19 20
f 9 20 16
f 9 16 21
f 9 21 10
f 10 22 11
f 10 21 22
f 11 23 24
f 11 24 12
f 11 22 23
f 12 24 13
f 13 24 23
f 13 23 25
f 13 25 26
f 13 26 14
f 15 27 21
f 15 21 16
f 16 20 17
f 18 20 19
f 21 28 22
f 21 27 28
f 22 29 23
f 22 28 30
f 22 30 29
