# https://github.com/mikedh/trimesh
v -0.05504640 0.00274397 -0.10569416
v -0.05364521 -0.02817232 -0.07810818
v -0.04738800 0.00917928 -0.09752089
v -0.04426474 0.01560118 -0.09752089
v -0.04755914 0.02369894 -0.11083969
v -0.05495014 0.00348135 -0.11083969
v -0.02920464 -0.00145239 -0.07810818
v -0.04010396 0.00897817 -0.08941170
v -0.04325931 0.01263825 -0.09313469
v -0.05275744 -0.03948774 -0.08017793
v -0.04276729 -0.06148845 -0.07810818
v -0.01915031 0.03481325 -0.09245865
v -0.03608223 0.02892763 -0.10384228
v -0.02952552 0.04055140 -0.11083969
v -0.05122790 -0.02759583 -0.11083969
v 0.01149399 0.00690010 -0.07810818
v 0.00630639 0.02837795 -0.08603474
v -0.02673384 0.00895136 -0.08224768
v -0.02249819 0.02604514 -0.08941170
v -0.04122705 -0.04814859 -0.11083969
v -0.03039191 -0.07535117 -0.07810818
v -0.04349462 -0.04350981 -0.11083969
v -0.02558936 0.03837949 -0.10384228
v -0.00705303 0.03176989 -0.08941170
v 0.00356819 0.04338026 -0.09881208
v 0.00043423 0.04998985 -0.11083969
v -0.01107476 0.04315234 -0.10384228
v -0.00609038 0.04824696 -0.11083969
v 0.04102591 -0.00771341 -0.07810818
v 0.03731436 0.02053491 -0.09206136
v 0.02949552 0.03077778 -0.09752089
v 0.01902404 0.04451984 -0.10486754
v 0.00557905 0.03234639 -0.08941170
v -0.02295812 -0.06050975 -0.11083969
v -0.02473367 -0.06359333 -0.10384228
v -0.02791041 -0.07018952 -0.08941170
v -0.00906390 -0.08668000 -0.07810818
v 0.00941895 0.04858213 -0.11083969
v 0.04704781 -0.01644129 -0.07810818
v 0.05253490 0.00864300 -0.10506618
v 0.04057667 0.02617921 -0.10384228
v 0.05405375 -0.02736791 -0.07810818
v 0.03323915 0.03706561 -0.11083969
v 0.02069263 0.04539129 -0.11083969
v 0.00748296 -0.06651603 -0.11083969
v -0.01980278 -0.06620768 -0.10384228
v -0.00066746 -0.08697495 -0.07810818
v 0.05398957 0.00758386 -0.11083969
v 0.05135833 0.01372421 -0.11083969
v 0.04875918 0.01977072 -0.11083969
v 0.04250197 0.02949072 -0.11083969
v 0.05267395 -0.03702087 -0.07810818
v 0.05422489 -0.01094447 -0.11083969
v 0.05410723 -0.02331903 -0.08224768
v 0.00931199 -0.08524546 -0.07810818
v 0.02793389 -0.05808310 -0.11083969
v 0.05420349 -0.01457774 -0.09115144
v 0.05420349 -0.00963059 -0.09752089
v 0.05055613 -0.04838992 -0.07810818
v 0.04832064 -0.03523775 -0.11083969
v 0.03588109 -0.07004204 -0.07810818
v 0.03969959 -0.06048293 -0.08941170
v 0.03826631 -0.06583228 -0.08224768
v 0.04410638 -0.04423378 -0.11083969
f 1 2 3
f 1 3 4
f 1 4 5
f 1 5 6
f 1 6 2
f 2 7 8
f 2 8 9
f 2 9 3
f 2 6 10
f 2 10 11
f 2 11 21
f 2 21 37
f 2 37 47
f 2 47 55
f 2 55 61
f 2 61 59
f 2 59 52
f 2 52 42
f 2 42 39
f 2 39 29
f 2 29 16
f 2 16 7
f 3 9 4
f 4 9 12
f 4 12 13
f 4 13 5
f 5 13 14
f 5 14 28
f 5 28 26
f 5 26 38
f 5 38 44
f 5 44 43
f 5 43 51
f 5 51 50
f 5 50 49
f 5 49 48
f 5 48 53
f 5 53 60
f 5 60 64
f 5 64 56
f 5 56 45
f 5 45 34
f 5 34 20
f 5 20 22
f 5 22 15
f 5 15 6
f 6 15 10
f 7 16 17
f 7 17 18
f 7 18 8
f 8 18 19
f 8 19 12
f 8 12 9
f 10 15 11
f 11 20 21
f 11 15 22
f 11 22 20
f 12 23 13
f 12 19 18
f 12 18 24
f 12 24 25
f 12 25 26
f 12 26 27
f 12 27 23
f 13 23 14
f 14 23 27
f 14 27 28
f 16 29 17
f 17 29 30
f 17 30 31
f 17 31 32
f 17 32 33
f 17 33 24
f 17 24 18
f 20 34 35
f 20 35 36
f 20 36 21
f 21 36 37
f 24 33 25
f 25 32 26
f 25 33 32
f 26 28 27
f 26 32 38
f 29 39 30
f 30 40 41
f 30 41 31
f 30 39 42
f 30 42 40
f 31 41 32
f 32 43 44
f 32 44 38
f 32 41 43
f 34 45 46
f 34 46 35
f 35 46 37
f 35 37 36
f 37 46 45
f 37 45 47
f 40 48 49
f 40 49 50
f 40 50 41
f 40 42 48
f 41 50 51
f 41 51 43
f 42 52 53
f 42 53 54
f 42 54 48
f 45 55 47
f 45 56 55
f 48 54 57
f 48 57 58
f 48 58 53
f 52 59 53
f 53 58 57
f 53 57 54
f 53 59 60
f 55 56 61
f 56 62 63
f 56 63 61
f 56 64 62
f 59 61 63
f 59 63 62
f 59 62 64
f 59 64 60
