# https://github.com/mikedh/trimesh
v -0.08136722 0.07783266 0.00002145
v -0.08136722 0.07765019 0.00307025
v -0.08136722 0.03344874 0.00002252
v -0.13519308 0.06625009 0.00000113
v -0.13410761 0.06811825 0.00000220
v -0.08136722 0.07702892 0.00847465
v -0.08136722 0.03344874 0.01092973
v -0.13519308 0.03344874 0.00000220
v -0.13519308 0.06616755 0.00065795
v -0.13519308 0.06403437 0.00872711
v -0.13321182 0.06728844 0.00867041
v -0.08136722 0.05524100 0.01092973
v -0.13046652 0.03344874 0.01092973
v -0.13519308 0.03344874 0.00991881
v -0.13519308 0.03768033 0.00980328
v -0.13019252 0.03558626 0.01092973
v -0.13001863 0.03644648 0.01092973
v -0.12335824 0.04822455 0.01092973
v -0.12324232 0.04838965 0.01092973
v -0.12199877 0.04859384 0.01092973
v -0.12130848 0.04870680 0.01092973
v -0.13022940 0.03529951 0.01092973
f 1 2 6
f 1 6 12
f 1 12 7
f 1 7 3
f 1 3 4
f 1 4 5
f 1 5 2
f 2 5 6
f 3 7 13
f 3 13 14
f 3 14 8
f 3 8 4
f 4 9 5
f 4 8 14
f 4 14 15
f 4 15 10
f 4 10 9
f 5 9 10
f 5 10 11
f 5 11 6
f 6 11 12
f 7 12 21
f 7 21 20
f 7 20 19
f 7 19 18
f 7 18 17
f 7 17 16
f 7 16 22
f 7 22 13
f 10 15 16
f 10 16 17
f 10 17 18
f 10 18 19
f 10 19 11
f 11 19 20
f 11 20 21
f 11 21 12
f 13 22 15
f 13 15 14
f 15 22 16
