# https://github.com/mikedh/trimesh
v 0.08569106 -0.00612671 0.04577926
v 0.09966085 -0.00527195 0.04451136
v 0.08329192 0.04421872 0.04271293
v 0.06287875 0.03769049 0.04055481
v 0.06287875 0.02273216 0.04123821
v 0.06287875 -0.01252673 0.04269494
v 0.06397550 -0.02790175 0.03953869
v 0.09255942 -0.02790175 0.04050985
v 0.10630301 -0.02790175 0.03633748
v 0.11224600 -0.00698147 0.03896319
v 0.10003786 0.05455065 0.03950272
v 0.08461487 0.07032099 0.03712879
v 0.06397550 0.04796899 0.03841467
v 0.06397550 0.05958306 0.03484478
v 0.06287875 0.07069495 0.03035768
v 0.06398236 -0.00690668 -0.03926874
v 0.06287875 0.07704156 0.02459369
v 0.06342713 0.07386825 -0.02751596
v 0.06675849 -0.02790175 -0.03419715
v 0.08333991 -0.02791244 0.04018613
v 0.11890873 -0.02790175 0.02671585
v 0.12699723 0.01374649 0.02394626
v 0.11415845 0.05332193 0.03133783
v 0.12370014 -0.00936412 0.02853227
v 0.10430145 0.06899611 0.03144573
v 0.08438182 0.07843054 0.02131155
v 0.07180352 0.07528929 0.03214712
v 0.06387268 0.01594750 -0.03879215
v 0.07893922 0.03928248 -0.04266778
v 0.09066068 -0.00507963 -0.04608481
v 0.08417618 -0.02666235 -0.04033881
v 0.06506539 -0.01372340 -0.03811774
v 0.06612101 0.08054608 0.01561051
v 0.06397550 0.08124057 0.00856964
v 0.06397550 0.08078114 -0.00511645
v 0.06397550 0.07861218 -0.02146423
v 0.06917133 0.07429563 -0.03223685
v 0.10118258 -0.02790175 -0.03846843
v 0.11626283 -0.02790175 -0.02949424
v 0.12444044 -0.02790175 -0.01818208
v 0.12830647 -0.02790175 -0.00545816
v 0.12704521 -0.02790175 0.01162698
v 0.13275514 -0.01014408 0.00791321
v 0.13290594 0.02419594 0.00309340
v 0.12318603 0.06095067 0.01592524
v 0.11414474 0.06918844 0.01939622
v 0.10654978 0.07463754 0.01383006
v 0.07373653 0.08051402 0.00013498
v 0.06506539 0.02404636 -0.03826161
v 0.08360039 0.07275706 -0.03567187
v 0.10141564 0.03816060 -0.04143585
v 0.11342500 -0.00835977 -0.03844146
v 0.08102304 0.07885792 -0.02389212
v 0.12729197 -0.00698147 -0.02346948
v 0.13253579 -0.00401117 -0.01219330
v 0.12544122 0.05608922 -0.01400072
v 0.12737423 0.05550157 0.00591695
v 0.11916235 0.06772465 -0.00460390
v 0.09877660 0.07586625 -0.02223756
v 0.08791196 0.07792837 -0.01210337
v 0.11383628 0.06948760 -0.02022331
v 0.10090840 0.06954102 -0.03363963
v 0.11947081 0.03217728 -0.03088803
v 0.11092990 0.05830091 -0.03220988
f 1 2 3
f 1 3 4
f 1 4 5
f 1 5 6
f 1 6 7
f 1 7 8
f 1 8 2
f 2 8 9
f 2 9 10
f 2 10 11
f 2 11 3
f 3 11 12
f 3 12 4
f 4 12 13
f 4 13 14
f 4 14 15
f 4 15 17
f 4 17 6
f 4 6 5
f 6 16 7
f 6 17 18
f 6 18 16
f 7 19 20
f 7 20 8
f 7 16 19
f 8 20 9
f 9 20 21
f 9 21 10
f 10 22 23
f 10 23 11
f 10 21 24
f 10 24 22
f 11 23 25
f 11 25 12
f 12 25 26
f 12 26 27
f 12 27 13
f 13 27 14
f 14 27 15
f 15 27 17
f 16 28 29
f 16 29 30
f 16 30 31
f 16 31 32
f 16 32 19
f 16 18 28
f 17 27 33
f 17 33 34
f 17 34 35
f 17 35 36
f 17 36 18
f 18 36 37
f 18 37 28
f 19 38 20
f 19 32 31
f 19 31 38
f 20 38 39
f 20 39 40
f 20 40 41
f 20 41 42
f 20 42 21
f 21 42 24
f 22 24 43
f 22 43 44
f 22 44 45
f 22 45 23
f 23 45 25
f 24 42 43
f 25 45 46
f 25 46 47
f 25 47 26
f 26 48 34
f 26 34 33
f 26 33 27
f 26 47 48
f 28 37 49
f 28 49 29
f 29 37 50
f 29 50 51
f 29 51 30
f 29 49 37
f 30 51 52
f 30 52 38
f 30 38 31
f 34 48 35
f 35 48 53
f 35 53 36
f 36 53 37
f 37 53 50
f 38 52 39
f 39 52 54
f 39 54 40
f 40 54 55
f 40 55 41
f 41 55 43
f 41 43 42
f 43 55 44
f 44 55 56
f 44 56 57
f 44 57 45
f 45 58 46
f 45 57 58
f 46 58 47
f 47 59 60
f 47 60 48
f 47 58 61
f 47 61 59
f 48 60 53
f 50 53 59
f 50 59 62
f 50 62 51
f 51 63 52
f 51 62 64
f 51 64 63
f 52 63 54
f 53 60 59
f 54 63 56
f 54 56 55
f 56 64 61
f 56 61 58
f 56 58 57
f 56 63 64
f 59 61 62
f 61 64 62
