# https://github.com/mikedh/trimesh
v 0.05436019 -0.03147239 -0.00197751
v 0.05294922 -0.03147239 0.01518398
v 0.05430674 -0.06365724 0.00919206
v 0.05371884 -0.03148206 -0.02159949
v 0.04808566 -0.03148206 -0.03547737
v -0.05236024 -0.03147239 -0.02036039
v 0.04650367 -0.03147239 0.02844231
v 0.05175204 -0.07257383 -0.03548622
v 0.05299198 -0.04089187 -0.03548622
v 0.04009018 -0.07019479 0.03777979
v 0.04664263 -0.10139320 0.01916679
v 0.04978523 -0.10365620 -0.00685424
v -0.05215715 -0.03983774 -0.03548622
v -0.05115237 -0.03343559 -0.03499943
v -0.05440187 -0.05469229 -0.03548622
v -0.05484012 -0.03147239 0.00831584
v 0.03675517 -0.03147239 0.04104569
v 0.05033038 -0.09108399 -0.02036039
v 0.05008453 -0.08144208 -0.03548622
v 0.02619429 -0.03147239 0.04762175
v 0.01760022 -0.06514656 0.05191434
v 0.02759457 -0.10863673 0.03977119
v 0.03964124 -0.11447797 0.01998105
v 0.04307245 -0.11449731 -0.01040337
v 0.04268764 -0.10906225 -0.02036039
v 0.04554164 -0.10351114 -0.02036039
v -0.05454083 -0.05648141 -0.02036039
v -0.05348260 -0.06157799 -0.03548622
v -0.05476530 -0.05950841 0.00516499
v -0.04763564 -0.06508854 0.02748644
v -0.05141960 -0.03147239 0.01930840
v 0.04226007 -0.10338542 -0.03073340
v 0.04160804 -0.09994257 -0.03548622
v 0.01228771 -0.03147239 0.05367562
v -0.00057133 -0.03147239 0.05493242
v -0.00894093 -0.06395704 0.05453414
v 0.00293471 -0.11184748 0.04672783
v 0.01298251 -0.12640223 0.02185740
v 0.02627980 -0.12535776 -0.00377420
v 0.02632256 -0.12083177 -0.02036039
v 0.02565983 -0.11634446 -0.03347711
v -0.05215715 -0.07420822 -0.02036039
v -0.05089583 -0.07256416 -0.03548622
v -0.04549781 -0.10255372 -0.02036039
v -0.04917488 -0.10257306 0.01353775
v -0.03164468 -0.09560999 0.04159444
v -0.03105678 -0.03147239 0.04603748
v -0.03887054 -0.03147239 0.03824003
v -0.00727343 -0.12063835 -0.03507909
v -0.01752432 -0.11735024 -0.03548622
v -0.02011109 -0.03147239 0.05128594
v -0.01581405 -0.10299858 0.04712611
v -0.02853414 -0.11496152 0.03369077
v -0.00783995 -0.12838476 0.01758252
v -0.00153335 -0.13027060 -0.00870403
v 0.01272597 -0.12389746 -0.02036039
v -0.04338136 -0.09618057 -0.03548622
v -0.04302862 -0.11138327 -0.01782024
v -0.04311413 -0.11431356 0.00972310
v -0.00539214 -0.12635387 -0.02036039
v -0.01473445 -0.12383943 -0.02036039
v -0.03444523 -0.11514526 -0.02036039
v -0.03361148 -0.10935238 -0.03548622
v -0.02235581 -0.12700182 0.00090781
f 1 2 3
f 1 3 4
f 1 4 5
f 1 5 6
f 1 6 16
f 1 16 31
f 1 31 48
f 1 48 47
f 1 47 51
f 1 51 35
f 1 35 34
f 1 34 20
f 1 20 17
f 1 17 7
f 1 7 2
f 2 7 3
f 3 8 9
f 3 9 4
f 3 7 10
f 3 10 11
f 3 11 12
f 3 12 8
f 4 9 5
f 5 9 13
f 5 13 14
f 5 14 6
f 6 14 13
f 6 13 15
f 6 15 16
f 7 17 10
f 8 18 19
f 8 19 33
f 8 33 50
f 8 50 63
f 8 63 57
f 8 57 43
f 8 43 28
f 8 28 15
f 8 15 13
f 8 13 9
f 8 12 18
f 10 17 20
f 10 20 21
f 10 21 22
f 10 22 11
f 11 22 23
f 11 23 12
f 12 23 24
f 12 24 25
f 12 25 26
f 12 26 19
f 12 19 18
f 15 27 16
f 15 28 27
f 16 27 29
f 16 29 30
f 16 30 31
f 19 26 32
f 19 32 33
f 20 34 21
f 21 34 35
f 21 35 36
f 21 36 37
f 21 37 22
f 22 37 38
f 22 38 23
f 23 38 39
f 23 39 24
f 24 39 40
f 24 40 41
f 24 41 25
f 25 32 26
f 25 41 32
f 27 28 29
f 28 42 29
f 28 43 44
f 28 44 45
f 28 45 42
f 29 42 45
f 29 45 30
f 30 45 46
f 30 46 47
f 30 47 48
f 30 48 31
f 32 41 33
f 33 41 49
f 33 49 50
f 35 51 36
f 36 51 46
f 36 46 52
f 36 52 37
f 37 52 53
f 37 53 54
f 37 54 38
f 38 54 55
f 38 55 39
f 39 55 56
f 39 56 40
f 40 56 41
f 41 56 49
f 43 57 44
f 44 57 58
f 44 58 45
f 45 58 59
f 45 59 53
f 45 53 46
f 46 53 52
f 46 51 47
f 49 60 61
f 49 61 50
f 49 56 60
f 50 61 62
f 50 62 63
f 53 64 54
f 53 59 64
f 54 64 55
f 55 64 61
f 55 61 60
f 55 60 56
f 57 63 58
f 58 63 62
f 58 62 64
f 58 64 59
f 61 64 62
