# https://github.com/mikedh/trimesh
v -0.04059471 0.03971887 -0.22894766
v -0.04188674 0.03971887 -0.22682036
v -0.02687668 0.05342980 -0.22893273
v -0.03116898 0.04906442 -0.22894766
v 0.04112384 0.03971887 -0.22894766
v -0.04239835 0.03971887 -0.22502150
v -0.03885177 0.05098401 -0.20742094
v -0.03704814 0.05335463 -0.20742094
v -0.03747303 0.04906442 -0.21736323
v -0.03540926 0.05342980 -0.21293697
v 0.02651266 0.05342980 -0.22893273
v 0.03083098 0.04906442 -0.22894766
v 0.04079433 0.04011218 -0.22894766
v 0.04512999 0.03971887 -0.22348387
v -0.04345625 0.03971887 -0.20986919
v -0.03807135 0.05342980 -0.20359181
v -0.03698744 0.05342980 -0.20742094
v 0.03572161 0.05342980 -0.21109331
v 0.04235517 0.03971887 -0.18374453
v 0.04175685 0.04906442 -0.20729404
v -0.04306604 0.03971887 -0.18374453
v -0.03996170 0.04906442 -0.17569813
v -0.03844422 0.05342980 -0.17051052
v -0.03830548 0.05342980 -0.18377439
v 0.04015265 0.05342980 -0.19972536
v 0.03979713 0.03971887 -0.17449640
v 0.03795881 0.05342980 -0.16871912
v 0.03935489 0.04906442 -0.17348873
v -0.04125373 0.03971887 -0.17751939
v -0.03835751 0.05342980 -0.16704713
v -0.03990968 0.04906442 -0.17274977
v -0.03950212 0.05024839 -0.17136890
v 0.03530538 0.03971887 -0.16906993
v 0.03742119 0.05342980 -0.16681574
v 0.03817559 0.04906442 -0.16925654
v 0.02681616 0.05342980 -0.15291743
v -0.03863499 0.03971887 -0.17334691
v -0.02644311 0.03971887 -0.15920227
v -0.03105626 0.05342980 -0.15956055
v 0.02535070 0.05071956 -0.15291743
v 0.02685951 0.03971887 -0.16057568
v -0.02457010 0.05342980 -0.15291743
v 0.01873448 0.04906442 -0.15269350
v -0.00310858 0.03971887 -0.15279053
v -0.00316061 0.03984102 -0.15269350
v -0.01763305 0.04906442 -0.15269350
v -0.02437934 0.05321099 -0.15291743
v -0.00307389 0.03984505 -0.15269350
v -0.00309124 0.03971887 -0.15279053
f 1 2 3
f 1 3 4
f 1 4 12
f 1 12 13
f 1 13 5
f 1 5 14
f 1 14 19
f 1 19 26
f 1 26 33
f 1 33 41
f 1 41 49
f 1 49 44
f 1 44 38
f 1 38 37
f 1 37 29
f 1 29 21
f 1 21 15
f 1 15 6
f 1 6 2
f 2 6 7
f 2 7 8
f 2 8 9
f 2 9 3
f 3 9 10
f 3 10 17
f 3 17 16
f 3 16 24
f 3 24 23
f 3 23 30
f 3 30 39
f 3 39 42
f 3 42 36
f 3 36 34
f 3 34 27
f 3 27 25
f 3 25 18
f 3 18 11
f 3 11 12
f 3 12 4
f 5 13 14
f 6 15 7
f 7 16 8
f 7 15 16
f 8 17 10
f 8 10 9
f 8 16 17
f 11 18 14
f 11 14 13
f 11 13 12
f 14 18 20
f 14 20 19
f 15 21 22
f 15 22 23
f 15 23 24
f 15 24 16
f 18 25 20
f 19 20 27
f 19 27 28
f 19 28 26
f 20 25 27
f 21 29 30
f 21 30 31
f 21 31 22
f 22 31 32
f 22 32 23
f 23 32 30
f 26 28 27
f 26 27 34
f 26 34 35
f 26 35 36
f 26 36 33
f 29 37 30
f 30 32 31
f 30 37 38
f 30 38 39
f 33 36 40
f 33 40 41
f 34 36 35
f 36 42 46
f 36 46 43
f 36 43 40
f 38 44 45
f 38 45 46
f 38 46 47
f 38 47 42
f 38 42 39
f 40 43 48
f 40 48 41
f 41 48 49
f 42 47 46
f 43 46 45
f 43 45 48
f 44 49 45
f 45 49 48
