# https://github.com/mikedh/trimesh
v -0.02802246 -0.03470444 0.06187462
v -0.02810538 -0.03463348 0.06187462
v -0.02802246 -0.02707496 0.06187462
v -0.02802246 -0.03470294 0.06267367
v -0.02885609 -0.03401350 0.06426231
v -0.02884582 -0.03400902 0.06300937
v -0.02883041 -0.03399781 0.06187462
v -0.03542757 -0.02707496 0.06187462
v -0.02802246 -0.02707496 0.07797535
v -0.02802246 -0.03470145 0.06346641
v -0.02810318 -0.03463198 0.06426231
v -0.02885536 -0.03400827 0.06551368
v -0.03018580 -0.03282657 0.07302346
v -0.03018286 -0.03283180 0.07177210
v -0.03149716 -0.03165085 0.07797535
v -0.03146120 -0.03163069 0.07552778
v -0.02888911 -0.03393731 0.06187462
v -0.03495278 -0.02760007 0.06187462
v -0.03542977 -0.02707496 0.06195658
v -0.03551710 -0.02707496 0.07797535
v -0.02802246 -0.03452890 0.07797535
v -0.02802246 -0.03469697 0.06426231
v -0.02810318 -0.03461705 0.06551368
v -0.02884949 -0.03399856 0.06676505
v -0.03018139 -0.03280790 0.07552778
v -0.03076259 -0.03230146 0.07797535
v -0.03079194 -0.03227681 0.07797535
v -0.03212239 -0.03099054 0.07797535
v -0.03208643 -0.03097112 0.07552778
v -0.03206955 -0.03095842 0.07427641
v -0.03263460 -0.03029960 0.07177210
v -0.03261846 -0.03028242 0.07052073
v -0.03144432 -0.03161425 0.07427641
v -0.03079635 -0.03218792 0.07052073
v -0.02947178 -0.03336439 0.06300937
v -0.03013663 -0.03280641 0.06801799
v -0.02945637 -0.03334870 0.06187462
v -0.03496745 -0.02761576 0.06300937
v -0.03438553 -0.02819391 0.06187462
v -0.03497847 -0.02762696 0.06426231
v -0.03543124 -0.02707496 0.06205271
v -0.03551783 -0.02707496 0.07678072
v -0.03549435 -0.02710185 0.07797535
v -0.03016598 -0.03278997 0.07797535
v -0.02884288 -0.03398885 0.06801799
v -0.03266102 -0.03033321 0.07427641
v -0.03214807 -0.03096141 0.07797535
v -0.03264854 -0.03031678 0.07302346
v -0.03069655 -0.03208409 0.06300937
v -0.03010361 -0.03277354 0.06551368
v -0.03011388 -0.03266149 0.06187462
v -0.03313287 -0.02950408 0.06187462
v -0.03498287 -0.02763145 0.06551368
v -0.03545986 -0.02707496 0.06426231
v -0.03544812 -0.02707496 0.06317643
v -0.03267349 -0.03036533 0.07797535
v -0.03551783 -0.02707496 0.07665937
v -0.03501369 -0.02766730 0.07797535
v -0.03190517 -0.03078811 0.06187462
v -0.03546720 -0.02707496 0.06565079
v -0.03550976 -0.02707496 0.07415348
v -0.03549802 -0.02707496 0.07177210
v -0.03547307 -0.02707496 0.06676505
v -0.03551563 -0.02707496 0.07552778
f 1 2 7
f 1 7 17
f 1 17 37
f 1 37 51
f 1 51 59
f 1 59 52
f 1 52 39
f 1 39 18
f 1 18 8
f 1 8 3
f 1 3 9
f 1 9 21
f 1 21 22
f 1 22 10
f 1 10 4
f 1 4 5
f 1 5 2
f 2 5 6
f 2 6 7
f 3 8 19
f 3 19 41
f 3 41 55
f 3 55 54
f 3 54 60
f 3 60 63
f 3 63 62
f 3 62 61
f 3 61 64
f 3 64 57
f 3 57 42
f 3 42 20
f 3 20 9
f 4 10 5
f 5 10 11
f 5 11 12
f 5 12 13
f 5 13 14
f 5 14 15
f 5 15 6
f 6 15 16
f 6 16 7
f 7 16 17
f 8 18 19
f 9 20 43
f 9 43 58
f 9 58 56
f 9 56 47
f 9 47 28
f 9 28 15
f 9 15 27
f 9 27 26
f 9 26 44
f 9 44 21
f 10 22 11
f 11 22 23
f 11 23 24
f 11 24 12
f 12 24 25
f 12 25 26
f 12 26 27
f 12 27 13
f 13 27 15
f 13 15 14
f 15 28 29
f 15 29 16
f 16 29 30
f 16 30 31
f 16 31 32
f 16 32 33
f 16 33 34
f 16 34 35
f 16 35 36
f 16 36 17
f 17 35 37
f 17 36 35
f 18 38 19
f 18 39 32
f 18 32 38
f 19 38 40
f 19 40 41
f 20 42 43
f 21 44 45
f 21 45 23
f 21 23 22
f 23 45 24
f 24 45 25
f 25 45 44
f 25 44 26
f 28 46 29
f 28 47 40
f 28 40 38
f 28 38 46
f 29 46 48
f 29 48 30
f 30 48 31
f 31 48 38
f 31 38 32
f 32 34 33
f 32 39 49
f 32 49 34
f 34 49 50
f 34 50 35
f 35 50 49
f 35 49 51
f 35 51 37
f 38 48 46
f 39 52 49
f 40 53 54
f 40 54 55
f 40 55 41
f 40 47 56
f 40 56 53
f 42 57 58
f 42 58 43
f 49 52 59
f 49 59 51
f 53 56 54
f 54 56 60
f 56 58 61
f 56 61 62
f 56 62 63
f 56 63 60
f 57 64 58
f 58 64 61
