# https://github.com/mikedh/trimesh
v 0.00197603 -0.06858165 0.07356330
v 0.00341355 -0.06890979 0.05947297
v 0.00708407 -0.07311857 0.07981697
v 0.00197603 -0.06843898 0.08237325
v 0.00197603 0.06873873 0.07356330
v 0.00814658 -0.07227682 0.05947297
v 0.00740794 -0.07286177 0.07356330
v 0.00341355 0.06898128 0.05947297
v 0.01131141 -0.07226255 0.05947297
v 0.01648763 -0.06865298 0.05947297
v 0.02087407 -0.06545716 0.05947297
v 0.01586830 -0.06732615 0.07356330
v 0.01308984 -0.06835338 0.08137759
v 0.01739673 -0.06254669 0.08804518
v 0.00198171 -0.06637026 0.08804518
v 0.00198739 -0.06826778 0.08530151
v 0.00197603 0.06871020 0.08237325
v 0.00198171 0.06872447 0.08585808
v 0.00693065 0.07263364 0.07990087
v 0.00808408 0.07193455 0.05947297
v 0.02845941 -0.05294496 0.08237325
v 0.03818685 -0.04832243 0.05947297
v 0.03677774 -0.04471287 0.08237325
v 0.02531164 -0.05532756 0.08562035
v 0.03373223 -0.04645345 0.08804518
v 0.00198171 0.06662721 0.08804518
v 0.00742498 0.06504356 0.08804518
v 0.00768067 0.07241963 0.07356330
v 0.01403873 0.06254683 0.08804518
v 0.01286257 0.06725496 0.08237325
v 0.01257847 0.06839633 0.08095527
v 0.01381145 0.06846766 0.07356330
v 0.01618081 0.06853900 0.05947297
v 0.01058981 0.07193455 0.05947297
v 0.03624363 -0.04397099 0.08804518
v 0.04959044 -0.03365590 0.05947297
v 0.04857906 -0.03302815 0.07356330
v 0.04795405 -0.03261441 0.08237325
v 0.04771541 -0.03245747 0.08562035
v 0.04739722 -0.03248601 0.08804518
v 0.02715258 0.05394380 0.08804518
v 0.01680582 0.06438729 0.08237325
v 0.01605580 0.06652734 0.07356330
v 0.02265819 0.06290351 0.05947297
v 0.05281209 -0.02774935 0.05947297
v 0.05477803 -0.01967419 0.08804518
v 0.02926625 0.05194641 0.08804518
v 0.02678325 0.05487116 0.08571264
v 0.03029467 0.05604106 0.05947297
v 0.05801672 -0.01600756 0.05947297
v 0.05984629 -0.00766134 0.05947297
v 0.05895423 -0.00057061 0.08804518
v 0.03202198 0.05445741 0.05947297
v 0.02921511 0.05468569 0.07356330
v 0.04802223 0.03204387 0.08804518
v 0.06002243 0.00684826 0.05947297
v 0.05871559 0.00125557 0.08804518
v 0.05098251 0.03237202 0.05947297
v 0.04862452 0.03210094 0.08237325
v 0.04953930 0.03220081 0.07356330
v 0.05559622 0.01943180 0.08804518
v 0.05864741 0.01546556 0.05947297
v 0.05606213 0.01777682 0.08804518
v 0.05473825 0.02568077 0.05947297
f 1 2 3
f 1 3 4
f 1 4 17
f 1 17 5
f 1 5 8
f 1 8 2
f 2 6 7
f 2 7 3
f 2 8 20
f 2 20 34
f 2 34 33
f 2 33 44
f 2 44 49
f 2 49 53
f 2 53 58
f 2 58 64
f 2 64 62
f 2 62 56
f 2 56 51
f 2 51 50
f 2 50 45
f 2 45 36
f 2 36 22
f 2 22 11
f 2 11 10
f 2 10 9
f 2 9 6
f 3 7 9
f 3 9 10
f 3 10 11
f 3 11 12
f 3 12 13
f 3 13 14
f 3 14 15
f 3 15 16
f 3 16 4
f 4 16 15
f 4 15 26
f 4 26 17
f 5 17 18
f 5 18 19
f 5 19 8
f 6 9 7
f 8 19 20
f 11 21 12
f 11 22 23
f 11 23 21
f 12 21 13
f 13 21 24
f 13 24 14
f 14 24 25
f 14 25 35
f 14 35 40
f 14 40 46
f 14 46 52
f 14 52 57
f 14 57 63
f 14 63 61
f 14 61 55
f 14 55 47
f 14 47 41
f 14 41 29
f 14 29 27
f 14 27 26
f 14 26 15
f 17 26 18
f 18 26 27
f 18 27 19
f 19 28 20
f 19 27 29
f 19 29 30
f 19 30 31
f 19 31 32
f 19 32 33
f 19 33 34
f 19 34 28
f 20 28 34
f 21 23 35
f 21 35 24
f 22 36 37
f 22 37 38
f 22 38 39
f 22 39 40
f 22 40 23
f 23 40 35
f 24 35 25
f 29 41 30
f 30 41 31
f 31 41 42
f 31 42 43
f 31 43 32
f 32 43 33
f 33 43 44
f 36 45 46
f 36 46 37
f 37 46 38
f 38 46 39
f 39 46 40
f 41 47 48
f 41 48 42
f 42 48 43
f 43 48 49
f 43 49 44
f 45 50 46
f 46 50 51
f 46 51 52
f 47 53 54
f 47 54 48
f 47 55 53
f 48 54 49
f 49 54 53
f 51 56 52
f 52 56 57
f 53 55 59
f 53 59 60
f 53 60 58
f 55 61 59
f 56 62 57
f 57 62 63
f 58 60 61
f 58 61 64
f 59 61 60
f 61 63 62
f 61 62 64
