# https://github.com/mikedh/trimesh
v -0.01109069 -0.07700329 -0.00494156
v -0.00492711 -0.07700329 -0.00466465
v -0.01159902 -0.07700329 -0.00481234
v -0.01967945 -0.07255304 0.00660553
v 0.00770717 -0.07255304 0.00234114
v 0.01240928 -0.07700329 -0.00387085
v -0.02035723 -0.07700329 -0.00244015
v -0.02070671 -0.07255304 0.00688244
v 0.01613708 -0.07255304 0.00354107
v 0.04254939 -0.07255304 0.01474664
v 0.04152213 -0.07700329 0.00920847
v -0.04212038 -0.07700329 0.01108222
v -0.04176031 -0.07255304 0.01753419
v 0.04447683 -0.07255304 0.01697114
v 0.04552528 -0.07700329 0.01380515
v 0.04175511 -0.07700329 0.00946692
v -0.05310257 -0.07700329 0.02703215
v -0.05236124 -0.07255304 0.02814902
v -0.04180267 -0.07255304 0.01757111
v 0.04606539 -0.07700329 0.01443281
v 0.05407168 -0.07255304 0.03443484
v 0.05419877 -0.07700329 0.02922896
v -0.05390743 -0.07700329 0.02935818
v -0.05399216 -0.07255304 0.03285646
v 0.05394460 -0.07255304 0.03784082
v 0.05406109 -0.07700329 0.03277339
v -0.05393920 -0.07700329 0.02945049
v -0.05241419 -0.07255304 0.04405280
v 0.05336213 -0.07255304 0.03938227
v 0.05369043 -0.07700329 0.03658550
v 0.05393401 -0.07700329 0.03593938
v -0.05224475 -0.07700329 0.04146832
v -0.05209648 -0.07700329 0.04251134
v -0.04317942 -0.07255304 0.06555936
v 0.03916048 -0.07255304 0.06973145
v 0.03962646 -0.07700329 0.06710082
v 0.04664785 -0.07700329 0.05209238
v 0.05258903 -0.07700329 0.03939150
v 0.05279025 -0.07700329 0.03895768
v -0.04289348 -0.07700329 0.06227338
v -0.03122292 -0.07700329 0.07564807
v -0.03189011 -0.07255304 0.07794641
v 0.02117808 -0.07255304 0.08579215
v 0.03961587 -0.07700329 0.06711005
v -0.02354493 -0.07700329 0.08080780
v -0.01750843 -0.07700329 0.08485989
v -0.01633290 -0.07255304 0.08838586
v 0.01171032 -0.07255304 0.08822895
v 0.00942281 -0.07700329 0.08547832
v 0.02262896 -0.07700329 0.08144469
v -0.01483967 -0.07700329 0.08533064
v -0.01274278 -0.07700329 0.08569985
v -0.01093183 -0.07255304 0.08933658
v 0.00228492 -0.07700329 0.08582907
v -0.00889848 -0.07700329 0.08637366
f 1 2 6
f 1 6 11
f 1 11 16
f 1 16 15
f 1 15 20
f 1 20 22
f 1 22 26
f 1 26 31
f 1 31 30
f 1 30 39
f 1 39 38
f 1 38 37
f 1 37 36
f 1 36 44
f 1 44 50
f 1 50 49
f 1 49 54
f 1 54 55
f 1 55 52
f 1 52 51
f 1 51 46
f 1 46 45
f 1 45 41
f 1 41 40
f 1 40 33
f 1 33 32
f 1 32 27
f 1 27 23
f 1 23 17
f 1 17 12
f 1 12 7
f 1 7 3
f 1 3 4
f 1 4 5
f 1 5 2
f 2 5 6
f 3 7 8
f 3 8 4
f 4 8 13
f 4 13 19
f 4 19 18
f 4 18 24
f 4 24 28
f 4 28 34
f 4 34 42
f 4 42 47
f 4 47 53
f 4 53 48
f 4 48 43
f 4 43 35
f 4 35 29
f 4 29 25
f 4 25 21
f 4 21 14
f 4 14 10
f 4 10 9
f 4 9 5
f 5 9 6
f 6 9 10
f 6 10 11
f 7 12 13
f 7 13 8
f 10 14 15
f 10 15 16
f 10 16 11
f 12 17 18
f 12 18 19
f 12 19 13
f 14 20 15
f 14 21 22
f 14 22 20
f 17 23 24
f 17 24 18
f 21 25 22
f 22 25 26
f 23 27 24
f 24 27 28
f 25 29 30
f 25 30 31
f 25 31 26
f 27 32 28
f 28 32 33
f 28 33 34
f 29 35 36
f 29 36 37
f 29 37 38
f 29 38 39
f 29 39 30
f 33 40 34
f 34 40 41
f 34 41 42
f 35 43 36
f 36 43 44
f 41 45 42
f 42 45 46
f 42 46 47
f 43 48 49
f 43 49 50
f 43 50 44
f 46 51 47
f 47 51 52
f 47 52 53
f 48 53 54
f 48 54 49
f 52 55 53
f 53 55 54
