# https://github.com/mikedh/trimesh
v -0.02671495 0.08599689 -0.00860583
v -0.03854581 0.08599689 -0.03606294
v -0.03319658 0.12285957 -0.02455149
v -0.02742674 0.12288486 -0.00139752
v -0.02741596 0.08735923 0.01146823
v -0.02701692 0.08599689 0.00018613
v -0.03945173 0.08599689 -0.03713327
v -0.05142280 0.12276922 -0.04601260
v -0.08645166 0.12289932 -0.05589673
v -0.11911866 0.12291016 0.04285716
v -0.02782578 0.12288486 0.00018613
v -0.03508391 0.12288125 0.02947809
v -0.02807382 0.08735923 0.01416589
v -0.13636347 0.08599689 0.00018613
v -0.03747812 0.08735923 0.03493893
v -0.04032530 0.08735923 0.03774581
v -0.05716029 0.08735923 0.05030574
v -0.07053338 0.08735923 0.05542802
v -0.06057905 0.08599689 -0.05124409
v -0.08094066 0.08599689 -0.05528511
v -0.10226210 0.08599689 -0.05065432
v -0.11720976 0.12289570 -0.04308559
v -0.13689192 0.12288125 0.00965523
v -0.12883572 0.08735923 0.02648555
v -0.12118933 0.09416009 0.03887074
v -0.12063931 0.09416009 0.03932945
v -0.10834470 0.08735923 0.04901699
v -0.10842019 0.09416009 0.04853643
v -0.08222404 0.12278368 0.05567922
v -0.13420652 0.12289570 -0.02087088
v -0.05460430 0.12274754 0.04722583
v -0.13679487 0.08599689 -0.00292655
v -0.08430550 0.08735923 0.05475087
v -0.10586420 0.08735923 0.04986888
v -0.12166386 0.08735923 0.03793148
v -0.13415260 0.08735923 0.01651405
v -0.13469184 0.09416009 0.01519253
v -0.13682721 0.09517190 0.00019705
v -0.07277660 0.09416009 0.05548263
v -0.11041537 0.08599689 -0.04725768
v -0.12134032 0.08599689 -0.03641244
v -0.12897592 0.08599689 -0.02644094
v -0.13606150 0.12288486 0.00018613
v -0.13682721 0.09517190 0.00018613
v -0.10134540 0.09416009 0.05098289
v -0.13622327 0.08599689 -0.00941403
v -0.13662230 0.08599689 -0.00493614
f 1 2 3
f 1 3 4
f 1 4 5
f 1 5 6
f 1 6 14
f 1 14 32
f 1 32 47
f 1 47 46
f 1 46 42
f 1 42 41
f 1 41 40
f 1 40 21
f 1 21 20
f 1 20 19
f 1 19 7
f 1 7 2
f 2 7 3
f 3 7 8
f 3 8 9
f 3 9 4
f 4 9 10
f 4 10 11
f 4 11 12
f 4 12 13
f 4 13 5
f 5 13 6
f 6 13 15
f 6 15 16
f 6 16 17
f 6 17 18
f 6 18 14
f 7 19 8
f 8 19 9
f 9 19 20
f 9 20 21
f 9 21 22
f 9 22 10
f 10 23 24
f 10 24 25
f 10 25 26
f 10 26 27
f 10 27 28
f 10 28 29
f 10 29 12
f 10 12 11
f 10 22 30
f 10 30 23
f 12 29 31
f 12 31 16
f 12 16 15
f 12 15 13
f 14 18 33
f 14 33 34
f 14 34 27
f 14 27 35
f 14 35 24
f 14 24 36
f 14 36 37
f 14 37 38
f 14 38 32
f 16 31 17
f 17 31 18
f 18 39 33
f 18 31 39
f 21 40 22
f 22 40 41
f 22 41 42
f 22 42 30
f 23 37 24
f 23 30 43
f 23 43 44
f 23 44 38
f 23 38 37
f 24 37 36
f 24 35 25
f 25 35 26
f 26 35 27
f 27 34 45
f 27 45 28
f 28 45 29
f 29 45 33
f 29 33 39
f 29 39 31
f 30 42 46
f 30 46 47
f 30 47 44
f 30 44 43
f 32 44 47
f 32 38 44
f 33 45 34
