# https://github.com/mikedh/trimesh
v 0.02459179 -0.04316021 0.01116802
v 0.04244154 -0.04237170 -0.00117717
v 0.02459179 -0.04312098 0.01718421
v 0.02459179 -0.04257163 -0.01781444
v 0.04244154 -0.04236236 -0.01856374
v 0.04244154 -0.04170651 0.01591841
v 0.02459179 -0.04268001 0.02411701
v 0.02459179 -0.02407343 -0.01658502
v 0.04244154 -0.02609141 -0.01988774
v 0.04244154 -0.03175859 -0.01989501
v 0.02459179 -0.04252305 0.02657587
v 0.04244154 -0.03811898 0.03259205
v 0.03380671 -0.04025095 0.02968944
v 0.03839669 -0.02407156 -0.01654864
v 0.04244154 -0.02407156 -0.01657047
v 0.02459179 -0.02407343 0.05442347
v 0.02459179 -0.03981746 0.03486904
v 0.04244154 -0.03725200 0.03525460
v 0.03380671 -0.03849269 0.03507273
v 0.03839669 -0.02407156 0.05065517
v 0.04244154 -0.02407156 0.04954942
v 0.02459179 -0.02722746 0.05130262
v 0.03380845 -0.03031984 0.04574474
v 0.03380845 -0.02407343 0.05190642
v 0.04244154 -0.03321416 0.04052877
v 0.03839669 -0.03185762 0.04297307
f 1 2 3
f 1 3 7
f 1 7 11
f 1 11 17
f 1 17 22
f 1 22 16
f 1 16 8
f 1 8 4
f 1 4 5
f 1 5 2
f 2 6 3
f 2 5 10
f 2 10 9
f 2 9 15
f 2 15 21
f 2 21 25
f 2 25 18
f 2 18 12
f 2 12 6
f 3 6 7
f 4 8 9
f 4 9 10
f 4 10 5
f 6 11 7
f 6 12 13
f 6 13 11
f 8 14 15
f 8 15 9
f 8 16 20
f 8 20 14
f 11 13 17
f 12 18 13
f 13 18 19
f 13 19 17
f 14 20 21
f 14 21 15
f 16 22 23
f 16 23 24
f 16 24 20
f 17 19 23
f 17 23 22
f 18 25 19
f 19 25 23
f 20 24 23
f 20 23 21
f 21 23 26
f 21 26 25
f 23 25 26
