# https://github.com/mikedh/trimesh
v -0.01495100 -0.06600661 0.06018415
v -0.01496346 -0.06600661 0.06014080
v -0.01585669 -0.06598055 0.05947246
v -0.01817698 -0.06600661 0.07072049
v -0.01654353 -0.07584007 0.06583797
v -0.01849548 -0.07552448 0.05947246
v -0.01987092 -0.07530058 0.05499456
v -0.02368942 -0.06598055 0.05358382
v -0.03202927 -0.06598055 0.05947246
v -0.01858267 -0.06600661 0.07106911
v -0.02331398 -0.07474371 0.07203730
v -0.03312891 -0.07315418 0.05757400
v -0.02585846 -0.06598055 0.05409501
v -0.03281041 -0.06768879 0.05947246
v -0.03271432 -0.06600661 0.06005952
v -0.03238870 -0.06600661 0.06335969
v -0.03030329 -0.06600661 0.06969088
v -0.02834244 -0.06600661 0.07033032
v -0.03199190 -0.07333756 0.06919594
f 1 2 3
f 1 3 4
f 1 4 5
f 1 5 2
f 2 5 6
f 2 6 7
f 2 7 3
f 3 7 8
f 3 8 13
f 3 13 9
f 3 9 10
f 3 10 4
f 4 10 5
f 5 10 11
f 5 11 6
f 6 12 7
f 6 11 12
f 7 12 8
f 8 12 13
f 9 13 14
f 9 14 15
f 9 15 16
f 9 16 17
f 9 17 18
f 9 18 10
f 10 18 11
f 11 18 17
f 11 17 19
f 11 19 12
f 12 19 15
f 12 15 14
f 12 14 13
f 15 19 16
f 16 19 17
