# https://github.com/mikedh/trimesh
v -0.05484025 0.00516806 -0.12236161
v -0.04949904 0.02188713 -0.13696382
v -0.05450843 0.00924094 -0.15059053
v -0.05238907 -0.02027057 -0.15059053
v -0.05202514 -0.02257704 -0.13696382
v -0.05162910 -0.02504102 -0.12236161
v -0.04830021 0.02365354 -0.12236161
v -0.05061224 0.02024447 -0.15059053
v -0.04841795 0.02332726 -0.13696382
v -0.04005826 -0.04013993 -0.15059053
v -0.04067909 -0.04354900 -0.12236161
v -0.04477865 0.02832273 -0.12236161
v -0.03797102 0.03701979 -0.15059053
v -0.02531909 -0.04959082 -0.15059053
v -0.02355296 -0.05716277 -0.12236161
v -0.03133464 0.04255531 -0.12236161
v -0.02998596 0.04548059 -0.15059053
v -0.02429152 -0.05009711 -0.15059053
v -0.01494708 -0.05899670 -0.12236161
v -0.02544754 0.04594188 -0.12236161
v -0.01459386 0.05335633 -0.13696382
v -0.01791204 0.05246749 -0.15059053
v 0.00633213 -0.05621769 -0.15059053
v -0.00398636 -0.05755656 -0.13696382
v 0.01047451 -0.06149443 -0.12236161
v -0.00473563 0.05322131 -0.12236161
v -0.01435837 0.05341257 -0.13599661
v -0.01382318 0.05342383 -0.13696382
v -0.00645895 0.05343508 -0.15059053
v 0.03767293 -0.04153506 -0.15059053
v 0.03098304 -0.05290988 -0.12236161
v -0.00021862 0.05316505 -0.12236161
v 0.00362406 0.05333382 -0.15059053
v 0.04929729 -0.02646990 -0.15059053
v 0.04627881 -0.03589828 -0.12236161
v 0.00632142 0.05330007 -0.15059053
v 0.01018550 0.05097110 -0.12236161
v 0.01251894 0.05199494 -0.15059053
v 0.04651430 -0.03540324 -0.12236161
v 0.05387853 -0.01295739 -0.15059053
v 0.02389711 0.04708948 -0.12236161
v 0.02570606 0.04803458 -0.12883092
v 0.02444300 0.04874339 -0.13696382
v 0.02233435 0.04991350 -0.15059053
v 0.05396416 -0.01293488 -0.13696382
v 0.05403909 -0.01290113 -0.12236161
v 0.05451006 -0.00042371 -0.15059053
v 0.03426912 0.04021509 -0.12236161
v 0.03173231 0.04348914 -0.15059053
v 0.04356004 0.03251937 -0.13696382
v 0.05418894 -0.00838946 -0.13696382
v 0.05436020 -0.00646553 -0.12236161
v 0.05434950 0.00803708 -0.15059053
v 0.05423176 0.00789081 -0.13696382
v 0.04365637 0.03188931 -0.12236161
v 0.04347441 0.03308193 -0.15059053
v 0.04472676 0.02944784 -0.12236161
v 0.04631092 0.02624128 -0.13696382
v 0.05409261 0.00772205 -0.12236161
v 0.04813058 0.02241592 -0.15059053
v 0.04682471 0.02505993 -0.13696382
f 1 2 3
f 1 3 4
f 1 4 5
f 1 5 6
f 1 6 11
f 1 11 15
f 1 15 19
f 1 19 25
f 1 25 31
f 1 31 35
f 1 35 39
f 1 39 46
f 1 46 52
f 1 52 59
f 1 59 57
f 1 57 55
f 1 55 48
f 1 48 41
f 1 41 37
f 1 37 32
f 1 32 26
f 1 26 20
f 1 20 16
f 1 16 12
f 1 12 7
f 1 7 2
f 2 8 3
f 2 7 9
f 2 9 8
f 3 8 13
f 3 13 17
f 3 17 22
f 3 22 29
f 3 29 33
f 3 33 36
f 3 36 38
f 3 38 44
f 3 44 49
f 3 49 56
f 3 56 60
f 3 60 53
f 3 53 47
f 3 47 40
f 3 40 34
f 3 34 30
f 3 30 23
f 3 23 18
f 3 18 14
f 3 14 10
f 3 10 4
f 4 10 11
f 4 11 5
f 5 11 6
f 7 12 9
f 8 9 13
f 9 12 13
f 10 14 15
f 10 15 11
f 12 16 17
f 12 17 13
f 14 18 15
f 15 18 19
f 16 20 21
f 16 21 17
f 17 21 22
f 18 23 24
f 18 24 19
f 19 24 25
f 20 26 27
f 20 27 21
f 21 27 28
f 21 28 22
f 22 28 29
f 23 30 31
f 23 31 25
f 23 25 24
f 26 32 33
f 26 33 28
f 26 28 27
f 28 33 29
f 30 34 35
f 30 35 31
f 32 36 33
f 32 37 38
f 32 38 36
f 34 39 35
f 34 40 39
f 37 41 42
f 37 42 43
f 37 43 38
f 38 43 44
f 39 40 45
f 39 45 46
f 40 47 45
f 41 48 42
f 42 49 43
f 42 48 50
f 42 50 49
f 43 49 44
f 45 47 51
f 45 51 52
f 45 52 46
f 47 52 51
f 47 53 54
f 47 54 52
f 48 55 50
f 49 50 56
f 50 55 57
f 50 57 58
f 50 58 56
f 52 54 59
f 53 60 61
f 53 61 54
f 54 61 57
f 54 57 59
f 56 58 60
f 57 61 58
f 58 61 60
